<?xml version="1.0" encoding="UTF-8" standalone="no"?>
<!-- Created with Inkscape (http://www.inkscape.org/) -->

<svg
   xmlns:dc="http://purl.org/dc/elements/1.1/"
   xmlns:cc="http://creativecommons.org/ns#"
   xmlns:rdf="http://www.w3.org/1999/02/22-rdf-syntax-ns#"
   xmlns:svg="http://www.w3.org/2000/svg"
   xmlns="http://www.w3.org/2000/svg"
   xmlns:sodipodi="http://sodipodi.sourceforge.net/DTD/sodipodi-0.dtd"
   xmlns:inkscape="http://www.inkscape.org/namespaces/inkscape"
   width="400.15625"
   height="400.15625"
   id="svg9167"
   version="1.1"
   inkscape:version="0.48.5 r10040"
   sodipodi:docname="config.svg"
   inkscape:export-filename="/home/banana/flySightAndroid/FloatSight/icons/mainmenu/drawing.png"
   inkscape:export-xdpi="44.98243"
   inkscape:export-ydpi="44.98243">
  <defs
     id="defs9169" />
  <sodipodi:namedview
     id="base"
     pagecolor="#ffffff"
     bordercolor="#666666"
     borderopacity="1.0"
     inkscape:pageopacity="0.0"
     inkscape:pageshadow="2"
     inkscape:zoom="0.7"
     inkscape:cx="703.84583"
     inkscape:cy="-19.814149"
     inkscape:document-units="px"
     inkscape:current-layer="layer1"
     showgrid="false"
     fit-margin-top="0"
     fit-margin-left="0"
     fit-margin-right="0"
     fit-margin-bottom="0"
     inkscape:window-width="1680"
     inkscape:window-height="1002"
     inkscape:window-x="0"
     inkscape:window-y="29"
     inkscape:window-maximized="1" />
  <metadata
     id="metadata9172">
    <rdf:RDF>
      <cc:Work
         rdf:about="">
        <dc:format>image/svg+xml</dc:format>
        <dc:type
           rdf:resource="http://purl.org/dc/dcmitype/StillImage" />
        <dc:title />
      </cc:Work>
    </rdf:RDF>
  </metadata>
  <g
     inkscape:label="Layer 1"
     inkscape:groupmode="layer"
     id="layer1"
     transform="translate(-399.91966,-115.14732)">
    <path
       style="opacity:0.95999995;fill:#4f4c4d;fill-opacity:1;stroke:#4f4c4d;stroke-width:0.18820788;stroke-miterlimit:4;stroke-opacity:1;stroke-dasharray:none;stroke-dashoffset:0"
       id="path5476-9-3-9-3-6"
       d="m 492.58448,271.43455 c -0.4259,3.7925 2.8791,7.5139 2.9182,11.2913 0.3205,30.99433 -3.6255,-9.8126 -2.2546,17.0807 1.8099,11.95216 1.3016,6.158 1.6579,17.38146 -0.1093,18.77506 0.09,1.8921 -0.3943,19.72996 -0.094,3.47788 0.048,6.95685 -0.2056,10.43386 -0.1582,2.16587 -0.6978,4.32703 -1.0305,6.49082 -0.6342,4.12592 0.4671,2.61934 -1.0342,4.4507 0.6009,0.7363 0.5277,0.4302 -2.2574,-0.54272 1.2662,0.13316 -4.4449,6.03888 -5.7112,5.9056 l 0,0 c -9.0219,-1.87134 -5.4235,-0.62433 -10.6524,-3.78518 -0.266,-2.61486 -0.4459,-5.23059 -0.7234,-7.84523 -0.4852,-4.57174 -1.2434,-8.54275 -1.1159,-13.11907 0.088,-3.15867 0.6869,-6.31451 0.7723,-9.47329 0.093,-3.42643 -0.1586,-6.85285 -0.2379,-10.27928 -0.4081,-5.14057 -1.5208,-15.78073 -1.085,-21.40073 0.1985,-2.5608 1.0329,-5.1122 1.4332,-7.6704 0.2816,-1.7996 0.3875,-3.6017 0.6122,-5.4022 1.0314,-8.2644 0.9627,-3.7765 0.5742,-11.0952 -0.4612,-0.4368 18.2732,-2.5881 18.7344,-2.1511 z"
       inkscape:connector-curvature="0" />
    <path
       style="opacity:0.95999995;fill:#4f4c4d;fill-opacity:1;stroke:#4f4c4d;stroke-width:0.18820788;stroke-miterlimit:4;stroke-opacity:1;stroke-dasharray:none;stroke-dashoffset:0"
       id="path5476-9-3-9-2-3-6"
       d="m 731.12844,271.06705 c -0.4259,3.7925 2.879,7.5139 2.9181,11.2912 0.3205,30.99443 -3.6255,-9.8125 -2.2546,17.0808 1.81,11.95216 1.3017,6.1579 1.6579,17.38136 -0.1092,18.77516 0.09,1.8921 -0.3942,19.72995 -0.094,3.47788 0.048,6.95697 -0.2056,10.43386 -0.1582,2.16598 -0.6979,4.32715 -1.0305,6.49083 -0.6343,4.12602 0.4671,2.61944 -1.0342,4.45069 0.6008,0.73642 0.5276,0.43021 -2.2574,-0.54272 1.2662,0.13317 -4.445,6.03888 -5.7112,5.90571 l 0,0 c -9.022,-1.87145 -5.4235,-0.62443 -10.6525,-3.78518 -0.266,-2.61486 -0.4459,-5.2307 -0.7234,-7.84533 -0.4851,-4.57163 -1.2434,-8.54264 -1.1159,-13.11897 0.088,-3.15878 0.6869,-6.3145 0.7724,-9.47339 0.093,-3.42632 -0.1587,-6.85275 -0.238,-10.27918 -0.408,-5.14057 -1.5208,-15.78083 -1.085,-21.40073 0.1985,-2.5608 1.0329,-5.1122 1.4333,-7.6704 0.2815,-1.7996 0.3875,-3.6017 0.6122,-5.4022 1.0314,-8.2644 0.9627,-3.7765 0.5742,-11.0952 -0.4612,-0.4368 18.2732,-2.588 18.7344,-2.1511 z"
       inkscape:connector-curvature="0" />
    <path
       style="opacity:0.95999995;fill:#4f4c4d;fill-opacity:1;stroke:#4f4c4d;stroke-width:0.18820788;stroke-miterlimit:4;stroke-opacity:1;stroke-dasharray:none;stroke-dashoffset:0"
       id="path5476-9-3-9-2-0-3-4"
       d="m 629.73964,181.56565 c 3.0535,2.2892 7.9365,1.3263 11.2126,3.207 26.8815,15.432 -10.2963,-1.8477 13.582,10.6002 11.2207,4.4973 5.9681,1.9989 15.824,7.38 16.1297,9.6096 1.6765,0.8817 16.8086,10.3393 2.9504,1.8436 6.0214,3.4844 8.8902,5.4652 1.787,1.2341 3.3765,2.7946 5.0733,4.178 3.2353,2.6379 2.4948,0.9249 3.3126,3.1472 0.9393,-0.1448 0.6382,-0.2368 -1.612,1.6709 0.7566,-1.024 2.9531,6.8924 2.1966,7.9165 l 0,0 c -6.1859,6.829 -3.2871,4.3589 -8.6619,7.2647 -2.389,-1.096 -4.7351,-2.2666 -7.1297,-3.3526 -4.187,-1.8988 -7.9945,-3.2577 -11.8749,-5.6868 -2.6782,-1.6772 -5.0954,-3.7925 -7.7751,-5.4671 -2.9067,-1.8165 -5.9879,-3.3363 -8.9818,-5.0046 -4.6384,-2.2534 -14.3748,-6.6868 -18.9986,-9.9108 -2.107,-1.4689 -3.8835,-3.4812 -5.8859,-5.1229 -1.4086,-1.1548 -2.9085,-2.1595 -4.3468,-3.2657 -6.6016,-5.0776 -2.7675,-2.7438 -9.2736,-6.1182 -0.6104,0.1762 7.03,-17.0642 7.6404,-17.2403 z"
       inkscape:connector-curvature="0" />
    <path
       style="opacity:0.95999995;fill:#4f4c4d;fill-opacity:1;stroke:#4f4c4d;stroke-width:0.18820788;stroke-miterlimit:4;stroke-opacity:1;stroke-dasharray:none;stroke-dashoffset:0"
       id="path5476-9-3-9-2-0-6-7-0"
       d="m 497.00728,226.78665 c 3.5209,-1.4725 5.165,-6.1702 8.4465,-8.0415 26.9254,-15.3553 -6.8104,7.9403 16.0208,-6.3379 9.5627,-7.3947 4.7473,-4.1323 14.3806,-9.9026 16.4579,-9.0362 1.6096,-0.9985 17.4308,-9.2517 3.0844,-1.6095 6.0551,-3.4256 9.2165,-4.8951 1.9694,-0.9153 4.1201,-1.4949 6.1726,-2.2567 3.9135,-1.4525 2.0615,-1.6821 4.3918,-1.2611 0.3506,-0.8832 0.1195,-0.6702 0.6238,2.2364 -0.4995,-1.1712 7.4383,0.9466 7.9378,2.1177 l 0,0 c 2.753,8.7933 2.0923,5.0426 1.8739,11.1487 -2.1554,1.5043 -4.3535,2.9336 -6.5031,4.4478 -3.7585,2.6476 -6.8594,5.2414 -10.92,7.3558 -2.8028,1.4591 -5.8513,2.4711 -8.6528,3.9329 -3.039,1.5854 -5.9106,3.4716 -8.8658,5.2075 -4.2932,2.8568 -13.0487,9.0043 -18.1711,11.3568 -2.3341,1.0721 -4.9691,1.5841 -7.3992,2.4784 -1.7092,0.6294 -3.3353,1.4133 -5.0178,2.0928 -7.7227,3.1184 -3.768,0.9954 -9.9737,4.8947 -0.1575,0.6155 -11.1489,-14.7074 -10.9916,-15.3229 z"
       inkscape:connector-curvature="0" />
    <path
       style="opacity:0.95999995;fill:#4f4c4d;fill-opacity:1;stroke:#4f4c4d;stroke-width:0.18820788;stroke-miterlimit:4;stroke-opacity:1;stroke-dasharray:none;stroke-dashoffset:0"
       id="path5476-9-3-9-2-0-9-3-0"
       d="m 629.74944,448.44342 c 3.0536,-2.28931 7.9365,-1.32633 11.2127,-3.20696 26.8814,-15.43209 -10.2964,1.84775 13.5819,-10.60035 11.2207,-4.49723 5.9681,-1.99883 15.824,-7.37996 16.1298,-9.60951 1.6765,-0.8817 16.8086,-10.33915 2.9505,-1.84359 6.0214,-3.48443 8.8903,-5.46524 1.787,-1.23413 3.3765,-2.79456 5.0732,-4.17802 3.2353,-2.63791 2.4948,-0.92486 3.3126,-3.1472 0.9393,0.14474 0.6382,0.23684 -1.612,-1.671 0.7567,1.02416 2.9531,-6.89229 2.1966,-7.91634 l 0,0 c -6.1858,-6.82904 -3.287,-4.35893 -8.6618,-7.2647 -2.3891,1.09593 -4.7352,2.26658 -7.1298,3.35258 -4.187,1.89876 -7.9945,3.25764 -11.8749,5.68678 -2.6781,1.67722 -5.0954,3.79251 -7.7751,5.4671 -2.9067,1.81651 -5.9879,3.33631 -8.9818,5.00446 -4.6384,2.25358 -14.3747,6.68691 -18.9986,9.91091 -2.107,1.46889 -3.8835,3.48127 -5.8859,5.12298 -1.4086,1.15471 -2.9085,2.15942 -4.3468,3.26563 -6.6016,5.07764 -2.7675,2.74376 -9.2736,6.11808 -0.6103,-0.17621 7.03,17.06419 7.6404,17.2404 z"
       inkscape:connector-curvature="0" />
    <path
       style="opacity:0.95999995;fill:#4f4c4d;fill-opacity:1;stroke:#4f4c4d;stroke-width:0.18820788;stroke-miterlimit:4;stroke-opacity:1;stroke-dasharray:none;stroke-dashoffset:0"
       id="path5476-9-3-9-2-0-6-2-2-4"
       d="m 497.01708,403.22243 c 3.5209,1.4725 5.165,6.1702 8.4465,8.04154 26.9254,15.35518 -6.8104,-7.94027 16.0208,6.33788 9.5628,7.39471 4.7473,4.13225 14.3806,9.9025 16.4579,9.03631 1.6096,0.99849 17.4308,9.25185 3.0844,1.60938 6.0551,3.42545 9.2165,4.8951 1.9694,0.91525 4.1201,1.49478 6.1726,2.25665 3.9135,1.4525 2.0615,1.68213 4.3918,1.26111 0.3507,0.88323 0.1195,0.6701 0.6238,-2.23644 -0.4995,1.1712 7.4383,-0.9466 7.9379,-2.1178 l 0,0 c 2.7529,-8.79324 2.0922,-5.04247 1.8738,-11.14853 -2.1554,-1.50429 -4.3535,-2.93374 -6.503,-4.44786 -3.7586,-2.64752 -6.8595,-5.2414 -10.92,-7.35592 -2.8029,-1.45895 -5.8514,-2.47099 -8.6529,-3.93277 -3.0389,-1.58535 -5.9105,-3.47155 -8.8658,-5.20743 -4.2932,-2.85683 -13.0487,-9.0043 -18.171,-11.35687 -2.3341,-1.07211 -4.9692,-1.58403 -7.3992,-2.47852 -1.7092,-0.62924 -3.3353,-1.41317 -5.0179,-2.09267 -7.7227,-3.11836 -3.7679,-0.99543 -9.9736,-4.89466 -0.1576,-0.61548 -11.149,14.70737 -10.9917,15.32284 z"
       inkscape:connector-curvature="0" />
    <path
       style="opacity:0.95999995;fill:#4f4c4d;fill-opacity:1;stroke:#4f4c4d;stroke-width:0.25647214;stroke-miterlimit:4;stroke-opacity:1;stroke-dasharray:none;stroke-dashoffset:0"
       id="path5740-6-6-6"
       d="m 562.40818,199.90485 c -0.106,-8.9461 -0.2616,-1.7101 0.7022,-11.3337 0.2037,-2.0364 0.3423,-4.0806 0.4529,-6.1271 0.1194,-2.2073 -0.011,-4.4409 0.2373,-6.6335 0.2686,-2.381 0.9284,-4.7076 1.3102,-7.0734 0.4035,-2.5025 0.6977,-5.0201 1.0461,-7.5302 -1.3387,-6.3139 1.849,-11.8456 3.4262,-17.7251 0.1142,-0.4268 -0.7739,0.808 -0.5247,1.2425 0.3762,0.6557 1.4577,1.1027 2.1866,1.654 -0.9457,-0.6448 12.0566,-7.8438 13.0022,-7.1991 l 0,0 c 1.3579,1.0089 3.4422,1.8098 4.0738,3.0266 1.1282,2.1732 0.7151,4.4264 0.9417,6.6351 0.155,1.5104 0.3235,3.0282 0.2025,4.5173 -0.172,2.1142 -0.719,4.18 -1.0786,6.2699 -0.1697,2.498 -0.3392,4.9959 -0.5089,7.4938 -0.3756,2.2713 -2.0415,12.1962 -2.3525,14.6046 -0.2833,2.1655 -0.4735,4.343 -0.6474,6.5218 -0.1631,2.0461 -0.025,4.1282 -0.3615,6.1522 -0.6046,3.6365 -2.3692,7.0815 -2.9261,10.7279 -0.4191,0.8035 -19.6014,-4.4202 -19.1823,-5.2237 z"
       inkscape:connector-curvature="0" />
    <path
       style="opacity:0.95999995;fill:#4f4c4d;fill-opacity:1;stroke:#4f4c4d;stroke-width:0.25647214;stroke-miterlimit:4;stroke-opacity:1;stroke-dasharray:none;stroke-dashoffset:0"
       id="path5740-6-9-52-2"
       d="m 623.99024,201.60545 c -2.3567,-8.6307 -0.684,-1.5889 -2.1763,-11.1448 -0.3159,-2.0221 -0.6969,-4.0352 -1.1055,-6.0437 -0.4406,-2.1661 -1.1296,-4.2947 -1.4418,-6.4792 -0.3401,-2.3718 -0.288,-4.7896 -0.5146,-7.1753 -0.24,-2.5234 -0.5898,-5.0339 -0.885,-7.5508 -2.8865,-5.7727 -1.1955,-11.9294 -1.1507,-18.0165 0,-0.4417 -0.5454,0.977 -0.1947,1.3347 0.5293,0.5396 1.6886,0.6997 2.5328,1.0496 -1.0777,-0.3857 9.691,-10.6288 10.7686,-10.243 l 0,0 c 1.5683,0.634 3.7873,0.8841 4.705,1.9023 1.6393,1.8187 1.8075,4.1035 2.5832,6.1838 0.5306,1.4226 1.0762,2.849 1.3343,4.3205 0.3662,2.0892 0.3575,4.2263 0.536,6.3394 0.4653,2.46 0.9306,4.9201 1.3958,7.3801 0.2088,2.2927 1.0975,12.3172 1.4035,14.7262 0.2715,2.167 0.6362,4.3222 1.0169,6.4744 0.3576,2.0213 1.0158,4.0014 1.2003,6.0448 0.3313,3.6716 -0.5083,7.45 -0.1284,11.1192 -0.2031,0.8831 -20.0827,0.6616 -19.8798,-0.2217 z"
       inkscape:connector-curvature="0" />
    <path
       style="opacity:0.95999995;fill:#4f4c4d;fill-opacity:1;stroke:#4f4c4d;stroke-width:0.25647214;stroke-miterlimit:4;stroke-opacity:1;stroke-dasharray:none;stroke-dashoffset:0"
       id="path5740-6-9-5-6-6"
       d="m 685.96534,221.65985 c 7.5896,-4.7372 1.3255,-1.1116 10.0496,-5.2867 1.8461,-0.8837 3.6648,-1.827 5.4712,-2.7954 1.9482,-1.0444 3.789,-2.316 5.7917,-3.2427 2.174,-1.0073 4.5049,-1.6521 6.7248,-2.5546 2.3481,-0.9549 4.6522,-2.0114 6.978,-3.0173 4.7,-4.4235 11.083,-4.5728 16.9263,-6.2789 0.4228,-0.1279 -1.0926,-0.2416 -1.3343,0.197 -0.3648,0.6621 -0.1851,1.8185 -0.2776,2.7276 0.06,-1.143 12.9651,6.2284 12.9053,7.3714 l 0,0 c -0.1568,1.6843 0.2408,3.8816 -0.4703,5.0532 -1.2712,2.0928 -3.4112,2.9102 -5.1808,4.251 -1.2101,0.917 -2.4197,1.8494 -3.7549,2.5195 -1.896,0.9511 -3.9455,1.5567 -5.9181,2.3348 -2.2226,1.1527 -4.4452,2.3052 -6.6679,3.4575 -2.136,0.8589 -11.4824,4.5904 -13.7019,5.5757 -1.9975,0.8827 -3.9571,1.8512 -5.9092,2.8343 -1.8332,0.9233 -3.5408,2.1227 -5.445,2.8866 -3.4215,1.3722 -7.2819,1.6537 -10.6872,3.0718 -0.9042,0.059 -6.4041,-19.0457 -5.4998,-19.1051 z"
       inkscape:connector-curvature="0" />
    <path
       style="opacity:0.95999995;fill:#4f4c4d;fill-opacity:1;stroke:#4f4c4d;stroke-width:0.25647214;stroke-miterlimit:4;stroke-opacity:1;stroke-dasharray:none;stroke-dashoffset:0"
       id="path5740-6-9-5-4-58-7"
       d="m 712.21734,277.64915 c 6.2062,-6.4442 1.0146,-1.4012 8.458,-7.5767 1.575,-1.3069 3.1089,-2.6653 4.6248,-4.0448 1.6349,-1.4877 3.1103,-3.1696 4.8266,-4.5564 1.8631,-1.5068 3.9665,-2.7003 5.8994,-4.1167 2.0446,-1.4983 4.0217,-3.0846 6.0322,-4.6271 3.4801,-5.4355 9.6342,-7.1361 14.8854,-10.215 0.3789,-0.2271 -1.1185,0.032 -1.2461,0.5163 -0.1923,0.7309 0.2637,1.8087 0.3956,2.7129 -0.2203,-1.1231 14.0922,2.8805 14.3128,4.0036 l 0,0 c 0.2585,1.6717 1.1797,3.7058 0.7755,5.0155 -0.7228,2.3394 -2.5989,3.6538 -3.9884,5.3856 -0.9501,1.1842 -1.8959,2.3833 -3.0276,3.3586 -1.6069,1.3845 -3.447,2.4715 -5.1705,3.7069 -1.8746,1.6595 -3.7493,3.3191 -5.624,4.9785 -1.8623,1.3535 -10.0173,7.2506 -11.9297,8.7471 -1.7222,1.3429 -3.3866,2.7599 -5.0401,4.1891 -1.5529,1.3424 -2.9167,2.9218 -4.5774,4.1268 -2.9838,2.1647 -6.6591,3.3786 -9.6161,5.584 -0.8625,0.2778 -10.8531,-16.9104 -9.9905,-17.1885 z"
       inkscape:connector-curvature="0" />
    <path
       style="opacity:0.95999995;fill:#4f4c4d;fill-opacity:1;stroke:#4f4c4d;stroke-width:0.25647214;stroke-miterlimit:4;stroke-opacity:1;stroke-dasharray:none;stroke-dashoffset:0"
       id="path5740-6-9-5-8-7-5"
       d="m 723.84774,338.9818 c 7.9411,4.121 1.6316,0.57495 9.6664,5.95858 1.7003,1.1392 3.4382,2.22432 5.1913,3.28616 1.8907,1.14521 3.9223,2.08241 5.7395,3.33434 1.9737,1.35855 3.7151,3.03654 5.6221,4.48784 2.0173,1.53487 4.0995,2.98039 6.1494,4.47014 6.1999,1.79356 9.5779,7.21161 14.0209,11.37249 0.3253,0.29889 -0.3482,-1.06338 -0.8488,-1.04809 -0.7555,0.0229 -1.6593,0.76635 -2.489,1.14957 1.0144,-0.53016 1.2391,14.33015 0.2249,14.86042 l 0,0 c -1.5295,0.72254 -3.2183,2.18335 -4.5889,2.16762 -2.4483,-0.0284 -4.2414,-1.45448 -6.2962,-2.29511 -1.4054,-0.57484 -2.8237,-1.14126 -4.0802,-1.94945 -1.7837,-1.14771 -3.3483,-2.60349 -5.0222,-3.90524 -2.1236,-1.32622 -4.2471,-2.65266 -6.3705,-3.97909 -1.8266,-1.40138 -9.7963,-7.54645 -11.7743,-8.95525 -1.7766,-1.26996 -3.6078,-2.46367 -5.4477,-3.64339 -1.728,-1.10784 -3.6296,-1.96704 -5.2564,-3.21723 -2.9229,-2.24648 -5.1304,-5.4258 -8.0846,-7.63504 -0.511,-0.74821 13.1331,-15.2077 13.6446,-14.45949 z"
       inkscape:connector-curvature="0" />
    <path
       style="opacity:0.95999995;fill:#4f4c4d;fill-opacity:1;stroke:#4f4c4d;stroke-width:0.25647214;stroke-miterlimit:4;stroke-opacity:1;stroke-dasharray:none;stroke-dashoffset:0"
       id="path5740-6-9-5-7-96-6"
       d="m 693.14544,388.30783 c 8.4302,2.9959 1.695,0.34641 10.3907,4.58015 1.8402,0.8958 3.7102,1.73293 5.5922,2.54494 2.0295,0.8757 4.1702,1.52614 6.1415,2.51763 2.1411,1.07583 4.0958,2.49961 6.1833,3.6766 2.2084,1.24428 4.4689,2.39145 6.7033,3.58669 6.3871,0.92846 10.4744,5.83328 15.445,9.34721 0.3631,0.25159 -0.4905,-1.00569 -0.9843,-0.92212 -0.7452,0.12617 -1.5389,0.98625 -2.3083,1.47927 0.9323,-0.66388 3.1882,14.0259 2.2559,14.68989 l 0,0 c -1.4164,0.92518 -2.8894,2.60316 -4.2492,2.77522 -2.4292,0.30643 -4.4005,-0.86062 -6.5511,-1.4123 -1.4706,-0.377 -2.9531,-0.74406 -4.3084,-1.37276 -1.9239,-0.89284 -3.6731,-2.12085 -5.5094,-3.18128 -2.285,-1.02329 -4.5699,-2.04679 -6.855,-3.0703 -2.0011,-1.13821 -10.7365,-6.13501 -12.8887,-7.26 -1.9337,-1.01499 -3.911,-1.94683 -5.8951,-2.86372 -1.8632,-0.86105 -3.8644,-1.45206 -5.6471,-2.46792 -3.2027,-1.82535 -5.8244,-4.6729 -9.053,-6.45707 -0.6086,-0.6713 10.9289,-16.86154 11.5379,-16.19035 z"
       inkscape:connector-curvature="0" />
    <path
       style="opacity:0.95999995;fill:#4f4c4d;fill-opacity:1;stroke:#4f4c4d;stroke-width:0.25647214;stroke-miterlimit:4;stroke-opacity:1;stroke-dasharray:none;stroke-dashoffset:0"
       id="path5740-6-9-5-7-1-0-9"
       d="m 618.12644,482.4973 c 0.036,-8.94662 -0.2339,-1.71415 0.882,-11.32104 0.236,-2.03302 0.4069,-4.07468 0.5501,-6.11939 0.1545,-2.20497 0.06,-4.44032 0.3425,-6.62869 0.3063,-2.37659 1.0027,-4.69234 1.4222,-7.05179 0.443,-2.49578 0.7773,-5.00849 1.1653,-7.51279 -1.2384,-6.33417 2.0367,-11.81482 3.707,-17.66842 0.1172,-0.42594 -0.7866,0.79573 -0.5443,1.23412 0.3658,0.66147 1.4401,1.12554 2.1601,1.68837 -0.9351,-0.65995 12.1795,-7.65176 13.1147,-6.99182 l 0,0 c 1.342,1.03017 3.4129,1.86468 4.0254,3.09083 1.0933,2.19078 0.6447,4.43726 0.8361,6.64923 0.1307,1.51248 0.2752,3.03282 0.1309,4.51996 -0.2055,2.11091 -0.7852,4.16808 -1.1779,6.2519 -0.2091,2.4948 -0.4184,4.98982 -0.6278,7.48472 -0.4116,2.26517 -2.2346,12.16221 -2.5838,14.56546 -0.3174,2.16063 -0.5423,4.33501 -0.7506,6.51071 -0.1957,2.04329 -0.091,4.12733 -0.4591,6.14572 -0.6623,3.62645 -2.4813,7.04305 -3.096,10.68021 -0.432,0.79649 -19.5289,-4.73058 -19.0971,-5.5274 z"
       inkscape:connector-curvature="0" />
    <path
       style="opacity:0.95999995;fill:#4f4c4d;fill-opacity:1;stroke:#4f4c4d;stroke-width:0.25647214;stroke-miterlimit:4;stroke-opacity:1;stroke-dasharray:none;stroke-dashoffset:0"
       id="path5740-6-9-5-7-7-4-8"
       d="m 581.34198,428.21062 c 2.2032,8.6711 0.6557,1.60096 1.9783,11.18174 0.2799,2.02735 0.6253,4.04693 0.9981,6.06237 0.4022,2.17362 1.0532,4.31403 1.3267,6.5036 0.298,2.37758 0.203,4.79394 0.387,7.18343 0.1955,2.52724 0.5006,5.04367 0.7513,7.56534 2.7836,5.82302 0.9836,11.94875 0.8309,18.03406 -0.011,0.44167 0.5625,-0.96724 0.22,-1.3307 -0.5195,-0.54895 -1.6759,-0.72963 -2.5137,-1.0944 1.0705,0.40508 -9.878,10.45539 -10.9486,10.05042 l 0,0 c -1.5569,-0.6618 -3.7708,-0.95162 -4.6706,-1.9855 -1.6066,-1.84764 -1.7343,-4.13499 -2.4729,-6.22864 -0.5054,-1.43164 -1.0255,-2.86754 -1.2575,-4.34353 -0.3292,-2.0953 -0.2826,-4.2321 -0.4236,-6.34782 -0.4217,-2.46782 -0.843,-4.93585 -1.2646,-7.40388 -0.1682,-2.29598 -0.8789,-12.33449 -1.1422,-14.74867 -0.2329,-2.17143 -0.5594,-4.33282 -0.9018,-6.49147 -0.3219,-2.02713 -0.9447,-4.01875 -1.0929,-6.0651 -0.2661,-3.67671 0.6404,-7.43983 0.3256,-11.11511 0.2187,-0.8793 20.0914,-0.30534 19.8727,0.57418 z"
       inkscape:connector-curvature="0" />
    <path
       style="opacity:0.95999995;fill:#4f4c4d;fill-opacity:1;stroke:#4f4c4d;stroke-width:0.25647214;stroke-miterlimit:4;stroke-opacity:1;stroke-dasharray:none;stroke-dashoffset:0"
       id="path5740-6-9-5-7-2-1-7"
       d="m 523.14468,407.41401 c -7.8139,4.3574 -1.3789,1.04502 -10.298,4.78509 -1.8871,0.7918 -3.7503,1.64444 -5.6022,2.52265 -1.9972,0.94725 -3.8986,2.12654 -5.9443,2.95351 -2.2212,0.89886 -4.5808,1.42804 -6.8427,2.21994 -2.3921,0.83834 -4.7457,1.77969 -7.1183,2.67003 -4.9122,4.18655 -11.2946,4.02115 -17.2149,5.43749 -0.4285,0.10706 1.0794,0.29496 1.3423,-0.13196 0.397,-0.64301 0.2747,-1.807 0.411,-2.71056 -0.1164,1.13876 -12.6426,-6.85963 -12.5263,-7.99827 l 0,0 c 0.2391,-1.67482 -0.049,-3.88875 0.7186,-5.0239 1.3728,-2.02756 3.5504,-2.73874 5.3841,-3.99067 1.2538,-0.85614 2.5077,-1.72791 3.8743,-2.33148 1.9406,-0.85636 4.0174,-1.36041 6.026,-2.04056 2.2765,-1.04142 4.5534,-2.08295 6.8304,-3.12448 2.1755,-0.7528 11.6943,-4.01919 13.9597,-4.89401 2.0386,-0.78306 4.0435,-1.65395 6.0417,-2.5397 1.8764,-0.83178 3.6411,-1.94552 5.5806,-2.61474 3.485,-1.2019 7.3545,-1.29279 10.8256,-2.54134 0.906,-0.0197 5.4579,19.33799 4.5517,19.35263 z"
       inkscape:connector-curvature="0" />
    <path
       style="opacity:0.95999995;fill:#4f4c4d;fill-opacity:1;stroke:#4f4c4d;stroke-width:0.25647214;stroke-miterlimit:4;stroke-opacity:1;stroke-dasharray:none;stroke-dashoffset:0"
       id="path5740-6-9-5-7-72-0-2"
       d="m 491.07958,359.1697 c -6.6632,5.97039 -1.1149,1.32283 -8.9922,6.93424 -1.6668,1.18759 -3.2965,2.42947 -4.9097,3.69375 -1.7398,1.36347 -3.3349,2.93232 -5.1486,4.18928 -1.9689,1.36576 -4.1542,2.40128 -6.1862,3.67157 -2.149,1.34424 -4.2377,2.78069 -6.3561,4.17125 -3.8703,5.16493 -10.1327,6.40845 -15.5961,9.09279 -0.3946,0.1986 1.1178,0.0502 1.2806,-0.42332 0.2456,-0.71478 -0.13,-1.82317 -0.195,-2.7347 0.1371,1.13625 -13.8424,-3.90885 -13.9795,-5.0452 l 0,0 c -0.135,-1.68639 -0.9041,-3.78256 -0.4049,-5.05896 0.8929,-2.27992 2.8607,-3.45287 4.3738,-5.07765 1.0346,-1.11123 2.0659,-2.23753 3.2663,-3.1271 1.7043,-1.26242 3.6195,-2.2112 5.429,-3.31664 1.9916,-1.51717 3.9833,-3.03424 5.975,-4.55142 1.9568,-1.21293 10.5232,-6.49432 12.5406,-7.84621 1.8163,-1.2126 3.5803,-2.50342 5.3346,-3.80725 1.6473,-1.2244 3.1236,-2.69919 4.8683,-3.77885 3.1348,-1.93951 6.8896,-2.87988 10.0007,-4.86178 0.8806,-0.21335 9.5802,17.66274 8.6995,17.87642 z"
       inkscape:connector-curvature="0" />
    <path
       style="opacity:0.95999995;fill:#4f4c4d;fill-opacity:1;stroke:#4f4c4d;stroke-width:0.25647214;stroke-miterlimit:4;stroke-opacity:1;stroke-dasharray:none;stroke-dashoffset:0"
       id="path5740-6-9-5-7-26-4-8"
       d="m 480.41038,290.71605 c -7.9401,-4.1227 -1.6316,-0.5754 -9.6651,-5.9606 -1.7001,-1.1396 -3.4378,-2.225 -5.1907,-3.2873 -1.8904,-1.1455 -3.9217,-2.0831 -5.7387,-3.3354 -1.9735,-1.359 -3.7147,-3.0372 -5.6211,-4.4892 -2.0171,-1.5351 -4.0991,-2.9812 -6.1487,-4.4713 -6.1997,-1.7949 -9.5763,-7.2135 -14.0186,-11.3754 -0.3251,-0.2989 0.3481,1.0634 0.8487,1.0484 0.7555,-0.023 1.6596,-0.7662 2.4892,-1.1491 -1.0144,0.5299 -1.2361,-14.3304 -0.2218,-14.8605 l 0,0 c 1.5298,-0.7223 3.219,-2.1827 4.5895,-2.1667 2.4482,0.03 4.2411,1.4554 6.2958,2.2966 1.405,0.575 2.8232,1.1416 4.0798,1.9501 1.7833,1.1481 3.3477,2.6042 5.0215,3.9062 2.1231,1.3267 4.2462,2.6537 6.3695,3.9807 1.8261,1.4017 9.7946,7.5483 11.7723,8.9575 1.7763,1.2704 3.6074,2.4644 5.4472,3.6445 1.7275,1.1083 3.629,1.9679 5.2557,3.2184 2.9223,2.2471 5.1291,5.4269 8.0827,7.6367 0.5109,0.7483 -13.1361,15.205 -13.6474,14.4567 z"
       inkscape:connector-curvature="0" />
    <path
       style="opacity:0.95999995;fill:#4f4c4d;fill-opacity:1;stroke:#4f4c4d;stroke-width:0.25647214;stroke-miterlimit:4;stroke-opacity:1;stroke-dasharray:none;stroke-dashoffset:0"
       id="path5740-6-9-5-7-10-8-2"
       d="m 515.74938,239.29915 c -8.6705,-2.2061 -1.7198,-0.1887 -10.7686,-3.6028 -1.9151,-0.7224 -3.8543,-1.3835 -5.803,-2.0187 -2.1016,-0.6848 -4.2932,-1.1351 -6.3475,-1.9407 -2.2311,-0.8738 -4.3089,-2.1114 -6.496,-3.0909 -2.3137,-1.0355 -4.6703,-1.9694 -7.0054,-2.9536 -6.4454,-0.3357 -10.9675,-4.8428 -16.2408,-7.8835 -0.3848,-0.2171 0.5811,0.9562 1.0651,0.8274 0.7304,-0.1942 1.4414,-1.1239 2.1622,-1.6858 -0.8672,0.7471 -4.4677,-13.6722 -3.6006,-14.4194 l 0,0 c 1.3251,-1.0518 2.6372,-2.8584 3.9753,-3.155 2.3907,-0.5291 4.4612,0.4513 6.6534,0.8024 1.4991,0.2398 3.0091,0.4686 4.4167,0.9697 1.9979,0.7116 3.8529,1.7732 5.7791,2.6599 2.3696,0.8082 4.7392,1.6168 7.1088,2.4252 2.0976,0.9489 11.2564,5.1193 13.5032,6.041 2.019,0.8324 4.0737,1.578 6.1339,2.3082 1.9347,0.6856 3.9819,1.0896 5.8505,1.9368 3.3573,1.5223 6.2304,4.116 9.6098,5.595 0.6679,0.6123 -9.3281,17.7972 -9.9964,17.185 z"
       inkscape:connector-curvature="0" />
    <path
       style="opacity:0.95999995;fill:#4f4c4d;fill-opacity:1;stroke:#4f4c4d;stroke-width:0.25647214;stroke-miterlimit:4;stroke-opacity:1;stroke-dasharray:none;stroke-dashoffset:0"
       id="path5740-6-9-5-7-6-70-9"
       d="m 571.82618,129.20935 c 8.8667,-1.1946 1.6656,-0.4678 11.3348,-0.6833 2.0462,-0.046 4.092,-0.1573 6.137,-0.2967 2.2052,-0.1502 4.40616,-0.5517 6.61266,-0.5724 2.3962,-0.023 4.7857,0.3479 7.1805,0.439 2.5329,0.096 5.0678,0.081 7.6015,0.121 6.1038,-2.0977 11.9827,0.3925 18.0105,1.2419 0.4379,0.058 -0.8965,-0.6696 -1.2972,-0.3693 -0.6049,0.4532 -0.9169,1.5812 -1.3754,2.3716 0.5252,-1.0169 9.254,11.0116 8.729,12.0286 l 0,0 c -0.8358,1.4709 -1.3775,3.637 -2.5078,4.4123 -2.0197,1.3842 -4.3065,1.2489 -6.4711,1.7425 -1.4801,0.3379 -2.9662,0.6901 -4.459,0.7514 -2.1193,0.086 -4.2365,-0.2046 -6.3545,-0.307 -2.5,0.1359 -4.9999,0.2717 -7.5,0.4075 -2.3003,-0.096 -12.354,-0.5408 -14.78246,-0.556 -2.1837,-0.017 -4.3683,0.059 -6.552,0.1518 -2.0507,0.087 -4.1005,0.4776 -6.1505,0.3903 -3.6829,-0.1572 -7.3172,-1.4891 -11.0044,-1.5978 -0.8484,-0.3183 1.9999,-19.9937 2.8485,-19.6757 z"
       inkscape:connector-curvature="0" />
    <path
       style="opacity:0.95999995;fill:#4f4c4d;fill-opacity:1;stroke:#4f4c4d;stroke-width:0.25647214;stroke-miterlimit:4;stroke-opacity:1;stroke-dasharray:none;stroke-dashoffset:0"
       id="path5740-6-9-5-7-15-8-9"
       d="m 745.65174,195.91815 c 5.4954,7.06 1.2425,1.2037 6.296,9.4501 1.0695,1.745 2.1958,3.4565 3.3455,5.1532 1.2399,1.83 2.6948,3.5297 3.8234,5.426 1.2263,2.0584 2.1083,4.3102 3.2352,6.4252 1.1924,2.2368 2.481,4.4197 3.7218,6.6292 4.885,4.2181 5.6926,10.5515 7.9929,16.1874 0.1708,0.4074 0.1274,-1.1117 -0.3338,-1.3068 -0.6961,-0.2945 -1.8278,0 -2.7416,0.011 1.143,-0.058 -4.8564,13.539 -5.9996,13.5974 l 0,0 c -1.6916,0.018 -3.8359,0.6403 -5.0748,0.055 -2.2127,-1.0483 -3.2469,-3.0925 -4.7631,-4.7143 -1.0371,-1.1088 -2.0893,-2.2156 -2.8938,-3.4746 -1.1417,-1.7876 -1.9557,-3.7637 -2.9334,-5.6453 -1.3759,-2.0917 -2.7516,-4.1835 -4.1275,-6.2754 -1.0748,-2.036 -5.7514,-10.947 -6.9606,-13.053 -1.0841,-1.8957 -2.2499,-3.7447 -3.4294,-5.5849 -1.1076,-1.7281 -2.4767,-3.3027 -3.4332,-5.118 -1.7182,-3.2615 -2.3967,-7.0721 -4.1589,-10.3128 -0.1519,-0.8933 18.2828,-8.3363 18.4351,-7.443 z"
       inkscape:connector-curvature="0" />
    <path
       style="opacity:0.95999995;fill:#4f4c4d;fill-opacity:1;stroke:#4f4c4d;stroke-width:0.25647214;stroke-miterlimit:4;stroke-opacity:1;stroke-dasharray:none;stroke-dashoffset:0"
       id="path5740-6-9-5-7-9-6-6"
       d="m 728.97724,421.41599 c 3.644,-8.17099 0.4775,-1.6628 5.3762,-10.00203 1.0366,-1.76472 2.0169,-3.56385 2.9732,-5.37675 1.0312,-1.95514 1.8465,-4.03863 2.9886,-5.92669 1.2395,-2.05061 2.8113,-3.88842 4.1475,-5.87786 1.4126,-2.10458 2.7325,-4.2688 4.0984,-6.40332 1.4234,-6.29527 6.6319,-9.98782 10.5226,-14.66935 0.2793,-0.34237 -1.0408,0.41065 -0.9959,0.90946 0.068,0.7528 0.8632,1.61112 1.2947,2.41658 -0.5891,-0.98123 14.2319,-2.08514 14.8211,-1.10391 l 0,0 c 0.812,1.48418 2.3701,3.08351 2.4356,4.45255 0.1161,2.44575 -1.2011,4.32015 -1.9187,6.42113 -0.4906,1.43677 -0.972,2.88611 -1.7045,4.1884 -1.0401,1.8484 -2.4007,3.49656 -3.6011,5.24457 -1.1983,2.1982 -2.3968,4.3964 -3.5953,6.59471 -1.2907,1.90631 -6.9532,10.22565 -8.2427,12.28369 -1.1625,1.84862 -2.2457,3.74728 -3.3145,5.6538 -1.0036,1.7905 -1.7489,3.73952 -2.9005,5.4376 -2.0696,3.05063 -5.1128,5.44241 -7.1433,8.5221 -0.7166,0.55441 -15.9582,-12.21016 -15.2415,-12.7649 z"
       inkscape:connector-curvature="0" />
    <path
       style="opacity:0.95999995;fill:#4f4c4d;fill-opacity:1;stroke:#4f4c4d;stroke-width:0.25647214;stroke-miterlimit:4;stroke-opacity:1;stroke-dasharray:none;stroke-dashoffset:0"
       id="path5740-6-9-5-7-4-2-0"
       d="m 426.07458,250.11805 c 3.6308,-8.1769 0.4748,-1.6635 5.36,-10.0106 1.0338,-1.7665 2.0113,-3.5672 2.9646,-5.3816 1.0281,-1.9568 1.8401,-4.0416 2.9792,-5.9314 1.2361,-2.0527 2.805,-3.893 4.1379,-5.8846 1.4093,-2.1069 2.7257,-4.2732 4.088,-6.4099 1.4135,-6.2974 6.616,-9.9984 10.4991,-14.6863 0.2787,-0.3428 -1.0401,0.4123 -0.9945,0.9111 0.069,0.7527 0.8658,1.6097 1.2986,2.4145 -0.5907,-0.9802 14.2285,-2.1079 14.8194,-1.1277 l 0,0 c 0.8143,1.4828 2.3749,3.0797 2.4426,4.4486 0.1201,2.4456 -1.1941,4.322 -1.9083,6.4242 -0.4881,1.4376 -0.9673,2.8877 -1.6977,4.191 -1.0371,1.8502 -2.3951,3.5005 -3.5926,5.2504 -1.1948,2.2002 -2.3898,4.4003 -3.5848,6.6006 -1.2875,1.9084 -6.9368,10.2368 -8.2228,12.2968 -1.1597,1.8505 -2.2398,3.7509 -3.3055,5.6592 -1.0007,1.7921 -1.7427,3.7423 -2.8918,5.4423 -2.0645,3.0539 -5.1039,5.4506 -7.1294,8.5335 -0.7158,0.5556 -15.978,-12.1844 -15.2622,-12.7403 z"
       inkscape:connector-curvature="0" />
    <path
       style="opacity:0.95999995;fill:#4f4c4d;fill-opacity:1;stroke:#4f4c4d;stroke-width:0.25647214;stroke-miterlimit:4;stroke-opacity:1;stroke-dasharray:none;stroke-dashoffset:0"
       id="path5740-6-9-5-7-90-4-2"
       d="m 447.70298,370.30065 c 5.4528,7.09297 1.2353,1.21118 6.2389,9.48781 1.059,1.7514 2.1749,3.4698 3.3143,5.17346 1.2289,1.83726 2.6736,3.54583 3.7906,5.44874 1.2139,2.06602 2.0824,4.32288 3.1963,6.44472 1.179,2.24398 2.4544,4.43464 3.6819,6.65152 4.8595,4.24751 5.6287,10.58572 7.895,16.23536 0.1684,0.40836 0.1342,-1.1109 -0.3259,-1.30884 -0.6943,-0.29868 -1.8278,-0.0109 -2.7415,-0.0109 1.1433,-0.0513 -4.9382,13.50951 -6.0815,13.56086 l 0,0 c -1.6918,0.0109 -3.8398,0.61733 -5.0752,0.0229 -2.2064,-1.06163 -3.2281,-3.11203 -4.7346,-4.74293 -1.0303,-1.11505 -2.0758,-2.22824 -2.8727,-3.49208 -1.1308,-1.79433 -1.933,-3.77535 -2.8993,-5.66286 -1.3632,-2.09989 -2.7264,-4.19999 -4.0895,-6.3002 -1.0625,-2.04231 -5.6852,-10.98139 -6.8817,-13.0946 -1.0728,-1.90226 -2.2273,-3.75831 -3.3956,-5.60562 -1.0972,-1.73468 -2.4569,-3.31762 -3.4023,-5.1385 -1.6984,-3.27184 -2.354,-7.08652 -4.0966,-10.33783 -0.1466,-0.89416 18.3328,-8.22584 18.4797,-7.33157 z"
       inkscape:connector-curvature="0" />
    <g
       id="g7524-7-7"
       transform="matrix(1.0924368,0,0,1.0924368,-2124.8669,-722.39215)"
       style="fill:#b5d92a;fill-opacity:1;stroke:#918f90;stroke-opacity:1">
      <path
         style="opacity:0.95999995;fill:#b5d92a;fill-opacity:1;stroke:#918f90;stroke-width:0.285;stroke-miterlimit:4;stroke-opacity:1;stroke-dasharray:none;stroke-dashoffset:0"
         d="m 2434.1248,931.34534 c -0.3249,-9.03646 10.9462,-11.79006 17.9819,-9.41108 7.9806,0.85203 5.0531,9.08248 -1.194,9.82185 -6.8769,2.49226 -14.4805,-4.04862 -13.4399,-11.21664 0,-6.0135 6.505,-7.46013 8.1818,-12.6463 8.518,-12.05017 23.9321,-14.71046 36.2133,-21.29184 3.8638,2.1572 0.5811,1.85659 0.8094,-0.70332 5.5188,-0.62291 11.3932,-1.21048 16.8541,0.75625 5.4673,3.67932 10.8572,-1.33453 14.8107,4.40061 1.4322,2.57327 3.3177,-3.09686 5.5251,0.6634 4.5795,3.88897 -6.8309,7.41953 -3.1428,1.18878 3.0966,0.86223 11.9615,3.45651 11.5059,4.46316 -2.187,-0.79373 -8.1979,-2.27974 -3.6536,0.75667 2.3335,1.63296 10.0217,2.26514 3.1619,0.18901 -1.1539,-0.74937 6.2239,2.49812 7.7086,4.38506 4.369,4.25569 11.5679,8.93124 11.4261,15.43105 -6.0315,-6.79667 -14.1415,10.4725 -4.8697,7.42275 6.1145,-6.07177 6.8122,7.98356 0.2034,8.46331 -5.3735,3.53818 -16.4628,1.61716 -14.2047,-6.73632 1.2864,-1.17357 0.4765,5.37343 -2.0818,1.29699 -1.8634,-2.07884 -8.9635,-9.45229 -5.0413,-10.18925 3.9792,1.23364 5.5266,5.0986 0.1426,4.69663 -5.3384,0.0858 -6.9408,-10.93985 -0.6014,-5.47332 5.0101,3.95256 -7.7189,3.11848 -6.8795,-2.22241 0.9009,-4.07065 -6.5908,-5.35346 -5.2275,-3.07901 2.1661,-0.70327 -6.6161,-4.63979 -1.1159,-1.48285 0.431,1.33561 -4.978,-0.77463 -6.0383,-1.58104 -5.8938,0.17249 -11.9411,-3.48091 -17.4189,1.59344 -2.7563,1.56857 -10.3298,7.65925 -9.8037,0.7499 3.9976,-1.87835 5.2739,0.66545 1.5239,2.68199 -5.1,4.66676 -12.6067,8.0722 -14.8384,15.006 -5.6923,-2.22211 -12.3243,-1.5995 -18.1345,-0.16993 5.0472,0.85222 12.8805,-1.60872 16.132,2.53774 -5.5449,3.63334 -12.9865,3.57881 -19.347,2.46245 -1.8953,-0.48235 -3.8156,-1.27548 -5.1478,-2.76373 z"
         id="path7479-93-6"
         inkscape:connector-curvature="0" />
      <path
         style="opacity:0.95999995;fill:#b5d92a;fill-opacity:1;stroke:#918f90;stroke-width:0.285;stroke-miterlimit:4;stroke-opacity:1;stroke-dasharray:none;stroke-dashoffset:0"
         d="m 2531.0744,895.46161 c 8.743,2.307 8.1126,13.89237 3.7972,19.93681 -3.1277,7.39139 -10.1567,2.2049 -9.0541,-3.98839 -0.3928,-7.30402 8.0706,-12.68605 14.6295,-9.61337 5.7542,1.74658 5.2544,8.38741 9.7322,11.49473 9.0655,11.64419 7.1538,27.16763 9.8869,40.83091 -2.7923,9.81419 -4.8599,20.50499 -11.6909,28.45348 -2.1674,2.61214 -6.0709,1.61713 -1.1652,1.85103 -0.1769,3.94289 -10.2171,8.44557 -7.6608,1.46653 7.8894,-2.91488 0.1936,6.53987 -2.0794,8.60872 -3.9952,4.42945 6.2527,-4.25933 0.4429,-3.9393 -2.4686,0.83327 -7.4081,11.14124 -2.7081,5.20278 1.1039,-1.64824 -4.9811,4.18771 -6.8856,5.18126 -4.328,2.8961 -15.6512,11.9041 -17.341,2.6426 3.3221,-5.22247 -6.2237,-12.73649 -5.5368,-3.4917 0.7172,5.4114 -4.3621,6.4918 -6.5718,1.5993 -5.3944,-4.10741 -2.7641,-11.8638 2.7665,-14.27139 1.7288,-2.1057 5.0329,-0.40418 3.4721,-1.82029 2.5726,-3.59065 11.1248,-6.6833 13.6577,-3.45852 -1.9097,2.74728 -7.5053,5.02908 -5.4174,-0.53568 1.0443,-4.17108 13.1855,-5.54321 6.2654,-0.53117 -6.8556,4.18424 5.9588,-12.61331 6.7578,-3.63782 0.2088,-2.82132 4.943,-7.46907 4.3993,-7.92727 -3.991,2.90463 1.981,-4.15334 1.6803,-3.10411 1.7087,-5.72222 7.5371,-10.29654 4.0042,-17.14263 -0.7844,-3.12786 -4.6805,-11.78327 1.8698,-9.79395 -1.4087,8.63045 -3.9024,-4.03523 -5.0332,-6.69584 -0.4942,-4.66877 -6.1085,-9.91025 -7.7775,-11.08201 4.3059,-4.74784 5.2935,-11.76339 4.9629,-17.95133 -1.1383,4.86586 -1.3704,11.55033 -6.3329,14.9617 -3.8657,-4.81238 0.7088,-14.00274 3.2197,-19.41507 0.9445,-1.50548 2.086,-3.01264 3.7103,-3.83001 z"
         id="path7479-9-9-1"
         inkscape:connector-curvature="0" />
      <path
         style="opacity:0.95999995;fill:#b5d92a;fill-opacity:1;stroke:#918f90;stroke-width:0.285;stroke-miterlimit:4;stroke-opacity:1;stroke-dasharray:none;stroke-dashoffset:0"
         d="m 2521.5524,1005.038 c -6.7242,6.0457 -16.0664,-0.835 -18.7543,-7.75859 -4.4655,-6.66899 3.7264,-9.70268 8.3008,-5.38429 6.3231,3.67709 6.1827,13.70578 0.016,17.50558 -4.6165,3.854 -9.8962,-0.2054 -14.9506,1.8352 -14.7089,1.1953 -26.6379,-8.9234 -39.5633,-14.12749 -0.8357,-4.35462 1.0573,-1.64704 -1.0459,-0.1571 -4.0466,-3.82842 -8.2292,-7.99631 -10.2732,-13.43821 -1.1249,-6.65108 -7.5008,-7.30809 -6.4105,-14.40749 2.0849,-5.34346 -2.8395,2.33788 -2.4954,-3.14757 -2.4206,-6.60806 9.7171,-4.11443 2.6148,-0.65073 -0.6325,-2.7806 -7.513,-14.30747 -1.8681,-7.52261 3.9232,4.17389 -3.8592,-12.38129 -1.5225,-4.43374 0.97,3.55587 -1.9971,-5.02351 -1.1027,-6.90314 0.1021,-6.73561 1.7873,-13.29241 3.1491,-19.84573 1.452,5.51348 12.0971,7.38795 13.1244,1.15738 -2.202,-3.43602 -9.2691,-3.37193 -2.9248,-7.0033 6.4019,-4.54143 11.5296,4.09223 12.9677,9.40756 1.4597,4.68361 0.8527,9.76443 -1.5317,14.69288 -3.6981,8.00976 -6.2453,-9.40524 -0.6947,-3.18519 4.9858,2.92419 -1.4552,15.27391 -3.23,6.51025 -0.6098,-6.20464 7.2698,3.95308 3.5226,7.02931 -0.8177,3.22683 -5.1304,-0.46792 -1.9593,2.79332 2.0982,4.01339 2.7408,7.83247 3.2893,5.01697 1.9968,4.32135 0.2644,4.0583 4.2836,7.73771 -0.2827,7.36272 8.4886,9.01379 13.9474,10.78175 4.9252,-0.745 4.7062,7.81263 0.7595,3.91174 -1.9688,-3.86623 6.5701,0.69393 8.7028,0.66071 4.5043,2.26477 12.5108,0.94908 14.7549,-0.11894 1.6087,6.20441 6.9332,10.87798 12.289,13.9951 -3.4454,-3.62039 -8.9067,-7.48148 -9.0361,-13.50248 6.1469,-0.58711 11.3204,8.27923 14.4717,13.34916 0.7409,1.61508 1.3759,3.39528 1.1692,5.20198 z"
         id="path7479-1-2-3"
         inkscape:connector-curvature="0" />
    </g>
    <path
       style="opacity:0.95999995;fill:#4f4c4d;fill-opacity:1;stroke:#4f4c4d;stroke-width:0.25647214;stroke-miterlimit:4;stroke-opacity:1;stroke-dasharray:none;stroke-dashoffset:0"
       id="path5740-6-9-5-7-6-7-8-2"
       d="m 575.35418,479.06573 c 8.8667,-1.19458 1.6657,-0.46778 11.3348,-0.68332 2.0463,-0.0459 4.0921,-0.15731 6.137,-0.29659 2.20516,-0.15032 4.40616,-0.55179 6.61266,-0.57244 2.3962,-0.0229 4.7857,0.34794 7.1805,0.43894 2.5329,0.095 5.0678,0.0808 7.6015,0.12104 6.1038,-2.09769 11.9827,0.39252 18.0105,1.24189 0.4379,0.0579 -0.8965,-0.66967 -1.2972,-0.36936 -0.6049,0.45325 -0.9169,1.5812 -1.3754,2.37168 0.5252,-1.01695 9.2541,11.01155 8.729,12.02861 l 0,0 c -0.8358,1.47085 -1.3775,3.63694 -2.5078,4.41224 -2.0196,1.38423 -4.3064,1.24887 -6.4711,1.74265 -1.48,0.3379 -2.9662,0.68999 -4.459,0.75127 -2.1192,0.0863 -4.2365,-0.2045 -6.3545,-0.30697 -2.4999,0.1359 -4.9999,0.27169 -7.5,0.40748 -2.3002,-0.0961 -12.3539,-0.54087 -14.7824,-0.55605 -2.1838,-0.0175 -4.36836,0.059 -6.55196,0.15185 -2.0507,0.0874 -4.1006,0.47761 -6.1506,0.39032 -3.6829,-0.1572 -7.3172,-1.4891 -11.0044,-1.59769 -0.8484,-0.31833 1.9999,-19.99388 2.8485,-19.67577 z"
       inkscape:connector-curvature="0" />
  </g>
</svg>
