<?xml version="1.0" encoding="UTF-8" standalone="no"?>
<!-- Created with Inkscape (http://www.inkscape.org/) -->

<svg
   xmlns:dc="http://purl.org/dc/elements/1.1/"
   xmlns:cc="http://creativecommons.org/ns#"
   xmlns:rdf="http://www.w3.org/1999/02/22-rdf-syntax-ns#"
   xmlns:svg="http://www.w3.org/2000/svg"
   xmlns="http://www.w3.org/2000/svg"
   xmlns:sodipodi="http://sodipodi.sourceforge.net/DTD/sodipodi-0.dtd"
   xmlns:inkscape="http://www.inkscape.org/namespaces/inkscape"
   width="400.15625"
   height="400.15625"
   id="svg9167"
   version="1.1"
   inkscape:version="0.48.5 r10040"
   sodipodi:docname="disk.svg"
   inkscape:export-filename="/home/banana/flySightAndroid/FloatSight/icons/mainmenu/drawing.png"
   inkscape:export-xdpi="44.98243"
   inkscape:export-ydpi="44.98243">
  <defs
     id="defs9169" />
  <sodipodi:namedview
     id="base"
     pagecolor="#ffffff"
     bordercolor="#666666"
     borderopacity="1.0"
     inkscape:pageopacity="0.0"
     inkscape:pageshadow="2"
     inkscape:zoom="1.4"
     inkscape:cx="263.0089"
     inkscape:cy="266.87702"
     inkscape:document-units="px"
     inkscape:current-layer="layer1"
     showgrid="false"
     fit-margin-top="0"
     fit-margin-left="0"
     fit-margin-right="0"
     fit-margin-bottom="0"
     inkscape:window-width="1680"
     inkscape:window-height="1002"
     inkscape:window-x="0"
     inkscape:window-y="29"
     inkscape:window-maximized="1" />
  <metadata
     id="metadata9172">
    <rdf:RDF>
      <cc:Work
         rdf:about="">
        <dc:format>image/svg+xml</dc:format>
        <dc:type
           rdf:resource="http://purl.org/dc/dcmitype/StillImage" />
        <dc:title />
      </cc:Work>
    </rdf:RDF>
  </metadata>
  <g
     inkscape:label="Layer 1"
     inkscape:groupmode="layer"
     id="layer1"
     transform="translate(-399.91966,-115.14732)">
    <g
       id="g7818-4-1"
       transform="translate(-3344.6847,-829.23927)">
      <path
         inkscape:connector-curvature="0"
         d="m 3777.1514,1313.4716 c 13.6705,0.39 27.0842,-2.6354 40.6999,-2.6712 111.7205,-0.2934 -35.3696,3.3187 61.5682,2.0638 43.0819,-1.6568 22.1964,-1.1915 62.6519,-1.5176 67.6756,0.1 6.8201,-0.082 71.1174,0.3609 12.5361,0.086 25.0763,-0.044 37.6092,0.1882 7.8072,0.1448 15.5969,0.6388 23.3963,0.9433 14.8722,0.5806 9.442,-0.4276 16.043,0.9467 2.6541,-0.55 1.5507,-0.483 -1.9564,2.0664 0.4801,-1.1591 21.7673,4.0688 21.2871,5.2279 l 0,0 c -6.7454,8.2586 -2.2506,4.9646 -13.6439,9.7511 -9.4253,0.2435 -18.8538,0.4082 -28.2787,0.6622 -16.4787,0.4441 -30.7924,1.1382 -47.2877,1.0215 -11.3859,-0.081 -22.761,-0.6288 -34.1472,-0.707 -12.3504,-0.085 -24.7012,0.1452 -37.0518,0.2178 -18.5295,0.3735 -56.8823,1.3921 -77.1397,0.9932 -9.2305,-0.1817 -18.4269,-0.9455 -27.6483,-1.3119 -6.4866,-0.2578 -12.9826,-0.3548 -19.4725,-0.5605 -29.7895,-0.9441 -13.6124,-0.8812 -39.9927,-0.5256 -1.5748,0.4222 -9.3289,-16.727 -7.7541,-17.1492 z"
         id="path5476-9-1-2-5-4-88-28"
         style="opacity:0.95999995;fill:#4f4c4d;fill-opacity:1;stroke:#4f4c4d;stroke-width:0.34187269;stroke-miterlimit:4;stroke-opacity:1;stroke-dasharray:none;stroke-dashoffset:0" />
      <path
         inkscape:connector-curvature="0"
         id="path5320-4-7-8-9"
         d="m 4104.2083,1332.1028 c -0.7745,-1.4496 -1.5645,-2.8983 -2.311,-4.3501 -0.4195,-0.8159 -0.8309,-1.6326 -1.2042,-2.4519 -0.2376,-0.5212 -0.5159,-1.0413 -0.5886,-1.5714 -0.1524,-1.1107 -0.083,-2.2284 0,-3.3457 0,0 0,0 0,0 0.1067,-1.4387 0.2819,-2.8786 0.4679,-4.3186 0,0 0,0 0,0 0.3328,-2.5739 0.821,-5.1506 0.8854,-7.7198 0,0 0,0 0,0 0.079,-3.143 0,-6.283 -0.4175,-9.411 0,0 0,0 0,-10e-5 -0.4174,-3.1129 -1.0672,-6.2167 -1.6032,-9.325 -0.3351,-2.7332 -0.712,-5.4649 -1.0793,-8.197 -0.1659,-1.2343 -0.3396,-2.4688 -0.3279,-3.7087 0,0 0,0 0,0 0.013,-1.3192 0.2047,-2.6419 0.3666,-3.9637 1e-4,0 1e-4,0 1e-4,-10e-5 0.366,-2.9878 0.7056,-5.9754 1.0042,-8.9624 0,-10e-5 0,-10e-5 0,-10e-5 0.3499,-3.4995 0.6831,-6.9987 1.0218,-10.4978 0.2307,-2.3828 0.4608,-4.7657 0.6873,-7.1483 0,0 0,0 0,0 0.079,-0.8257 0.1568,-1.6514 0.2327,-2.4771 0.035,-0.3825 0.079,-0.7649 0.1,-1.1472 0.16,-2.8738 0.6118,-5.758 0.077,-8.6102 -0.6576,-3.5097 -2.4313,-6.9604 -3.6472,-10.4414 1.8198,-8.1263 -1.1065,-16.1658 -0.8655,-24.2736 0,0 0,0 0,0 0.103,-3.4602 1.5462,-6.9369 1.8231,-10.4003 0.2586,-3.2342 -0.2227,-6.4517 -0.2176,-9.6809 0,-2.5722 0,-5.1443 0.1163,-7.719 0.026,-0.562 0.091,-1.1247 0.1353,-1.6869 0,0 0,0 0,0 0.048,-0.616 -0.059,-1.2283 -0.1085,-1.8418 -0.2177,-2.7273 -0.4206,-5.4549 -0.6148,-8.183 0.6686,-3.4413 1.7757,-6.8865 2.0058,-10.323 0.2364,-3.5303 -0.4712,-7.0369 -0.6077,-10.5589 -0.1019,-2.6189 -0.2008,-5.238 -0.2728,-7.8576 -0.021,-0.6349 -0.032,-1.2701 -0.042,-1.9053 0,0 1e-4,0 1e-4,0 0,0 0,0 0,0 7e-4,-0.2832 -0.01,-0.566 0,-0.8495 0,0 0,0 0,0 -8e-4,-0.024 0,-0.05 0.01,-0.074 0,0 0,0 0,0 -2e-4,-0.01 -4e-4,-0.012 -5e-4,-0.019 6e-4,-10e-5 -10e-5,0 -2e-4,-0.01 0.01,-3e-4 0.01,0 0.01,0 2e-4,0.01 4e-4,0.012 5e-4,0.017 7e-4,0.022 0.011,0.041 0.012,0.062 0,0 0,0 0,0 0,0 0,0 0,0 0.03,0.1999 0.041,0.4007 0.056,0.6012 0,0 0,0 0,10e-5 0.053,0.7221 0.088,1.4449 0.1171,2.1679 0.022,0.6624 0.057,1.3242 0.037,1.9875 -0.01,0.087 -0.01,0.1748 -0.015,0.2623 9e-4,0.026 -0.01,0.052 -0.013,0.077 4e-4,0.012 8e-4,0.025 -0.016,0.036 -0.016,4e-4 -0.017,0 -0.019,-0.01 0,0 0,0 0,0 -0.013,-0.019 -0.018,-0.036 -0.024,-0.056 -0.029,-0.088 -0.044,-0.1778 -0.06,-0.2669 0,0 -1e-4,0 -1e-4,0 -0.2213,-1.2158 -0.3141,-2.4367 -0.4378,-3.6564 -0.3081,-3.0389 -0.5725,-6.0795 -0.833,-9.1201 -0.2618,-3.0571 -0.2559,-6.1223 -0.2674,-9.1868 -0.011,-3.0355 0.021,-6.0721 0.031,-9.1084 0,0 0,0 0,0 -1.0975,-5.1695 1.6927,-10.4412 1.4922,-15.6439 0,0 0,0 0,0 -0.085,-2.1972 -1.3587,-4.3448 -1.6504,-6.5351 0,0 0,0 0,0 -0.3422,-2.5704 -0.1902,-5.1565 -0.2538,-7.7358 -0.051,-2.2055 -0.094,-4.4112 -0.081,-6.6184 0.013,-2.4122 -0.2707,-4.8161 -0.404,-7.2242 0,0 0,0 0,-2e-4 0.2101,-4.1175 0.3857,-8.2351 0.026,-12.3375 0,-10e-5 0,-10e-5 0,-10e-5 -0.2111,-2.4098 -0.8143,-4.8055 -0.9359,-7.218 0,0 0,0 0,0 -0.2156,-4.2856 0.8018,-8.5967 1.2415,-12.8964 -0.2512,-4.4112 -1.4218,-8.8022 -0.6203,-13.2329 0.1048,-0.579 0.2983,-1.1586 0.4811,-1.7377 0,0 0,-1e-4 0,-1e-4 0.2756,-0.8732 0.575,-1.7461 0.8879,-2.6189 0,0 0,0 0,0 0.3203,-0.8934 0.6547,-1.7868 1.0175,-2.6795 0.2601,-0.6404 0.515,-1.2812 0.8696,-1.9192 0,0 0,0 0,0 0.563,-1.0131 1.482,-2.0107 2.2232,-3.0163 0,0 0,0 0,0 0.4229,-0.5987 0.8456,-1.1973 1.2684,-1.796 0,0 0,-10e-5 0,-10e-5 -0.2315,0 -0.4597,0.029 -0.6901,0.043 -0.1907,0.013 -0.4319,0.013 -0.504,-0.041 -0.395,-0.2991 -0.5267,-0.6318 -0.6953,-0.9567 -0.2503,-0.4821 -0.4382,-0.969 -0.5873,-1.4577 0,0 0,0 0,0 -0.1396,-0.458 -0.2521,-0.9181 -0.266,-1.3814 0,-0.16 -5e-4,-0.3209 0.054,-0.4815 0,0 0,0 0,0 0.029,-0.085 0.026,-0.1817 0.2143,-0.246 1.7954,-0.6168 3.6952,-1.2244 5.9745,-1.6409 1.3254,-0.2421 2.8527,-0.3974 4.2958,-0.3267 0,0 0,0 0,0 1.3278,0.065 2.4805,0.2951 3.5179,0.5499 1.2643,0.3105 2.4154,0.6636 3.6409,0.9891 0,0 0,0 0,0 0.3441,0.5269 0.6881,1.0537 1.0322,1.5807 0,0 0,0 0,0 0.032,0.029 -0.044,0.06 -0.1111,0.085 -0.1294,0.047 -0.2883,0.085 -0.4475,0.1205 -0.5429,0.123 -1.1296,0.2238 -1.7165,0.322 -1.7629,0.2955 -3.5814,0.5518 -5.4113,0.7953 -1.8298,0.2435 -3.6756,0.4751 -5.5563,0.6646 -0.6261,0.063 -1.2564,0.1245 -1.8978,0.159 -0.188,0.01 -0.3786,0.019 -0.5651,0.015 -0.097,0 -0.2152,-0.01 -0.2471,-0.037 0.4075,-0.037 0.8153,-0.075 1.2229,-0.1133 1e-4,0 1e-4,0 1e-4,0 1.0196,0.026 2.037,0.067 3.0686,0.054 1e-4,0 1e-4,0 1e-4,0 0.7706,-0.01 1.5483,-0.074 2.2481,-0.1928 1.0159,-0.1737 1.9,-0.4201 2.771,-0.6644 0,0 0,0 0,0 1.578,-0.4423 3.0984,-0.9051 4.6368,-1.3615 0.2405,-0.072 0.2229,-0.1901 0.1824,-0.2888 0,0 0,0 0,0 0,0 0,0 0,0 -0.055,-0.1339 -0.1878,-0.2617 -0.3429,-0.3852 0,0 0,0 0,0 -0.1235,-0.099 -0.2574,-0.1955 -0.4365,-0.2836 -1e-4,-10e-5 -1e-4,-10e-5 -1e-4,-10e-5 -0.022,-0.011 -0.046,-0.023 -0.073,-0.032 -1e-4,0 -1e-4,0 -1e-4,0 -0.012,-0.01 -0.025,-0.012 -0.045,-0.01 -0.017,4e-4 -0.013,0.01 -0.011,0.014 5e-4,0.013 0.018,0.029 0.031,0.042 2.4419,2.6352 3.8478,5.4899 1.5323,8.2528 0,0 0,0 0,0 -0.1042,0.8945 -0.037,1.7879 -0.3125,2.683 -0.4153,1.3484 -1.0437,2.6942 -1.8017,4.0359 -0.7996,1.4154 -0.9581,2.843 -1.113,4.2646 -0.1772,1.6256 0.2892,3.2369 0.1985,4.861 0,0 0,10e-5 0,10e-5 -0.103,1.8352 -0.5698,3.6745 -1.2114,5.5121 0,0 0,0 0,0 0.4623,0.744 0.9596,1.4851 1.423,2.2292 0,0 0,0 0,0 0.1997,0.3205 0.3874,0.6435 0.4243,0.9739 0.047,0.4161 -0.033,0.8356 -0.062,1.2536 -0.073,1.0244 -0.07,2.0471 -0.037,3.0689 0.09,2.7724 0.2669,5.5425 0.411,8.3133 0,0 0,0 0,0 0.1252,2.414 0.4772,4.8217 0.3988,7.2406 -0.07,2.1602 -0.801,4.3304 -0.8437,6.4899 -0.038,1.9333 0.4007,3.8528 0.6011,5.7795 0,0 0,0 0,0 0.013,1.3636 -0.1459,2.7321 0.037,4.0906 0,0 0,0 0,0 0.2292,1.6994 0.4612,3.3988 0.7445,5.0962 0.1097,0.6589 0.1758,1.3206 0.4101,1.9735 0.015,0.045 0.03,0.089 0.062,0.1326 0.01,0.01 0.011,0.018 0.026,0.024 0,0 0,0 0,10e-5 0,0 0.01,0 0.012,0 0.01,-5e-4 0.01,0 0.011,0 0,0 1e-4,0 1e-4,-10e-5 0.013,-0.01 0.017,-0.016 0.02,-0.025 0.01,-0.014 0.013,-0.031 0.019,-0.046 0.014,-0.049 0.023,-0.099 0.029,-0.1475 0.047,-0.3391 0.047,-0.6776 0.055,-1.0159 0.01,-0.2943 0,-0.5883 0.034,-0.8829 -8e-4,-0.024 0,-0.05 0.018,-0.073 0,0 -1e-4,0 0.01,0 0.01,0 0.01,0 0.01,0 0.01,0.01 0.01,0.014 0.013,0.023 0,0 0,0 0,10e-5 0.05,0.128 0.057,0.2584 0.076,0.3879 0,0 0,0 0,10e-5 0.4298,2.8846 0.6265,5.7779 0.9055,8.6681 0.3164,3.2774 0.6806,6.5534 0.9241,9.8333 0.017,0.2196 0.034,0.4394 0.037,0.6595 8e-4,0.051 0,0.1018 -0.01,0.1531 0,0 0,0 0,0 4e-4,0.012 9e-4,0.027 -0.01,0.039 0,1e-4 0,1e-4 0,1e-4 2e-4,0.01 4e-4,0.012 -0.01,0.019 -0.01,3e-4 -0.011,3e-4 -0.013,0 0,0 0,0 0,0 -0.01,-0.01 -0.011,-0.013 -0.016,-0.02 -0.017,-0.027 -0.028,-0.055 -0.04,-0.08 0,0 0,0 0,0 -0.039,-0.093 -0.071,-0.1859 -0.1062,-0.2791 -0.041,-0.1069 -0.082,-0.214 -0.1334,-0.3202 -0.037,-0.077 -0.067,-0.1548 -0.1509,-0.2265 0,0 0,-10e-5 0,-10e-5 -0.01,-0.01 -0.023,-0.019 -0.039,-0.026 0,0 0,0 0,0 -0.01,0 -0.022,-0.01 -0.039,-0.01 -0.016,5e-4 -0.03,0 -0.04,0.01 -0.019,0.01 -0.029,0.02 -0.04,0.03 -0.1167,0.1201 -0.1245,0.2453 -0.1557,0.3683 -0.2007,0.7923 -0.2186,1.5836 -0.2633,2.3745 -0.103,1.8219 -0.1225,3.6422 -0.1324,5.4621 -0.014,2.5981 0.5229,5.1794 0.7844,7.7695 -0.2834,1.9664 -0.8951,3.9376 -0.8499,5.898 0.067,2.8867 0.8391,5.7496 1.1851,8.6273 0,0 0,1e-4 0,1e-4 0.4037,3.3574 0.6549,6.7201 1.0641,10.0773 0,0 0,10e-5 0,10e-5 0.5008,4.1088 1.6143,8.1965 1.6656,12.3194 0.044,3.5338 -1.2364,7.0897 -1.3801,10.6278 -0.1427,3.5116 0.3477,7.007 0.5215,10.5108 -0.4981,3.2361 -1.1791,6.4742 -1.4943,9.7084 -0.3076,3.1566 -0.261,6.3066 -0.3735,9.4598 -0.1149,3.2194 -0.3256,6.4409 -0.3089,9.6573 0,0 0,10e-5 0,10e-5 0.018,3.4714 0.3401,6.9346 0.4134,10.4049 0.074,3.4952 0.014,6.9939 -0.01,10.4915 0,0 0,0 0,0 -0.019,3.3096 -0.046,6.6195 -0.068,9.9291 0.9211,3.5579 2.2572,7.0963 2.763,10.6727 1.0718,7.5775 0.511,15.2087 -0.1373,22.8332 -0.306,3.5991 -0.7894,7.2007 -1.1871,10.8012 -0.3481,3.1523 -1.1752,6.313 -1.0502,9.4554 0,0 0,0 0,0 0.1529,3.837 1.2548,7.6397 1.8823,11.4603 -0.1427,4.3113 -0.4192,8.6255 -0.428,12.9339 -0.01,3.2527 0.6505,6.4887 0.3819,9.7468 0,0 0,10e-5 0,10e-5 -0.2048,2.4857 -1.2218,4.9767 -1.8001,7.4658 -0.3324,1.431 -0.6504,2.8622 -0.9315,4.2933 -0.2993,1.5238 -0.976,3.0538 -0.8087,4.5681 0,0 0,10e-5 0,10e-5 0.111,1.0055 1.0911,1.9573 1.6377,2.938 0.05,0.028 -0.013,0.065 -0.071,0.094 -0.1118,0.057 -0.2601,0.1038 -0.4096,0.1498 -0.5098,0.1581 -1.0787,0.2953 -1.649,0.4302 0,0 -1e-4,0 -1e-4,0 -1.7132,0.405 -3.5073,0.7724 -5.3204,1.1273 -1.8133,0.3549 -3.6499,0.6981 -5.5471,0.9999 -0.6317,0.1008 -1.2687,0.1993 -1.9323,0.271 -0.1946,0.022 -0.3925,0.041 -0.5937,0.047 -0.1051,0 -0.2337,0 -0.2837,-0.025 z"
         style="opacity:0.95999995;fill:#4f4c4d;fill-opacity:1;stroke:#4f4c4d;stroke-width:0.16880712;stroke-miterlimit:4;stroke-opacity:1;stroke-dashoffset:0" />
      <path
         inkscape:connector-curvature="0"
         id="path5320-4-5-9-3"
         d="m 3774.4092,1333.2052 c -0.7745,-1.5755 -1.5645,-3.1498 -2.311,-4.7278 -0.4195,-0.8867 -0.8309,-1.7742 -1.2042,-2.6646 -0.2376,-0.5665 -0.5159,-1.1318 -0.5886,-1.708 -0.1524,-1.207 -0.083,-2.4219 0,-3.6361 0,0 0,0 0,0 0.1067,-1.5637 0.2819,-3.1286 0.4679,-4.6936 0,0 0,0 0,0 0.3328,-2.7973 0.821,-5.5977 0.8854,-8.39 0,0 0,0 0,0 0.079,-3.4158 0,-6.8285 -0.4175,-10.228 0,0 0,0 0,-10e-5 -0.4174,-3.3832 -1.0672,-6.7564 -1.6032,-10.1346 -0.3351,-2.9705 -0.712,-5.9393 -1.0793,-8.9086 -0.1659,-1.3414 -0.3396,-2.6832 -0.3279,-4.0306 0,0 0,0 0,0 0.013,-1.4338 0.2047,-2.8714 0.3666,-4.308 10e-5,0 10e-5,0 10e-5,-10e-5 0.366,-3.2472 0.7056,-6.4941 1.0042,-9.7404 0,-10e-5 0,-10e-5 0,-10e-5 0.3499,-3.8033 0.6831,-7.6063 1.0218,-11.4094 0.2307,-2.5896 0.4608,-5.1792 0.6873,-7.7687 0,0 0,0 0,0 0.079,-0.8974 0.1568,-1.7948 0.2327,-2.6922 0.035,-0.4157 0.079,-0.8314 0.1,-1.2468 0.16,-3.1233 0.6118,-6.2579 0.077,-9.3578 -0.6576,-3.8143 -2.4313,-7.5646 -3.6472,-11.3479 1.8198,-8.8318 -1.1065,-17.5692 -0.8655,-26.3809 0,0 0,0 0,0 0.103,-3.7606 1.5462,-7.539 1.8231,-11.3032 0.2586,-3.5151 -0.2227,-7.0119 -0.2176,-10.5214 0,-2.7955 0,-5.5909 0.1163,-8.3892 0.026,-0.6107 0.091,-1.2223 0.1353,-1.8334 0,0 0,0 0,0 0.048,-0.6694 -0.059,-1.3348 -0.1085,-2.0016 -0.2177,-2.9641 -0.4206,-5.9286 -0.6148,-8.8934 0.6686,-3.7402 1.7757,-7.4845 2.0058,-11.2192 0.2364,-3.837 -0.4712,-7.648 -0.6077,-11.4757 -0.1019,-2.8463 -0.2008,-5.6927 -0.2728,-8.5398 -0.021,-0.69 -0.032,-1.3803 -0.042,-2.0706 0,0 1e-4,0 1e-4,0 0,0 0,0 0,0 7e-4,-0.3078 -0.01,-0.6153 0,-0.9233 0,0 0,0 0,0 -8e-4,-0.026 0,-0.053 0.01,-0.08 0,0 0,0 0,0 -2e-4,-0.01 -4e-4,-0.013 -5e-4,-0.02 6e-4,-10e-5 -10e-5,0 -2e-4,-0.01 0.01,-3e-4 0.01,0 0.01,0 2e-4,0.01 4e-4,0.012 5e-4,0.018 7e-4,0.023 0.011,0.045 0.012,0.068 0,0 0,0 0,0 0,0 0,0 0,0 0.03,0.2174 0.041,0.4355 0.056,0.6534 0,0 0,0 0,10e-5 0.053,0.7849 0.088,1.5704 0.1171,2.3561 0.022,0.7198 0.057,1.4392 0.037,2.1601 -0.01,0.095 -0.01,0.19 -0.015,0.2851 9e-4,0.028 -0.01,0.056 -0.013,0.084 4e-4,0.013 8e-4,0.027 -0.016,0.04 -0.016,5e-4 -0.017,0 -0.019,-0.01 0,0 0,0 0,0 -0.013,-0.02 -0.018,-0.04 -0.024,-0.06 -0.029,-0.096 -0.044,-0.1931 -0.06,-0.2899 0,0 -10e-5,0 -10e-5,0 -0.2213,-1.3215 -0.3141,-2.6484 -0.4378,-3.9739 -0.3081,-3.3029 -0.5725,-6.6073 -0.833,-9.9119 -0.2618,-3.3225 -0.2559,-6.654 -0.2674,-9.9844 -0.011,-3.2991 0.021,-6.5994 0.031,-9.8991 0,0 0,0 0,0 -1.0975,-5.6184 1.6927,-11.3477 1.4922,-17.0022 0,0 0,0 0,0 -0.085,-2.388 -1.3587,-4.722 -1.6504,-7.1025 0,0 0,0 0,0 -0.3422,-2.7935 -0.1902,-5.6041 -0.2538,-8.4074 -0.051,-2.397 -0.094,-4.7942 -0.081,-7.1929 0.013,-2.6216 -0.2707,-5.2344 -0.404,-7.8516 0,0 0,0 0,-10e-5 0.2101,-4.4749 0.3857,-8.9499 0.026,-13.4086 0,-10e-5 0,-10e-5 0,-10e-5 -0.2111,-2.6189 -0.8143,-5.2227 -0.9359,-7.8447 0,0 0,0 0,0 -0.2156,-4.6575 0.8018,-9.3429 1.2415,-14.016 -0.2512,-4.7941 -1.4218,-9.5665 -0.6203,-14.38152 0.1048,-0.6295 0.2983,-1.2593 0.4811,-1.8887 0,0 0,-10e-5 0,-10e-5 0.2756,-0.949 0.575,-1.89773 0.8879,-2.84633 0,0 0,0 0,0 0.3203,-0.971 0.6547,-1.9417 1.0175,-2.912 0.2601,-0.696 0.515,-1.3925 0.8696,-2.0859 0,0 0,0 0,0 0.563,-1.101 1.482,-2.1853 2.2232,-3.27815 0,0 0,0 0,0 0.4229,-0.6506 0.8456,-1.3013 1.2684,-1.9519 0,0 0,-10e-5 0,-10e-5 -0.2315,0 -0.4597,0.031 -0.6901,0.047 -0.1907,0.013 -0.4319,0.013 -0.504,-0.046 -0.395,-0.3251 -0.5267,-0.6867 -0.6953,-1.0397 -0.2503,-0.524 -0.4382,-1.0531 -0.5873,-1.5843 0,0 0,0 0,0 -0.1396,-0.4978 -0.2521,-0.9978 -0.266,-1.5013 0,-0.174 -5e-4,-0.3488 0.054,-0.5234 0,0 0,0 0,0 0.029,-0.092 0.026,-0.1973 0.2143,-0.2674 1.7954,-0.6702 3.6952,-1.3306 5.9745,-1.7832 1.3254,-0.2632 2.8527,-0.4321 4.2958,-0.3551 0,0 0,0 0,0 1.3278,0.071 2.4805,0.3207 3.5179,0.5976 1.2643,0.3376 2.4154,0.7213 3.6409,1.075 0,0 0,0 0,0 0.3441,0.5726 0.6881,1.1453 1.0322,1.7179 0,0 0,0 0,0 0.032,0.031 -0.044,0.066 -0.1111,0.092 -0.1294,0.051 -0.2883,0.092 -0.4475,0.1309 -0.5429,0.1338 -1.1296,0.2432 -1.7165,0.3501 -1.7629,0.3211 -3.5814,0.5995 -5.4113,0.8642 -1.8298,0.2647 -3.6756,0.5164 -5.5563,0.7224 -0.6261,0.069 -1.2564,0.1353 -1.8978,0.1728 -0.188,0.011 -0.3786,0.02 -0.5651,0.017 -0.097,0 -0.2152,-0.01 -0.2471,-0.041 0.4075,-0.041 0.8153,-0.082 1.2229,-0.1232 10e-5,0 10e-5,0 10e-5,0 1.0196,0.028 2.037,0.073 3.0686,0.058 1e-4,0 1e-4,0 1e-4,0 0.7706,-0.011 1.5483,-0.08 2.2481,-0.2096 1.0159,-0.1889 1.9,-0.4568 2.771,-0.7221 0,0 0,0 0,0 1.578,-0.4807 3.0984,-0.9837 4.6368,-1.4797 0.2405,-0.078 0.2229,-0.2066 0.1824,-0.3139 0,0 0,0 0,0 0,0 0,0 0,0 -0.055,-0.1455 -0.1878,-0.2844 -0.3429,-0.4186 0,0 0,0 0,0 -0.1235,-0.1067 -0.2574,-0.2125 -0.4365,-0.3082 -1e-4,-10e-5 -1e-4,-10e-5 -1e-4,-10e-5 -0.022,-0.012 -0.046,-0.024 -0.073,-0.035 -1e-4,0 -1e-4,0 -1e-4,0 -0.012,-0.01 -0.025,-0.012 -0.045,-0.011 -0.017,5e-4 -0.013,0.01 -0.011,0.016 5e-4,0.016 0.018,0.031 0.031,0.047 2.4419,2.8639 3.8478,5.9666 1.5323,8.96915 0,0 0,0 0,0 -0.1042,0.9722 -0.037,1.9431 -0.3125,2.9159 -0.4153,1.4656 -1.0437,2.9282 -1.8017,4.3865 -0.7996,1.53823 -0.9581,3.08973 -1.113,4.63475 -0.1772,1.7668 0.2892,3.5176 0.1985,5.2829 0,0 0,10e-5 0,10e-5 -0.103,1.9946 -0.5698,3.9935 -1.2114,5.9906 0,0 0,0 0,0 0.4623,0.8087 0.9596,1.6141 1.423,2.4227 0,0 0,0 0,0 0.1997,0.3484 0.3874,0.6994 0.4243,1.0585 0.047,0.4522 -0.033,0.9082 -0.062,1.3626 -0.073,1.1131 -0.07,2.2247 -0.037,3.3352 0.09,3.0131 0.2669,6.0236 0.411,9.035 0,0 0,0 0,0 0.1252,2.6236 0.4772,5.2403 0.3988,7.8694 -0.07,2.3476 -0.801,4.7062 -0.8437,7.0531 -0.038,2.1014 0.4007,4.1873 0.6011,6.2813 0,0 0,0 0,0 0.013,1.4821 -0.1459,2.9695 0.037,4.4457 0,0 0,0 0,0 0.2292,1.847 0.4612,3.694 0.7445,5.5387 0.1097,0.7162 0.1758,1.4354 0.4101,2.1449 0.015,0.049 0.03,0.097 0.062,0.1441 0.01,0.01 0.011,0.019 0.026,0.026 0,0 0,0 0,10e-5 0,0 0.01,0 0.012,0 0.01,-6e-4 0.01,0 0.011,0 0,0 1e-4,0 1e-4,-10e-5 0.013,-0.01 0.017,-0.018 0.02,-0.027 0.01,-0.017 0.013,-0.033 0.019,-0.05 0.014,-0.053 0.023,-0.107 0.029,-0.1604 0.047,-0.3686 0.047,-0.7364 0.055,-1.1042 0.01,-0.3198 0,-0.6392 0.034,-0.9595 -8e-4,-0.026 0,-0.053 0.018,-0.079 0,0 -1e-4,0 0.01,0 0.01,0 0.01,0 0.01,0 0.01,0.01 0.01,0.017 0.013,0.025 0,0 0,0 0,10e-5 0.05,0.1391 0.057,0.2808 0.076,0.4216 0,0 0,0 0,10e-5 0.4298,3.135 0.6265,6.2795 0.9055,9.4206 0.3164,3.562 0.6806,7.1224 0.9241,10.687 0.017,0.2387 0.034,0.4776 0.037,0.7168 8e-4,0.055 0,0.1107 -0.01,0.1664 0,0 0,0 0,0 4e-4,0.014 9e-4,0.029 -0.01,0.043 0,10e-5 0,10e-5 0,10e-5 2e-4,0.01 4e-4,0.013 -0.01,0.02 -0.01,3e-4 -0.011,3e-4 -0.013,0 0,0 0,0 0,0 -0.01,-0.01 -0.011,-0.014 -0.016,-0.021 -0.017,-0.029 -0.028,-0.059 -0.04,-0.088 0,0 0,0 0,0 -0.039,-0.1008 -0.071,-0.202 -0.1062,-0.3031 -0.041,-0.1163 -0.082,-0.2327 -0.1334,-0.3482 -0.037,-0.083 -0.067,-0.1681 -0.1509,-0.2461 0,0 0,-10e-5 0,-10e-5 -0.01,-0.01 -0.023,-0.02 -0.039,-0.028 0,0 0,0 0,0 -0.01,0 -0.022,-0.01 -0.039,-0.01 -0.016,5e-4 -0.03,0 -0.04,0.01 -0.019,0.01 -0.029,0.021 -0.04,0.032 -0.1167,0.1303 -0.1245,0.2665 -0.1557,0.4002 -0.2007,0.8611 -0.2186,1.7211 -0.2633,2.5806 -0.103,1.9801 -0.1225,3.9584 -0.1324,5.9364 -0.014,2.8236 0.5229,5.629 0.7844,8.4439 -0.2834,2.1371 -0.8951,4.2795 -0.8499,6.41 0.067,3.1374 0.8391,6.2488 1.1851,9.3765 0,0 0,10e-5 0,10e-5 0.4037,3.6488 0.6549,7.3035 1.0641,10.9521 0,0 0,10e-5 0,10e-5 0.5008,4.4656 1.6143,8.9082 1.6656,13.3891 0.044,3.8405 -1.2364,7.7051 -1.3801,11.5503 -0.1427,3.8166 0.3477,7.6154 0.5215,11.4234 -0.4981,3.5171 -1.1791,7.0364 -1.4943,10.5513 -0.3076,3.4306 -0.261,6.8542 -0.3735,10.281 -0.1149,3.4989 -0.3256,7.0001 -0.3089,10.4957 0,0 0,10e-5 0,10e-5 0.018,3.7729 0.3401,7.5368 0.4134,11.3082 0.074,3.7987 0.014,7.6012 -0.01,11.4025 0,0 0,0 0,0 -0.019,3.5969 -0.046,7.1941 -0.068,10.7911 0.9211,3.8667 2.2572,7.7124 2.763,11.5992 1.0718,8.2355 0.511,16.5292 -0.1373,24.8157 -0.306,3.9115 -0.7894,7.8258 -1.1871,11.7388 -0.3481,3.4259 -1.1752,6.8612 -1.0502,10.2764 0,0 0,0 0,0 0.1529,4.1701 1.2548,8.303 1.8823,12.4552 -0.1427,4.6856 -0.4192,9.3744 -0.428,14.0567 -0.01,3.5352 0.6505,7.0521 0.3819,10.593 0,0 0,10e-5 0,10e-5 -0.2048,2.7016 -1.2218,5.4089 -1.8001,8.114 -0.3324,1.5554 -0.6504,3.1108 -0.9315,4.6661 -0.2993,1.6561 -0.976,3.3189 -0.8087,4.9647 0,0 0,10e-5 0,10e-5 0.111,1.0928 1.0911,2.1273 1.6377,3.193 0.05,0.03 -0.013,0.071 -0.071,0.1026 -0.1118,0.061 -0.2601,0.1125 -0.4096,0.1629 -0.5098,0.1717 -1.0787,0.3208 -1.649,0.4674 0,0 -10e-5,0 -10e-5,0 -1.7132,0.4402 -3.5073,0.8394 -5.3204,1.2251 -1.8133,0.3857 -3.6499,0.7589 -5.5471,1.0868 -0.6317,0.1092 -1.2687,0.2167 -1.9323,0.2945 -0.1946,0.023 -0.3925,0.045 -0.5937,0.051 -0.1051,0 -0.2337,0 -0.2837,-0.027 z"
         style="opacity:0.95999995;fill:#4f4c4d;fill-opacity:1;stroke:#4f4c4d;stroke-width:0.17598237;stroke-miterlimit:4;stroke-opacity:1;stroke-dashoffset:0" />
      <path
         inkscape:connector-curvature="0"
         d="m 3779.3216,964.33761 c 13.2839,0.39 26.3181,-2.6354 39.5488,-2.6712 108.5607,-0.2934 -34.3694,3.3187 59.8268,2.0638 41.8636,-1.6568 21.5686,-1.1915 60.8799,-1.5176 65.7617,0.1 6.6272,-0.082 69.1062,0.3609 12.1814,0.086 24.3671,-0.044 36.5455,0.1882 7.5863,0.1448 15.1556,0.6388 22.7345,0.9433 14.4516,0.5806 9.175,-0.4276 15.5893,0.9467 2.579,-0.55 1.5069,-0.483 -1.9011,2.0664 0.4666,-1.1591 21.1517,4.0688 20.685,5.2279 l 0,0 c -6.5546,8.2586 -2.1869,4.9646 -13.258,9.7511 -9.1587,0.2435 -18.3205,0.4082 -27.4789,0.6622 -16.0126,0.4441 -29.9215,1.13817 -45.9503,1.0215 -11.0638,-0.081 -22.1171,-0.6288 -33.1814,-0.707 -12.0011,-0.085 -24.0025,0.1452 -36.0038,0.2178 -18.0055,0.3735 -55.2736,1.39207 -74.9581,0.99317 -8.9693,-0.1817 -17.9057,-0.94547 -26.8663,-1.31187 -6.3031,-0.2578 -12.6155,-0.3548 -18.9218,-0.5605 -28.9469,-0.9441 -13.2273,-0.8812 -38.8616,-0.5256 -1.5302,0.4222 -9.065,-16.727 -7.5347,-17.1492 z"
         id="path5476-9-1-2-5-4-8-7-6"
         style="opacity:0.95999995;fill:#4f4c4d;fill-opacity:1;stroke:#4f4c4d;stroke-width:0.3370035;stroke-miterlimit:4;stroke-opacity:1;stroke-dasharray:none;stroke-dashoffset:0" />
      <path
         inkscape:connector-curvature="0"
         d="m 4110.1121,1008.0818 c -1.0551,-1.6355 -4.5182,-0.8489 -5.8714,-2.1801 -11.1022,-10.9243 5.813,1.1948 -4.533,-7.5821 -5.3809,-3.1293 -3.013,-1.375 -7.1901,-5.1766 -6.5274,-6.81252 -0.7233,-0.622 -6.6771,-7.33852 -1.1609,-1.3095 -2.4767,-2.46715 -3.5332,-3.87893 -0.6579,-0.87948 -1.0656,-2.00218 -1.6092,-2.99287 -1.0365,-1.88911 -1.2252,-0.64057 -0.8899,-2.26265 -0.6506,0.12156 -0.4952,0.18443 1.6629,-1.25533 -0.8725,0.76564 0.776,-5.02395 1.6486,-5.78946 l 0,0 c 6.5408,-5.12376 3.7559,-3.25983 8.2766,-5.4839 1.0924,0.76811 2.1292,1.59186 3.2291,2.35248 1.9231,1.33011 3.8132,2.26907 5.3384,3.99428 1.0522,1.1915 1.7715,2.70883 2.8259,3.898 1.1435,1.29036 2.5119,2.35915 3.768,3.53849 2.0728,1.58394 6.538,4.68992 8.2291,6.98809 0.7705,1.0471 1.1232,2.4993 1.7613,3.67532 0.4488,0.8271 1.0131,1.5424 1.4993,2.3332 2.2322,3.6304 0.6997,1.9745 3.5251,4.3531 0.4544,-0.1394 -11.0061,12.6681 -11.4604,12.8075 z"
         id="path5476-9-3-6-0-8-9-6-1-7-8"
         style="opacity:0.95999995;fill:#4f4c4d;fill-opacity:1;stroke:#4f4c4d;stroke-width:0.12764126;stroke-miterlimit:4;stroke-opacity:1;stroke-dasharray:none;stroke-dashoffset:0" />
      <path
         inkscape:connector-curvature="0"
         d="m 3864.2934,985.83508 c 1.1583,14.47702 0.4406,2.71612 0.7089,18.51782 0.057,3.3437 0.1741,6.6862 0.3167,10.0269 0.1538,3.6026 0.5368,7.1952 0.5726,10.8015 0.039,3.9158 -0.2834,7.8265 -0.3489,11.742 -0.069,4.1415 -0.037,8.2842 -0.055,12.4264 1.965,9.9491 -0.2712,19.591 -1.0043,29.4546 -0.053,0.716 0.6064,-1.4738 0.3286,-2.1251 -0.4194,-0.9828 -1.4541,-1.4779 -2.1811,-2.2169 0.9349,0.8445 -10.0114,15.2701 -10.9463,14.4257 l 0,0 c -1.3523,-1.3469 -3.3392,-2.2031 -4.057,-4.0412 -1.2821,-3.2827 -1.1749,-7.0224 -1.6429,-10.554 -0.3201,-2.4151 -0.6533,-4.8392 -0.7204,-7.2784 -0.095,-3.463 0.1561,-6.9272 0.2342,-10.3907 -0.1427,-4.0846 -0.2855,-8.169 -0.4282,-12.2535 0.071,-3.7609 0.4042,-20.1999 0.4003,-24.1693 0,-3.5698 -0.086,-7.1395 -0.187,-10.7075 -0.095,-3.3509 -0.4677,-6.6961 -0.4027,-10.0478 0.1168,-6.0223 1.3092,-11.97992 1.3815,-18.00801 0.285,-1.39116 18.3162,3.00639 18.0313,4.39749 z"
         id="path5740-88-0-5-8-6-0"
         style="opacity:0.95999995;fill:#918f90;fill-opacity:1;stroke:#918f90;stroke-width:0.31336293;stroke-miterlimit:4;stroke-opacity:1;stroke-dasharray:none;stroke-dashoffset:0" />
      <path
         inkscape:connector-curvature="0"
         d="m 4045.5434,985.15768 c 1.1583,14.91792 0.4406,2.79882 0.7089,19.08182 0.057,3.4455 0.1741,6.8898 0.3167,10.3322 0.1538,3.7124 0.5368,7.4144 0.5726,11.1305 0.039,4.0351 -0.2834,8.0649 -0.3489,12.0996 -0.069,4.2676 -0.037,8.5365 -0.055,12.8049 1.965,10.2521 -0.2712,20.1876 -1.0043,30.3516 -0.053,0.7378 0.6064,-1.5187 0.3286,-2.1898 -0.4194,-1.0128 -1.4541,-1.5229 -2.1811,-2.2844 0.9349,0.8702 -10.0114,15.7351 -10.9463,14.865 l 0,0 c -1.3523,-1.3879 -3.3392,-2.2702 -4.057,-4.1643 -1.2821,-3.3827 -1.1749,-7.2362 -1.6429,-10.8754 -0.3201,-2.4887 -0.6533,-4.9866 -0.7204,-7.5001 -0.095,-3.5684 0.1561,-7.1381 0.2342,-10.7071 -0.1427,-4.209 -0.2855,-8.4178 -0.4282,-12.6267 0.071,-3.8754 0.4042,-20.8151 0.4003,-24.9054 0,-3.6785 -0.086,-7.3569 -0.187,-11.0336 -0.095,-3.4529 -0.4677,-6.9 -0.4027,-10.3538 0.1168,-6.2057 1.3092,-12.34472 1.3815,-18.55634 0.285,-1.43357 18.3162,3.09782 18.0313,4.53132 z"
         id="path5740-88-0-5-8-9-4-2"
         style="opacity:0.95999995;fill:#918f90;fill-opacity:1;stroke:#918f90;stroke-width:0.3180989;stroke-miterlimit:4;stroke-opacity:1;stroke-dasharray:none;stroke-dashoffset:0" />
      <path
         sodipodi:nodetypes="ccsccccccccccccccsccc"
         inkscape:connector-curvature="0"
         d="m 4037.6676,1096.126 c -27.4117,1.1583 -5.1428,0.4406 -35.0629,0.7089 -6.3311,0.057 -12.66,0.1741 -18.9854,0.3167 -6.8216,0.1538 -13.624,0.5368 -20.4524,0.5726 -7.4144,0.039 -14.8192,-0.2834 -22.233,-0.3489 -7.8417,-0.069 -15.6859,-0.037 -23.5291,-0.055 -18.8383,1.965 -37.0948,-0.2712 -55.7712,-1.0043 -1.3557,-0.053 -7.1531,-0.4294 -5.9199,-0.7072 -3.8286,-0.603 -10.2942,-4.6611 -8.3395,-9.1223 l -1.312,-3.6598 c 2.5503,-1.3523 0.6498,-2.6487 4.1302,-3.3665 6.2157,-1.2821 13.2966,-1.1749 19.9836,-1.6429 4.5729,-0.3201 9.1629,-0.6533 13.7814,-0.7204 6.557,-0.095 13.1164,0.1561 19.6744,0.2342 7.7341,-0.1427 15.4678,-0.2855 23.2016,-0.4282 7.1211,0.071 38.2478,0.4042 45.7638,0.4003 6.7592,0 13.5183,-0.086 20.2742,-0.187 6.3448,-0.095 12.6789,-0.4677 19.0252,-0.4027 11.403,0.1168 22.6834,1.3092 34.0975,1.3815 2.634,0.285 -5.6924,18.3162 -8.3265,18.0313 z"
         id="path5740-88-0-5-8-9-6-30-1"
         style="opacity:0.95999995;fill:#918f90;fill-opacity:1;stroke:#918f90;stroke-width:0.43119761;stroke-miterlimit:4;stroke-opacity:1;stroke-dasharray:none;stroke-dashoffset:0" />
      <path
         inkscape:connector-curvature="0"
         d="m 3959.6924,1066.4789 c -0.7635,-2.1585 -1.9789,-4.3084 -2.2902,-6.4756 -0.3807,-2.6545 0.4266,-5.3136 0.2179,-7.9694 -0.1324,-1.6806 -1.0442,-3.351 -1.2436,-5.0311 -0.5387,-4.5455 -0.1296,-10.9323 -0.3408,-15.5055 -0.1737,-3.7404 -0.5478,-7.4799 -0.8216,-11.2198 0.501,-2.6806 1.0022,-5.3612 1.5032,-8.0419 -0.386,-2.8322 -1.6171,-5.6653 -1.1583,-8.4967 0.2371,-1.459 3.0289,-2.8282 3.2301,-4.2878 0.2482,-1.7949 -2.3599,-3.571 -1.8994,-5.3626 0.2454,-0.9571 2.6398,-1.772 3.9597,-2.6581 -0.05,-1.0782 -0.099,-2.1564 -0.1489,-3.2346 15.4754,0.2791 30.9505,0.5584 46.4259,0.8374 -0.1516,0.2853 -0.7058,0.576 -0.4566,0.8558 0.1737,0.1956 1.0572,0.2743 1.586,0.4115 0.8534,0.9166 -45.5497,4.2882 -46.4031,3.3716 l 0,0 c -0.2895,-0.033 -0.8153,-0.014 -0.8685,-0.1005 -2.6701,-4.3241 45.8188,-13.81342 46.3181,-2.4259 0.4266,-1.0322 -1.3361,-2.3579 1.2791,-3.097 2.1143,-0.59752 0.4208,1.6768 0.7972,2.5104 0.8299,1.8385 2.4506,3.653 2.8209,5.5032 1.8648,9.3135 -0.6554,18.6358 0.182,27.9516 -1.8934,4.8689 -2.5711,5.289 -1.4575,11.2191 0.4952,2.638 2.6961,5.2444 2.8102,7.8859 0.1792,4.1438 -1.4142,8.2787 -1.9342,12.4203 -1.5198,12.1064 1.1964,4.6295 -4.0184,15.3174 -1.1085,0.9498 -49.1959,-3.4283 -48.0878,-4.3782 z"
         id="path5742-7-2-33-8-9-4-3-0"
         style="opacity:0.95999995;fill:#918f90;fill-opacity:1;stroke:#918f90;stroke-width:0.43718335;stroke-miterlimit:4;stroke-opacity:1;stroke-dasharray:none;stroke-dashoffset:0" />
      <path
         sodipodi:nodetypes="ccsccccccccccccccsccc"
         inkscape:connector-curvature="0"
         d="m 4064.6591,1135.1329 c -36.0032,1.1583 -6.7546,0.4406 -46.0525,0.7089 -8.3154,0.057 -16.6279,0.1741 -24.9359,0.3167 -8.9595,0.1538 -17.894,0.5368 -26.8626,0.5726 -9.7382,0.039 -19.4639,-0.2834 -29.2013,-0.3489 -10.2995,-0.069 -20.6022,-0.037 -30.9037,-0.055 -24.7427,1.965 -48.7211,-0.2712 -73.2512,-1.0043 -1.7806,-0.053 -9.395,-0.4294 -7.7753,-0.7072 -5.0285,-0.603 -13.5207,-4.6611 -10.9533,-9.1223 l -1.7232,-3.6598 c 3.3496,-1.3523 0.8534,-2.6487 5.4247,-3.3665 8.1639,-1.2821 17.464,-1.1749 26.2469,-1.6429 6.0062,-0.3201 12.0348,-0.6533 18.1008,-0.7204 8.6122,-0.095 17.2274,0.1561 25.8409,0.2342 10.1581,-0.1427 20.3158,-0.2855 30.4734,-0.4282 9.3531,0.071 50.2356,0.4042 60.1073,0.4003 8.8776,0 17.7553,-0.086 26.6287,-0.187 8.3333,-0.095 16.6527,-0.4677 24.9881,-0.4027 14.9769,0.1168 29.7929,1.3092 44.7844,1.3815 3.4595,0.285 -7.4766,18.3162 -10.9362,18.0313 z"
         id="path5740-88-0-5-8-9-6-3-0-5"
         style="opacity:0.95999995;fill:#918f90;fill-opacity:1;stroke:#918f90;stroke-width:0.49417263;stroke-miterlimit:4;stroke-opacity:1;stroke-dasharray:none;stroke-dashoffset:0" />
      <path
         sodipodi:nodetypes="ccsccccccccccccccsccc"
         inkscape:connector-curvature="0"
         d="m 3803.1064,1306.8621 c -1.1583,-27.4117 -0.4406,-5.1428 -0.7089,-35.0629 -0.057,-6.3311 -0.1741,-12.66 -0.3167,-18.9854 -0.1538,-6.8216 -0.5368,-13.624 -0.5726,-20.4524 -0.039,-7.4144 0.2834,-14.8192 0.3489,-22.233 0.069,-7.8417 0.037,-15.6859 0.055,-23.5291 -1.965,-18.8383 0.2712,-37.0948 1.0043,-55.7712 0.053,-1.3557 0.4294,-7.1531 0.7072,-5.9199 0.603,-3.8286 4.6611,-10.2942 9.1223,-8.3395 l 3.6598,-1.312 c 1.3523,2.5503 2.6487,0.6498 3.3665,4.1302 1.2821,6.2157 1.1749,13.2966 1.6429,19.9836 0.3201,4.5729 0.6533,9.1629 0.7204,13.7814 0.095,6.557 -0.1561,13.1164 -0.2342,19.6744 0.1427,7.7341 0.2855,15.4678 0.4282,23.2016 -0.071,7.1211 -0.4042,38.2478 -0.4003,45.7638 0,6.7592 0.086,13.5183 0.187,20.2742 0.095,6.3448 0.4677,12.6789 0.4027,19.0252 -0.1168,11.403 -1.3092,22.6834 -1.3815,34.0975 -0.285,2.634 -18.3162,-5.6924 -18.0313,-8.3265 z"
         id="path5740-88-0-5-8-9-6-38-9-1"
         style="opacity:0.95999995;fill:#918f90;fill-opacity:1;stroke:#918f90;stroke-width:0.43119761;stroke-miterlimit:4;stroke-opacity:1;stroke-dasharray:none;stroke-dashoffset:0" />
      <path
         sodipodi:nodetypes="ccsccccccccccccccsccc"
         inkscape:connector-curvature="0"
         d="m 4065.6064,1306.8621 c -1.1583,-27.4117 -0.4406,-5.1428 -0.7089,-35.0629 -0.057,-6.3311 -0.1741,-12.66 -0.3167,-18.9854 -0.1538,-6.8216 -0.5368,-13.624 -0.5726,-20.4524 -0.039,-7.4144 0.2834,-14.8192 0.3489,-22.233 0.069,-7.8417 0.037,-15.6859 0.055,-23.5291 -1.965,-18.8383 0.2712,-37.0948 1.0043,-55.7712 0.053,-1.3557 0.4294,-7.1531 0.7072,-5.9199 0.603,-3.8286 4.6611,-10.2942 9.1223,-8.3395 l 3.6598,-1.312 c 1.3523,2.5503 2.6487,0.6498 3.3665,4.1302 1.2821,6.2157 1.1749,13.2966 1.6429,19.9836 0.3201,4.5729 0.6533,9.1629 0.7204,13.7814 0.095,6.557 -0.1561,13.1164 -0.2342,19.6744 0.1427,7.7341 0.2855,15.4678 0.4282,23.2016 -0.071,7.1211 -0.4042,38.2478 -0.4003,45.7638 0,6.7592 0.086,13.5183 0.187,20.2742 0.095,6.3448 0.4677,12.6789 0.4027,19.0252 -0.1168,11.403 -1.3092,22.6834 -1.3815,34.0975 -0.285,2.634 -18.3162,-5.6924 -18.0313,-8.3265 z"
         id="path5740-88-0-5-8-9-6-38-0-2-1"
         style="opacity:0.95999995;fill:#918f90;fill-opacity:1;stroke:#918f90;stroke-width:0.43119761;stroke-miterlimit:4;stroke-opacity:1;stroke-dasharray:none;stroke-dashoffset:0" />
    </g>
    <path
       style="fill:#b5d92a;fill-opacity:1;stroke:#b5d92a;stroke-width:0.79500002;stroke-miterlimit:4;stroke-opacity:1;stroke-dasharray:none;stroke-dashoffset:0"
       id="path9945"
       d="m 513.73913,360.36563 c 1.0767,2.4448 2.1067,4.9092 3.1524,7.3669 0.091,0.2129 0.3134,0.8588 0.2952,0.6281 -0.084,-1.0712 -2.334,-3.2741 -2.4749,-3.4453 -4.1833,0.9955 -8.3667,1.991 -12.55,2.9865 -0.2662,0.9373 0.059,2.3496 -0.7987,2.8119 -0.7667,0.4131 0.242,-1.7252 0.3784,-2.5854 0.2808,-1.77 0.8679,-3.4745 1.4078,-5.1754 0.2218,-0.7142 0.4574,-1.4243 0.6655,-2.1427 0.212,-0.7319 0.3648,-1.4807 0.5945,-2.2072 1.0543,-3.3343 2.4001,-6.5375 3.8244,-9.7256 1.0942,-1.7888 1.706,-3.1273 3.2482,-4.5222 0.9013,-0.8152 1.6915,-2.443 2.8872,-2.2261 4.6015,0.8345 9.1313,2.5859 13.0626,5.1188 1.0129,0.6527 0.2882,2.3929 0.4496,3.5871 0.049,0.365 0.1216,0.7265 0.1824,1.0898 0.1843,0.2878 0.3174,0.6157 0.5529,0.8634 0.6653,0.6999 1.5059,1.2262 2.1323,1.9611 1.5996,1.8765 3.0683,3.8623 4.5266,5.8506 1.7823,2.43 3.5342,4.8846 5.1926,7.4009 1.5319,2.3243 6.4583,10.5625 8.1158,13.3181 0.7646,1.2329 1.4175,2.5424 2.2937,3.6986 0.1223,0.1614 0.3977,0.077 0.5965,0.1153 -4.6741,0.3046 -9.5137,-0.3558 -14.0224,0.9138 -1.1341,0.3193 -0.4813,2.3636 -1.1237,3.3512 -0.1842,0.2831 -0.4391,-0.5598 -0.4736,-0.8958 -0.1811,-1.768 -0.1094,-3.5528 -0.1642,-5.3292 0.8217,-1.753 1.4871,-3.5882 2.465,-5.2591 0.5904,-1.0088 1.5042,-1.7909 2.2075,-2.7245 0.5745,-0.7628 1.1342,-1.5404 1.6228,-2.3609 1.0885,-1.8278 2.0637,-3.8145 2.5619,-5.8996 0.1748,-0.7318 0.1547,-1.4968 0.2321,-2.2452 0.7326,-5.9908 1.4677,-12.5406 11.9851,-11.5677 7.8276,0.724 5.7143,6.3185 6.8133,10.1997 0.075,0.2661 0.3168,0.4534 0.4752,0.68 2.5789,3.2754 5.265,6.4663 7.8998,9.6966 1.5393,1.8871 3.0259,3.8181 4.6058,5.6714 3.9164,4.5944 2.0499,4.7501 4.865,4.0592 -15.3454,-0.1266 -6.9448,-3.151 -13.2443,5.9522 -0.2312,0.334 -0.4168,-0.7322 -0.4365,-1.138 -0.087,-1.7984 -0.2499,-3.6381 0.1196,-5.4004 0.4081,-1.9466 1.8887,-4.2048 2.9786,-5.9895 0.3844,-1.4158 1.3534,-2.7311 1.1696,-4.2517 -0.029,-0.2379 -0.153,-0.4541 -0.2242,-0.6828 -0.3105,-0.9974 0.018,-0.763 -0.5187,-1.0221 1.8484,1.8054 3.0459,6.072 5.545,5.4162 4.6983,-1.2329 6.925,-6.8677 10.8565,-9.7202 0.4125,-0.2994 0.814,0.6251 1.1474,1.0106 0.9637,1.1141 1.7826,2.3472 2.7317,3.4737 2.3748,2.8184 2.5875,2.8871 5.0687,5.1732 5.7173,0.8314 -0.5331,-0.1577 -14.0552,6.6446 -0.2398,0.1207 0,1.006 -0.1598,0.7895 -0.4238,-0.5777 -0.7345,-1.3012 -0.7409,-2.0176 -0.02,-2.2165 -0.4931,-4.7259 0.6637,-6.6167 1.4255,-2.3299 4.3099,-3.3565 6.4649,-5.0348 4.9835,-0.5998 9.99,-1.428 15.0252,-1.3951 2.2772,0.015 4.5525,0.1364 6.8288,0.2046 0.5835,0.075 1.1984,0.023 1.7507,0.2264 7.6529,2.8155 4.1205,7.1798 -5.1326,16.4655 -1.2076,1.2119 -3.1919,-1.4537 -4.3667,-2.6975 -3.6137,-3.8262 -2.1473,-5.9048 -1.5775,-10.7529 1.2483,-2.2087 2.1404,-4.64 3.5535,-6.7565 0.5527,-0.828 1.1945,-1.5929 1.7917,-2.3894 0.8515,-1.0181 1.8885,-1.8537 2.8009,-2.8116 1.6114,-1.6916 4.2098,-5.3983 6.4553,-5.1463 3.8788,0.4355 7.0526,3.3469 10.5789,5.0203 0.2784,1.3411 0.4134,2.7202 0.8352,4.0233 0.1547,0.478 -0.3735,-1.1492 -0.021,-1.5071 0.2524,-0.2561 0.5971,0.4102 0.8452,0.6705 0.799,0.8384 1.4947,1.7708 2.2868,2.6157 2.4596,2.6238 3.9787,3.9901 6.5654,6.4369 5.0228,0.9143 -6.9915,-1.2916 -7.7174,-0.9438 -2.6196,1.2551 -3.1227,4.9081 -4.4576,7.4879 -0.1719,0.3322 0.057,1.4922 0,1.1221 -1.2077,-8.2537 -1.3847,-4.4037 6.2138,-12.3656 1.0093,-0.106 2.0207,-0.1934 3.0279,-0.318 2.3088,-0.2856 3.2123,-0.4734 5.6066,-1.141 3.8888,-1.0844 3.2188,-1.303 7.8805,-2.0888 1.5355,-0.2589 3.0981,-0.3167 4.6471,-0.4751 1.0272,4.3913 8.1584,-1.839 10.8046,0.6126 5.8336,5.4048 8.0686,7.8965 2.9139,14.9159 -1.392,1.8955 1.9384,-4.3905 2.0938,-6.737 0.092,-1.3843 -0.9253,-2.6158 -1.3879,-3.9237 2.5994,1.4428 4.9935,3.2081 7.4728,4.8362 0.3066,0.2013 0.5886,0.595 0.9527,0.5508 0.4628,-0.056 -2.723,-1.9777 0.4568,0.056 -4.4896,2.9917 -8.3925,7.1481 -13.4689,8.975 -1.2655,0.4554 -0.2559,-2.6802 -0.2863,-4.0248 -0.024,-1.0437 0.2108,-2.0789 0.243,-3.1223 0.031,-1.0026 -0.018,-2.3504 -0.042,-3.3343 -0.018,-0.7168 0.07,-1.4443 -0.054,-2.1506 -0.06,-0.3392 -0.4028,-0.578 -0.4847,-0.9126 -0.4394,-1.7956 -0.9805,-5.7592 -1.3597,-7.7024 -0.4776,-2.4468 -0.456,-2.2876 -0.4257,-1.5345 5.4815,-1.7305 10.7673,-4.291 16.4445,-5.1916 0.8606,-0.1365 0.6982,1.6001 0.9629,2.4302 0.2494,0.7824 1.3578,2.6449 0.5754,2.3954 -0.8043,-0.2564 -0.281,-1.7003 -0.6978,-2.4344 -0.5031,-0.8859 -2.2641,-1.3294 -1.9981,-2.3128 0.236,-0.8723 1.4616,1.063 2.1924,1.5945 2.4812,2.7702 0.9779,0.9252 2.6753,3.3159 0.1212,0.1706 0.2774,0.3162 0.3864,0.4949 0.3276,0.5367 0.592,1.1102 0.9203,1.6464 0.087,0.142 0.4206,0.5161 0.3218,0.3821 -0.6118,-0.8296 -1.2408,-1.6463 -1.8612,-2.4694 5.8375,-3.9225 1.698,3.7893 3.4428,4.5385 0.3005,0.1291 0.6528,-0.04 0.9792,-0.06 1.379,0.8378 2.7579,1.6755 4.1368,2.5133 0.9125,0.7961 -10.3461,13.7003 -11.2585,12.9042 l 0,0 c -5.4665,-3.7616 -5.0889,-2.9533 -9.2014,-7.7518 -0.3096,-0.3614 -1.0496,-1.568 -0.702,-1.243 0.9404,0.8795 1.6742,1.9567 2.5113,2.935 -3.6341,-3.6859 -2.1901,-1.7583 -3.8125,-4.3481 -0.3034,-0.4843 -1.2175,-1.5202 -0.1409,-0.2619 2.6262,2.0618 -2.5241,-1.9734 -2.8054,-2.3251 -0.9059,-1.1329 -1.2977,-2.5951 -1.9106,-3.9098 -0.027,-0.057 0.017,-0.1284 -2e-4,-0.1892 -0.048,-0.1756 -0.3556,-0.4321 -0.1917,-0.5113 5.0856,-2.4603 10.3238,-4.5917 15.4857,-6.8875 0.9442,3.3511 1.3615,6.7883 2.0326,10.1975 0.2845,1.4455 0.6896,2.8688 0.9042,4.3263 0.1063,0.7221 0.037,1.4593 0.055,2.189 0.045,2.131 0.071,4.2439 -0.095,6.3708 -0.035,0.4459 0.1996,1.6408 -0.1275,1.3357 -0.4622,-0.431 0.1264,-2.1622 -0.4221,-1.8482 -4.7378,2.7126 -8.8166,6.4412 -13.2249,9.6617 0.1821,0.1324 0.7441,0.5046 0.5463,0.3971 -2.5479,-1.3848 -4.8906,-3.1663 -7.3639,-4.6769 -0.8087,-0.4939 -1.6279,-0.9704 -2.4419,-1.4556 -6.0482,-7.5567 -5.5861,-3.8948 -2.9338,-13.9832 0.5418,-2.0606 -1.9282,4.2532 -1.2417,6.2702 0.8893,2.6129 3.92,3.9293 5.4867,6.2017 0.2373,0.3443 -0.8798,0.128 -1.2529,-0.061 -0.2364,-0.1196 0.5157,-0.1211 0.7736,-0.1817 -0.6018,0 -4.9674,-0.079 -5.7825,0.1116 -1.3705,0.3207 -2.6361,0.9909 -3.9766,1.4198 -1.3115,0.4195 -2.6423,0.778 -3.975,1.124 -4.6802,1.215 -3.0724,1.0934 -6.3152,1.0176 1.4925,-2.2724 3.6009,-4.2436 4.4775,-6.8171 0.4416,-1.2966 -1.9349,-3.2954 -0.7815,-4.034 1.0963,-0.7021 1.6305,2.3821 1.3694,3.6575 -0.7054,3.445 -1.1313,7.8445 -4.1079,9.7169 -5.9634,3.7513 -10.0444,-0.2227 -13.8741,-3.0476 -3.0998,-3.0268 -4.5274,-4.3206 -7.4734,-7.6358 -1.3928,-1.5674 -4.083,-4.7979 -4.9883,-6.7791 -0.5649,-1.2364 -0.7986,-2.5997 -1.1358,-3.9165 -0.2071,-0.8084 0.4966,1.5934 0.7449,2.3901 3.3552,1.3652 6.4502,3.8735 10.0658,4.0955 1.7367,0.1067 2.6781,-2.2283 4.1042,-3.2251 0.3152,-0.2203 -0.4974,0.5864 -0.7471,0.8787 -1.1223,1.3136 -2.163,2.9355 -3.6993,3.7779 -0.1915,0.1217 -0.4165,0.2023 -0.5746,0.3651 -0.5453,0.5614 -0.8805,1.411 -1.2164,2.0822 -0.5797,1.1583 -1.1694,2.3116 -1.7741,3.4571 -0.035,-3.4667 0.7763,-5.2191 -1.9158,-7.7169 -0.9522,-0.8835 -2.5858,-2.9312 -3.394,-1.9143 -17.7141,22.288 -10.2091,11.4247 -4.4809,16.404 0.2759,0.2398 -0.7306,-0.025 -1.0959,-0.038 0.4472,-0.017 1.7864,0 1.3418,-0.05 -1.5554,-0.1814 -4.0328,-0.1384 -5.5882,0 -1.091,0.1002 -2.1671,0.3331 -3.2582,0.432 -0.7024,0.064 -1.4135,-0.016 -2.1151,0.055 -0.7592,0.077 -1.5039,0.2598 -2.2558,0.3897 4.9692,-6.1093 3.779,-2.5522 3.6529,-9.6006 0,-0.08 0.048,0.1535 0.076,0.2289 0.4816,1.3002 2.4686,2.9545 1.4524,3.8977 -11.9166,11.06 -10.6063,11.1611 -16.1627,6.3923 -3.3011,-3.3327 -6.4467,-6.724 -9.1673,-10.565 -0.9302,-1.3133 -3.2345,-2.5651 -2.6228,-4.0538 2.0184,-4.9121 4.7139,-10.5345 9.5335,-12.7647 2.5153,-1.1639 4.1883,3.6308 6.2825,5.4462 0.3174,0.9201 0.7026,1.8196 0.9521,2.7604 0.5094,1.9202 0.7727,4.665 0.6639,6.5622 -0.2053,3.5823 -1.5514,6.7855 -2.8966,10.0532 -0.4103,0.6869 -0.5968,1.5729 -1.231,2.0607 -0.2684,0.2064 -0.067,-0.6756 -0.1403,-1.006 -0.1504,-0.6746 -0.8262,-2.6291 -0.5309,-2.0043 1.6228,3.4346 1.3191,10.1384 -1.357,12.1981 -3.1775,2.4457 -7.9843,0.7503 -11.9764,1.1254 -1.4389,-1.0751 -3.008,-1.9949 -4.3166,-3.2253 -1.9349,-1.8194 -7.3662,-8.6524 -8.8767,-10.514 -3.5985,-4.4348 -7.5226,-8.7461 -9.9602,-13.9732 -0.378,-1.1969 -0.8067,-2.379 -1.1342,-3.5908 -1.4076,-5.2094 3.5269,4.1389 5.691,4.0216 3.9638,-0.2149 6.7158,-4.2344 10.0737,-6.3516 -0.071,0.1324 -0.1882,0.2489 -0.2137,0.397 -0.1754,1.0211 -0.2562,2.0561 -0.3843,3.0841 -0.2705,1.6746 -0.392,3.3802 -0.8116,5.0238 -1.2091,4.7362 -3.6339,9.2425 -6.5315,13.1491 -0.4479,0.6039 -0.7767,1.6014 -1.5262,1.6608 -0.5107,0.041 -0.1325,-1.0161 -0.1987,-1.5241 -0.2008,-0.6622 -0.8865,-2.6176 -0.6023,-1.9867 1.0326,2.2921 2.9113,8.894 0.8367,10.2467 -12.5846,8.2057 -15.0225,3.2442 -19.6541,-4.3271 -1.728,-2.8608 -5.8576,-9.7612 -7.6115,-12.3891 -1.5537,-2.328 -3.1943,-4.5979 -4.8568,-6.8495 -2.6485,-3.5872 -6.5025,-7.9682 -8.5781,-11.9794 -0.6412,-1.2391 -0.8008,-2.6728 -1.2013,-4.0092 -0.093,-0.8401 -0.3466,-1.6777 -0.279,-2.5202 0.035,-0.4367 -0.027,1.0958 0.3802,1.2582 5.6072,2.238 10.9445,7.6445 13.7498,2.4748 0.1019,-0.1878 -0.9769,0.901 -0.6354,-0.083 -0.5136,1.1531 -1.1032,2.2724 -1.5869,3.4383 -0.3112,0.7499 -0.5496,1.5282 -0.8421,2.2856 -0.2287,0.5922 -0.5272,1.1582 -0.7212,1.7627 -0.2903,0.9045 -0.4694,1.8412 -0.729,2.755 -0.2312,0.8143 -0.4955,1.6189 -0.7432,2.4283 -0.1666,0.476 -0.689,1.9051 -0.8358,2.5155 -0.109,0.453 -0.052,0.9572 -0.2628,1.3728 -0.115,0.2269 0.011,-1.0096 -0.047,-0.7618 -0.3377,1.4539 0.486,3.647 -0.7993,4.4057 -3.8675,2.2827 -8.6345,2.4738 -12.9517,3.7107 -0.943,-0.9893 -1.9709,-1.9043 -2.8291,-2.9681 -0.2845,-0.3526 -0.9405,-1.9061 -1.1735,-2.4576 -1.2572,-2.9762 -2.5787,-5.9271 -3.6328,-8.9849 -0.287,-1.1764 16.3501,-5.2361 16.6371,-4.0597 z"
       inkscape:connector-curvature="0" />
  </g>
</svg>
