<?xml version="1.0" encoding="UTF-8" standalone="no"?>
<!-- Created with Inkscape (http://www.inkscape.org/) -->

<svg
   xmlns:dc="http://purl.org/dc/elements/1.1/"
   xmlns:cc="http://creativecommons.org/ns#"
   xmlns:rdf="http://www.w3.org/1999/02/22-rdf-syntax-ns#"
   xmlns:svg="http://www.w3.org/2000/svg"
   xmlns="http://www.w3.org/2000/svg"
   xmlns:sodipodi="http://sodipodi.sourceforge.net/DTD/sodipodi-0.dtd"
   xmlns:inkscape="http://www.inkscape.org/namespaces/inkscape"
   width="400.15625"
   height="400.15625"
   id="svg9167"
   version="1.1"
   inkscape:version="0.48.5 r10040"
   sodipodi:docname="folder.svg"
   inkscape:export-filename="/home/banana/flySightAndroid/FloatSight/icons/mainmenu/drawing.png"
   inkscape:export-xdpi="44.98243"
   inkscape:export-ydpi="44.98243">
  <defs
     id="defs9169" />
  <sodipodi:namedview
     id="base"
     pagecolor="#ffffff"
     bordercolor="#666666"
     borderopacity="1.0"
     inkscape:pageopacity="0.0"
     inkscape:pageshadow="2"
     inkscape:zoom="0.9899495"
     inkscape:cx="621.85196"
     inkscape:cy="123.82725"
     inkscape:document-units="px"
     inkscape:current-layer="layer1"
     showgrid="false"
     fit-margin-top="0"
     fit-margin-left="0"
     fit-margin-right="0"
     fit-margin-bottom="0"
     inkscape:window-width="1680"
     inkscape:window-height="1002"
     inkscape:window-x="0"
     inkscape:window-y="29"
     inkscape:window-maximized="1" />
  <metadata
     id="metadata9172">
    <rdf:RDF>
      <cc:Work
         rdf:about="">
        <dc:format>image/svg+xml</dc:format>
        <dc:type
           rdf:resource="http://purl.org/dc/dcmitype/StillImage" />
        <dc:title />
      </cc:Work>
    </rdf:RDF>
  </metadata>
  <g
     inkscape:label="Layer 1"
     inkscape:groupmode="layer"
     id="layer1"
     transform="translate(-399.91966,-115.14732)">
    <path
       style="color:#000000;fill:#b5d92a;fill-opacity:1;stroke:none;stroke-width:1px;marker:none;visibility:visible;display:inline;overflow:visible;enable-background:accumulate"
       d="m 439.4318,180.2785 2.3438,150.43769 6.25,-11.7107 21.875,-74.76849 276.56253,-2.7024 -1.5625,-22.5207 -159.37503,-3.6033 -38.2813,-35.1321 z"
       id="path8912-5-1"
       inkscape:connector-curvature="0" />
    <path
       style="opacity:0.95999995;fill:#4f4c4d;fill-opacity:1;stroke:#4f4c4d;stroke-width:0.17982461;stroke-miterlimit:4;stroke-opacity:1;stroke-dashoffset:0"
       d="m 426.8669,449.96919 c 1.3906,-0.9162 2.78,-1.8508 4.1728,-2.7338 0.7826,-0.4962 1.5659,-0.9829 2.3518,-1.4245 0.5,-0.2811 0.9991,-0.6104 1.5075,-0.6964 1.0653,-0.1802 2.1376,-0.098 3.2093,0 0,0 0,0 0,0 1.3802,0.1263 2.7613,0.3335 4.1427,0.5536 0,0 0,0 0,0 2.4689,0.3937 4.9406,0.9712 7.4051,1.0474 1e-4,0 1e-4,0 1e-4,0 3.0148,0.093 6.0268,0 9.0274,-0.4939 0,0 0,0 0,0 2.9862,-0.4938 5.9635,-1.2625 8.945,-1.8966 2.6219,-0.3964 5.2423,-0.8423 7.8629,-1.2768 1.184,-0.1963 2.3683,-0.4018 3.5576,-0.3879 0,0 0,0 0,0 1.2654,0.015 2.5343,0.2421 3.8023,0.4337 0,10e-5 0,10e-5 10e-5,10e-5 2.866,0.433 5.7317,0.8347 8.5969,1.188 1e-4,0 1e-4,0 1e-4,0 3.3569,0.4139 6.7135,0.8081 10.0702,1.2088 2.2857,0.2729 4.5712,0.5451 6.8568,0.813 0,0 0,0 0,0 0.7922,0.093 1.5841,0.1855 2.3762,0.2753 0.3669,0.041 0.7338,0.094 1.1004,0.1183 2.7568,0.1893 5.5233,0.7238 8.2594,0.091 3.3667,-0.7779 6.6767,-2.8762 10.0159,-4.3146 7.7951,2.1528 15.5069,-1.309 23.2843,-1.0239 0,0 0,0 0,0 3.3191,0.1218 6.654,1.8291 9.9764,2.1567 3.1025,0.3059 6.1888,-0.2635 9.2864,-0.2574 2.4673,0 4.9346,0 7.4044,0.1376 0.5392,0.031 1.0788,0.1076 1.6182,0.16 0,0 10e-5,0 10e-5,0 0.5908,0.057 1.1781,-0.07 1.7667,-0.1283 2.6161,-0.2576 5.2326,-0.4976 7.8495,-0.7273 3.301,0.7909 6.6058,2.1006 9.9021,2.3728 3.3867,0.2797 6.7503,-0.5574 10.1288,-0.7189 2.5121,-0.1205 5.0244,-0.2375 7.5373,-0.3227 0.6091,-0.025 1.2183,-0.038 1.8275,-0.05 0,0 0,10e-5 10e-5,10e-5 0,0 0,0 0,0 0.2716,9e-4 0.5431,-0.012 0.8149,0 0,0 0,0 0,0 0.023,-9e-4 0.047,0 0.071,0.012 10e-5,0 10e-5,0 10e-5,0 0.01,-3e-4 0.011,-5e-4 0.017,-6e-4 0,7e-4 0,-2e-4 0.01,-3e-4 3e-4,0.012 0,0.012 0,0.012 -0.01,2e-4 -0.01,4e-4 -0.016,5e-4 -0.02,9e-4 -0.04,0.013 -0.06,0.014 0,0 0,0 0,0 0,0 0,0 -10e-5,0 -0.1918,0.035 -0.3842,0.049 -0.5766,0.066 0,0 0,0 0,0 -0.6928,0.063 -1.3861,0.1041 -2.0795,0.1385 -0.6354,0.026 -1.2704,0.068 -1.9067,0.044 -0.084,-0.012 -0.1676,-0.012 -0.2516,-0.018 -0.024,0 -0.05,-0.012 -0.074,-0.015 -0.011,4e-4 -0.023,9e-4 -0.035,-0.019 -6e-4,-0.019 0,-0.02 0.01,-0.022 0,0 0,0 0,0 0.017,-0.015 0.035,-0.021 0.053,-0.028 0.084,-0.034 0.1705,-0.052 0.256,-0.071 0,0 0,-1e-4 0,-1e-4 1.1662,-0.2618 2.3375,-0.3716 3.5074,-0.5179 2.9151,-0.3645 5.8317,-0.6773 8.7484,-0.9855 2.9325,-0.3097 5.873,-0.3027 8.8124,-0.3163 2.9119,-0.013 5.8248,0.025 8.7371,0.037 1e-4,0 1e-4,0 1e-4,0 4.9589,-1.2983 10.0156,2.0025 15.0063,1.7653 0,0 0,0 10e-5,0 2.1076,-0.1005 4.1677,-1.6073 6.2687,-1.9524 10e-5,0 10e-5,0 10e-5,0 2.4655,-0.4048 4.9463,-0.225 7.4205,-0.3003 2.1156,-0.06 4.2315,-0.1112 6.3487,-0.096 2.3139,0.015 4.6198,-0.3202 6.9299,-0.4779 0,0 0,0 0,0 3.9498,0.2485 7.8994,0.4563 11.8348,0.031 0,0 0,0 0,0 2.3115,-0.2497 4.6097,-0.9633 6.9239,-1.1071 0,0 0,0 0,0 4.1108,-0.2551 8.2463,0.9485 12.3709,1.4687 4.2313,-0.2972 8.4435,-1.682 12.6932,-0.7338 0.5557,0.1239 1.11153,0.3528 1.66723,0.5691 0,0 0,0 0,0 0.8375,0.326 1.675,0.6802 2.5121,1.0504 0,0 0,0 0,0 0.857,0.3789 1.7139,0.7745 2.5703,1.2037 0.6142,0.3077 1.229,0.6092 1.841,1.0287 0,0 0,0 0,0 0.9718,0.6661 1.9288,1.7533 2.8934,2.6301 0,0 0,0 0,0 0.5743,0.5002 1.1485,1.0002 1.7229,1.5004 0,0 0,0 0,0 0,-0.2739 -0.027,-0.5438 -0.042,-0.8164 -0.011,-0.2256 -0.011,-0.5108 0.041,-0.5961 0.287,-0.4673 0.6061,-0.6231 0.9177,-0.8225 0.4625,-0.2962 0.9294,-0.5184 1.3983,-0.6948 0,0 10e-5,0 10e-5,0 0.4393,-0.1652 0.8806,-0.2983 1.3249,-0.3147 0.1536,0 0.3079,-6e-4 0.4619,0.064 0,0 2e-4,0 2e-4,0 0.081,0.034 0.174,0.031 0.236,0.2535 0.5915,2.1238 1.1743,4.3713 1.5739,7.0677 0.2323,1.568 0.3812,3.3748 0.3133,5.082 0,0 0,0 0,0 -0.063,1.5708 -0.2831,2.9344 -0.5275,4.1617 -0.2978,1.4957 -0.6365,2.8574 -0.9488,4.3072 0,0 0,0 0,0 -0.5054,0.4071 -1.0108,0.814 -1.5161,1.2211 0,0 0,0 -10e-5,0 -0.027,0.038 -0.058,-0.052 -0.081,-0.1314 -0.045,-0.1531 -0.081,-0.3411 -0.1155,-0.5294 -0.118,-0.6423 -0.2146,-1.3364 -0.309,-2.0307 -0.2835,-2.0855 -0.5291,-4.2368 -0.7627,-6.4016 -0.2338,-2.1646 -0.4559,-4.3482 -0.6377,-6.5731 -0.061,-0.7407 -0.1194,-1.4863 -0.1525,-2.2451 -0.01,-0.2224 -0.017,-0.4479 -0.015,-0.6685 0,-0.1148 0.01,-0.2546 0.037,-0.2923 0.037,0.482 0.072,0.9645 0.1087,1.4467 0,10e-5 0,10e-5 0,10e-5 -0.024,1.2062 -0.064,2.4098 -0.052,3.6302 0,10e-5 0,10e-5 0,10e-5 0.01,0.9116 0.07,1.8316 0.1851,2.6595 0.1667,1.2018 0.4031,2.2477 0.6373,3.2781 0,0 0,0 0,0 0.4243,1.8668 0.8682,3.6654 1.306,5.4854 0.069,0.2845 0.1824,0.2636 0.277,0.2157 0,0 0,0 10e-5,0 0,0 0,0 0,0 0.1283,-0.065 0.251,-0.2221 0.3694,-0.4056 0,0 10e-5,0 10e-5,0 0.094,-0.1461 0.1875,-0.3045 0.2719,-0.5164 0,-10e-5 0,-10e-5 0,-10e-5 0.011,-0.026 0.021,-0.054 0.032,-0.086 0,-10e-5 0,-10e-5 10e-5,-10e-5 0.01,-0.014 0.01,-0.03 0.01,-0.053 -4e-4,-0.02 -0.01,-0.015 -0.014,-0.013 -0.014,5e-4 -0.027,0.021 -0.041,0.037 -2.5277,2.8888 -5.2662,4.552 -7.9163,1.8127 0,0 -10e-5,0 -10e-5,0 -0.8581,-0.1232 -1.715,-0.044 -2.5736,-0.3696 -1.2936,-0.4913 -2.5846,-1.2347 -3.8717,-2.1315 -1.3576,-0.9459 -2.72703,-1.1334 -4.09063,-1.3167 -1.5594,-0.2096 -3.1048,0.3422 -4.6628,0.2349 0,0 0,0 0,0 -1.7606,-0.1219 -3.5249,-0.6741 -5.2874,-1.4331 0,0 -1e-4,0 -1e-4,0 -0.7137,0.5469 -1.4246,1.1352 -2.1383,1.6834 0,0 0,0 0,0 -0.3075,0.2362 -0.6173,0.4583 -0.9342,0.5019 -0.3993,0.056 -0.8016,-0.039 -1.2028,-0.073 -0.9824,-0.086 -1.9636,-0.083 -2.9437,-0.044 -2.6594,0.1065 -5.3165,0.3158 -7.9744,0.4862 0,0 0,0 0,0 -2.3155,0.1482 -4.6251,0.5646 -6.9457,0.4718 -2.072,-0.083 -4.1537,-0.9476 -6.2252,-0.9981 -1.8547,-0.045 -3.6957,0.4741 -5.5439,0.7111 0,0 -10e-5,0 -10e-5,0 -1.3081,0.015 -2.6209,-0.1726 -3.9238,0.044 0,0 -10e-5,0 -10e-5,0 -1.6301,0.2711 -3.2602,0.5456 -4.8884,0.8808 -0.6322,0.1297 -1.267,0.2079 -1.8931,0.4851 -0.044,0.018 -0.085,0.035 -0.1273,0.073 -0.01,0.012 -0.017,0.013 -0.023,0.031 0,0 0,0 0,0 0,0 0,0.012 0,0.014 5e-4,0.012 0,0.012 0,0.013 0,0 0,1e-4 0,1e-4 0.01,0.015 0.016,0.02 0.024,0.024 0.015,0.012 0.03,0.015 0.044,0.023 0.047,0.016 0.094,0.027 0.1416,0.034 0.3253,0.056 0.6499,0.056 0.9747,0.065 0.2821,0.012 0.564,0 0.8467,0.04 0.023,-10e-4 0.047,0 0.07,0.021 0,0 0,-2e-4 0,0.012 0,0.012 0,0.012 0,0.012 -0.01,0.012 -0.015,0.012 -0.022,0.015 0,0 0,0 0,0 -0.1228,0.059 -0.2479,0.067 -0.3722,0.09 0,0 0,0 0,0 -2.7671,0.5085 -5.5424,0.7412 -8.3148,1.0712 -3.144,0.3743 -6.2864,0.8052 -9.4325,1.0932 -0.2108,0.02 -0.4216,0.04 -0.6328,0.044 -0.049,10e-4 -0.097,0 -0.1468,-0.012 -1e-4,0 -1e-4,0 -1e-4,0 -0.012,4e-4 -0.025,10e-4 -0.038,-0.012 0,0 0,0 0,0 -0.01,3e-4 -0.011,5e-4 -0.017,-0.012 -2e-4,-0.012 -3e-4,-0.013 0,-0.015 0,0 0,0 0,0 0.01,-0.012 0.012,-0.013 0.018,-0.019 0.025,-0.02 0.052,-0.033 0.078,-0.047 0,0 0,0 0,0 0.089,-0.046 0.1783,-0.084 0.2675,-0.1256 0.1027,-0.049 0.2054,-0.097 0.3074,-0.1579 0.073,-0.044 0.1483,-0.079 0.2171,-0.1785 0,0 0,0 0,0 0.01,-0.012 0.017,-0.027 0.024,-0.046 0,0 0,0 0,0 0.01,-0.012 0.01,-0.026 0.01,-0.046 -4e-4,-0.019 0,-0.036 -0.01,-0.047 -0.01,-0.022 -0.018,-0.034 -0.028,-0.047 -0.1151,-0.138 -0.2352,-0.1473 -0.3533,-0.1842 -0.7599,-0.2374 -1.5189,-0.2586 -2.2776,-0.3115 -1.7477,-0.1218 -3.4937,-0.1449 -5.2396,-0.1566 -2.4922,-0.017 -4.9683,0.6186 -7.4527,0.928 -1.8863,-0.3353 -3.7772,-1.059 -5.6576,-1.0055 -2.7691,0.079 -5.5153,0.9927 -8.2759,1.402 0,0 0,0 0,0 -3.2205,0.4776 -6.4463,0.7747 -9.6667,1.2588 0,0 0,0 0,0 -3.9414,0.5925 -7.8625,1.9098 -11.8175,1.9704 -3.3897,0.052 -6.8006,-1.4626 -10.1946,-1.6326 -3.3684,-0.1688 -6.7215,0.4113 -10.0823,0.6169 -3.1044,-0.5892 -6.2106,-1.3949 -9.3129,-1.7678 -3.0279,-0.3638 -6.0496,-0.3087 -9.0742,-0.4418 -3.0883,-0.1359 -6.1785,-0.3852 -9.2637,-0.3654 0,0 0,0 0,0 -3.3301,0.021 -6.6522,0.4023 -9.9809,0.489 -3.3528,0.088 -6.7089,0.017 -10.064,-0.012 0,0 0,0 0,0 -3.1748,-0.023 -6.3497,-0.054 -9.5246,-0.081 -3.4128,1.0897 -6.807,2.6703 -10.2376,3.2687 -7.2688,1.2679 -14.589,0.6045 -21.9027,-0.1624 -3.4524,-0.362 -6.9073,-0.9339 -10.3609,-1.4044 -3.0238,-0.4118 -6.0559,-1.3902 -9.0702,-1.2424 0,0 0,0 0,0 -3.6807,0.1809 -7.3284,1.4845 -10.9932,2.2268 -4.1356,-0.1688 -8.274,-0.4959 -12.4068,-0.5063 -3.1202,-0.012 -6.2242,0.7695 -9.3495,0.4518 0,0 0,0 0,0 -2.3845,-0.2423 -4.7741,-1.4454 -7.1616,-2.1296 -1.3729,-0.3932 -2.7457,-0.7694 -4.1184,-1.1019 -1.4617,-0.3541 -2.9294,-1.1547 -4.382,-0.9567 0,0 0,0 0,0 -0.9646,0.1313 -1.8777,1.2907 -2.8182,1.9374 -0.027,0.059 -0.063,-0.015 -0.09,-0.084 -0.053,-0.1323 -0.099,-0.3077 -0.1437,-0.4846 -0.1516,-0.6031 -0.2832,-1.2761 -0.4125,-1.9508 0,0 0,-10e-5 0,-10e-5 -0.3885,-2.0267 -0.7409,-4.1491 -1.0814,-6.294 -0.3403,-2.1452 -0.6697,-4.3179 -0.9592,-6.5623 -0.096,-0.7473 -0.1911,-1.5009 -0.2598,-2.2859 -0.02,-0.2302 -0.04,-0.4643 -0.045,-0.7024 0,-0.1243 0,-0.2764 0.023,-0.3356 z"
       id="path5320-3-5-0-01-0-1"
       inkscape:connector-curvature="0" />
    <path
       style="opacity:0.95999995;fill:#918f90;fill-opacity:1;stroke:#4f4c4d;stroke-width:0.30720812;stroke-miterlimit:4;stroke-opacity:1;stroke-dasharray:none;stroke-dashoffset:0"
       id="path5476-9-6-3-8-7-2-5"
       d="m 423.6485,439.69669 c 0.3899,-11.0387 -2.6354,-21.8702 -2.6712,-32.8647 -0.2934,-90.2129 3.3187,28.5605 2.0638,-49.7156 -1.6568,-34.788 -1.1915,-17.9234 -1.5176,-50.5906 0.1,-54.64729 -0.082,-5.5072 0.3609,-57.4265 0.086,-10.12289 -0.044,-20.24889 0.1882,-30.3691 0.1448,-6.30419 0.6388,-12.59439 0.9433,-18.8922 0.5806,-12.00919 -0.4276,-7.62439 0.9467,-12.95459 -0.55,-2.1432 -0.483,-1.2521 2.0664,1.57979 -1.1591,-0.38769 4.0688,-17.57679 5.2279,-17.18909 l 0,0 c 8.2586,5.44679 4.9646,1.81729 9.7511,11.0173 0.2435,7.61089 0.4082,15.2242 0.6622,22.8347 0.4441,13.3064 1.1382,24.8646 1.0215,38.1843 -0.08,9.194 -0.6288,18.37929 -0.707,27.57349 -0.085,9.9728 0.1452,19.9459 0.2178,29.9189 0.3735,14.9624 1.3921,45.9318 0.9932,62.2895 -0.1817,7.4535 -0.9455,14.8795 -1.312,22.3257 -0.2577,5.2378 -0.3547,10.4833 -0.5604,15.7238 -0.9441,24.0547 -0.8812,10.9918 -0.5256,32.2936 0.4222,1.2715 -16.727,7.5329 -17.1492,6.2613 z"
       inkscape:connector-curvature="0" />
    <path
       style="opacity:0.95999995;fill:#918f90;fill-opacity:1;stroke:#4f4c4d;stroke-width:0.12618531;stroke-miterlimit:4;stroke-opacity:1;stroke-dasharray:none;stroke-dashoffset:0"
       id="path5476-9-6-3-9-8-8-2-9"
       d="m 739.27373,251.8243 c 0.3899,-1.8624 -2.6354,-3.6898 -2.6712,-5.5447 -0.2934,-15.2202 3.3187,4.8186 2.0638,-8.3878 -1.6568,-5.8692 -1.1915,-3.0238 -1.5176,-8.5353 0.1,-9.2198 -0.082,-0.9292 0.3609,-9.6887 0.086,-1.7078 -0.044,-3.4162 0.1882,-5.1236 0.1448,-1.0637 0.6388,-2.1249 0.9433,-3.1875 0.5806,-2.026 -0.4276,-1.2863 0.9467,-2.1856 -0.55,-0.3616 -0.483,-0.2112 2.0664,0.2665 -1.1591,-0.065 4.0688,-2.9654 5.2279,-2.9 l 0,0 c 8.2586,0.9189 4.9646,0.3066 9.7511,1.8587 0.2435,1.2842 0.4082,2.5687 0.6622,3.8526 0.4441,2.245 1.1382,4.1951 1.0215,6.4423 -0.08,1.5511 -0.6288,3.1008 -0.707,4.652 -0.085,1.6826 0.1452,3.3652 0.2178,5.0478 0.3735,2.5243 1.3921,7.7493 0.9932,10.5091 -0.1817,1.2576 -0.9455,2.5104 -1.312,3.7666 -0.2577,0.8837 -0.3547,1.7687 -0.5604,2.6529 -0.9441,4.0583 -0.8812,1.8545 -0.5256,5.4484 0.4222,0.2145 -16.727,1.2709 -17.1492,1.0563 z"
       inkscape:connector-curvature="0" />
    <path
       style="opacity:0.95999995;fill:#918f90;fill-opacity:1;stroke:#918f90;stroke-width:0.26778319;stroke-miterlimit:4;stroke-opacity:1;stroke-dasharray:none;stroke-dashoffset:0"
       id="path5476-9-6-3-9-4-5-9-97-9"
       d="m 582.5084,219.7391 c 7.0898,-0.4613 14.0465,3.1177 21.108,3.16 57.9406,0.3471 -18.3435,-3.926 31.9305,-2.4414 22.3433,1.95999 11.5116,1.4095 32.4927,1.7953 35.098,-0.1183 3.537,0.097 36.8831,-0.427 6.5015,-0.10171 13.005,0.052 19.505,-0.2226 4.0489,-0.1713 8.0888,-0.7557 12.13383,-1.1159 7.713,-0.6869 4.8969,0.5058 8.3202,-1.12 1.3765,0.6507 0.8042,0.5714 -1.0146,-2.4445 0.2489,1.3712 11.2889,-4.8135 11.04,-6.1847 l 0,0 c -3.4984,-9.7699 -1.1673,-5.8731 -7.076,-11.5356 -4.8882,-0.288 -9.7781,-0.4829 -14.66603,-0.7834 -8.5462,-0.5253 -15.9697,-1.34651 -24.5245,-1.2084 -5.905,0.095 -11.8044,0.7439 -17.7094,0.8364 -6.4054,0.1005 -12.8107,-0.1718 -19.2159,-0.2577 -9.6099,-0.4418 -29.5005,-1.6468 -40.0064,-1.17491 -4.7871,0.2149 -9.5566,1.11851 -14.339,1.55211 -3.3642,0.3048 -6.7331,0.4196 -10.0989,0.6629 -15.4496,1.1169 -7.0597,1.0425 -20.7412,0.6218 -0.8167,-0.4995 -4.8381,19.7881 -4.021,20.2877 z"
       inkscape:connector-curvature="0" />
    <path
       style="opacity:0.95999995;fill:#918f90;fill-opacity:1;stroke:#918f90;stroke-width:0.23602234;stroke-miterlimit:4;stroke-opacity:1;stroke-dasharray:none;stroke-dashoffset:0"
       id="path5476-9-6-3-9-4-8-0-1-5-1"
       d="m 429.5462,181.6016 c 5.5204,-0.4612 10.9372,3.1177 16.4356,3.16 45.1151,0.3471 -14.2831,-3.926 24.8625,-2.4414 17.3975,1.96 8.9634,1.4095 25.3003,1.7953 27.3288,-0.1183 2.754,0.097 28.7188,-0.427 5.0623,-0.1017 10.1262,0.052 15.1874,-0.2226 3.1527,-0.1713 6.2983,-0.7557 9.4479,-1.1159 6.0057,-0.6869 3.813,0.5058 6.4785,-1.12 1.0718,0.6507 0.6262,0.5714 -0.79,-2.4445 0.1938,1.3712 8.7901,-4.8135 8.5962,-6.1847 l 0,0 c -2.724,-9.76991 -0.9089,-5.87311 -5.5096,-11.53561 -3.8062,-0.288 -7.6137,-0.4829 -11.4196,-0.7834 -6.6545,-0.5253 -12.4348,-1.3465 -19.0959,-1.2084 -4.5979,0.095 -9.1914,0.7439 -13.7893,0.8364 -4.9876,0.1005 -9.975,-0.1718 -14.9624,-0.2577 -7.4827,-0.4418 -22.9704,-1.6468 -31.1507,-1.1749 -3.7275,0.2149 -7.4412,1.1185 -11.165,1.5521 -2.6195,0.3048 -5.2427,0.4196 -7.8635,0.6629 -12.0297,1.1169 -5.497,1.0425 -16.15,0.6218 -0.6359,-0.4995 -3.7671,19.78811 -3.1309,20.28771 z"
       inkscape:connector-curvature="0" />
    <path
       style="opacity:0.95999995;fill:#918f90;fill-opacity:1;stroke:#918f90;stroke-width:0.15610139;stroke-miterlimit:4;stroke-opacity:1;stroke-dasharray:none;stroke-dashoffset:0"
       id="path5476-9-6-3-9-4-8-1-9-5-6-4"
       d="m 538.5079,171.324 c 1.9097,1.7978 1.2627,6.2749 2.8511,8.4031 13.033,17.4628 -1.74,-8.0966 8.8285,7.8519 3.884,7.963 1.7512,4.3717 6.3081,10.8703 8.1001,10.3569 0.748,1.117 8.7013,10.6801 1.5504,1.8648 2.9414,3.9022 4.5996,5.6501 1.033,1.0887 2.3224,1.8968 3.4726,2.8572 2.1933,1.8313 0.8035,1.7965 2.6029,1.7204 -0.092,0.8472 -0.1732,0.6237 1.2965,-1.9469 -0.8002,0.9972 5.5912,0.1172 6.3917,-0.8791 l 0,0 c 5.3087,-7.61501 3.4052,-4.2995 5.5945,-9.8669 -0.9377,-1.6475 -1.9341,-3.2326 -2.864,-4.8883 -1.6259,-2.8948 -2.81,-5.6549 -4.8528,-8.1059 -1.4094,-1.6921 -3.1645,-3.0094 -4.5727,-4.7031 -1.5278,-1.8371 -2.8221,-3.925 -4.2332,-5.8874 -1.9214,-3.1549 -5.7165,-9.8805 -8.4141,-12.687 -1.2291,-1.2788 -2.8848,-2.0889 -4.2495,-3.21931 -0.96,-0.7952 -1.8021,-1.7197 -2.7241,-2.557 -4.2313,-3.8424 -2.2661,-1.3977 -5.1318,-5.749 0.1259,-0.5788 -13.479,11.87781 -13.6047,12.45701 z"
       inkscape:connector-curvature="0" />
    <path
       style="opacity:0.95999995;fill:#4f4c4d;fill-opacity:1;stroke:#918f90;stroke-width:0.59678048;stroke-miterlimit:4;stroke-opacity:1;stroke-dasharray:none;stroke-dashoffset:0"
       id="path5740-1-2-9-2-6-4-4-9"
       d="m 470.143,238.6192 c 44.3876,-1.3383 8.3288,-0.5152 56.7751,-0.7977 10.2509,-0.06 20.4992,-0.191 30.7416,-0.3523 11.0453,-0.1741 22.0604,-0.61921 33.1174,-0.6535 12.0052,-0.038 23.9937,0.3525 35.9975,0.4387 12.6965,0.091 25.3979,0.063 38.0969,0.092 30.5086,-2.3027 60.0616,0.3643 90.29943,1.2532 2.1949,0.064 -4.5166,-0.7206 -6.5144,-0.3934 -3.0137,0.4943 -4.5357,1.7169 -6.8037,2.5753 2.5917,-1.1042 46.7827,11.8774 44.19,12.9815 l 0,0 c -4.1342,1.5968 -6.7658,3.9454 -12.4033,4.79059 -10.0678,1.5097 -21.5333,1.3744 -32.3621,1.9201 -7.4057,0.3732 -14.83913,0.7622 -22.31673,0.8361 -10.6173,0.1053 -21.2371,-0.2 -31.8557,-0.3 -12.5226,0.1597 -25.0456,0.3196 -37.5679,0.4793 -11.5304,-0.092 -61.9282,-0.5228 -74.0978,-0.5269 -10.9442,-0.012 -21.8886,0.086 -32.8275,0.1975 -10.2738,0.1053 -20.5307,0.5385 -30.8062,0.4539 -18.4628,-0.1515 -36.7244,-1.5752 -55.2049,-1.6741 -4.2636,-0.3403 9.2787,-21.66149 13.5427,-21.32139 z"
       inkscape:connector-curvature="0" />
    <path
       style="opacity:0.95999995;fill:#4f4c4d;fill-opacity:1;stroke:#4f4c4d;stroke-width:0.44857419;stroke-miterlimit:4;stroke-opacity:1;stroke-dasharray:none;stroke-dashoffset:0"
       id="path5740-1-2-9-2-9-3-9-6-1"
       d="m 455.3869,260.20159 c -6.3885,28.7247 -1.4171,5.335 -7.4156,36.931 -1.2698,6.6855 -2.5974,13.3546 -3.9497,20.0133 -1.4581,7.1809 -3.137,14.2858 -4.4812,21.5031 -1.4598,7.8365 -2.5638,15.7508 -3.9209,23.6121 -1.4361,8.3146 -2.971,16.6079 -4.4573,24.9117 -5.5342,19.4556 -6.846,39.3199 -9.7093,59.2621 -0.208,1.4475 -0.058,-3.1008 0.4501,-4.3383 0.7695,-1.8653 1.9593,-2.6067 2.939,-3.9101 -1.2217,1.4639 4.2531,33.0366 5.4749,31.5721 l 0,0 c 1.8121,-2.3692 4.067,-3.6006 5.4369,-7.1084 2.4464,-6.2645 3.6987,-13.7841 5.4386,-20.7463 1.1899,-4.7613 2.3962,-9.5373 3.3472,-14.408 1.3498,-6.9155 2.3617,-13.9178 3.5426,-20.8767 1.6223,-8.1491 3.2447,-16.2983 4.867,-24.4473 1.2958,-7.5531 6.9371,-40.5725 8.3819,-48.525 1.2955,-7.1527 2.6758,-14.2841 4.0698,-21.4086 1.3092,-6.691 2.8884,-13.3027 4.0413,-20.0341 2.0718,-12.0953 3.0676,-24.3233 5.1851,-36.419 0.2263,-2.8565 -19.0146,1.56 -19.2408,4.4166 z"
       inkscape:connector-curvature="0" />
    <path
       style="opacity:0.95999995;fill:#4f4c4d;fill-opacity:1;stroke:#4f4c4d;stroke-width:0.44857419;stroke-miterlimit:4;stroke-opacity:1;stroke-dasharray:none;stroke-dashoffset:0"
       id="path5740-1-2-9-2-9-9-8-2-3-0"
       d="m 767.66763,257.9664 c -6.3885,28.72479 -1.4171,5.33499 -7.4156,36.93099 -1.2698,6.6855 -2.5974,13.3546 -3.9497,20.0133 -1.4581,7.181 -3.137,14.2857 -4.4812,21.5031 -1.4598,7.8364 -2.5638,15.7507 -3.9209,23.612 -1.4361,8.3146 -2.971,16.608 -4.4573,24.9117 -5.5342,19.4556 -6.846,39.3199 -9.7093,59.2622 -0.208,1.4474 -0.058,-3.1009 0.4501,-4.3383 0.7695,-1.8654 1.9593,-2.6067 2.939,-3.9102 -1.2217,1.4639 4.2531,33.0367 5.4749,31.5722 l 0,0 c 1.8121,-2.3692 4.067,-3.6006 5.4369,-7.1083 2.4464,-6.2646 3.6987,-13.7843 5.4386,-20.7464 1.1899,-4.7614 2.3962,-9.5373 3.3472,-14.4079 1.3498,-6.9155 2.3617,-13.9179 3.5426,-20.8769 1.6223,-8.1491 3.2447,-16.2983 4.867,-24.4472 1.2958,-7.5532 6.9371,-40.5726 8.3819,-48.5251 1.2955,-7.1525 2.6758,-14.2839 4.0698,-21.4085 1.3092,-6.6909 2.8884,-13.3026 4.0413,-20.0341 2.0718,-12.0954 3.0676,-24.3233 5.1851,-36.41899 0.2263,-2.8565 -19.0146,1.56 -19.2408,4.4166 z"
       inkscape:connector-curvature="0" />
  </g>
</svg>
