<?xml version="1.0" encoding="UTF-8" standalone="no"?>
<!-- Created with Inkscape (http://www.inkscape.org/) -->

<svg
   xmlns:dc="http://purl.org/dc/elements/1.1/"
   xmlns:cc="http://creativecommons.org/ns#"
   xmlns:rdf="http://www.w3.org/1999/02/22-rdf-syntax-ns#"
   xmlns:svg="http://www.w3.org/2000/svg"
   xmlns="http://www.w3.org/2000/svg"
   xmlns:sodipodi="http://sodipodi.sourceforge.net/DTD/sodipodi-0.dtd"
   xmlns:inkscape="http://www.inkscape.org/namespaces/inkscape"
   width="400.15625"
   height="400.15625"
   id="svg9167"
   version="1.1"
   inkscape:version="0.48.5 r10040"
   sodipodi:docname="import_grey.svg"
   inkscape:export-filename="/home/banana/flySightAndroid/FloatSight/icons/mainmenu/drawing.png"
   inkscape:export-xdpi="44.98243"
   inkscape:export-ydpi="44.98243">
  <defs
     id="defs9169" />
  <sodipodi:namedview
     id="base"
     pagecolor="#ffffff"
     bordercolor="#666666"
     borderopacity="1.0"
     inkscape:pageopacity="0.0"
     inkscape:pageshadow="2"
     inkscape:zoom="1.4"
     inkscape:cx="444.8251"
     inkscape:cy="104.04221"
     inkscape:document-units="px"
     inkscape:current-layer="layer1"
     showgrid="false"
     fit-margin-top="0"
     fit-margin-left="0"
     fit-margin-right="0"
     fit-margin-bottom="0"
     inkscape:window-width="1680"
     inkscape:window-height="1002"
     inkscape:window-x="0"
     inkscape:window-y="29"
     inkscape:window-maximized="1" />
  <metadata
     id="metadata9172">
    <rdf:RDF>
      <cc:Work
         rdf:about="">
        <dc:format>image/svg+xml</dc:format>
        <dc:type
           rdf:resource="http://purl.org/dc/dcmitype/StillImage" />
        <dc:title />
      </cc:Work>
    </rdf:RDF>
  </metadata>
  <g
     inkscape:label="Layer 1"
     inkscape:groupmode="layer"
     id="layer1"
     transform="translate(-399.91966,-115.14732)">
    <path
       style="opacity:0.95999995;fill:#4f4c4d;fill-opacity:1;stroke:#4f4c4d;stroke-width:0.17598237;stroke-miterlimit:4;stroke-opacity:1;stroke-dashoffset:0"
       d="m 668.7924,315.4205 c 0.6686,-3.7402 1.7757,-7.4845 2.0058,-11.2192 0.2364,-3.837 -0.4712,-7.648 -0.6077,-11.4757 -0.1019,-2.8463 -0.2008,-5.6927 -0.2728,-8.5398 -0.021,-0.69 -0.032,-1.3803 -0.042,-2.0706 l 10e-5,0 0,0 c 7e-4,-0.3078 -0.01,-0.6153 0,-0.9233 l 0,0 c -8e-4,-0.026 0,-0.053 0.01,-0.08 l 0,0 c -2e-4,-0.01 -4e-4,-0.013 -5e-4,-0.02 6e-4,-1e-4 -10e-5,0 -2e-4,-0.01 0.01,-3e-4 0.01,0 0.01,0 2e-4,0.01 4e-4,0.012 5e-4,0.018 7e-4,0.023 0.011,0.045 0.012,0.068 l 0,0 0,0 c 0.03,0.2174 0.041,0.4355 0.056,0.6534 0,0 0,0 0,10e-5 0.053,0.7849 0.088,1.5704 0.1171,2.3561 0.022,0.7198 0.057,1.4392 0.037,2.1601 -0.01,0.095 -0.01,0.19 -0.015,0.2851 9e-4,0.028 -0.01,0.056 -0.013,0.084 4e-4,0.013 8e-4,0.027 -0.016,0.04 -0.016,5e-4 -0.017,0 -0.019,-0.01 l 0,0 c -0.013,-0.02 -0.018,-0.04 -0.024,-0.06 -0.029,-0.096 -0.044,-0.1931 -0.06,-0.2899 l -10e-5,0 c -0.2213,-1.3215 -0.3141,-2.6484 -0.4378,-3.9739 -0.3081,-3.3029 -0.5725,-6.6073 -0.833,-9.9119 -0.2618,-3.3225 -0.2559,-6.654 -0.2674,-9.9844 -0.011,-3.2991 0.021,-6.5994 0.031,-9.8991 l 0,0 c -1.0975,-5.6184 1.6927,-11.3477 1.4922,-17.0022 l 0,0 c -0.085,-2.388 -1.3587,-4.722 -1.6504,-7.1025 l 0,0 c -0.3422,-2.7935 -0.1902,-5.6041 -0.2538,-8.4074 -0.051,-2.397 -0.094,-4.7942 -0.081,-7.1929 0.013,-2.6216 -0.2707,-5.2344 -0.404,-7.8516 0,0 0,0 0,-1e-4 0.2101,-4.4749 0.3857,-8.95 0.026,-13.4086 0,-1e-4 0,-1e-4 0,-1e-4 -0.2111,-2.6189 -0.8143,-5.2227 -0.9359,-7.8447 l 0,0 c -0.2156,-4.6575 0.8018,-9.3429 1.2415,-14.016 -0.2512,-4.7941 -1.4218,-9.5665 -0.6203,-14.3815 0.1048,-0.6295 0.2983,-1.2593 0.4811,-1.8888 l 0,0 c 0.2756,-0.949 0.575,-1.8977 0.8879,-2.8463 l 0,0 c 0.3203,-0.971 0.6547,-1.9417 1.0175,-2.912 0.2601,-0.696 0.515,-1.3925 0.8696,-2.0859 l 0,0 c 0.563,-1.101 1.482,-2.1853 2.2232,-3.2782 l 0,0 c 0.4229,-0.6506 0.8456,-1.3013 1.2684,-1.9519 l 0,-1e-4 c -0.2315,0 -0.4597,0.031 -0.6901,0.047 -0.1907,0.013 -0.4319,0.013 -0.504,-0.046 -0.395,-0.3251 -0.5267,-0.6867 -0.6953,-1.0397 -0.2503,-0.524 -0.4382,-1.0531 -0.5873,-1.5843 l 0,0 c -0.1396,-0.4978 -0.2521,-0.9978 -0.266,-1.5013 0,-0.174 -5e-4,-0.3488 0.054,-0.5234 l 0,0 c 0.029,-0.092 0.026,-0.1973 0.2143,-0.2674 1.7954,-0.6702 3.6952,-1.3306 5.9745,-1.7832 1.3254,-0.2632 2.8527,-0.4321 4.2958,-0.3551 l 0,0 c 1.3278,0.071 2.4805,0.3207 3.5179,0.5976 1.2643,0.3376 2.4154,0.7213 3.6409,1.075 l 0,0 c 0.3441,0.5726 0.6881,1.1453 1.0322,1.7179 l 0,0 c 0.032,0.031 -0.044,0.066 -0.1111,0.092 -0.1294,0.051 -0.2883,0.092 -0.4475,0.1309 -0.5429,0.1338 -1.1296,0.2432 -1.7165,0.3501 -1.7629,0.3211 -3.5814,0.5995 -5.4113,0.8642 -1.8298,0.2647 -3.6756,0.5164 -5.5563,0.7224 -0.6261,0.069 -1.2564,0.1353 -1.8978,0.1728 -0.188,0.011 -0.3786,0.02 -0.5651,0.017 -0.097,0 -0.2152,-0.01 -0.2471,-0.041 0.4075,-0.041 0.8153,-0.082 1.2229,-0.1232 10e-5,0 10e-5,0 10e-5,0 1.0196,0.028 2.037,0.073 3.0686,0.058 1e-4,0 1e-4,0 1e-4,0 0.7706,-0.011 1.5483,-0.08 2.2481,-0.2096 1.0159,-0.1889 1.9,-0.4568 2.771,-0.7221 l 0,0 c 1.578,-0.4807 3.0984,-0.9837 4.6368,-1.4797 0.2405,-0.078 0.2229,-0.2066 0.1824,-0.3139 l 0,0 0,0 c -0.055,-0.1455 -0.1878,-0.2844 -0.3429,-0.4186 l 0,0 c -0.1235,-0.1067 -0.2574,-0.2125 -0.4365,-0.3082 -10e-5,-1e-4 -10e-5,-1e-4 -10e-5,-1e-4 -0.022,-0.012 -0.046,-0.024 -0.073,-0.035 -10e-5,0 -10e-5,0 -10e-5,0 -0.012,-0.01 -0.025,-0.012 -0.045,-0.011 -0.017,5e-4 -0.013,0.01 -0.011,0.016 5e-4,0.016 0.018,0.031 0.031,0.047 2.4419,2.8639 3.8478,5.9666 1.5323,8.9692 l 0,0 c -0.1042,0.9722 -0.037,1.9431 -0.3125,2.9159 -0.4153,1.4656 -1.0437,2.9282 -1.8017,4.3865 -0.7996,1.5382 -0.9581,3.0897 -1.113,4.6347 -0.1772,1.7668 0.2892,3.5176 0.1985,5.2829 l 0,1e-4 c -0.103,1.9946 -0.5698,3.9935 -1.2114,5.9906 l 0,0 c 0.4623,0.8087 0.9596,1.6141 1.423,2.4227 l 0,0 c 0.1997,0.3484 0.3874,0.6994 0.4243,1.0585 0.047,0.4522 -0.033,0.9082 -0.062,1.3626 -0.073,1.1131 -0.07,2.2247 -0.037,3.3352 0.09,3.0131 0.2669,6.0236 0.411,9.035 l 0,0 c 0.1252,2.6236 0.4772,5.2403 0.3988,7.8694 -0.07,2.3476 -0.801,4.7062 -0.8437,7.0531 -0.038,2.1014 0.4007,4.1873 0.6011,6.2813 l 0,0 c 0.013,1.4821 -0.1459,2.9695 0.037,4.4457 l 0,0 c 0.2292,1.847 0.4612,3.694 0.7445,5.5387 0.1097,0.7162 0.1758,1.4354 0.4101,2.1449 0.015,0.049 0.03,0.097 0.062,0.1441 0.01,0.01 0.011,0.019 0.026,0.026 0,0 0,0 0,1e-4 0,0 0.01,0 0.012,0 0.01,-6e-4 0.01,0 0.011,0 0,0 10e-5,0 10e-5,-1e-4 0.013,-0.01 0.017,-0.018 0.02,-0.027 0.01,-0.017 0.013,-0.033 0.019,-0.05 0.014,-0.053 0.023,-0.107 0.029,-0.1604 0.047,-0.3686 0.047,-0.7364 0.055,-1.1042 0.01,-0.3198 0,-0.6392 0.034,-0.9595 -8e-4,-0.026 0,-0.053 0.018,-0.079 0,0 -10e-5,0 0.01,0 0.01,0 0.01,0 0.01,0 0.01,0.01 0.01,0.017 0.013,0.025 0,0 0,0 0,1e-4 0.05,0.1391 0.057,0.2808 0.076,0.4216 0,0 0,0 0,1e-4 0.4298,3.135 0.6265,6.2795 0.9055,9.4206 0.3164,3.562 0.6806,7.1224 0.9241,10.687 0.017,0.2387 0.034,0.4776 0.037,0.7168 8e-4,0.055 0,0.1107 -0.01,0.1664 l 0,0 c 4e-4,0.014 9e-4,0.029 -0.01,0.043 0,10e-5 0,10e-5 0,10e-5 2e-4,0.01 4e-4,0.013 -0.01,0.02 -0.01,3e-4 -0.011,3e-4 -0.013,0 l 0,0 c -0.01,-0.01 -0.011,-0.014 -0.016,-0.021 -0.017,-0.029 -0.028,-0.059 -0.04,-0.088 l 0,0 c -0.039,-0.1008 -0.071,-0.202 -0.1062,-0.3031 -0.041,-0.1163 -0.082,-0.2327 -0.1334,-0.3482 -0.037,-0.083 -0.067,-0.1681 -0.1509,-0.2461 l 0,-1e-4 c -0.01,-0.01 -0.023,-0.02 -0.039,-0.028 l 0,0 c -0.01,0 -0.022,-0.01 -0.039,-0.01 -0.016,5e-4 -0.03,0 -0.04,0.01 -0.019,0.01 -0.029,0.021 -0.04,0.032 -0.1167,0.1303 -0.1245,0.2664 -0.1557,0.4002 -0.2007,0.8611 -0.2186,1.7211 -0.2633,2.5806 -0.103,1.9801 -0.1225,3.9584 -0.1324,5.9364 -0.014,2.8236 0.5229,5.629 0.7844,8.4439 -0.2834,2.1371 -0.8951,4.2795 -0.8499,6.41 0.067,3.1374 0.8391,6.2488 1.1851,9.3765 l 0,0 c 0.4037,3.6489 0.6549,7.3036 1.0641,10.9522 l 0,1e-4 c 0.5008,4.4656 1.6143,8.9082 1.6656,13.3891 0.044,3.8405 -1.2364,7.7051 -1.3801,11.5503 m -1.6552,42.7514 0,1e-4 m 0,0 c 0.018,3.7729 0.3401,7.5368 0.4134,11.3082 0.074,3.7987 0.014,7.6012 -0.01,11.4025 l 0,0 c -0.019,3.5969 -0.046,7.1941 -0.068,10.7911 0.9211,3.8667 2.2572,7.7124 2.763,11.5992 1.0718,8.2355 0.511,16.5292 -0.1373,24.8157 -0.306,3.9115 -0.7894,7.8258 -1.1871,11.7388 -0.3481,3.4259 -1.1752,6.8612 -1.0502,10.2764 l 0,0 c 0.1529,4.1701 1.2548,8.303 1.8823,12.4552 -0.1427,4.6856 -0.4192,9.3744 -0.428,14.0567 -0.01,3.5352 0.6505,7.0521 0.3819,10.593 l 0,1e-4 c -0.2048,2.7016 -1.2218,5.4089 -1.8001,8.114 -0.3324,1.5554 -0.6504,3.1108 -0.9315,4.6661 -0.2993,1.656 -0.976,3.3189 -0.8087,4.9647 l 0,0 c 0.111,1.0929 1.0911,2.1274 1.6377,3.1931 0.05,0.03 -0.013,0.071 -0.071,0.1026 -0.1118,0.061 -0.2601,0.1125 -0.4096,0.1629 -0.5098,0.1717 -1.0787,0.3208 -1.649,0.4674 l -10e-5,0 c -1.7132,0.4402 -3.5073,0.8394 -5.3204,1.2251 -1.8133,0.3857 -3.6499,0.7589 -5.5471,1.0868 -0.6317,0.1092 -1.2687,0.2167 -1.9323,0.2945 -0.1946,0.023 -0.3925,0.045 -0.5937,0.051 -0.1051,0 -0.2337,0 -0.2837,-0.027 l 0.021,0 c -0.7745,-1.5755 -1.5645,-3.1498 -2.311,-4.7278 -0.4195,-0.8867 -0.8309,-1.7742 -1.2042,-2.6646 -0.2376,-0.5665 -0.5159,-1.1318 -0.5886,-1.708 -0.1524,-1.207 -0.083,-2.4219 0,-3.6361 l 0,0 c 0.1067,-1.5637 0.2819,-3.1286 0.4679,-4.6936 l 0,0 c 0.3328,-2.7973 0.821,-5.5977 0.8854,-8.39 0,-10e-5 0,-10e-5 0,-10e-5 0.079,-3.4157 0,-6.8284 -0.4175,-10.2279 0,0 0,0 0,-10e-5 -0.4174,-3.3833 -1.0672,-6.7564 -1.6032,-10.1346 -0.3351,-2.9705 -0.712,-5.9393 -1.0793,-8.9086 -0.1659,-1.3414 -0.3396,-2.6832 -0.3279,-4.0306 l 0,0 c 0.013,-1.4338 0.2047,-2.8714 0.3666,-4.308 10e-5,0 10e-5,0 10e-5,-1e-4 0.366,-3.2472 0.7056,-6.4941 1.0042,-9.7404 0,-1e-4 0,-1e-4 0,-1e-4 0.3499,-3.8033 0.6831,-7.6063 1.0218,-11.4094 0.2307,-2.5896 0.4608,-5.1792 0.6873,-7.7687 l 0,0 c 0.079,-0.8975 0.1568,-1.7948 0.2327,-2.6922 0.035,-0.4157 0.079,-0.8314 0.1,-1.2468 0.16,-3.1233 0.6118,-6.2579 0.077,-9.3578 -0.6576,-3.8144 -2.4313,-7.5646 -3.6472,-11.3479 1.8198,-8.8318 -1.1065,-17.5692 -0.8655,-26.3809 l 0,0 c 0.103,-3.7606 1.5462,-7.539 1.8231,-11.3032"
       id="path5320-26"
       inkscape:connector-curvature="0"
       sodipodi:nodetypes="cscccccccccccccccccccccccccccccccccccccccccccccccccccccccccccccccccccccccccccccssccccccccccccccccccccccccccccccccccccccccscccccccccccccccccccscccccsccccccccccccccccccccccccccccccscccccccccsccccccccscccccccccccccccccccccccccccccccccccccccccc" />
    <path
       style="opacity:0.95999995;fill:#4f4c4d;fill-opacity:1;stroke:#4f4c4d;stroke-width:0.2869935;stroke-miterlimit:4;stroke-opacity:1;stroke-dasharray:none;stroke-dashoffset:0"
       id="path5476-4"
       d="m 440.7213,130.3366 c 9.6338,0.39 19.0867,-2.6354 28.682,-2.6711 78.7313,-0.2935 -24.9257,3.3186 43.3882,2.0638 30.3605,-1.6568 15.6421,-1.1916 44.1518,-1.5177 47.6923,0.1 4.8062,-0.082 50.1177,0.3609 8.8344,0.086 17.6718,-0.044 26.504,0.1882 5.5018,0.1449 10.9914,0.6389 16.4877,0.9433 10.4807,0.5806 6.654,-0.4276 11.3058,0.9468 1.8703,-0.55 1.0928,-0.4831 -1.3787,2.0663 0.3383,-1.159 15.3398,4.0688 15.0014,5.2279 l 0,0 c -4.7535,8.2587 -1.5861,4.9646 -9.615,9.7511 -6.6423,0.2435 -13.2868,0.4083 -19.9286,0.6622 -11.6129,0.4441 -21.7,1.1382 -33.3244,1.0215 -8.024,-0.081 -16.0402,-0.6287 -24.0642,-0.707 -8.7036,-0.085 -17.4074,0.1453 -26.1111,0.2179 -13.058,0.3734 -40.086,1.392 -54.3617,0.9932 -6.5049,-0.1818 -12.9857,-0.9456 -19.4843,-1.312 -4.5712,-0.2578 -9.149,-0.3547 -13.7226,-0.5604 -20.9932,-0.9442 -9.5929,-0.8813 -28.1836,-0.5257 -1.1097,0.4222 -6.5742,-16.727 -5.4644,-17.1492 z"
       inkscape:connector-curvature="0" />
    <path
       style="opacity:0.95999995;fill:#4f4c4d;fill-opacity:1;stroke:#4f4c4d;stroke-width:0.30204543;stroke-miterlimit:4;stroke-opacity:1;stroke-dasharray:none;stroke-dashoffset:0"
       id="path5476-9-1"
       d="m 416.1365,486.17 c 10.6708,0.39 21.1413,-2.6354 31.7694,-2.6712 87.2064,-0.2934 -27.6087,3.3187 48.0587,2.0638 33.6287,-1.6568 17.326,-1.1915 48.9046,-1.5176 52.826,0.1 5.3236,-0.082 55.5126,0.3609 9.7854,0.086 19.574,-0.044 29.3569,0.1882 6.0941,0.1448 12.1746,0.6388 18.2626,0.9433 11.6089,0.5806 7.3702,-0.4276 12.5228,0.9467 2.0717,-0.55 1.2104,-0.483 -1.5271,2.0664 0.3747,-1.1591 16.991,4.0688 16.6162,5.2279 l 0,0 c -5.2653,8.2586 -1.7568,4.9646 -10.6501,9.7511 -7.3572,0.2435 -14.7169,0.4082 -22.0737,0.6622 -12.8629,0.4441 -24.0359,1.1382 -36.9117,1.0215 -8.8876,-0.081 -17.7667,-0.6288 -26.6545,-0.707 -9.6405,-0.085 -19.2812,0.1452 -28.9218,0.2178 -14.4637,0.3735 -44.401,1.3921 -60.2135,0.9932 -7.2051,-0.1817 -14.3836,-0.9455 -21.5816,-1.3119 -5.0633,-0.2578 -10.1339,-0.3548 -15.1998,-0.5605 -23.253,-0.9441 -10.6255,-0.8812 -31.2174,-0.5256 -1.2292,0.4222 -7.2819,-16.727 -6.0526,-17.1492 z"
       inkscape:connector-curvature="0" />
    <path
       style="opacity:0.95999995;fill:#4f4c4d;fill-opacity:1;stroke:#4f4c4d;stroke-width:0.23653409;stroke-miterlimit:4;stroke-opacity:1;stroke-dasharray:none;stroke-dashoffset:0"
       id="path5476-9-3-2"
       d="m 432.7729,342.6997 c -0.3899,6.544 2.6354,12.9651 2.6712,19.4828 0.2934,53.48 -3.3187,-16.9312 -2.0638,29.4724 1.6568,20.6231 1.1915,10.6253 1.5176,29.9911 -0.1,32.396 0.082,3.2648 -0.3609,34.0435 -0.086,6.001 0.044,12.0039 -0.1882,18.0034 -0.1448,3.7372 -0.6388,7.4662 -0.9433,11.1997 -0.5806,7.1192 0.4276,4.5198 -0.9467,7.6797 0.55,1.2705 0.483,0.7423 -2.0664,-0.9365 1.1591,0.2297 -4.0688,10.4198 -5.2279,10.19 l 0,0 c -8.2586,-3.229 -4.9646,-1.0774 -9.7511,-6.5313 -0.2435,-4.5118 -0.4082,-9.0252 -0.6622,-13.5368 -0.4441,-7.8883 -1.1382,-14.7402 -1.0215,-22.6364 0.081,-5.4504 0.6288,-10.8956 0.707,-16.3461 0.085,-5.9121 -0.1452,-11.8243 -0.2178,-17.7365 -0.3735,-8.87 -1.3921,-27.2293 -0.9932,-36.9264 0.1817,-4.4186 0.9455,-8.8208 1.312,-13.2351 0.2577,-3.1051 0.3547,-6.2147 0.5604,-9.3214 0.9441,-14.26 0.8812,-6.5161 0.5256,-19.1443 -0.4222,-0.7538 16.727,-4.4657 17.1492,-3.7118 z"
       inkscape:connector-curvature="0" />
    <path
       style="opacity:0.95999995;fill:#4f4c4d;fill-opacity:1;stroke:#4f4c4d;stroke-width:0.21143176;stroke-miterlimit:4;stroke-opacity:1;stroke-dasharray:none;stroke-dashoffset:0"
       id="path5476-9-3-6-8"
       d="m 455.9749,131.1626 c -0.3899,5.2287 2.6354,10.3592 2.6712,15.567 0.2934,42.7311 -3.3187,-13.5283 -2.0638,23.5487 1.6568,16.4781 1.1915,8.4898 1.5176,23.9633 -0.1,25.8847 0.082,2.6085 -0.3609,27.2011 -0.086,4.7949 0.044,9.5913 -0.1882,14.3849 -0.1448,2.9861 -0.6388,5.9656 -0.9433,8.9487 -0.5806,5.6883 0.4276,3.6114 -0.9467,6.1361 0.55,1.0152 0.483,0.5931 -2.0664,-0.7482 1.1591,0.1836 -4.0688,8.3256 -5.2279,8.1419 l 0,0 c -8.2586,-2.58 -4.9646,-0.8608 -9.7511,-5.2185 -0.2435,-3.6051 -0.4082,-7.2113 -0.6622,-10.8161 -0.4441,-6.3029 -1.1382,-11.7776 -1.0215,-18.0868 0.081,-4.3549 0.6288,-8.7057 0.707,-13.0607 0.085,-4.7238 -0.1452,-9.4478 -0.2178,-14.1717 -0.3735,-7.0872 -1.3921,-21.7564 -0.9932,-29.5045 0.1817,-3.5305 0.9455,-7.048 1.312,-10.575 0.2577,-2.481 0.3547,-4.9656 0.5604,-7.4479 0.9441,-11.394 0.8812,-5.2065 0.5256,-15.2965 -0.4222,-0.6024 16.727,-3.5682 17.1492,-2.9658 z"
       inkscape:connector-curvature="0" />
    <path
       style="opacity:0.95999995;fill:#4f4c4d;fill-opacity:1;stroke:#4f4c4d;stroke-width:0.1465122;stroke-miterlimit:4;stroke-opacity:1;stroke-dasharray:none;stroke-dashoffset:0"
       id="path5476-9-3-6-0-8"
       d="m 462.9836,252.6754 c -1.8499,1.7417 -0.976,5.5441 -2.4838,7.5394 -12.3726,16.3714 1.3716,-7.1646 -8.5746,7.6551 -3.553,7.2614 -1.5639,3.9487 -5.8707,10.0121 -7.714,9.7465 -0.7048,1.0388 -8.3082,10.0851 -1.4822,1.764 -2.7943,3.6612 -4.3915,5.335 -0.9951,1.0425 -2.2637,1.868 -3.3839,2.8113 -2.136,1.7987 -0.7278,1.631 -2.557,1.7435 0.1346,0.7225 0.2062,0.5214 -1.4099,-1.5529 0.8605,0.7816 -5.6664,0.6553 -6.5268,-0.1263 l 0,0 c -5.7558,-6.0506 -3.6636,-3.3758 -6.1553,-7.9672 0.8712,-1.5155 1.805,-2.9832 2.6678,-4.5051 1.5087,-2.661 2.5759,-5.1618 4.5289,-7.4807 1.3485,-1.6004 3.0641,-2.9124 4.4103,-4.5145 1.4605,-1.7377 2.6722,-3.6691 4.0083,-5.5036 1.7958,-2.9149 5.3189,-9.0989 7.9191,-11.7897 1.1847,-1.2261 2.8249,-2.0897 4.1545,-3.201 0.9352,-0.7818 1.7446,-1.6636 2.6391,-2.4779 4.1058,-3.7373 2.231,-1.4315 4.9266,-5.4731 -0.1555,-0.4876 14.2517,8.923 14.4071,9.4105 z"
       inkscape:connector-curvature="0" />
    <path
       style="opacity:0.95999995;fill:#4f4c4d;fill-opacity:1;stroke:#4f4c4d;stroke-width:0.13274629;stroke-miterlimit:4;stroke-opacity:1;stroke-dasharray:none;stroke-dashoffset:0"
       id="path5476-9-3-6-0-6-9"
       d="m 428.951,283.5144 c -0.2514,2.0755 2.9046,3.9585 3.0777,6.0066 1.42,16.8055 -3.6704,-5.175 -1.4396,9.3617 2.0889,6.4109 1.4137,3.2878 2.1473,9.3633 0.5829,10.1926 0.1507,1.0231 0.3571,10.7225 0.041,1.8912 0.2969,3.7731 0.1914,5.6703 -0.066,1.1819 -0.4805,2.3768 -0.7058,3.5647 -0.4297,2.2651 0.5222,1.4021 -0.7835,2.4579 0.576,0.3747 0.4979,0.2116 -2.083,-0.2014 1.1622,0.02 -3.8431,3.4604 -5.0052,3.4403 l 0,0 c -8.3142,-0.6431 -4.9798,-0.115 -9.8741,-1.6143 -0.3382,-1.4079 -0.5977,-2.8199 -0.9465,-4.2273 -0.6096,-2.4607 -1.447,-4.5843 -1.4969,-7.0728 -0.034,-1.7177 0.3983,-3.4548 0.3614,-5.1724 -0.04,-1.8632 -0.3941,-3.7121 -0.5912,-5.5681 -0.5598,-2.7727 -1.9638,-8.5005 -1.7698,-11.5681 0.088,-1.3977 0.7581,-2.8166 1.0311,-4.2214 0.1919,-0.9881 0.2232,-1.9704 0.3631,-2.9567 0.6422,-4.5272 0.7425,-2.0889 0.1214,-6.0443 -0.4375,-0.218 16.6077,-2.1586 17.0451,-1.9405 z"
       inkscape:connector-curvature="0" />
    <path
       style="opacity:0.95999995;fill:#4f4c4d;fill-opacity:1;stroke:#4f4c4d;stroke-width:0.12678312;stroke-miterlimit:4;stroke-opacity:1;stroke-dasharray:none;stroke-dashoffset:0"
       id="path5476-9-3-6-0-6-2-2"
       d="m 445.7708,317.0156 c -0.2514,1.8932 2.9046,3.6108 3.0777,5.4791 1.42,15.3295 -3.6704,-4.7206 -1.4396,8.5395 2.0889,5.8479 1.4137,2.999 2.1473,8.541 0.5829,9.2974 0.1507,0.9332 0.3571,9.7808 0.041,1.725 0.2969,3.4417 0.1914,5.1723 -0.066,1.078 -0.4805,2.168 -0.7058,3.2516 -0.4297,2.0661 0.5222,1.279 -0.7835,2.242 0.576,0.3418 0.4979,0.193 -2.083,-0.1837 1.1622,0.018 -3.8431,3.1565 -5.0052,3.1382 l 0,0 c -8.3142,-0.5867 -4.9798,-0.1049 -9.8741,-1.4726 -0.3382,-1.2842 -0.5977,-2.5722 -0.9465,-3.856 -0.6096,-2.2446 -1.447,-4.1817 -1.4969,-6.4516 -0.034,-1.5669 0.3983,-3.1515 0.3614,-4.7182 -0.04,-1.6995 -0.3941,-3.386 -0.5912,-5.0791 -0.5598,-2.5291 -1.9638,-7.7539 -1.7698,-10.5521 0.088,-1.275 0.7581,-2.5692 1.0311,-3.8506 0.1919,-0.9014 0.2232,-1.7974 0.3631,-2.6971 0.6422,-4.1295 0.7425,-1.9054 0.1214,-5.5134 -0.4375,-0.1989 16.6077,-1.969 17.0451,-1.7701 z"
       inkscape:connector-curvature="0" />
    <path
       style="opacity:0.95999995;fill:#918f90;fill-opacity:1;stroke:#918f90;stroke-width:0.28467491;stroke-miterlimit:4;stroke-opacity:1;stroke-dasharray:none;stroke-dashoffset:0"
       id="path5740-88"
       d="m 540.4233,240.7158 c -1.1583,-11.9476 -0.4406,-2.2415 -0.7089,-15.2824 -0.057,-2.7595 -0.1741,-5.518 -0.3167,-8.275 -0.1538,-2.9732 -0.5368,-5.9381 -0.5726,-8.9143 -0.039,-3.2317 0.2834,-6.4591 0.3489,-9.6905 0.069,-3.4179 0.037,-6.8368 0.055,-10.2553 -1.965,-8.2108 0.2712,-16.1681 1.0043,-24.3084 0.053,-0.5909 -0.6064,1.2163 -0.3286,1.7538 0.4194,0.8111 1.4541,1.2197 2.1811,1.8296 -0.9349,-0.697 10.0114,-12.6023 10.9463,-11.9054 l 0,0 c 1.3523,1.1117 3.3392,1.8183 4.057,3.3352 1.2821,2.7092 1.1749,5.7955 1.6429,8.7101 0.3201,1.9931 0.6533,3.9937 0.7204,6.0067 0.095,2.858 -0.1561,5.7169 -0.2342,8.5753 0.1427,3.3709 0.2855,6.7417 0.4282,10.1126 -0.071,3.1038 -0.4042,16.6706 -0.4003,19.9465 0,2.9461 0.086,5.8921 0.187,8.8367 0.095,2.7655 0.4677,5.5262 0.4027,8.2923 -0.1168,4.9701 -1.3092,9.8868 -1.3815,14.8617 -0.285,1.1481 -18.3162,-2.4811 -18.0313,-3.6292 z"
       inkscape:connector-curvature="0" />
    <path
       style="opacity:0.95999995;fill:#918f90;fill-opacity:1;stroke:#918f90;stroke-width:0.24223393;stroke-miterlimit:4;stroke-opacity:1;stroke-dasharray:none;stroke-dashoffset:0"
       id="path5742-86"
       d="m 465.4347,237.5815 c -0.2769,-1.8271 -0.7177,-3.6469 -0.8306,-5.4815 -0.1381,-2.247 0.1547,-4.4978 0.079,-6.7459 -0.048,-1.4227 -0.3787,-2.8367 -0.451,-4.2589 -0.1954,-3.8477 -0.047,-9.2539 -0.1236,-13.1252 -0.063,-3.1662 -0.1987,-6.3316 -0.298,-9.4974 0.1817,-2.2691 0.3635,-4.5382 0.5452,-6.8073 -0.14,-2.3975 -0.5865,-4.7957 -0.4201,-7.1924 0.086,-1.235 1.0985,-2.3941 1.1715,-3.6296 0.09,-1.5194 -0.8559,-3.0227 -0.6889,-4.5393 0.089,-0.8103 0.9574,-1.5001 1.4361,-2.2501 -0.018,-0.9126 -0.036,-1.8253 -0.054,-2.738 5.6126,0.2362 11.2251,0.4726 16.8377,0.7089 -0.055,0.2414 -0.256,0.4874 -0.1656,0.7243 0.063,0.1656 0.3834,0.2322 0.5752,0.3483 0.3095,0.776 -16.5199,3.6299 -16.8294,2.854 l 0,0 c -0.105,-0.028 -0.2957,-0.012 -0.315,-0.085 -0.9684,-3.6602 16.6175,-11.6928 16.7986,-2.0535 0.1547,-0.8738 -0.4846,-1.996 0.4639,-2.6216 0.7668,-0.5057 0.1526,1.4195 0.2891,2.125 0.301,1.5563 0.8888,3.0923 1.0231,4.6585 0.6763,7.8837 -0.2377,15.775 0.066,23.6606 -0.6867,4.1215 -0.9325,4.4772 -0.5286,9.4969 0.1796,2.233 0.9778,4.4394 1.0192,6.6753 0.065,3.5076 -0.5129,7.0079 -0.7015,10.5136 -0.5512,10.248 0.4339,3.9188 -1.4574,12.966 -0.402,0.804 -17.8423,-2.902 -17.4404,-3.7061 z"
       inkscape:connector-curvature="0" />
    <path
       style="opacity:0.95999995;fill:#918f90;fill-opacity:1;stroke:#918f90;stroke-width:0.24223393;stroke-miterlimit:4;stroke-opacity:1;stroke-dasharray:none;stroke-dashoffset:0"
       id="path5742-8-8"
       d="m 490.4376,239.6433 c -0.2769,-1.8271 -0.7177,-3.647 -0.8306,-5.4815 -0.1381,-2.247 0.1547,-4.4978 0.079,-6.746 -0.048,-1.4226 -0.3787,-2.8366 -0.451,-4.2588 -0.1954,-3.8477 -0.047,-9.254 -0.1236,-13.1252 -0.063,-3.1662 -0.1987,-6.3316 -0.298,-9.4974 0.1817,-2.2691 0.3635,-4.5382 0.5452,-6.8073 -0.14,-2.3975 -0.5865,-4.7957 -0.4201,-7.1924 0.086,-1.2351 1.0985,-2.3941 1.1715,-3.6296 0.09,-1.5194 -0.8559,-3.0227 -0.6889,-4.5394 0.089,-0.8102 0.9574,-1.5 1.4361,-2.25 -0.018,-0.9127 -0.036,-1.8254 -0.054,-2.7381 5.6126,0.2363 11.2251,0.4727 16.8377,0.7089 -0.055,0.2415 -0.256,0.4875 -0.1656,0.7244 0.063,0.1656 0.3834,0.2322 0.5752,0.3483 0.3095,0.7759 -16.5199,3.6299 -16.8294,2.854 l 0,0 c -0.105,-0.028 -0.2957,-0.012 -0.315,-0.085 -0.9684,-3.6603 16.6175,-11.6929 16.7986,-2.0535 0.1547,-0.8738 -0.4846,-1.996 0.4639,-2.6216 0.7668,-0.5058 0.1526,1.4194 0.2891,2.125 0.301,1.5563 0.8888,3.0922 1.0231,4.6585 0.6763,7.8837 -0.2377,15.775 0.066,23.6606 -0.6867,4.1215 -0.9325,4.4771 -0.5286,9.4968 0.1796,2.2331 0.9778,4.4394 1.0192,6.6754 0.065,3.5076 -0.5129,7.0079 -0.7015,10.5136 -0.5512,10.2479 0.4339,3.9188 -1.4574,12.966 -0.402,0.804 -17.8423,-2.902 -17.4404,-3.7061 z"
       inkscape:connector-curvature="0" />
    <path
       style="opacity:0.95999995;fill:#918f90;fill-opacity:1;stroke:#918f90;stroke-width:0.24223393;stroke-miterlimit:4;stroke-opacity:1;stroke-dasharray:none;stroke-dashoffset:0"
       id="path5742-7-3"
       d="m 514.192,237.986 c -0.2769,-1.8271 -0.7177,-3.6469 -0.8306,-5.4815 -0.1381,-2.247 0.1547,-4.4978 0.079,-6.7459 -0.048,-1.4227 -0.3787,-2.8367 -0.451,-4.2589 -0.1954,-3.8477 -0.047,-9.2539 -0.1236,-13.1252 -0.063,-3.1662 -0.1987,-6.3316 -0.298,-9.4974 0.1817,-2.2691 0.3635,-4.5382 0.5452,-6.8073 -0.14,-2.3975 -0.5865,-4.7957 -0.4201,-7.1924 0.086,-1.235 1.0985,-2.3941 1.1715,-3.6296 0.09,-1.5194 -0.8559,-3.0227 -0.6889,-4.5393 0.089,-0.8103 0.9574,-1.5001 1.4361,-2.2501 -0.018,-0.9126 -0.036,-1.8253 -0.054,-2.738 5.6126,0.2362 11.2251,0.4726 16.8377,0.7089 -0.055,0.2414 -0.256,0.4874 -0.1656,0.7243 0.063,0.1656 0.3834,0.2322 0.5752,0.3483 0.3095,0.776 -16.5199,3.6299 -16.8294,2.854 l 0,0 c -0.105,-0.028 -0.2957,-0.012 -0.315,-0.085 -0.9684,-3.6602 16.6175,-11.6928 16.7986,-2.0535 0.1547,-0.8738 -0.4846,-1.996 0.4639,-2.6216 0.7668,-0.5057 0.1526,1.4195 0.2891,2.125 0.301,1.5563 0.8888,3.0923 1.0231,4.6585 0.6763,7.8837 -0.2377,15.775 0.066,23.6606 -0.6867,4.1215 -0.9325,4.4772 -0.5286,9.4969 0.1796,2.233 0.9778,4.4394 1.0192,6.6753 0.065,3.5076 -0.5129,7.0079 -0.7015,10.5136 -0.5512,10.248 0.4339,3.9188 -1.4574,12.966 -0.402,0.804 -17.8423,-2.902 -17.4404,-3.7061 z"
       inkscape:connector-curvature="0" />
    <path
       style="opacity:0.95999995;fill:#918f90;fill-opacity:1;stroke:#918f90;stroke-width:0.28467491;stroke-miterlimit:4;stroke-opacity:1;stroke-dasharray:none;stroke-dashoffset:0"
       id="path5740-9-8"
       d="m 592.3561,238.6049 c -1.1583,-11.9476 -0.4406,-2.2415 -0.7089,-15.2824 -0.057,-2.7595 -0.1741,-5.518 -0.3167,-8.275 -0.1538,-2.9732 -0.5368,-5.9381 -0.5726,-8.9143 -0.039,-3.2317 0.2834,-6.4591 0.3489,-9.6905 0.069,-3.4179 0.037,-6.8368 0.055,-10.2553 -1.965,-8.2108 0.2712,-16.1681 1.0043,-24.3084 0.053,-0.5909 -0.6064,1.2163 -0.3286,1.7538 0.4194,0.8111 1.4541,1.2197 2.1811,1.8296 -0.9349,-0.697 10.0114,-12.6023 10.9463,-11.9054 l 0,0 c 1.3523,1.1117 3.3392,1.8183 4.057,3.3352 1.2821,2.7092 1.1749,5.7955 1.6429,8.7101 0.3201,1.9931 0.6533,3.9937 0.7204,6.0067 0.095,2.858 -0.1561,5.7169 -0.2342,8.5753 0.1427,3.3709 0.2855,6.7417 0.4282,10.1126 -0.071,3.1038 -0.4042,16.6706 -0.4003,19.9465 0,2.9461 0.086,5.8921 0.187,8.8367 0.095,2.7655 0.4677,5.5262 0.4027,8.2923 -0.1168,4.9701 -1.3092,9.8868 -1.3815,14.8617 -0.285,1.1481 -18.3162,-2.4811 -18.0313,-3.6292 z"
       inkscape:connector-curvature="0" />
    <path
       style="opacity:0.95999995;fill:#918f90;fill-opacity:1;stroke:#918f90;stroke-width:0.24223393;stroke-miterlimit:4;stroke-opacity:1;stroke-dasharray:none;stroke-dashoffset:0"
       id="path5742-7-2-33"
       d="m 566.6726,239.6433 c -0.2769,-1.8271 -0.7177,-3.647 -0.8306,-5.4815 -0.1381,-2.247 0.1547,-4.4979 0.079,-6.746 -0.048,-1.4226 -0.3787,-2.8366 -0.451,-4.2588 -0.1954,-3.8477 -0.047,-9.254 -0.1236,-13.1252 -0.063,-3.1662 -0.1987,-6.3316 -0.298,-9.4974 0.1817,-2.2691 0.3635,-4.5382 0.5452,-6.8074 -0.14,-2.3974 -0.5865,-4.7956 -0.4201,-7.1923 0.086,-1.2351 1.0985,-2.3941 1.1715,-3.6296 0.09,-1.5194 -0.8559,-3.0228 -0.6889,-4.5394 0.089,-0.8102 0.9574,-1.5 1.4361,-2.25 -0.018,-0.9127 -0.036,-1.8254 -0.054,-2.7381 5.6126,0.2363 11.2251,0.4727 16.8377,0.7089 -0.055,0.2415 -0.256,0.4875 -0.1656,0.7244 0.063,0.1656 0.3834,0.2322 0.5752,0.3483 0.3095,0.7759 -16.5199,3.6299 -16.8294,2.854 l 0,0 c -0.105,-0.028 -0.2957,-0.012 -0.315,-0.085 -0.9684,-3.6603 16.6175,-11.6929 16.7986,-2.0535 0.1547,-0.8738 -0.4846,-1.996 0.4639,-2.6216 0.7668,-0.5058 0.1526,1.4194 0.2891,2.125 0.301,1.5563 0.8888,3.0922 1.0231,4.6584 0.6763,7.8838 -0.2377,15.775 0.066,23.6607 -0.6867,4.1215 -0.9325,4.4771 -0.5286,9.4968 0.1796,2.2331 0.9778,4.4394 1.0192,6.6754 0.065,3.5076 -0.5129,7.0078 -0.7015,10.5136 -0.5512,10.2479 0.4339,3.9188 -1.4574,12.966 -0.402,0.804 -17.8423,-2.902 -17.4404,-3.7061 z"
       inkscape:connector-curvature="0" />
    <path
       style="opacity:0.95999995;fill:#918f90;fill-opacity:1;stroke:#918f90;stroke-width:0.24223393;stroke-miterlimit:4;stroke-opacity:1;stroke-dasharray:none;stroke-dashoffset:0"
       id="path5742-7-0-3"
       d="m 617.4959,238.5385 c -0.2769,-1.8272 -0.7177,-3.647 -0.8306,-5.4816 -0.1381,-2.2469 0.1547,-4.4978 0.079,-6.7459 -0.048,-1.4227 -0.3787,-2.8367 -0.451,-4.2589 -0.1954,-3.8476 -0.047,-9.2539 -0.1236,-13.1252 -0.063,-3.1661 -0.1987,-6.3316 -0.298,-9.4973 0.1817,-2.2692 0.3635,-4.5383 0.5452,-6.8074 -0.14,-2.3975 -0.5865,-4.7956 -0.4201,-7.1923 0.086,-1.2351 1.0985,-2.3942 1.1715,-3.6297 0.09,-1.5193 -0.8559,-3.0227 -0.6889,-4.5393 0.089,-0.8103 0.9574,-1.5001 1.4361,-2.2501 -0.018,-0.9126 -0.036,-1.8253 -0.054,-2.738 5.6126,0.2363 11.2251,0.4726 16.8377,0.7089 -0.055,0.2414 -0.256,0.4875 -0.1656,0.7243 0.063,0.1656 0.3834,0.2323 0.5752,0.3484 0.3095,0.7759 -16.5199,3.6298 -16.8294,2.854 l 0,0 c -0.105,-0.028 -0.2957,-0.012 -0.315,-0.085 -0.9684,-3.6603 16.6175,-11.6929 16.7986,-2.0535 0.1547,-0.8739 -0.4846,-1.996 0.4639,-2.6217 0.7668,-0.5057 0.1526,1.4195 0.2891,2.1251 0.301,1.5563 0.8888,3.0922 1.0231,4.6584 0.6763,7.8838 -0.2377,15.775 0.066,23.6606 -0.6867,4.1215 -0.9325,4.4772 -0.5286,9.4969 0.1796,2.2331 0.9778,4.4394 1.0192,6.6753 0.065,3.5076 -0.5129,7.0079 -0.7015,10.5136 -0.5512,10.248 0.4339,3.9189 -1.4574,12.9661 -0.402,0.804 -17.8423,-2.9021 -17.4404,-3.7062 z"
       inkscape:connector-curvature="0" />
    <path
       style="opacity:0.95999995;fill:#918f90;fill-opacity:1;stroke:#918f90;stroke-width:0.24223393;stroke-miterlimit:4;stroke-opacity:1;stroke-dasharray:none;stroke-dashoffset:0"
       id="path5742-7-23-8"
       d="m 642.9076,238.5385 c -0.2769,-1.8272 -0.7177,-3.647 -0.8306,-5.4816 -0.1381,-2.2469 0.1547,-4.4978 0.079,-6.7459 -0.048,-1.4227 -0.3787,-2.8367 -0.451,-4.2589 -0.1954,-3.8476 -0.047,-9.2539 -0.1236,-13.1252 -0.063,-3.1661 -0.1987,-6.3316 -0.298,-9.4973 0.1817,-2.2692 0.3635,-4.5383 0.5452,-6.8074 -0.14,-2.3975 -0.5865,-4.7956 -0.4201,-7.1923 0.086,-1.2351 1.0985,-2.3942 1.1715,-3.6297 0.09,-1.5193 -0.8559,-3.0227 -0.6889,-4.5393 0.089,-0.8103 0.9574,-1.5001 1.4361,-2.2501 -0.018,-0.9126 -0.036,-1.8253 -0.054,-2.738 5.6126,0.2363 11.2251,0.4726 16.8377,0.7089 -0.055,0.2414 -0.256,0.4875 -0.1656,0.7243 0.063,0.1656 0.3834,0.2323 0.5752,0.3484 0.3095,0.7759 -16.5199,3.6298 -16.8294,2.854 l 0,0 c -0.105,-0.028 -0.2957,-0.012 -0.315,-0.085 -0.9684,-3.6603 16.6175,-11.6929 16.7986,-2.0535 0.1547,-0.8739 -0.4846,-1.996 0.4639,-2.6217 0.7668,-0.5057 0.1526,1.4195 0.2891,2.1251 0.301,1.5563 0.8888,3.0922 1.0231,4.6584 0.6763,7.8838 -0.2377,15.775 0.066,23.6606 -0.6867,4.1215 -0.9325,4.4772 -0.5286,9.4969 0.1796,2.2331 0.9778,4.4394 1.0192,6.6753 0.065,3.5076 -0.5129,7.0079 -0.7015,10.5136 -0.5512,10.248 0.4339,3.9189 -1.4574,12.9661 -0.402,0.804 -17.8423,-2.9021 -17.4404,-3.7062 z"
       inkscape:connector-curvature="0" />
    <path
       style="opacity:0.95999995;fill:#918f90;fill-opacity:1;stroke:#918f90;stroke-width:0.24620108;stroke-miterlimit:4;stroke-opacity:1;stroke-dasharray:none;stroke-dashoffset:0"
       id="path5476-9-6-3-9-4-5-9-9"
       d="m 584.6118,320.4427 c 7.0898,-0.3899 14.0465,2.6354 21.108,2.6712 57.9406,0.2934 -18.3435,-3.3187 31.9305,-2.0638 22.3433,1.6568 11.5116,1.1915 32.4927,1.5176 35.098,-0.1 3.537,0.082 36.8831,-0.3609 6.5015,-0.086 13.005,0.044 19.505,-0.1882 4.0489,-0.1448 8.0888,-0.6388 12.1338,-0.9433 7.713,-0.5806 4.8969,0.4276 8.3202,-0.9467 1.3765,0.55 0.8042,0.483 -1.0146,-2.0664 0.2489,1.1591 11.2889,-4.0688 11.04,-5.2279 l 0,0 c -3.4984,-8.2586 -1.1673,-4.9646 -7.076,-9.7511 -4.8882,-0.2435 -9.7781,-0.4082 -14.666,-0.6622 -8.5462,-0.4441 -15.9697,-1.1382 -24.5245,-1.0215 -5.905,0.08 -11.8044,0.6288 -17.7094,0.707 -6.4054,0.085 -12.8107,-0.1452 -19.2159,-0.2178 -9.6099,-0.3735 -29.5005,-1.3921 -40.0064,-0.9932 -4.7871,0.1817 -9.5566,0.9455 -14.339,1.312 -3.3642,0.2577 -6.7331,0.3547 -10.0989,0.5604 -15.4496,0.9441 -7.0597,0.8812 -20.7412,0.5256 -0.8167,-0.4222 -4.8381,16.727 -4.021,17.1493 z"
       inkscape:connector-curvature="0" />
    <path
       style="opacity:0.95999995;fill:#918f90;fill-opacity:1;stroke:#918f90;stroke-width:0.24620108;stroke-miterlimit:4;stroke-opacity:1;stroke-dasharray:none;stroke-dashoffset:0"
       id="path5476-9-6-3-9-4-5-9-7"
       d="m 580.3819,353.013 c 7.0898,-0.3899 14.0465,2.6354 21.108,2.6712 57.9406,0.2934 -18.3435,-3.3187 31.9305,-2.0638 22.3433,1.6568 11.5116,1.1915 32.4927,1.5176 35.098,-0.1 3.537,0.082 36.8831,-0.3609 6.5015,-0.086 13.005,0.044 19.505,-0.1882 4.0489,-0.1448 8.0888,-0.6388 12.1338,-0.9433 7.713,-0.5806 4.8969,0.4276 8.3202,-0.9467 1.3765,0.55 0.8042,0.483 -1.0146,-2.0664 0.2489,1.1591 11.2889,-4.0688 11.04,-5.2279 l 0,0 c -3.4984,-8.2586 -1.1673,-4.9646 -7.076,-9.7511 -4.8882,-0.2435 -9.7781,-0.4082 -14.666,-0.6622 -8.5462,-0.4441 -15.9697,-1.1382 -24.5245,-1.0215 -5.905,0.08 -11.8044,0.6288 -17.7094,0.707 -6.4054,0.085 -12.8107,-0.1452 -19.2159,-0.2178 -9.6099,-0.3735 -29.5005,-1.3921 -40.0064,-0.9932 -4.7871,0.1817 -9.5566,0.9455 -14.339,1.312 -3.3642,0.2577 -6.7331,0.3547 -10.0989,0.5604 -15.4496,0.9441 -7.0597,0.8812 -20.7412,0.5256 -0.8167,-0.4222 -4.8381,16.727 -4.021,17.1493 z"
       inkscape:connector-curvature="0" />
    <path
       style="opacity:0.95999995;fill:#918f90;fill-opacity:1;stroke:#918f90;stroke-width:0.18812074;stroke-miterlimit:4;stroke-opacity:1;stroke-dasharray:none;stroke-dashoffset:0"
       id="path5476-9-6-3-9-4-8-0-1-8"
       d="m 699.9209,288.1953 c 3.7879,1.7366 5.8008,6.3923 9.3615,8.4892 29.2167,17.2072 -7.6369,-8.2411 17.2138,7.5555 10.4949,7.9722 5.2383,4.4 15.708,10.8213 17.8371,10.1828 1.7515,1.106 18.8722,10.4791 3.3379,1.8278 6.5687,3.8432 9.9789,5.5441 2.1243,1.0592 4.4188,1.8135 6.6209,2.7334 4.1991,1.7539 2.2679,1.8031 4.6899,1.6145 0.4227,0.8791 0.1661,0.6536 0.5191,-2.0865 -0.4529,1.0769 7.7556,-0.2204 8.2088,-1.2973 l 0,0 c 2.3564,-8.1756 1.8908,-4.6409 1.2895,-10.5151 -2.3554,-1.641 -4.7512,-3.2143 -7.1013,-4.8645 -4.1091,-2.8851 -7.5241,-5.6583 -11.9179,-8.0604 -3.0325,-1.6584 -6.2968,-2.9093 -9.3283,-4.5692 -3.2888,-1.8006 -6.4197,-3.8742 -9.6295,-5.8112 -4.6836,-3.1353 -14.2543,-9.8371 -19.7781,-12.5656 -2.5169,-1.2433 -5.3158,-1.9774 -7.9227,-3.0593 -1.8338,-0.7611 -3.5896,-1.6629 -5.3982,-2.4695 -8.3016,-3.7029 -4.0183,-1.3024 -10.7741,-5.6136 -0.2029,-0.6045 -10.8155,13.0705 -10.6125,13.6753 z"
       inkscape:connector-curvature="0" />
    <path
       style="opacity:0.95999995;fill:#918f90;fill-opacity:1;stroke:#918f90;stroke-width:0.18812074;stroke-miterlimit:4;stroke-opacity:1;stroke-dasharray:none;stroke-dashoffset:0"
       id="path5476-9-6-3-9-4-8-0-1-8-3"
       d="m 702.2043,368.4126 c 3.7879,-1.7366 5.8008,-6.3923 9.3615,-8.4892 29.2167,-17.2072 -7.6369,8.2411 17.2138,-7.5555 10.4949,-7.9722 5.2383,-4.4 15.708,-10.8213 17.8371,-10.1828 1.7515,-1.106 18.8722,-10.4791 3.3379,-1.8278 6.5687,-3.8432 9.9789,-5.5441 2.1243,-1.0592 4.4188,-1.8135 6.6209,-2.7334 4.1991,-1.7539 2.2679,-1.8031 4.6899,-1.6145 0.4227,-0.8791 0.1661,-0.6536 0.5191,2.0865 -0.4529,-1.0769 7.7556,0.2204 8.2088,1.2973 l 0,0 c 2.3564,8.1756 1.8908,4.6409 1.2895,10.5151 -2.3554,1.641 -4.7512,3.2143 -7.1013,4.8645 -4.1091,2.8851 -7.5241,5.6583 -11.9179,8.0604 -3.0325,1.6584 -6.2968,2.9093 -9.3283,4.5692 -3.2888,1.8006 -6.4197,3.8742 -9.6295,5.8112 -4.6836,3.1353 -14.2543,9.8371 -19.7781,12.5656 -2.5169,1.2433 -5.3158,1.9774 -7.9227,3.0593 -1.8338,0.7611 -3.5896,1.6629 -5.3982,2.4695 -8.3016,3.7029 -4.0183,1.3024 -10.7741,5.6136 -0.2029,0.6045 -10.8155,-13.0705 -10.6125,-13.6753 z"
       inkscape:connector-curvature="0" />
  </g>
</svg>
