<?xml version="1.0" encoding="UTF-8" standalone="no"?>
<!-- Created with Inkscape (http://www.inkscape.org/) -->

<svg
   xmlns:dc="http://purl.org/dc/elements/1.1/"
   xmlns:cc="http://creativecommons.org/ns#"
   xmlns:rdf="http://www.w3.org/1999/02/22-rdf-syntax-ns#"
   xmlns:svg="http://www.w3.org/2000/svg"
   xmlns="http://www.w3.org/2000/svg"
   xmlns:sodipodi="http://sodipodi.sourceforge.net/DTD/sodipodi-0.dtd"
   xmlns:inkscape="http://www.inkscape.org/namespaces/inkscape"
   width="400.15625"
   height="400.15625"
   id="svg9167"
   version="1.1"
   inkscape:version="0.48.5 r10040"
   sodipodi:docname="info.svg"
   inkscape:export-filename="/home/banana/flySightAndroid/FloatSight/icons/mainmenu/drawing.png"
   inkscape:export-xdpi="44.98243"
   inkscape:export-ydpi="44.98243">
  <defs
     id="defs9169" />
  <sodipodi:namedview
     id="base"
     pagecolor="#ffffff"
     bordercolor="#666666"
     borderopacity="1.0"
     inkscape:pageopacity="0.0"
     inkscape:pageshadow="2"
     inkscape:zoom="0.49497475"
     inkscape:cx="551.48531"
     inkscape:cy="-46.956915"
     inkscape:document-units="px"
     inkscape:current-layer="layer1"
     showgrid="false"
     fit-margin-top="0"
     fit-margin-left="0"
     fit-margin-right="0"
     fit-margin-bottom="0"
     inkscape:window-width="1680"
     inkscape:window-height="1002"
     inkscape:window-x="0"
     inkscape:window-y="29"
     inkscape:window-maximized="1" />
  <metadata
     id="metadata9172">
    <rdf:RDF>
      <cc:Work
         rdf:about="">
        <dc:format>image/svg+xml</dc:format>
        <dc:type
           rdf:resource="http://purl.org/dc/dcmitype/StillImage" />
        <dc:title />
      </cc:Work>
    </rdf:RDF>
  </metadata>
  <g
     inkscape:label="Layer 1"
     inkscape:groupmode="layer"
     id="layer1"
     transform="translate(-399.91966,-115.14732)">
    <path
       style="opacity:0.95999995;fill:#918f90;fill-opacity:1;stroke:#918f90;stroke-width:0.26618782;stroke-miterlimit:4;stroke-opacity:1;stroke-dasharray:none;stroke-dashoffset:0"
       id="path5476-9-6-3"
       d="m 619.35798,292.3803 c -0.66232,4.87863 4.47686,9.66574 4.53764,14.52494 0.4985,39.8707 -5.63756,-12.62271 -3.50585,21.97244 2.8146,15.37494 2.02415,7.92135 2.57801,22.35907 -0.16982,24.15205 0.13931,2.43395 -0.61306,25.38032 -0.14609,4.47392 0.0746,8.94931 -0.31975,13.42198 -0.24586,2.78624 -1.08501,5.56627 -1.60237,8.34968 -0.98626,5.30753 0.72638,3.3697 -1.60814,5.72547 0.93429,0.94716 0.8204,0.55329 -3.51037,-0.69826 1.96901,0.17129 -6.9117,7.76826 -8.88083,7.59697 l 0,0 c -14.02916,-2.40728 -8.43352,-0.80322 -16.56446,-4.86925 -0.41375,-3.36372 -0.6934,-6.72856 -1.12489,-10.09205 -0.75441,-5.88093 -1.93353,-10.98927 -1.73524,-16.87608 0.13581,-4.06332 1.06817,-8.12291 1.20093,-12.18635 0.14439,-4.40771 -0.24654,-8.81541 -0.36992,-13.22312 -0.63442,-6.61275 -2.3648,-20.30001 -1.68722,-27.52955 0.30868,-3.29411 1.6061,-6.57614 2.22876,-9.86709 0.43783,-2.31497 0.60245,-4.63322 0.95191,-6.94933 1.60384,-10.63121 1.49696,-4.85796 0.89293,-14.27253 -0.71723,-0.562 28.41469,-3.32937 29.13192,-2.76726 z"
       inkscape:connector-curvature="0" />
    <path
       style="opacity:0.95999995;fill:#4f4c4d;fill-opacity:1;stroke:#4f4c4d;stroke-width:0.32201079;stroke-miterlimit:4;stroke-opacity:1;stroke-dasharray:none;stroke-dashoffset:0"
       d="m 425.23169,271.41898 c 4.36963,-22.1087 48.28806,7.6051 16.65553,9.21018 -16.90432,-4.77728 -9.52869,-21.50783 -12.97579,-23.33606 1.90009,-15.0953 9.77568,-22.1531 5.64005,-15.56905 -1.28195,-8.78039 10.84317,-15.61052 6.63048,-16.04801 5.84116,-7.79774 9.14601,-12.02727 11.84683,-16.22346 7.07983,-9.02094 9.55853,-13.93234 10.87007,-12.53018 9.55604,-13.59608 17.95204,-19.2341 20.39006,-19.95201 2.75698,-3.83905 18.85865,-15.02028 7.80283,-3.68697 6.71127,-10.96961 14.13582,-15.99207 16.72456,-15.16874 14.96424,-9.87601 9.11042,-6.07674 11.4254,-5.52966 -2.10629,-6.95882 37.87016,-11.83858 17.99712,-9.81839 13.99538,-7.06639 18.06368,-0.60346 11.21005,-3.84244 6.94843,-4.56091 22.7517,-1.93443 8.3429,-3.61149 3.27965,-1.94912 -3.21197,5.21771 7.49754,-1.23347 21.78398,-4.58272 -6.52055,-5.78682 -2.973,3.70222 13.16865,-11.17005 9.82132,-5.64174 24.81889,-8.34584 -7.8774,-1.58542 17.89973,2.03239 6.89804,0.79746 16.98691,-0.82141 13.96284,-1.64226 17.83996,-0.5568 4.08739,-2.11736 37.53968,1.95127 33.11695,0.70221 12.63299,1.22341 23.90178,11.60448 5.60536,2.26176 -0.66866,-2.31543 30.59599,5.50909 8.28256,14.33185 -15.62825,21.93537 -3.58064,-4.54047 1.62633,-7.27722 -4.95501,14.09221 -27.6814,17.24283 -2.2717,18.86091 -11.47037,6.63839 -31.2242,-14.66528 -10.22356,-0.20055 11.78571,0.41285 -21.01002,-1.74632 -21.35677,-2.06245 -12.49899,-0.0881 -26.07022,0.99778 -41.57939,0.1062 -9.46825,-0.21636 5.12889,-0.86988 -10.49936,-0.096 -15.70667,2.8947 22.99428,-15.55471 6.21063,-1.34511 -12.85027,6.59625 -20.8454,0.86661 -2.85313,-0.56086 14.16124,-6.79996 -34.02355,16.45916 -10.18628,5.51825 -5.64287,6.73748 -20.86133,5.65858 -11.81881,5.98206 -5.34199,2.75516 -23.98946,5.34933 -7.46014,2.45406 -8.75034,3.41433 -19.21919,8.82964 -10.98938,3.21864 -9.62756,8.04891 -5.92907,3.45466 -15.53889,12.38961 -3.63217,-6.11741 7.98191,-6.85781 -4.43516,2.44819 1.00806,-4.73491 -13.73698,11.85463 -13.89652,8.69327 -6.15549,5.7266 -25.8682,24.98047 -13.50502,8.87971 -7.1657,16.85596 -6.72155,9.57569 -4.93117,7.49211 -8.47476,15.35562 -3.25513,0.29128 -10.32841,15.14457 2.49474,-4.30139 -21.20006,27.65078 -11.93779,15.21597 -5.14426,9.40068 -3.88491,12.00795 -2.59992,-0.45206 6.6054,18.51856 -7.56296,14.83871 -0.40178,9.87274 -2.7589,18.70555 -9.14341,12.19969 -20.57762,4.39855 -28.71365,12.0066 5.3438,14.39343 15.85717,17.36994 -2.16764,13.43339 -22.62211,1.11314 -29.94972,-1.60384 z"
       id="path8175-57"
       inkscape:connector-curvature="0" />
    <path
       style="opacity:0.95999995;fill:#4f4c4d;fill-opacity:1;stroke:#4f4c4d;stroke-width:0.32201079;stroke-miterlimit:4;stroke-opacity:1;stroke-dasharray:none;stroke-dashoffset:0"
       d="m 659.24789,134.22204 c 23.23065,8.17004 -30.03536,5.32346 4.03316,5.2559 27.44322,-0.80887 -25.95995,11.67532 4.70542,1.98551 13.07737,-4.46884 30.17128,20.22724 22.63984,12.31098 -4.78722,12.85286 -22.26529,-18.9339 -2.96656,-6.62484 12.55446,10.32615 12.56158,5.94206 -1.03563,3.12159 7.15722,0.0644 22.08203,12.68146 12.14195,2.69698 12.868,7.34998 -17.16453,-4.88734 3.43207,3.89621 17.82188,8.07242 -21.51834,-7.47889 0.61803,0.92604 13.95098,3.13379 12.33019,18.02187 9.13279,3.86684 4.25371,14.57489 11.93994,12.89535 0.63702,0.40291 4.80553,0.5386 10.76567,14.73318 5.57463,3.1931 7.17835,4.75831 3.93554,2.3935 11.75283,10.43824 -12.02174,-13.49892 17.96809,14.10181 2.47214,0.8222 3.85802,0.90536 10.88068,13.2969 11.05514,13.80432 5.69032,11.45059 2.32503,5.21454 1.52655,0.73012 -3.81532,0.12688 6.21944,23.91139 3.17751,3.88819 9.5139,12.39211 -1.08534,9.43232 -1.39944,0.83022 9.76834,10.58184 12.74033,23.3033 3.75939,9.29312 8.09094,10.48501 9.82268,16.67575 1.04783,3.48099 5.46187,10.94272 9.89104,5.58232 8.68977,13.28707 -0.0475,-12.37346 -18.11576,16.25183 -26.57978,5.40029 2.2769,3.64087 -0.55849,-6.61308 6.11007,6.50541 -7.33089,-7.76306 -13.22448,-23.88269 -2.01658,-5.94036 -15.17055,-14.27446 -7.10209,-15.48364 -6.93171,-9.86167 -8.24155,-9.36949 -7.42082,-4.99162 -7.34139,-19.51792 11.45624,22.31388 -3.46269,8.68503 -7.83424,-0.33873 8.62424,7.50477 -8.26268,-9.80551 -0.92355,-0.43816 -4.44036,-0.95812 -15.81412,-15.55075 -5.19918,-4.25337 -1.95918,0.026 -17.39276,-16.13952 -11.04248,-8.13772 7.50172,7.4067 -16.84885,-26.56047 -1.06218,-7.19847 8.76536,24.27521 -21.9408,-20.35277 -6.87668,1.69276 17.07707,6.06838 16.53553,-0.56798 -0.28111,0.42653 -20.20398,-12.43335 22.26088,4.24365 -2.91607,-1.25765 -9.34396,-4.96123 -0.85259,-3.35513 -8.72118,-7.97932 14.16441,4.77186 17.55208,9.80495 0.0486,2.55824 -10.99673,-6.23537 14.14497,3.49975 -3.64743,-4.71729 -14.6203,-6.40158 -2.01104,-5.47949 -7.35732,0.19976 -21.2839,-7.16796 31.07133,-13.93685 1.76315,-3.16181 -14.70708,1.77852 -17.13877,-6.5454 -0.47319,-5.88477 -29.13553,8.97223 -27.92861,-2.37599 -9.71252,-25.70144 z"
       id="path8187-49"
       inkscape:connector-curvature="0" />
    <path
       style="opacity:0.95999995;fill:#4f4c4d;fill-opacity:1;stroke:#4f4c4d;stroke-width:0.32201079;stroke-miterlimit:4;stroke-opacity:1;stroke-dasharray:none;stroke-dashoffset:0"
       d="m 751.50183,201.0142 c 13.80568,17.81251 -37.4424,31.42667 -17.88301,6.51467 14.7029,-9.61309 22.4785,6.93487 26.12095,5.53565 10.13769,11.34472 10.28921,21.91877 8.03931,14.4767 7.55935,4.88598 4.35709,17.30622 7.75052,15.53798 2.16945,13.71246 5.59451,18.59166 7.33201,37.5581 -1.16262,-11.73577 0.46845,24.27599 2.03647,25.24169 -2.27272,-14.06521 0.469,30.44188 -3.27174,10.00437 3.86311,12.43255 2.81437,20.88415 0.45951,22.57408 -2.37678,17.77104 -1.39877,10.86159 -3.3314,12.24816 6.61794,3.01041 -15.78587,36.21831 -4.41189,20.02037 -3.85994,15.19541 -11.40528,14.02035 -4.4625,10.97808 -1.12263,8.23489 -13.47994,18.43088 -2.75404,8.66345 -0.68323,3.75329 -1.82608,-5.84862 -3.99259,6.46473 -10.84747,19.43917 8.64616,-1.11822 -0.84017,-4.67322 -0.21456,17.26249 -2.20402,11.11513 -10.00663,24.19951 6.36813,-4.9001 -13.28605,12.16579 -5.13081,4.67921 -10.53382,13.35113 -7.92983,11.60945 -11.29388,13.82093 -1.08648,4.47312 -26.12129,27.03252 -22.27513,24.51688 -9.21787,8.72457 -24.44649,10.40784 -5.38639,2.74263 2.18583,1.01541 -24.24493,19.4586 -16.24787,-3.1635 -6.28272,-26.19021 5.77574,0.28054 4.4207,6.00488 -7.37507,-12.99037 5.17092,-32.20006 -12.73378,-14.09764 2.52468,-13.01002 31.56305,-13.92092 6.86414,-7.57934 -8.05016,8.61848 15.1127,-14.69973 15.57854,-14.75374 8.27387,-9.36916 16.3655,-20.31798 27.22133,-31.43029 6.38067,-6.99938 -2.71292,4.44002 6.96582,-7.85582 8.12982,-13.74726 -3.36642,27.55622 -3.0635,5.56751 3.46133,-14.02374 13.03465,-16.29115 2.29644,-1.78371 -4.16478,15.14874 9.95183,-36.49953 2.52637,-11.30563 -0.0893,-9.36159 7.5676,-18.16966 3.4445,-13.38808 1.45606,-5.89664 11.41082,-20.8002 2.85098,-6.69206 3.17074,-8.84129 5.95924,-20.29448 4.78847,-10.40287 0.25117,-12.54656 1.28839,-6.74031 0.85926,-19.8553 6.99894,1.2772 -0.0689,10.52331 1.06558,-4.95241 2.90815,3.86921 0.0825,-18.14311 2.56252,-16.1898 -0.27726,-8.40301 -1.84935,-35.91211 2.17352,-16.01636 -8.00553,-16.46651 -2.81076,-11.36032 -2.41305,-8.63905 -6.01719,-16.47474 1.91783,-2.64602 -4.64102,-17.73364 1.6096,4.70509 -6.94187,-34.14354 -3.64222,-18.99321 -3.71375,-10.05216 -6.50632,-10.81448 2.04742,-1.66384 -18.30434,-7.17745 -6.22599,-15.4477 -7.18242,-6.78561 -12.29675,-14.36292 -3.207,-14.90571 10.18944,-18.40817 9.79805,-29.54014 -14.36485,-5.42097 -23.51267,0.55476 -8.70875,-10.45891 14.02148,-17.79465 20.88291,-21.54105 z"
       id="path8175-8-9"
       inkscape:connector-curvature="0" />
    <path
       style="opacity:0.95999995;fill:#4f4c4d;fill-opacity:1;stroke:#4f4c4d;stroke-width:0.32201079;stroke-miterlimit:4;stroke-opacity:1;stroke-dasharray:none;stroke-dashoffset:0"
       d="m 696.10615,473.59294 c -21.41587,12.1572 15.70644,-26.14909 -6.6123,-0.4089 -17.40948,21.22944 8.23952,-27.24629 -4.58724,2.24481 -5.21589,12.79908 -35.06709,9.47435 -24.15103,8.99246 -6.55083,-12.04998 28.9003,-4.36104 6.94458,2.11228 -16.03161,2.69066 -12.72959,5.57135 -1.67434,-2.83189 -4.74791,5.35589 -24.06415,8.32833 -10.00663,7.38704 -13.99266,4.87954 14.95633,-9.73704 -5.19228,0.0305 -17.79047,8.14122 19.76977,-11.31941 -1.10421,-0.1418 -11.52358,8.46471 -21.6885,-2.53315 -8.91326,4.34918 -13.78557,-6.36203 -17.56597,0.53804 -0.7221,0.21569 -5.5431,3.03741 -17.0051,-1.33708 -5.12268,2.52276 -10.63291,-0.23614 -3.42213,2.82895 -16.61451,0.83644 15.35234,2.52592 -18.26152,2.56512 -1.81987,2.53394 -22.89079,0.41952 -7.90034,-0.096 -18.01826,-1.18161 -12.37278,-3.22689 -5.4604,-1.67163 -1.55333,0.67159 2.40909,-2.9599 -22.11808,-11.00859 -5.01885,-0.1557 -15.59335,-0.96106 -6.40135,-7.01192 0.29263,-1.60067 -14.39523,0.4194 -25.94119,-5.69214 -9.47751,-3.26677 -13.22029,-0.78209 -19.02824,-3.54077 -3.31411,-1.49526 -11.83938,-3.06555 -10.70511,3.79498 -15.72723,-2.17024 9.36373,8.08812 -0.36258,-24.33419 13.37949,-23.59334 -4.24105,-0.67283 5.35464,3.92085 -8.91846,0.33682 10.66873,-0.43195 26.69639,5.70704 5.80444,2.37926 20.72789,-2.06912 16.34075,4.80982 11.98954,1.24725 12.47843,-0.0644 8.63723,-2.3196 19.54142,7.27858 -24.35238,-6.01132 -4.27653,-8.31398 5.39961,-5.68637 -11.32314,1.57672 12.82134,0.20665 0.93666,-0.40958 3.63804,-2.72026 22.11265,-1.71694 6.62178,-1.12862 1.26635,-1.49322 23.59334,-2.52727 13.38808,-2.98984 -10.51224,0.79475 31.09574,4.73198 6.12657,3.92537 -24.06404,-9.32781 29.75764,-3.18305 3.23886,-6.29729 -15.79005,8.89529 -10.42919,12.84507 -0.13728,-0.49206 22.64392,-7.07429 -17.81725,14.00341 2.86341,-1.37346 9.87715,-3.78989 3.09052,1.55978 11.74458,-1.33866 -12.89963,7.54997 -18.92011,6.80008 -1.96155,-1.6427 11.92355,-4.19959 -11.92762,8.37058 5.95279,0.3463 14.42891,-6.82369 5.45249,2.08166 4.68001,-5.68118 19.38143,-11.34596 -9.89003,32.58637 1.22691,3.40609 8.31545,-12.26036 16.19048,-8.62831 4.74904,3.5072 12.36951,-27.87777 20.13008,-19.49317 25.76663,9.56248 z"
       id="path8187-4-4"
       inkscape:connector-curvature="0" />
    <path
       style="opacity:0.95999995;fill:#4f4c4d;fill-opacity:1;stroke:#4f4c4d;stroke-width:0.32201079;stroke-miterlimit:4;stroke-opacity:1;stroke-dasharray:none;stroke-dashoffset:0"
       d="m 608.3207,498.49511 c -23.29709,0.48505 -4.31879,-47.29345 5.28176,-18.62149 4.74983,26.55707 -43.50377,18.47799 -38.89551,16.6379 15.92609,0.16021 -7.56759,1.3651 -7.92858,-0.14632 -14.47388,-8.67147 4.89242,3.85769 -12.3616,-4.24907 -3.78922,-2.66772 -17.67342,-5.54774 -29.4302,-13.082 10.31598,5.71439 -20.23889,-13.41587 -21.92453,-12.67378 12.86371,6.12578 -25.31152,-16.91935 -6.37084,-8.37951 -12.28861,-3.79024 -18.99084,-9.74235 -18.83334,-12.45425 -13.26922,-12.05744 -8.14077,-7.32524 -8.18292,-9.70337 -6.25073,3.73092 -20.82743,-33.57974 -13.96815,-15.00774 -10.30886,-11.81237 -5.05071,-17.35254 -6.49479,-9.9107 -6.13503,-5.60479 -7.50138,-21.56274 -5.56174,-7.1962 -2.69913,-2.69473 5.84952,1.82213 -3.04916,-6.95939 -9.82675,-19.97473 -3.99463,7.7495 4.32251,1.96585 -14.08023,-9.98946 -7.89163,-8.13174 -14.22112,-21.98893 0.41194,8.02462 -2.45599,-17.84629 -0.93259,-6.88109 -4.99569,-16.25499 -5.04439,-13.12414 -4.95027,-17.14826 -2.12188,-9.35221 -6.31446,-16.03196 -6.81216,-35.08008 -4.44341,16.7101 5.13793,-33.9135 -0.27253,-6.25176 1.03914,17.00048 -4.26229,-29.35055 7.81232,-10.57257 15.63301,5.66569 18.39913,11.47036 0.43251,4.43776 -16.92601,-10.44603 22.56765,11.71791 15.65108,6.76957 -1.46464,-27.62819 6.51377,11.32721 -1.17245,8.74638 6.16984,-9.82664 -0.33749,-20.06986 4.58181,-3.11051 1.10659,15.80372 5.47995,25.28044 7.91729,36.34812 1.53559,6.42677 7.62736,26.05949 3.55703,18.31112 13.82296,24.62648 -9.03483,4.7148 -3.29931,2.35836 12.59842,5.53101 11.57352,26.51674 3.95418,4.81818 -10.09555,-12.03766 24.3717,28.93589 7.8652,8.50527 7.75289,5.2481 10.64635,16.55452 9.05709,10.44433 4.02355,4.54996 10.62601,21.21181 3.88492,6.14973 5.47158,7.63426 13.30966,16.43916 5.83698,9.85308 10.17938,7.33891 4.8131,4.89163 15.84688,11.99371 -5.02935,5.03207 -8.61859,-6.03854 3.46879,3.69194 -4.83648,0.19321 14.87961,10.38107 11.86277,11.31139 7.07079,4.54894 30.59622,18.89232 11.94095,10.89323 18.09655,2.77461 10.94871,4.14581 8.47928,2.92544 16.97392,4.41381 1.08738,3.08204 17.22814,6.26249 -4.78587,-1.35075 32.03668,13.69902 17.69647,7.80057 10.38129,2.65857 12.59571,0.79452 0.20507,2.6301 16.31002,-10.97922 16.24832,3.65917 9.66541,-2.05183 18.8069,-1.95241 14.08622,5.83415 9.35255,18.84667 18.73323,24.85324 12.62553,-8.73655 12.90935,-19.6595 13.55609,-1.21946 6.66856,21.65269 5.85145,29.42716 z"
       id="path8175-8-8-5"
       inkscape:connector-curvature="0" />
    <path
       style="opacity:0.95999995;fill:#4f4c4d;fill-opacity:1;stroke:#4f4c4d;stroke-width:0.32201079;stroke-miterlimit:4;stroke-opacity:1;stroke-dasharray:none;stroke-dashoffset:0"
       d="m 414.67335,306.7987 c 2.17205,-24.52977 12.58464,27.78648 4.09519,-5.20754 -7.56906,-26.3911 17.73195,22.26699 0.76085,-5.05003 -7.56511,-11.56686 12.13935,-34.23608 6.33051,-24.98126 13.63743,1.46057 -12.84066,26.25563 -5.68547,4.51267 6.89939,-14.71894 2.65269,-13.63981 3.28146,0.2323 -1.70722,-6.9508 6.82776,-24.53214 -0.38901,-12.43188 3.93971,-14.28586 -0.49127,17.84008 2.92657,-4.28895 3.41523,-19.26438 -1.92563,22.6995 0.74435,-0.82774 -0.41342,-14.29242 14.41298,-16.4038 1.48859,-9.80551 13.07059,-7.72498 9.54282,-14.75759 0.23309,-0.71667 0.65216,-6.28701 10.76657,-13.23035 0.83655,-5.64864 6.23854,-8.61068 -0.38155,-4.42036 8.75632,-14.14136 -10.80532,11.19457 8.27048,-16.4822 -1.05032,-2.93764 12.66746,-19.07128 4.56996,-6.44507 11.21479,-14.15231 9.68812,-8.34506 4.47912,-3.54212 0.33049,-1.65966 1.06602,3.66426 21.62974,-11.93869 2.98057,-4.04061 9.6549,-12.28262 9.40758,-1.28036 1.15054,1.15076 7.8382,-12.08173 19.42866,-18.10672 8.07536,-5.94048 8.15873,-10.4319 13.72997,-13.64196 3.11423,-1.87658 9.25222,-7.99774 2.9633,-10.96442 10.72579,-11.70527 -11.97711,3.10577 20.22623,13.53451 11.80491,24.41915 2.96454,-3.10655 -6.2696,2.17646 4.79265,-7.52883 -5.70896,9.02251 -19.871,18.72012 -5.25702,3.42371 -10.08041,18.22931 -13.24617,10.70974 -7.84158,9.15493 -7.04063,10.30265 -3.00148,8.42448 -17.09629,11.93948 18.78882,-16.61779 9.27097,1.20794 1.60881,7.67482 5.13929,-10.21215 -7.45867,10.43066 -0.19592,1.0032 0.16959,4.53934 -11.15761,19.16846 -2.83573,6.08951 0.50856,1.89049 -11.33263,20.84721 -5.15081,12.71412 5.32176,-9.10037 -21.56975,22.89316 -6.71218,2.80895 21.35293,-14.49501 -14.2984,26.29156 3.33886,6.24441 1.65762,-18.04729 -4.63921,-15.88191 0.4829,0.16688 -7.05192,22.65092 -1.39267,-22.61894 -0.49781,3.1365 -2.49666,10.2805 -3.04024,1.65592 -5.57486,10.42343 1.12083,-14.90469 5.16065,-19.43137 2.46627,-0.68006 -3.32293,12.1972 -0.10508,-14.57139 -3.66855,4.70056 -2.58818,15.74994 -4.81198,3.30248 2.01375,7.07995 -1.68293,22.39489 -21.18718,-26.66069 -3.49964,-0.92694 5.3603,13.81076 -2.1055,18.22502 -5.58547,1.91353 15.90756,26.02118 4.58656,27.64672 -22.51274,15.7591 z"
       id="path8187-4-1-9"
       inkscape:connector-curvature="0" />
    <path
       style="opacity:0.95999995000000005;fill:#b5d92a;fill-opacity:1;stroke:#918f90;stroke-width:0.15244806999999999;stroke-miterlimit:4;stroke-opacity:1;stroke-dasharray:none;stroke-dashoffset:0"
       id="path5476-9-6-0-3"
       d="m 618.69148,216.8812 c -0.66233,1.60022 4.47685,3.17039 4.53764,4.76417 0.49849,13.07737 -5.63756,-4.14015 -3.50585,7.20683 2.8146,5.04292 2.02415,2.59823 2.57801,7.33371 -0.16982,7.92169 0.13931,0.79825 -0.61307,8.3246 -0.14609,1.46747 0.0746,2.93527 -0.31975,4.4024 -0.24586,0.91383 -1.08501,1.82563 -1.60237,2.73856 -0.98626,1.74089 0.72639,1.10523 -1.60813,1.87794 0.93428,0.31071 0.82039,0.18146 -3.51037,-0.22902 1.96901,0.0565 -6.91171,2.54795 -8.88083,2.4918 l 0,0 c -14.02917,-0.78955 -8.43352,-0.26349 -16.56446,-1.59706 -0.41376,-1.10331 -0.6934,-2.20696 -1.1249,-3.31016 -0.7544,-1.9289 -1.93353,-3.60449 -1.73524,-5.53531 0.13581,-1.33278 1.06817,-2.66421 1.20093,-3.997 0.1444,-1.44577 -0.24653,-2.89143 -0.36991,-4.3372 -0.63442,-2.16889 -2.36481,-6.65828 -1.68723,-9.02952 0.30868,-1.08049 1.6061,-2.15691 2.22877,-3.23638 0.43782,-0.75927 0.60244,-1.51967 0.95191,-2.27939 1.60384,-3.48698 1.49695,-1.59333 0.89293,-4.68124 -0.71724,-0.1844 28.41468,-1.09201 29.13192,-0.90773 z"
       inkscape:connector-curvature="0" />
  </g>
</svg>
