<?xml version="1.0" encoding="UTF-8" standalone="no"?>
<!-- Created with Inkscape (http://www.inkscape.org/) -->

<svg
   xmlns:dc="http://purl.org/dc/elements/1.1/"
   xmlns:cc="http://creativecommons.org/ns#"
   xmlns:rdf="http://www.w3.org/1999/02/22-rdf-syntax-ns#"
   xmlns:svg="http://www.w3.org/2000/svg"
   xmlns="http://www.w3.org/2000/svg"
   xmlns:sodipodi="http://sodipodi.sourceforge.net/DTD/sodipodi-0.dtd"
   xmlns:inkscape="http://www.inkscape.org/namespaces/inkscape"
   width="400.15625"
   height="400.15625"
   id="svg9167"
   version="1.1"
   inkscape:version="0.48.5 r10040"
   sodipodi:docname="plot.svg"
   inkscape:export-filename="/home/banana/flySightAndroid/FloatSight/icons/mainmenu/drawing.png"
   inkscape:export-xdpi="44.98243"
   inkscape:export-ydpi="44.98243">
  <defs
     id="defs9169" />
  <sodipodi:namedview
     id="base"
     pagecolor="#ffffff"
     bordercolor="#666666"
     borderopacity="1.0"
     inkscape:pageopacity="0.0"
     inkscape:pageshadow="2"
     inkscape:zoom="0.98994949"
     inkscape:cx="332.18493"
     inkscape:cy="91.756443"
     inkscape:document-units="px"
     inkscape:current-layer="layer1"
     showgrid="false"
     fit-margin-top="0"
     fit-margin-left="0"
     fit-margin-right="0"
     fit-margin-bottom="0"
     inkscape:window-width="1680"
     inkscape:window-height="1002"
     inkscape:window-x="0"
     inkscape:window-y="29"
     inkscape:window-maximized="1" />
  <metadata
     id="metadata9172">
    <rdf:RDF>
      <cc:Work
         rdf:about="">
        <dc:format>image/svg+xml</dc:format>
        <dc:type
           rdf:resource="http://purl.org/dc/dcmitype/StillImage" />
        <dc:title />
      </cc:Work>
    </rdf:RDF>
  </metadata>
  <g
     inkscape:label="Layer 1"
     inkscape:groupmode="layer"
     id="layer1"
     transform="translate(-399.91966,-115.14732)">
    <g
       id="g9607"
       transform="translate(-8461.9143,1962.0693)">
      <path
         inkscape:connector-curvature="0"
         id="path5320-73-5-4-0"
         d="m 8883.4776,-1460.3439 c -0.7745,-1.5756 -1.5645,-3.1499 -2.311,-4.7278 -0.4195,-0.8867 -0.8309,-1.7742 -1.2042,-2.6646 -0.2376,-0.5665 -0.5159,-1.1319 -0.5886,-1.708 -0.1524,-1.207 -0.083,-2.4219 0,-3.6361 0,0 0,0 0,0 0.1067,-1.5637 0.2819,-3.1286 0.4679,-4.6936 0,0 0,0 0,0 0.3328,-2.7973 0.821,-5.5977 0.8854,-8.39 0,-10e-5 0,-10e-5 0,-10e-5 0.079,-3.4157 0,-6.8284 -0.4175,-10.228 0,0 0,0 0,0 -0.4174,-3.3833 -1.0672,-6.7565 -1.6032,-10.1346 -0.3351,-2.9705 -0.712,-5.9394 -1.0793,-8.9086 -0.1659,-1.3415 -0.3396,-2.6832 -0.3279,-4.0307 0,0 0,0 0,0 0.013,-1.4337 0.2047,-2.8713 0.3666,-4.3079 10e-5,0 10e-5,0 10e-5,-10e-5 0.366,-3.2472 0.7056,-6.4941 1.0042,-9.7404 0,-10e-5 0,-10e-5 0,-10e-5 0.3499,-3.8033 0.6831,-7.6063 1.0218,-11.4094 0.2307,-2.5896 0.4608,-5.1792 0.6873,-7.7687 0,0 0,0 0,0 0.079,-0.8975 0.1568,-1.7948 0.2327,-2.6922 0.035,-0.4157 0.079,-0.8314 0.1,-1.2468 0.16,-3.1233 0.6118,-6.2579 0.077,-9.3578 -0.6576,-3.8144 -2.4313,-7.5646 -3.6472,-11.3479 1.8198,-8.8318 -1.1065,-17.5692 -0.8655,-26.3809 0,0 0,0 0,0 0.103,-3.7606 1.5462,-7.539 1.8231,-11.3032 0.2586,-3.5151 -0.2227,-7.0119 -0.2176,-10.5215 0,-2.7954 0,-5.5908 0.1163,-8.3891 0.026,-0.6108 0.091,-1.2223 0.1353,-1.8334 0,0 0,-10e-5 0,-10e-5 0.048,-0.6694 -0.059,-1.3348 -0.1085,-2.0016 -0.2177,-2.964 -0.4206,-5.9285 -0.6148,-8.8934 0.6686,-3.7401 1.7757,-7.4844 2.0058,-11.2191 0.2364,-3.8371 -0.4712,-7.648 -0.6077,-11.4757 -0.1019,-2.8463 -0.2008,-5.6927 -0.2728,-8.5399 -0.021,-0.6899 -0.032,-1.3802 -0.042,-2.0705 0,0 10e-5,0 10e-5,0 0,0 0,0 0,0 7e-4,-0.3078 -0.01,-0.6153 0,-0.9233 0,0 0,0 0,0 -8e-4,-0.026 0,-0.053 0.01,-0.08 0,0 0,0 0,0 -2e-4,-0.01 -4e-4,-0.013 -5e-4,-0.02 6e-4,-10e-5 -10e-5,0 -2e-4,-0.01 0.01,-3e-4 0.01,0 0.01,0 2e-4,0.01 4e-4,0.012 5e-4,0.018 7e-4,0.023 0.011,0.045 0.012,0.068 0,0 0,0 0,0 0,0 0,0 0,0 0.03,0.2174 0.041,0.4354 0.056,0.6534 0,0 0,0 0,0 0.053,0.785 0.088,1.5705 0.1171,2.3562 0.022,0.7198 0.057,1.4392 0.037,2.1601 -0.01,0.095 -0.01,0.19 -0.015,0.2851 9e-4,0.028 -0.01,0.056 -0.013,0.084 4e-4,0.013 8e-4,0.027 -0.016,0.04 -0.016,5e-4 -0.017,0 -0.019,-0.01 0,0 0,0 0,0 -0.013,-0.02 -0.018,-0.04 -0.024,-0.06 -0.029,-0.096 -0.044,-0.1931 -0.06,-0.2899 0,0 -10e-5,0 -10e-5,0 -0.2213,-1.3215 -0.3141,-2.6484 -0.4378,-3.9739 -0.3081,-3.3029 -0.5725,-6.6074 -0.833,-9.9119 -0.2618,-3.3226 -0.2559,-6.654 -0.2674,-9.9845 -0.011,-3.299 0.021,-6.5993 0.031,-9.899 0,0 0,0 0,0 -1.0975,-5.6184 1.6927,-11.3477 1.4922,-17.0022 0,0 0,0 0,0 -0.085,-2.388 -1.3587,-4.722 -1.6504,-7.1025 0,0 0,0 0,0 -0.3422,-2.7935 -0.1902,-5.6041 -0.2538,-8.4074 -0.051,-2.397 -0.094,-4.7942 -0.081,-7.193 0.013,-2.6215 -0.2707,-5.2343 -0.404,-7.8515 0,0 0,0 0,-10e-5 0.2101,-4.475 0.3857,-8.95 0.026,-13.4086 0,-10e-5 0,-10e-5 0,-10e-5 -0.2111,-2.6189 -0.8143,-5.2228 -0.9359,-7.8447 0,0 0,0 0,0 -0.2156,-4.6575 0.8018,-9.3429 1.2415,-14.016 -0.2512,-4.7941 -1.4218,-9.5665 -0.6203,-14.3815 0.1048,-0.6295 0.2983,-1.2593 0.4811,-1.8888 0,0 0,0 0,0 0.2756,-0.949 0.575,-1.8977 0.8879,-2.8463 0,0 0,0 0,0 0.3203,-0.971 0.6547,-1.9417 1.0175,-2.9121 0.2601,-0.6959 0.515,-1.3924 0.8696,-2.0858 0,-10e-5 0,-10e-5 0,-10e-5 0.563,-1.1009 1.482,-2.1852 2.2232,-3.2781 0,0 0,0 0,0 0.4229,-0.6507 0.8456,-1.3013 1.2684,-1.9519 0,0 0,-10e-5 0,-10e-5 -0.2315,0 -0.4597,0.031 -0.6901,0.047 -0.1907,0.013 -0.4319,0.013 -0.504,-0.046 -0.395,-0.3251 -0.5267,-0.6867 -0.6953,-1.0397 -0.2503,-0.524 -0.4382,-1.0531 -0.5873,-1.5843 0,0 0,0 0,0 -0.1396,-0.4979 -0.2521,-0.9978 -0.266,-1.5013 0,-0.174 -5e-4,-0.3488 0.054,-0.5234 0,0 0,0 0,0 0.029,-0.092 0.026,-0.1973 0.2143,-0.2674 1.7954,-0.6703 3.6952,-1.3306 5.9745,-1.7832 1.3254,-0.2632 2.8527,-0.4321 4.2958,-0.3551 0,0 0,0 0,0 1.3278,0.071 2.4805,0.3207 3.5179,0.5976 1.2643,0.3376 2.4154,0.7213 3.6409,1.075 0,0 0,0 0,0 0.3441,0.5726 0.6881,1.1453 1.0322,1.7179 0,0 0,0 0,0 0.032,0.031 -0.044,0.066 -0.1111,0.092 -0.1294,0.051 -0.2883,0.092 -0.4475,0.1309 -0.5429,0.1338 -1.1296,0.2432 -1.7165,0.3501 -1.7629,0.3211 -3.5814,0.5995 -5.4113,0.8642 -1.8298,0.2647 -3.6756,0.5164 -5.5563,0.7224 -0.6261,0.069 -1.2564,0.1353 -1.8978,0.1728 -0.188,0.011 -0.3786,0.02 -0.5651,0.017 -0.097,0 -0.2152,-0.01 -0.2471,-0.041 0.4075,-0.041 0.8153,-0.082 1.2229,-0.1232 10e-5,0 10e-5,0 10e-5,0 1.0196,0.028 2.037,0.072 3.0686,0.058 10e-5,0 10e-5,0 10e-5,0 0.7706,-0.011 1.5483,-0.079 2.2481,-0.2096 1.0159,-0.1889 1.9,-0.4568 2.771,-0.7221 0,0 0,0 0,-10e-5 1.578,-0.4806 3.0984,-0.9836 4.6368,-1.4796 0.2405,-0.078 0.2229,-0.2066 0.1824,-0.3139 0,0 0,0 0,0 0,0 0,0 0,0 -0.055,-0.1456 -0.1878,-0.2844 -0.3429,-0.4186 0,0 0,0 0,0 -0.1235,-0.1067 -0.2574,-0.2125 -0.4365,-0.3083 -10e-5,0 -10e-5,0 -10e-5,0 -0.022,-0.012 -0.046,-0.024 -0.073,-0.035 -1e-4,0 -1e-4,0 -1e-4,0 -0.012,0 -0.025,-0.012 -0.045,-0.011 -0.017,5e-4 -0.013,0.01 -0.011,0.016 5e-4,0.016 0.018,0.031 0.031,0.046 2.4419,2.8638 3.8478,5.9666 1.5323,8.9692 0,0 0,0 0,0 -0.1042,0.9722 -0.037,1.9431 -0.3125,2.9159 -0.4153,1.4656 -1.0437,2.9282 -1.8017,4.3865 -0.7996,1.5382 -0.9581,3.0897 -1.113,4.6347 -0.1772,1.7668 0.2892,3.5176 0.1985,5.2829 0,0 0,0 0,0 -0.103,1.9947 -0.5698,3.9936 -1.2114,5.9907 0,0 0,0 0,0 0.4623,0.8087 0.9596,1.6141 1.423,2.4227 0,0 0,0 0,0 0.1997,0.3484 0.3874,0.6994 0.4243,1.0585 0.047,0.4522 -0.033,0.9082 -0.062,1.3626 -0.073,1.1131 -0.07,2.2247 -0.037,3.3352 0.09,3.0131 0.2669,6.0236 0.411,9.035 0,0 0,0 0,0 0.1252,2.6235 0.4772,5.2402 0.3988,7.8694 -0.07,2.3476 -0.801,4.7062 -0.8437,7.0531 -0.038,2.1014 0.4007,4.1873 0.6011,6.2813 0,0 0,0 0,0 0.013,1.482 -0.1459,2.9695 0.037,4.4457 0,0 0,0 0,0 0.2292,1.847 0.4612,3.694 0.7445,5.5387 0.1097,0.7162 0.1758,1.4354 0.4101,2.1449 0.015,0.048 0.03,0.097 0.062,0.1441 0.01,0.01 0.011,0.019 0.026,0.026 0,0 0,0 0,0 0,0 0.01,0 0.012,0 0.01,-5e-4 0.01,0 0.011,0 0,0 10e-5,0 10e-5,0 0.013,-0.01 0.017,-0.018 0.02,-0.027 0.01,-0.017 0.013,-0.033 0.019,-0.05 0.014,-0.053 0.023,-0.107 0.029,-0.1604 0.047,-0.3686 0.047,-0.7364 0.055,-1.1042 0.01,-0.3198 0,-0.6392 0.034,-0.9595 -8e-4,-0.026 0,-0.053 0.018,-0.079 0,0 -10e-5,0 0.01,0 0.01,0 0.01,0 0.01,0 0.01,0.01 0.01,0.017 0.013,0.025 0,0 0,0 0,10e-5 0.05,0.1391 0.057,0.2808 0.076,0.4216 0,0 0,0 0,10e-5 0.4298,3.135 0.6265,6.2795 0.9055,9.4206 0.3164,3.562 0.6806,7.1223 0.9241,10.687 0.017,0.2387 0.034,0.4775 0.037,0.7167 8e-4,0.055 0,0.1108 -0.01,0.1665 0,0 0,0 0,0 4e-4,0.014 9e-4,0.029 -0.01,0.043 0,0 0,0 0,10e-5 2e-4,0.01 4e-4,0.013 -0.01,0.02 -0.01,3e-4 -0.011,3e-4 -0.013,0 0,0 0,0 0,0 -0.01,-0.01 -0.011,-0.014 -0.016,-0.021 -0.017,-0.029 -0.028,-0.059 -0.04,-0.088 0,0 0,0 0,-10e-5 -0.039,-0.1007 -0.071,-0.2019 -0.1062,-0.303 -0.041,-0.1164 -0.082,-0.2327 -0.1334,-0.3482 -0.037,-0.083 -0.067,-0.1681 -0.1509,-0.2461 0,0 0,-10e-5 0,-10e-5 -0.01,-0.01 -0.023,-0.02 -0.039,-0.028 0,0 0,0 0,0 -0.01,-0.01 -0.022,-0.01 -0.039,-0.01 -0.016,5e-4 -0.03,0.01 -0.04,0.01 -0.019,0.01 -0.029,0.021 -0.04,0.032 -0.1167,0.1303 -0.1245,0.2664 -0.1557,0.4002 -0.2007,0.8611 -0.2186,1.7211 -0.2633,2.5806 -0.103,1.9801 -0.1225,3.9584 -0.1324,5.9363 -0.014,2.8236 0.5229,5.6291 0.7844,8.444 -0.2834,2.137 -0.8951,4.2795 -0.8499,6.41 0.067,3.1374 0.8391,6.2488 1.1851,9.3765 0,0 0,0 0,0 0.4037,3.6489 0.6549,7.3036 1.0641,10.9522 0,0 0,10e-5 0,10e-5 0.5008,4.4656 1.6143,8.9082 1.6656,13.3891 0.044,3.8405 -1.2364,7.7051 -1.3801,11.5503 -0.1427,3.8166 0.3477,7.6154 0.5215,11.4233 -0.4981,3.5172 -1.1791,7.0365 -1.4943,10.5514 -0.3076,3.4306 -0.261,6.8542 -0.3735,10.281 -0.1149,3.4989 -0.3256,7.0001 -0.3089,10.4957 0,0 0,0 0,0 0.018,3.773 0.3401,7.5369 0.4134,11.3082 0.074,3.7988 0.014,7.6012 -0.01,11.4026 0,0 0,0 0,0 -0.019,3.5969 -0.046,7.1941 -0.068,10.7911 0.9211,3.8667 2.2572,7.7124 2.763,11.5992 1.0718,8.2354 0.511,16.5292 -0.1373,24.8157 -0.306,3.9115 -0.7894,7.8258 -1.1871,11.7387 -0.3481,3.426 -1.1752,6.8613 -1.0502,10.2765 0,0 0,0 0,0 0.1529,4.1701 1.2548,8.303 1.8823,12.4552 -0.1427,4.6856 -0.4192,9.3744 -0.428,14.0567 -0.01,3.5352 0.6505,7.0521 0.3819,10.593 0,0 0,0 0,0 -0.2048,2.7017 -1.2218,5.409 -1.8001,8.1141 -0.3324,1.5554 -0.6504,3.1108 -0.9315,4.6661 -0.2993,1.656 -0.976,3.3189 -0.8087,4.9647 0,0 0,0 0,0 0.111,1.0929 1.0911,2.1274 1.6377,3.1931 0.05,0.03 -0.013,0.071 -0.071,0.1026 -0.1118,0.061 -0.2601,0.1125 -0.4096,0.1629 -0.5098,0.1717 -1.0787,0.3208 -1.649,0.4673 0,0 -10e-5,0 -10e-5,0 -1.7132,0.4403 -3.5073,0.8395 -5.3204,1.2252 -1.8133,0.3857 -3.6499,0.7589 -5.5471,1.0868 -0.6317,0.1092 -1.2687,0.2166 -1.9323,0.2945 -0.1946,0.023 -0.3925,0.045 -0.5937,0.051 -0.1051,0 -0.2337,0 -0.2837,-0.027 z"
         style="opacity:0.95999995;fill:#4f4c4d;fill-opacity:1;stroke:#4f4c4d;stroke-width:0.17598237;stroke-miterlimit:4;stroke-opacity:1;stroke-dashoffset:0" />
      <path
         inkscape:connector-curvature="0"
         id="path5320-6-2-6-6"
         d="m 8881.3922,-1479.6533 c 1.5756,-0.7745 3.1499,-1.5645 4.7279,-2.311 0.8867,-0.4195 1.7741,-0.8309 2.6645,-1.2042 0.5666,-0.2376 1.1319,-0.5159 1.7081,-0.5886 1.2069,-0.1524 2.4219,-0.083 3.636,0 0,0 1e-4,0 1e-4,0 1.5637,0.1067 3.1286,0.2819 4.6936,0.4679 0,0 0,0 0,0 2.7972,0.3328 5.5976,0.821 8.39,0.8854 0,0 0,0 0,0 3.4158,0.079 6.8285,0 10.228,-0.4175 0,0 0,0 0,0 3.3833,-0.4174 6.7565,-1.0672 10.1347,-1.6032 2.9705,-0.3351 5.9393,-0.712 8.9085,-1.0793 1.3415,-0.1659 2.6833,-0.3396 4.0307,-0.3279 0,0 0,0 0,0 1.4338,0.013 2.8713,0.2047 4.308,0.3666 0,10e-5 0,10e-5 0,10e-5 3.2473,0.366 6.4942,0.7056 9.7405,1.0042 0,0 0,0 0,0 3.8033,0.3499 7.6064,0.6831 11.4095,1.0218 2.5896,0.2307 5.1791,0.4608 7.7687,0.6873 0,0 0,0 0,0 0.8974,0.079 1.7948,0.1568 2.6922,0.2327 0.4156,0.035 0.8314,0.079 1.2468,0.1 3.1232,0.16 6.2579,0.6118 9.3577,0.077 3.8144,-0.6576 7.5647,-2.4313 11.348,-3.6472 8.8317,1.8198 17.5692,-1.1065 26.3809,-0.8655 0,0 0,0 0,0 3.7605,0.103 7.539,1.5462 11.3031,1.8231 3.5152,0.2586 7.0119,-0.2227 10.5215,-0.2176 2.7955,0 5.5909,0 8.3891,0.1163 0.6108,0.026 1.2223,0.091 1.8335,0.1353 0,0 0,0 0,0 0.6694,0.048 1.3348,-0.059 2.0016,-0.1085 2.964,-0.2177 5.9286,-0.4206 8.8934,-0.6148 3.7401,0.6686 7.4844,1.7757 11.2191,2.0058 3.8371,0.2364 7.648,-0.4712 11.4758,-0.6077 2.8462,-0.1019 5.6926,-0.2008 8.5398,-0.2728 0.69,-0.021 1.3802,-0.032 2.0705,-0.042 0,0 0,10e-5 1e-4,10e-5 0,0 0,0 0,0 0.3077,7e-4 0.6153,-0.01 0.9233,0 0,0 0,0 0,0 0.026,-8e-4 0.053,0 0.08,0.01 0,0 0,0 0,0 0.01,-2e-4 0.013,-4e-4 0.02,-5e-4 0,6e-4 0,-10e-5 0.01,-2e-4 3e-4,0.01 0,0.01 0,0.01 -0.01,2e-4 -0.012,4e-4 -0.018,5e-4 -0.023,7e-4 -0.045,0.011 -0.068,0.012 0,0 0,0 0,0 0,0 0,0 -10e-5,0 -0.2173,0.03 -0.4354,0.041 -0.6533,0.056 -1e-4,0 -1e-4,0 -1e-4,0 -0.7849,0.053 -1.5704,0.088 -2.3561,0.1171 -0.7198,0.022 -1.4393,0.057 -2.1602,0.037 -0.095,-0.01 -0.1899,-0.01 -0.2851,-0.015 -0.028,9e-4 -0.056,-0.01 -0.084,-0.013 -0.013,4e-4 -0.027,8e-4 -0.04,-0.016 -4e-4,-0.016 0,-0.017 0.01,-0.019 0,0 0,0 0,0 0.02,-0.013 0.04,-0.018 0.06,-0.024 0.096,-0.029 0.1931,-0.044 0.29,-0.06 0,0 0,-10e-5 0,-10e-5 1.3214,-0.2213 2.6484,-0.3141 3.9739,-0.4378 3.3028,-0.3081 6.6073,-0.5725 9.9119,-0.833 3.3225,-0.2618 6.654,-0.2559 9.9844,-0.2674 3.2991,-0.011 6.5994,0.021 9.8991,0.031 0,0 0,0 0,0 5.6184,-1.0975 11.3476,1.6927 17.0021,1.4922 0,0 0,0 10e-5,0 2.3879,-0.085 4.7219,-1.3587 7.1024,-1.6504 10e-5,0 10e-5,0 10e-5,0 2.7935,-0.3422 5.6041,-0.1902 8.4074,-0.2538 2.397,-0.051 4.7942,-0.094 7.1929,-0.081 2.6216,0.013 5.2343,-0.2707 7.8516,-0.404 0,0 0,0 0,0 4.475,0.2101 8.95,0.3857 13.4087,0.026 0,0 0,0 0,0 2.6189,-0.2111 5.2228,-0.8143 7.8447,-0.9359 0,0 0,0 1e-4,0 4.6575,-0.2156 9.3429,0.8018 14.016,1.2415 4.7941,-0.2512 9.5665,-1.4218 14.3814,-0.6203 0.6296,0.1048 1.2593,0.2983 1.8888,0.4811 0,0 1e-4,0 1e-4,0 0.9489,0.2756 1.8977,0.575 2.8462,0.8879 0,0 0,0 10e-5,0 0.9709,0.3203 1.9417,0.6547 2.912,1.0175 0.6959,0.2601 1.3924,0.515 2.0859,0.8696 0,0 0,0 0,0 1.101,0.563 2.1852,1.482 3.2782,2.2232 0,0 0,0 0,0 0.6506,0.4229 1.3012,0.8456 1.9519,1.2684 0,0 0,0 0,0 0,-0.2315 -0.031,-0.4597 -0.047,-0.6901 -0.013,-0.1907 -0.013,-0.4319 0.046,-0.504 0.3252,-0.395 0.6868,-0.5267 1.0398,-0.6953 0.524,-0.2503 1.053,-0.4382 1.5842,-0.5873 0,0 10e-5,0 10e-5,0 0.4978,-0.1396 0.9978,-0.2521 1.5012,-0.266 0.1741,0 0.3488,-5e-4 0.5234,0.054 0,0 10e-5,0 10e-5,0 0.092,0.029 0.1972,0.026 0.2674,0.2143 0.6702,1.7954 1.3305,3.6952 1.7832,5.9745 0.2632,1.3254 0.432,2.8527 0.3551,4.2958 -1e-4,0 -1e-4,0 -1e-4,0 -0.071,1.3278 -0.3207,2.4805 -0.5976,3.5179 -0.3375,1.2643 -0.7213,2.4154 -1.075,3.6409 0,0 0,0 0,0 -0.5726,0.3441 -1.1452,0.6881 -1.7178,1.0322 0,0 0,0 -10e-5,0 -0.031,0.032 -0.066,-0.044 -0.092,-0.1111 -0.051,-0.1294 -0.092,-0.2883 -0.1308,-0.4475 -0.1338,-0.5429 -0.2432,-1.1296 -0.3501,-1.7165 -0.3212,-1.7629 -0.5995,-3.5814 -0.8642,-5.4113 -0.2648,-1.8298 -0.5165,-3.6756 -0.7224,-5.5563 -0.069,-0.6261 -0.1353,-1.2564 -0.1728,-1.8978 -0.011,-0.188 -0.02,-0.3786 -0.017,-0.5651 0,-0.097 0.01,-0.2152 0.041,-0.2471 0.041,0.4075 0.082,0.8153 0.1231,1.2229 0,10e-5 0,10e-5 0,10e-5 -0.028,1.0196 -0.072,2.037 -0.058,3.0686 0,10e-5 0,10e-5 0,10e-5 0.011,0.7706 0.08,1.5483 0.2097,2.2481 0.1889,1.0159 0.4568,1.9 0.7221,2.771 0,0 0,0 0,0 0.4807,1.578 0.9837,3.0984 1.4797,4.6368 0.078,0.2405 0.2066,0.2229 0.3138,0.1824 0,0 0,0 1e-4,0 0,0 0,0 0,0 0.1455,-0.055 0.2844,-0.1878 0.4185,-0.3429 0,0 10e-5,0 10e-5,0 0.1067,-0.1235 0.2125,-0.2574 0.3082,-0.4365 0,-10e-5 0,-10e-5 0,-10e-5 0.012,-0.022 0.024,-0.046 0.035,-0.073 0,-10e-5 0,-10e-5 10e-5,-10e-5 0.01,-0.012 0.012,-0.025 0.011,-0.045 -5e-4,-0.017 -0.01,-0.013 -0.016,-0.011 -0.016,5e-4 -0.031,0.018 -0.046,0.031 -2.8639,2.4419 -5.9666,3.8478 -8.9692,1.5323 0,0 -10e-5,0 -10e-5,0 -0.9721,-0.1042 -1.9431,-0.037 -2.9158,-0.3125 -1.4657,-0.4153 -2.9283,-1.0437 -4.3866,-1.8017 -1.5382,-0.7996 -3.0897,-0.9581 -4.6346,-1.113 -1.7669,-0.1772 -3.5176,0.2892 -5.283,0.1985 0,0 0,0 0,0 -1.9947,-0.103 -3.9936,-0.5698 -5.9906,-1.2114 0,0 0,0 0,0 -0.8087,0.4623 -1.6141,0.9596 -2.4227,1.423 0,0 0,0 0,0 -0.3484,0.1997 -0.6994,0.3874 -1.0585,0.4243 -0.4523,0.047 -0.9082,-0.033 -1.3627,-0.062 -1.1131,-0.073 -2.2247,-0.07 -3.3352,-0.037 -3.0131,0.09 -6.0235,0.2669 -9.0349,0.411 0,0 -10e-5,0 -10e-5,0 -2.6235,0.1252 -5.2402,0.4772 -7.8693,0.3988 -2.3476,-0.07 -4.7062,-0.801 -7.0532,-0.8437 -2.1014,-0.038 -4.1872,0.4007 -6.2812,0.6011 0,0 0,0 0,0 -1.4821,0.013 -2.9696,-0.1459 -4.4457,0.037 0,0 -10e-5,0 -10e-5,0 -1.847,0.2292 -3.6939,0.4612 -5.5386,0.7445 -0.7163,0.1097 -1.4355,0.1758 -2.1449,0.4101 -0.049,0.015 -0.097,0.03 -0.1442,0.062 -0.01,0.01 -0.019,0.011 -0.026,0.026 0,0 0,0 0,0 0,0 0,0.01 0,0.012 5e-4,0.01 0,0.01 0,0.011 0,0 0,10e-5 0,10e-5 0.01,0.013 0.018,0.017 0.027,0.02 0.017,0.01 0.033,0.013 0.05,0.019 0.053,0.014 0.107,0.023 0.1605,0.029 0.3685,0.047 0.7363,0.047 1.1042,0.055 0.3197,0.01 0.6391,0 0.9594,0.034 0.026,-8e-4 0.053,0 0.079,0.018 0,0 0,-10e-5 0,0.01 0,0.01 0,0.01 0,0.01 -0.01,0.01 -0.017,0.01 -0.025,0.013 0,0 0,0 0,0 -0.1391,0.05 -0.2808,0.057 -0.4217,0.076 0,0 0,0 0,0 -3.1351,0.4298 -6.2795,0.6265 -9.4206,0.9055 -3.562,0.3164 -7.1224,0.6806 -10.687,0.9241 -0.2388,0.017 -0.4776,0.034 -0.7168,0.037 -0.055,8e-4 -0.1108,0 -0.1664,-0.01 -10e-5,0 -10e-5,0 -10e-5,0 -0.014,4e-4 -0.029,9e-4 -0.043,-0.01 0,0 0,0 0,0 -0.01,2e-4 -0.013,4e-4 -0.02,-0.01 -3e-4,-0.01 -4e-4,-0.011 0,-0.013 0,0 0,0 0,0 0.01,-0.01 0.014,-0.011 0.021,-0.016 0.029,-0.017 0.059,-0.028 0.088,-0.04 0,0 0,0 0,0 0.1008,-0.039 0.202,-0.071 0.303,-0.1062 0.1164,-0.041 0.2327,-0.082 0.3483,-0.1334 0.083,-0.037 0.1681,-0.067 0.2461,-0.1509 0,0 0,0 0,0 0.01,-0.01 0.02,-0.023 0.028,-0.039 10e-5,0 10e-5,0 10e-5,0 0,-0.01 0.01,-0.022 0.01,-0.039 -5e-4,-0.016 -0.01,-0.03 -0.01,-0.04 -0.01,-0.019 -0.021,-0.029 -0.032,-0.04 -0.1304,-0.1167 -0.2665,-0.1245 -0.4003,-0.1557 -0.861,-0.2007 -1.721,-0.2186 -2.5806,-0.2633 -1.98,-0.103 -3.9583,-0.1225 -5.9363,-0.1324 -2.8236,-0.014 -5.6291,0.5229 -8.4439,0.7844 -2.1371,-0.2834 -4.2795,-0.8951 -6.4101,-0.8499 -3.1373,0.067 -6.2487,0.8391 -9.3765,1.1851 0,0 0,0 0,0 -3.6488,0.4037 -7.3036,0.6549 -10.9522,1.0641 0,0 0,0 0,0 -4.4657,0.5008 -8.9082,1.6143 -13.3891,1.6656 -3.8405,0.044 -7.7051,-1.2364 -11.5504,-1.3801 -3.8165,-0.1427 -7.6153,0.3477 -11.4233,0.5215 -3.5172,-0.4981 -7.0365,-1.1791 -10.5513,-1.4943 -3.4306,-0.3076 -6.8542,-0.261 -10.2811,-0.3735 -3.4988,-0.1149 -7.0001,-0.3256 -10.4957,-0.3089 0,0 0,0 0,0 -3.7729,0.018 -7.5369,0.3401 -11.3082,0.4134 -3.7987,0.074 -7.6012,0.014 -11.4025,-0.01 0,0 0,0 -1e-4,0 -3.5969,-0.019 -7.194,-0.046 -10.791,-0.068 -3.8668,0.9211 -7.7124,2.2572 -11.5992,2.763 -8.2355,1.0718 -16.5293,0.511 -24.8158,-0.1373 -3.9114,-0.306 -7.8257,-0.7894 -11.7387,-1.1871 -3.426,-0.3481 -6.8612,-1.1752 -10.2764,-1.0502 0,0 -1e-4,0 -1e-4,0 -4.17,0.1529 -8.303,1.2548 -12.4551,1.8823 -4.6856,-0.1427 -9.3745,-0.4192 -14.0568,-0.428 -3.5351,-0.01 -7.052,0.6505 -10.593,0.3819 0,0 0,0 0,0 -2.7016,-0.2048 -5.4089,-1.2218 -8.114,-1.8001 -1.5555,-0.3324 -3.1109,-0.6504 -4.6661,-0.9315 -1.6561,-0.2993 -3.3189,-0.976 -4.9647,-0.8087 0,0 -1e-4,0 -1e-4,0 -1.0929,0.111 -2.1273,1.0911 -3.193,1.6377 -0.03,0.05 -0.071,-0.013 -0.1026,-0.071 -0.061,-0.1118 -0.1125,-0.2601 -0.1629,-0.4096 -0.1718,-0.5098 -0.3208,-1.0787 -0.4674,-1.649 0,0 0,-10e-5 0,-10e-5 -0.4402,-1.7132 -0.8394,-3.5073 -1.2252,-5.3204 -0.3857,-1.8133 -0.7589,-3.6499 -1.0868,-5.5471 -0.1092,-0.6317 -0.2166,-1.2687 -0.2945,-1.9323 -0.023,-0.1946 -0.045,-0.3925 -0.051,-0.5937 0,-0.1051 0,-0.2337 0.027,-0.2837 z"
         style="opacity:0.95999995;fill:#4f4c4d;fill-opacity:1;stroke:#4f4c4d;stroke-width:0.17598237;stroke-miterlimit:4;stroke-opacity:1;stroke-dashoffset:0" />
      <path
         inkscape:connector-curvature="0"
         d="m 9148.7764,-1682.1552 c 10.9369,-4.9468 1.9801,-1.1395 14.2388,-5.596 2.5939,-0.9432 5.1675,-1.943 7.7315,-2.9665 2.765,-1.1037 5.4482,-2.4217 8.2542,-3.4147 3.0467,-1.0784 6.2058,-1.8132 9.2858,-2.7926 3.2578,-1.036 6.4842,-2.1681 9.7261,-3.2528 7.1395,-4.5061 15.3929,-4.9535 23.3352,-6.8828 0.5764,-0.1402 -1.3468,-0.1821 -1.7661,0.2541 -0.6327,0.6584 -0.6861,1.7696 -1.0291,2.6544 0.3582,-1.1097 15.1562,5.4161 14.7977,6.5257 l 0,0 c -0.6166,1.6384 -0.6451,3.7471 -1.8497,4.9154 -2.1516,2.0867 -5.1078,2.9799 -7.7162,4.3621 -1.7836,0.9454 -3.5701,1.9055 -5.454,2.6177 -2.675,1.0109 -5.4622,1.6946 -8.1934,2.5418 -3.145,1.2213 -6.2901,2.4428 -9.4351,3.6641 -2.9611,0.9331 -15.9115,4.9897 -19.0114,6.049 -2.7889,0.9494 -5.55,1.9802 -8.3049,3.0247 -2.5874,0.9811 -5.0807,2.2237 -7.7202,3.0535 -4.7427,1.491 -9.7814,1.9468 -14.5141,3.4815 -1.1786,0.1002 -3.5537,-18.1386 -2.3752,-18.2389 z"
         id="path5740-1-4-2-2"
         style="opacity:0.95999995;fill:#918f90;fill-opacity:1;stroke:#918f90;stroke-width:0.28467491;stroke-miterlimit:4;stroke-opacity:1;stroke-dasharray:none;stroke-dashoffset:0" />
      <path
         inkscape:connector-curvature="0"
         d="m 9067.293,-1592.9552 c 12.2442,-14.4867 2.1358,-2.8722 16.2205,-17.9964 2.9802,-3.2004 5.9159,-6.4413 8.8315,-9.698 3.1442,-3.5122 6.1135,-7.1731 9.3464,-10.6072 3.5102,-3.729 7.277,-7.2034 10.8624,-10.8596 3.7921,-3.8677 7.5125,-7.8064 11.2685,-11.7099 7.5696,-10.7634 17.8987,-18.3336 27.3415,-27.1521 0.6853,-0.6403 -1.7701,0.9744 -2.1578,1.782 -0.5849,1.2189 -0.2843,2.4019 -0.4265,3.6029 0.087,-1.4443 21.0356,-7.5189 20.9484,-6.0745 l 0,0 c -0.2396,2.2078 0.423,4.3901 -0.7189,6.6237 -2.0395,3.9893 -5.4963,7.4507 -8.3492,11.1129 -1.951,2.5044 -3.9006,5.0264 -6.056,7.3786 -3.0606,3.3396 -6.3724,6.441 -9.5586,9.6615 -3.5876,3.96 -7.1752,7.9201 -10.7628,11.8801 -3.4497,3.5064 -18.5451,18.8175 -22.1291,22.5728 -3.2256,3.3747 -6.3891,6.8089 -9.5401,10.2518 -2.9593,3.2336 -5.7126,6.6536 -8.7882,9.7773 -5.5263,5.6127 -11.7718,10.4212 -17.271,16.07 -1.463,1.1182 -10.5241,-15.4979 -9.0612,-16.6161 z"
         id="path5740-1-2-5-58-9"
         style="opacity:0.95999995;fill:#918f90;fill-opacity:1;stroke:#918f90;stroke-width:0.35835531;stroke-miterlimit:4;stroke-opacity:1;stroke-dasharray:none;stroke-dashoffset:0" />
      <path
         inkscape:connector-curvature="0"
         d="m 8901.5326,-1553.589 c 2.352,-1.4031 4.6246,-2.95 7.0561,-4.2092 2.9778,-1.5419 6.1433,-2.6959 9.1491,-4.1821 1.9022,-0.9406 3.6732,-2.1319 5.5644,-3.0941 5.1166,-2.6032 12.485,-5.8778 17.6839,-8.3883 4.2516,-2.0534 8.4719,-4.1725 12.7076,-6.2586 3.1433,-1.2662 6.2865,-2.5323 9.4295,-3.7985 3.1805,-1.6386 6.2323,-3.5553 9.5413,-4.9158 1.7054,-0.7009 3.6998,-0.5142 5.4003,-1.2271 2.0911,-0.8765 3.7226,-2.6817 5.8426,-3.4866 1.1325,-0.4303 2.4319,-0.078 3.6478,-0.1174 1.2257,-0.5918 2.4514,-1.1836 3.6771,-1.7755 2.054,5.2352 4.108,10.4702 6.162,15.7053 -0.3494,0.1024 -0.767,0.075 -1.0488,0.3067 -0.1971,0.1615 -0.1518,0.4939 -0.2275,0.7409 -0.9176,0.7697 -11.8906,-12.6814 -10.9731,-13.4511 l 0,0 c -0.01,-0.1129 -0.1087,-0.2756 -0.018,-0.339 4.5367,-3.1857 22.8276,7.6856 9.8784,13.9279 1.2463,-0.4109 2.4923,-1.6978 3.7389,-1.2328 1.0076,0.376 -1.8536,1.0334 -2.7494,1.602 -1.9758,1.2541 -3.8028,2.7553 -5.8623,3.8645 -10.3675,5.5841 -21.4174,9.7317 -31.9447,14.9792 -5.8598,1.9766 -6.4445,1.9782 -13.0569,5.5094 -2.9415,1.5708 -5.5854,3.6854 -8.5894,5.1328 -4.7122,2.2706 -9.6866,3.9541 -14.5036,5.9937 -14.0812,5.9625 -5.1122,2.8643 -18.1374,6.8552 -1.2564,0.1427 -3.6231,-17.9986 -2.3667,-18.1413 z"
         id="path5742-7-9-0-6-9"
         style="opacity:0.95999995;fill:#918f90;fill-opacity:1;stroke:#918f90;stroke-width:0.29580158;stroke-miterlimit:4;stroke-opacity:1;stroke-dasharray:none;stroke-dashoffset:0" />
      <path
         inkscape:connector-curvature="0"
         d="m 8994.2385,-1598.2524 c 12.0025,-0.1666 2.2704,-0.2537 15.2889,0.557 2.7547,0.1713 5.5135,0.2827 8.2728,0.3685 2.9757,0.092 5.9621,-0.044 8.9311,0.1663 3.2239,0.2283 6.4136,0.8164 9.6285,1.1488 3.4004,0.3513 6.8104,0.6021 10.2156,0.9026 8.3452,-1.2794 16.0904,1.6069 24.1422,3.0105 0.5845,0.1017 -1.162,-0.7049 -1.7206,-0.4725 -0.843,0.351 -1.3357,1.3483 -2.0037,2.0224 0.7719,-0.8741 11.7315,11.019 10.9598,11.8931 l 0,0 c -1.2197,1.2558 -2.0882,3.1774 -3.6593,3.7674 -2.8058,1.0537 -5.8728,0.6917 -8.816,0.9172 -2.0129,0.1542 -4.0341,0.3209 -6.0457,0.2213 -2.8561,-0.1416 -5.6845,-0.6282 -8.5268,-0.9423 -3.3709,-0.1364 -6.7421,-0.2728 -10.1132,-0.4093 -3.0873,-0.3273 -16.5802,-1.781 -19.8452,-2.0479 -2.936,-0.2436 -5.879,-0.4014 -8.8219,-0.5442 -2.7638,-0.1339 -5.5459,0.01 -8.2972,-0.2842 -4.9433,-0.5273 -9.7448,-2.1221 -14.6966,-2.6054 -1.1206,-0.3789 3.9869,-18.0484 5.1074,-17.6695 z"
         id="path5740-1-3-5-2-0"
         style="opacity:0.95999995;fill:#918f90;fill-opacity:1;stroke:#918f90;stroke-width:0.28467491;stroke-miterlimit:4;stroke-opacity:1;stroke-dasharray:none;stroke-dashoffset:0" />
      <path
         inkscape:connector-curvature="0"
         d="m 9061.4231,-1703.4665 c 5.9525,-10.4237 0.9346,-2.0847 8.245,-12.8871 1.5467,-2.286 3.0438,-4.6059 4.5192,-6.9393 1.5911,-2.5163 2.9902,-5.1581 4.6794,-7.6089 1.834,-2.6611 3.9607,-5.11 5.8798,-7.7105 2.0298,-2.7508 3.9778,-5.5609 5.9662,-8.3416 3.1363,-7.8385 9.5565,-13.0443 14.8551,-19.2674 0.3843,-0.4518 -1.1974,0.6429 -1.2809,1.2422 -0.1259,0.9044 0.4829,1.8354 0.7245,2.7531 -0.3612,-1.1087 15.4503,-4.5091 15.8112,-3.4003 l 0,0 c 0.4622,1.6885 1.6766,3.4125 1.3869,5.0655 -0.5175,2.9522 -2.3869,5.4103 -3.6878,8.0602 -0.8893,1.8122 -1.7724,3.638 -2.8798,5.3202 -1.5727,2.3884 -3.4282,4.5777 -5.1425,6.8665 -1.8297,2.8345 -3.6594,5.6693 -5.4891,8.5038 -1.85,2.4933 -9.9552,13.3779 -11.8435,16.0549 -1.701,2.4053 -3.3317,4.8603 -4.9493,7.3228 -1.5192,2.3128 -2.8089,4.7821 -4.4591,7.003 -2.965,3.9906 -6.7774,7.3166 -9.7087,11.3367 -0.8955,0.7728 -13.5222,-12.6012 -12.6268,-13.374 z"
         id="path5740-1-1-7-8-8"
         style="opacity:0.95999995;fill:#b5d92a;fill-opacity:1;stroke:#b5d92a;stroke-width:0.28467491;stroke-miterlimit:4;stroke-opacity:1;stroke-dasharray:none;stroke-dashoffset:0" />
      <path
         inkscape:connector-curvature="0"
         d="m 9110.8471,-1768.8075 c 18.704,3.1535 3.5597,0.3741 23.7501,4.7865 4.2722,0.9334 8.5567,1.808 12.8447,2.6572 4.6241,0.9157 9.2871,1.6052 13.8893,2.637 4.9972,1.1202 9.9061,2.5909 14.8791,3.8128 5.26,1.2921 10.5448,2.4863 15.8174,3.729 13.1185,1.0286 24.8954,6.0587 37.2948,9.6901 0.9001,0.2634 -1.7404,-1.0266 -2.6329,-0.9486 -1.3467,0.1178 -2.2115,0.9793 -3.3173,1.4689 1.287,-0.6611 17.1884,14.2684 15.9011,14.9294 l 0,0 c -2.0218,0.9189 -3.5619,2.601 -6.0656,2.7566 -4.4718,0.278 -9.2116,-0.9326 -13.8163,-1.5213 -3.149,-0.4026 -6.3126,-0.7949 -9.4347,-1.451 -4.4331,-0.9317 -8.7892,-2.2009 -13.1838,-3.3014 -5.2354,-1.0691 -10.4709,-2.1381 -15.7062,-3.2072 -4.7751,-1.1815 -25.6411,-6.3683 -30.6986,-7.5385 -4.5474,-1.0558 -9.1143,-2.0279 -13.6823,-2.9848 -4.2903,-0.8985 -8.6359,-1.5249 -12.8908,-2.5796 -7.6453,-1.895 -14.9652,-4.8187 -22.6278,-6.672 -1.7076,-0.689 7.9723,-16.9524 9.6799,-16.2634 z"
         id="path5740-1-2-9-3-4-1"
         style="opacity:0.95999995;fill:#b5d92a;fill-opacity:1;stroke:#b5d92a;stroke-width:0.35835531;stroke-miterlimit:4;stroke-opacity:1;stroke-dasharray:none;stroke-dashoffset:0" />
      <path
         inkscape:connector-curvature="0"
         d="m 8896.8974,-1686.3366 c 2.5142,1.0859 4.9684,2.3246 7.5428,3.2575 3.1527,1.1422 6.4413,1.8755 9.6146,2.9589 2.0082,0.6856 3.9188,1.6369 5.919,2.3455 5.4113,1.917 13.1424,4.2072 18.6232,6.0215 4.4823,1.4842 8.9419,3.0374 13.4126,4.5559 3.2811,0.8474 6.562,1.6947 9.8429,2.5422 3.3662,1.2118 6.6411,2.7161 10.0987,3.6355 1.7819,0.4735 3.7352,0.03 5.5139,0.5157 2.1872,0.5975 4.0392,2.1756 6.2458,2.6985 1.1788,0.2796 2.4215,-0.238 3.6322,-0.3571 1.2921,0.4276 2.5843,0.8553 3.8764,1.283 1.357,-5.4575 2.714,-10.9148 4.0709,-16.3724 -0.3597,-0.056 -0.7702,0.025 -1.0796,-0.1678 -0.2165,-0.1346 -0.2147,-0.47 -0.3218,-0.7051 -1.0098,-0.6441 -10.1437,14.1177 -9.134,14.7618 l 0,0 c 0,0.1133 -0.072,0.2874 0.026,0.3385 4.9119,2.5697 21.6366,-10.5842 7.9866,-15.0925 1.2891,0.2455 2.6916,1.3598 3.8673,0.7369 0.9502,-0.5037 -1.972,-0.7839 -2.9341,-1.2315 -2.1219,-0.987 -4.1284,-2.2383 -6.3144,-3.0707 -11.0047,-4.1909 -22.4996,-6.8689 -33.619,-10.7053 -6.0668,-1.1991 -6.6468,-1.1247 -13.6617,-3.7677 -3.1205,-1.1755 -6.0165,-2.929 -9.183,-3.9742 -4.9671,-1.6396 -10.118,-2.663 -15.159,-4.06 -14.7361,-4.0839 -5.4408,-2.1764 -18.8739,-4.4426 -1.2643,0.022 -1.2558,18.3167 0.01,18.2951 z"
         id="path5742-7-9-4-2-7-3"
         style="opacity:0.95999995;fill:#b5d92a;fill-opacity:1;stroke:#b5d92a;stroke-width:0.29580158;stroke-miterlimit:4;stroke-opacity:1;stroke-dasharray:none;stroke-dashoffset:0" />
      <path
         inkscape:transform-center-y="-7.03125"
         inkscape:transform-center-x="19.53125"
         inkscape:connector-curvature="0"
         d="m 8990.7366,-1676.5162 c 10.7843,-5.2714 1.9452,-1.1981 14.0653,-6.0191 2.5645,-1.0203 5.1071,-2.0966 7.6393,-3.1962 2.7308,-1.1859 5.3735,-2.5835 8.1485,-3.6599 3.0131,-1.169 6.1489,-1.9979 9.1983,-3.0689 3.2253,-1.133 6.4164,-2.361 9.6243,-3.542 7.0017,-4.7176 15.2381,-5.4114 23.1192,-7.5772 0.572,-0.1574 -1.3517,-0.1418 -1.7578,0.3067 -0.6127,0.6771 -0.6328,1.7893 -0.9493,2.684 0.3252,-1.1199 15.3113,4.9607 14.9863,6.0805 l 0,0 c -0.5674,1.6561 -0.533,3.7647 -1.7022,4.9685 -2.0881,2.1501 -5.0164,3.1312 -7.5821,4.5908 -1.7547,0.9982 -3.5116,2.0113 -5.3735,2.7795 -2.6435,1.0904 -5.4092,1.8571 -8.1138,2.7856 -3.107,1.3147 -6.2141,2.6297 -9.3212,3.9445 -2.9319,1.0211 -15.7554,5.4629 -18.8222,6.6145 -2.7593,1.0323 -5.4884,2.1452 -8.2109,3.2716 -2.5568,1.058 -5.012,2.3742 -7.6254,3.2828 -4.6958,1.6321 -9.7188,2.2382 -14.4036,3.9138 -1.1751,0.1353 -4.0942,-18.0244 -2.9192,-18.1598 z"
         id="path5740-1-3-7-7-24-1"
         style="opacity:0.95999995;fill:#b5d92a;fill-opacity:1;stroke:#b5d92a;stroke-width:0.28467491;stroke-miterlimit:4;stroke-opacity:1;stroke-dasharray:none;stroke-dashoffset:0" />
    </g>
  </g>
</svg>
