<?xml version="1.0" encoding="UTF-8" standalone="no"?>
<!-- Created with Inkscape (http://www.inkscape.org/) -->

<svg
   xmlns:dc="http://purl.org/dc/elements/1.1/"
   xmlns:cc="http://creativecommons.org/ns#"
   xmlns:rdf="http://www.w3.org/1999/02/22-rdf-syntax-ns#"
   xmlns:svg="http://www.w3.org/2000/svg"
   xmlns="http://www.w3.org/2000/svg"
   xmlns:sodipodi="http://sodipodi.sourceforge.net/DTD/sodipodi-0.dtd"
   xmlns:inkscape="http://www.inkscape.org/namespaces/inkscape"
   width="400.15625"
   height="400.15625"
   id="svg9167"
   version="1.1"
   inkscape:version="0.48.5 r10040"
   sodipodi:docname="stats.svg"
   inkscape:export-filename="/home/banana/flySightAndroid/FloatSight/icons/mainmenu/drawing.png"
   inkscape:export-xdpi="44.98243"
   inkscape:export-ydpi="44.98243">
  <defs
     id="defs9169" />
  <sodipodi:namedview
     id="base"
     pagecolor="#ffffff"
     bordercolor="#666666"
     borderopacity="1.0"
     inkscape:pageopacity="0.0"
     inkscape:pageshadow="2"
     inkscape:zoom="0.98994948"
     inkscape:cx="124.00116"
     inkscape:cy="273.47042"
     inkscape:document-units="px"
     inkscape:current-layer="layer1"
     showgrid="false"
     fit-margin-top="0"
     fit-margin-left="0"
     fit-margin-right="0"
     fit-margin-bottom="0"
     inkscape:window-width="1680"
     inkscape:window-height="1002"
     inkscape:window-x="0"
     inkscape:window-y="29"
     inkscape:window-maximized="1" />
  <metadata
     id="metadata9172">
    <rdf:RDF>
      <cc:Work
         rdf:about="">
        <dc:format>image/svg+xml</dc:format>
        <dc:type
           rdf:resource="http://purl.org/dc/dcmitype/StillImage" />
        <dc:title></dc:title>
      </cc:Work>
    </rdf:RDF>
  </metadata>
  <g
     inkscape:label="Layer 1"
     inkscape:groupmode="layer"
     id="layer1"
     transform="translate(-399.91966,-115.14732)">
    <path
       style="opacity:0.95999995;fill:#4f4c4d;fill-opacity:1;stroke:#4f4c4d;stroke-width:0.60974628;stroke-miterlimit:4;stroke-opacity:1;stroke-dasharray:none;stroke-dashoffset:0"
       id="path5740-1-2-9-2-6-4-4-9-5"
       d="m 446.08348,436.29003 c 46.338,-1.3383 8.696,-0.5152 59.27,-0.7977 10.701,-0.06 21.398,-0.191 32.092,-0.3523 11.531,-0.1741 23.028,-0.6192 34.571,-0.6535 12.533,-0.038 25.047,0.3525 37.578,0.4387 13.254,0.091 26.515,0.063 39.772,0.092 31.848,-2.3027 62.699,0.3643 94.264,1.2532 2.293,0.064 -4.714,-0.7206 -6.799,-0.3934 -3.146,0.4943 32.001,2.8218 29.633,3.6802 2.706,-1.1042 12.103,10.7725 9.396,11.8766 l 0,0 c -4.317,1.5968 -7.065,3.9454 -12.948,4.7906 -10.511,1.5097 -22.481,1.3744 -33.785,1.9201 -7.73,0.3732 -15.491,0.7622 -23.296,0.8361 -11.084,0.1053 -22.17,-0.2 -33.256,-0.3 -13.073,0.1597 -26.145,0.3196 -39.218,0.4793 -12.037,-0.092 -64.649,-0.5228 -77.352,-0.5269 -11.424,-0.012 -22.85,0.086 -34.269,0.1975 -10.726,0.1053 -21.433,0.5385 -32.16,0.4539 -19.274,-0.1515 -38.338,-1.5752 -57.63,-1.6741 -4.451,-0.3403 9.686,-21.6615 14.137,-21.3214 z"
       inkscape:connector-curvature="0"
       sodipodi:nodetypes="ccccccccccccsccccccccc" />
    <path
       style="opacity:0.95999995;fill:#4f4c4d;fill-opacity:1;stroke:#4f4c4d;stroke-width:0.31841344;stroke-miterlimit:4;stroke-opacity:1;stroke-dasharray:none;stroke-dashoffset:0"
       id="path5476-9-6-3-8-5-7-6"
       d="m 443.59248,171.81683 c -0.39,11.8588 2.635,23.4947 2.671,35.306 0.294,96.914 -3.318,-30.6819 -2.064,53.4084 1.657,37.3722 1.192,19.2548 1.518,54.3485 -0.1,58.7066 0.08,5.9162 -0.361,61.6923 -0.09,10.8746 0.04,21.7528 -0.188,32.6248 -0.145,6.7724 -0.639,13.5298 -0.943,20.2956 -0.581,12.901 0.427,8.1905 -0.947,13.9166 0.55,2.3024 0.483,1.3452 -2.066,-1.6971 1.159,0.4165 -4.069,18.8825 -5.228,18.4659 l 0,0 c -8.259,-5.8514 -4.965,-1.9523 -9.751,-11.8356 -0.244,-8.1761 -0.409,-16.3551 -0.663,-24.5309 -0.444,-14.2947 -1.138,-26.7115 -1.021,-41.0205 0.08,-9.877 0.629,-19.7446 0.707,-29.6217 0.09,-10.7137 -0.145,-21.4276 -0.218,-32.1414 -0.373,-16.0737 -1.392,-49.3435 -0.993,-66.9163 0.182,-8.0071 0.945,-15.9847 1.312,-23.984 0.258,-5.6269 0.355,-11.2619 0.56,-16.8917 0.944,-25.8415 0.881,-11.8085 0.526,-34.6925 -0.422,-1.3659 16.727,-8.0923 17.149,-6.7264 z"
       inkscape:connector-curvature="0" />
    <path
       style="opacity:0.95999995;fill:#4f4c4d;fill-opacity:1;stroke:#4f4c4d;stroke-width:0.31718385;stroke-miterlimit:4;stroke-opacity:1;stroke-dasharray:none;stroke-dashoffset:0"
       id="path5476-9-6-3-8-5-7-6-2"
       d="m 760.30848,456.91123 c 0.39,-11.7674 -2.635,-23.3136 -2.671,-35.0338 -0.294,-96.167 3.318,30.4454 2.064,-52.9967 -1.657,-37.0842 -1.192,-19.1065 -1.518,-53.9297 0.1,-58.254 -0.08,-5.8706 0.361,-61.2167 0.09,-10.7908 -0.04,-21.5851 0.188,-32.3733 0.145,-6.7202 0.639,-13.4255 0.943,-20.1392 0.581,-12.8016 -0.427,-8.1273 0.947,-13.8094 -0.55,-2.2846 -0.483,-1.3347 2.066,1.6841 -1.159,-0.4133 4.069,-18.737 5.228,-18.3236 l 0,0 c 8.259,5.8063 4.965,1.9372 9.751,11.7444 0.244,8.1131 0.409,16.229 0.663,24.3418 0.444,14.1846 1.138,26.5056 1.021,40.7044 -0.08,9.8008 -0.629,19.5923 -0.707,29.3933 -0.09,10.6311 0.145,21.2624 0.218,31.8936 0.373,15.9498 1.392,48.9632 0.993,66.4006 -0.182,7.9453 -0.945,15.8614 -1.312,23.799 -0.258,5.5836 -0.355,11.1752 -0.56,16.7615 -0.944,25.6424 -0.881,11.7175 -0.526,34.4251 0.422,1.3554 -16.727,8.03 -17.149,6.6746 z"
       inkscape:connector-curvature="0" />
    <path
       style="opacity:0.95999995;fill:#4f4c4d;fill-opacity:1;stroke:#4f4c4d;stroke-width:0.61474478;stroke-miterlimit:4;stroke-opacity:1;stroke-dasharray:none;stroke-dashoffset:0"
       id="path5740-1-2-9-2-6-4-4-9-5-9"
       d="m 443.61648,170.71673 c 47.083,-1.3383 8.836,-0.5152 60.222,-0.7977 10.874,-0.06 21.743,-0.191 32.607,-0.3523 11.716,-0.1741 23.398,-0.6192 35.126,-0.6535 12.735,-0.038 25.451,0.3525 38.183,0.4387 13.467,0.091 26.94,0.063 40.411,0.092 32.359,-2.3027 63.706,0.3643 95.779,1.2532 2.328,0.064 -4.791,-0.7206 -6.91,-0.3934 -3.195,0.4943 -4.811,1.7169 -7.217,2.5753 2.75,-1.1042 49.623,11.8774 46.873,12.9815 l 0,0 c -4.387,1.5968 -7.178,3.9454 -13.156,4.7906 -10.68,1.5097 -22.841,1.3744 -34.327,1.9201 -7.854,0.3732 -15.74,0.7622 -23.671,0.8361 -11.261,0.1053 -22.526,-0.2 -33.789,-0.3 -13.283,0.1597 -26.565,0.3196 -39.848,0.4793 -12.232,-0.092 -65.688,-0.5228 -78.595,-0.5269 -11.607,-0.012 -23.218,0.086 -34.82,0.1975 -10.897,0.1053 -21.777,0.5385 -32.676,0.4539 -19.584,-0.1515 -38.954,-1.5752 -58.556,-1.6741 -4.522,-0.3403 9.842,-21.6615 14.364,-21.3214 z"
       inkscape:connector-curvature="0" />
    <path
       style="opacity:0.95999995;fill:#918f90;fill-opacity:1;stroke:#918f90;stroke-width:0.454;stroke-miterlimit:4;stroke-opacity:1;stroke-dasharray:none;stroke-dashoffset:0"
       id="path5740-1-2-9-3-4-1-1-2"
       d="m 608.75448,299.82853 c -24.662,-17.8115 -4.505,-3.5294 -31.972,-22.1389 -5.812,-3.9369 -11.587,-7.9233 -17.349,-11.9309 -6.211,-4.3201 -12.277,-8.81811 -18.559,-13.0438 -6.822,-4.5898 -13.837,-8.8724 -20.714,-13.3729 -7.277,-4.7615 -14.499,-9.6076 -21.748,-14.41361 -9.926,-7.64479 -41.888,-29.5299 -48.137,-31.23599 -4.858,-2.1666 -4.786,0.21289 -6.246,18.45879 4.043,3.077 8.093,6.1735 12.32,9.06881 5.999,4.1086 12.195,7.9314 18.29,11.8956 7.058,4.87 14.118,9.74259 21.176,14.613 6.614,4.3181 35.529,23.1685 42.464,27.7911 6.239,4.1478 12.429,8.3775 18.608,12.6132 5.806,3.9805 11.445,8.1817 17.339,12.0277 10.589,6.91 21.661,12.8486 32.236,19.8023 2.587,1.3802 4.881,-18.754 2.292,-20.1352 z"
       inkscape:connector-curvature="0"
       sodipodi:nodetypes="ccccccccccccccccc" />
    <path
       style="opacity:0.95999995;fill:#918f90;fill-opacity:1;stroke:#918f90;stroke-width:0.454;stroke-miterlimit:4;stroke-opacity:1;stroke-dasharray:none;stroke-dashoffset:0"
       id="path5740-1-2-9-3-4-1-1-2-7"
       d="m 601.91648,299.49923 c 24.662,-17.8115 4.505,-3.5294 31.972,-22.1389 5.812,-3.9369 11.587,-7.9233 17.349,-11.9309 6.211,-4.3201 12.277,-8.8181 18.559,-13.0438 6.822,-4.5898 13.837,-8.8724 20.714,-13.3729 7.277,-4.7615 14.499,-9.6076 21.748,-14.4136 9.926,-7.6448 41.888,-29.5299 48.137,-31.236 4.858,-2.1666 4.786,0.2129 6.246,18.4588 -4.043,3.077 -8.093,6.17349 -12.32,9.0688 -5.999,4.1086 -12.195,7.9314 -18.29,11.8956 -7.058,4.87 -14.118,9.7426 -21.176,14.613 -6.614,4.3181 -35.529,23.1685 -42.464,27.7911 -6.239,4.1478 -12.429,8.3775 -18.608,12.6132 -5.806,3.9805 -11.445,8.1817 -17.339,12.0277 -10.589,6.91 -21.661,12.8486 -32.236,19.8023 -2.587,1.3802 -4.881,-18.754 -2.292,-20.1352 z"
       inkscape:connector-curvature="0"
       sodipodi:nodetypes="ccccccccccccccccc" />
    <path
       style="fill:#b5d92a;fill-opacity:1;stroke:#b5d92a;stroke-width:0.79500002;stroke-miterlimit:4;stroke-opacity:1;stroke-dasharray:none;stroke-dashoffset:0"
       id="path9945-3"
       d="m 566.14548,371.62543 c 1.077,2.4448 2.107,4.9092 3.153,7.3669 0.09,0.2129 0.313,0.8588 0.295,0.6281 -0.08,-1.0712 -2.334,-3.2741 -2.475,-3.4453 -4.183,0.9955 -8.367,1.991 -12.55,2.9865 -0.266,0.9373 0.06,2.3496 -0.799,2.8119 -0.766,0.4131 0.242,-1.7252 0.379,-2.5854 0.28,-1.77 0.868,-3.4745 1.407,-5.1754 0.222,-0.7142 0.458,-1.4243 0.666,-2.1427 0.212,-0.7319 0.365,-1.4807 0.594,-2.2072 1.055,-3.3343 2.401,-6.5375 3.825,-9.7256 1.094,-1.7888 1.706,-3.1273 3.248,-4.5222 0.901,-0.8152 1.692,-2.443 2.887,-2.2261 4.602,0.8345 9.132,2.5859 13.063,5.1188 1.013,0.6527 0.288,2.3929 0.449,3.5871 0.05,0.365 0.122,0.7265 0.183,1.0898 0.184,0.2878 0.317,0.6157 0.553,0.8634 0.665,0.6999 1.506,1.2262 2.132,1.9611 1.6,1.8765 3.068,3.8623 4.527,5.8506 1.782,2.43 3.534,4.8846 5.192,7.4009 1.532,2.3243 6.459,10.5625 8.116,13.3181 0.765,1.2329 1.418,2.5424 2.294,3.6986 0.122,0.1614 0.397,0.077 0.596,0.1153 -4.674,0.3046 -9.513,-0.3558 -14.022,0.9138 -1.134,0.3193 -0.481,2.3636 -1.124,3.3512 -0.184,0.2831 -0.439,-0.5598 -0.473,-0.8958 -0.182,-1.768 -0.11,-3.5528 -0.165,-5.3292 0.822,-1.753 1.487,-3.5882 2.465,-5.2591 0.591,-1.0088 1.505,-1.7909 2.208,-2.7245 0.574,-0.7628 1.134,-1.5404 1.623,-2.3609 1.088,-1.8278 2.063,-3.8145 2.562,-5.8996 0.174,-0.7318 0.154,-1.4968 0.232,-2.2452 0.732,-5.9908 1.467,-12.5406 11.985,-11.5677 7.827,0.724 5.714,6.3185 6.813,10.1997 0.07,0.2661 0.317,0.4534 0.475,0.68 2.579,3.2754 5.265,6.4663 7.9,9.6966 1.539,1.8871 3.026,3.8181 4.606,5.6714 3.916,4.5944 2.05,4.7501 4.865,4.0592 -15.346,-0.1266 -6.945,-3.151 -13.244,5.9522 -0.232,0.334 -0.417,-0.7322 -0.437,-1.138 -0.09,-1.7984 -0.25,-3.6381 0.12,-5.4004 0.408,-1.9466 1.888,-4.2048 2.978,-5.9895 0.385,-1.4158 1.354,-2.7311 1.17,-4.2517 -0.03,-0.2379 -0.153,-0.4541 -0.224,-0.6828 -0.311,-0.9974 0.02,-0.763 -0.519,-1.0221 1.848,1.8054 3.046,6.072 5.545,5.4162 4.698,-1.2329 6.925,-6.8677 10.856,-9.7202 0.413,-0.2994 0.814,0.6251 1.148,1.0106 0.964,1.1141 1.782,2.3472 2.732,3.4737 2.374,2.8184 2.587,2.8871 5.068,5.1732 5.718,0.8314 -0.533,-0.1577 -14.055,6.6446 -0.24,0.1207 0,1.006 -0.16,0.7895 -0.424,-0.5777 -0.734,-1.3012 -0.741,-2.0176 -0.02,-2.2165 -0.493,-4.7259 0.664,-6.6167 1.426,-2.3299 4.31,-3.3565 6.465,-5.0348 4.983,-0.5998 9.99,-1.428 15.025,-1.3951 2.277,0.015 4.553,0.1364 6.829,0.2046 0.583,0.075 1.198,0.023 1.751,0.2264 7.653,2.8155 4.12,7.1798 -5.133,16.4655 -1.208,1.2119 -3.192,-1.4537 -4.367,-2.6975 -3.613,-3.8262 -2.147,-5.9048 -1.577,-10.7529 1.248,-2.2087 2.14,-4.64 3.553,-6.7565 0.553,-0.828 1.195,-1.5929 1.792,-2.3894 0.852,-1.0181 1.889,-1.8537 2.801,-2.8116 1.611,-1.6916 4.21,-5.3983 6.455,-5.1463 3.879,0.4355 7.053,3.3469 10.579,5.0203 0.279,1.3411 0.414,2.7202 0.835,4.0233 0.155,0.478 -0.373,-1.1492 -0.02,-1.5071 0.253,-0.2561 0.597,0.4102 0.846,0.6705 0.799,0.8384 1.494,1.7708 2.286,2.6157 2.46,2.6238 3.979,3.9901 6.566,6.4369 5.023,0.9143 -6.992,-1.2916 -7.718,-0.9438 -2.619,1.2551 -3.122,4.9081 -4.457,7.4879 -0.172,0.3322 0.06,1.4922 0,1.1221 -1.208,-8.2537 -1.385,-4.4037 6.214,-12.3656 1.009,-0.106 2.02,-0.1934 3.027,-0.318 2.309,-0.2856 3.213,-0.4734 5.607,-1.141 3.889,-1.0844 3.219,-1.303 7.881,-2.0888 1.535,-0.2589 3.098,-0.3167 4.647,-0.4751 1.027,4.3913 8.158,-1.839 10.804,0.6126 5.834,5.4048 8.069,7.8965 2.914,14.9159 -1.392,1.8955 1.939,-4.3905 2.094,-6.737 0.09,-1.3843 -0.925,-2.6158 -1.388,-3.9237 2.599,1.4428 4.994,3.2081 7.473,4.8362 0.306,0.2013 0.588,0.595 0.953,0.5508 0.462,-0.056 -2.723,-1.9777 0.456,0.056 -4.489,2.9917 -8.392,7.1481 -13.469,8.975 -1.265,0.4554 -0.255,-2.6802 -0.286,-4.0248 -0.02,-1.0437 0.211,-2.0789 0.243,-3.1223 0.03,-1.0026 -0.02,-2.3504 -0.04,-3.3343 -0.02,-0.7168 0.07,-1.4443 -0.05,-2.1506 -0.06,-0.3392 -0.403,-0.578 -0.485,-0.9126 -0.439,-1.7956 -0.98,-5.7592 -1.359,-7.7024 -0.478,-2.4468 -0.456,-2.2876 -0.426,-1.5345 5.482,-1.7305 10.767,-4.291 16.445,-5.1916 0.86,-0.1365 0.698,1.6001 0.962,2.4302 0.25,0.7824 1.358,2.6449 0.576,2.3954 -0.804,-0.2564 -0.281,-1.7003 -0.698,-2.4344 -0.503,-0.8859 -2.264,-1.3294 -1.998,-2.3128 0.236,-0.8723 1.462,1.063 2.192,1.5945 2.482,2.7702 0.978,0.9252 2.676,3.3159 0.121,0.1706 0.277,0.3162 0.386,0.4949 0.328,0.5367 0.592,1.1102 0.92,1.6464 0.09,0.142 0.421,0.5161 0.322,0.3821 -0.612,-0.8296 -1.241,-1.6463 -1.861,-2.4694 5.837,-3.9225 1.698,3.7893 3.443,4.5385 0.3,0.1291 0.653,-0.04 0.979,-0.06 1.379,0.8378 2.758,1.6755 4.137,2.5133 0.912,0.7961 -10.346,13.7003 -11.259,12.9042 l 0,0 c -5.466,-3.7616 -5.089,-2.9533 -9.201,-7.7518 -0.31,-0.3614 -1.05,-1.568 -0.702,-1.243 0.94,0.8795 1.674,1.9567 2.511,2.935 -3.634,-3.6859 -2.19,-1.7583 -3.812,-4.3481 -0.304,-0.4843 -1.218,-1.5202 -0.141,-0.2619 2.626,2.0618 -2.524,-1.9734 -2.806,-2.3251 -0.906,-1.1329 -1.297,-2.5951 -1.91,-3.9098 -0.03,-0.057 0.02,-0.1284 0,-0.1892 -0.05,-0.1756 -0.356,-0.4321 -0.192,-0.5113 5.085,-2.4603 10.324,-4.5917 15.486,-6.8875 0.944,3.3511 1.361,6.7883 2.032,10.1975 0.285,1.4455 0.69,2.8688 0.904,4.3263 0.107,0.7221 0.04,1.4593 0.06,2.189 0.05,2.131 0.07,4.2439 -0.1,6.3708 -0.03,0.4459 0.2,1.6408 -0.127,1.3357 -0.462,-0.431 0.126,-2.1622 -0.422,-1.8482 -4.738,2.7126 -8.817,6.4412 -13.225,9.6617 0.182,0.1324 0.744,0.5046 0.546,0.3971 -2.548,-1.3848 -4.89,-3.1663 -7.364,-4.6769 -0.808,-0.4939 -1.628,-0.9704 -2.442,-1.4556 -6.048,-7.5567 -5.586,-3.8948 -2.933,-13.9832 0.541,-2.0606 -1.929,4.2532 -1.242,6.2702 0.889,2.6129 3.92,3.9293 5.487,6.2017 0.237,0.3443 -0.88,0.128 -1.253,-0.061 -0.237,-0.1196 0.515,-0.1211 0.773,-0.1817 -0.602,0 -4.967,-0.079 -5.782,0.1116 -1.371,0.3207 -2.636,0.9909 -3.977,1.4198 -1.311,0.4195 -2.642,0.778 -3.975,1.124 -4.68,1.215 -3.072,1.0934 -6.315,1.0176 1.492,-2.2724 3.601,-4.2436 4.477,-6.8171 0.442,-1.2966 -1.934,-3.2954 -0.781,-4.034 1.096,-0.7021 1.63,2.3821 1.369,3.6575 -0.705,3.445 -1.131,7.8445 -4.108,9.7169 -5.963,3.7513 -10.044,-0.2227 -13.874,-3.0476 -3.099,-3.0268 -4.527,-4.3206 -7.473,-7.6358 -1.393,-1.5674 -4.083,-4.7979 -4.988,-6.7791 -0.565,-1.2364 -0.799,-2.5997 -1.136,-3.9165 -0.207,-0.8084 0.496,1.5934 0.745,2.3901 3.355,1.3652 6.45,3.8735 10.066,4.0955 1.736,0.1067 2.678,-2.2283 4.104,-3.2251 0.315,-0.2203 -0.498,0.5864 -0.747,0.8787 -1.123,1.3136 -2.163,2.9355 -3.7,3.7779 -0.191,0.1217 -0.416,0.2023 -0.574,0.3651 -0.546,0.5614 -0.881,1.411 -1.217,2.0822 -0.579,1.1583 -1.169,2.3116 -1.774,3.4571 -0.03,-3.4667 0.777,-5.2191 -1.916,-7.7169 -0.952,-0.8835 -2.585,-2.9312 -3.394,-1.9143 -17.714,22.288 -10.209,11.4247 -4.48,16.404 0.275,0.2398 -0.731,-0.025 -1.096,-0.038 0.447,-0.017 1.786,0 1.341,-0.05 -1.555,-0.1814 -4.032,-0.1384 -5.588,0 -1.091,0.1002 -2.167,0.3331 -3.258,0.432 -0.702,0.064 -1.413,-0.016 -2.115,0.055 -0.759,0.077 -1.504,0.2598 -2.256,0.3897 4.969,-6.1093 3.779,-2.5522 3.653,-9.6006 0,-0.08 0.05,0.1535 0.08,0.2289 0.482,1.3002 2.469,2.9545 1.452,3.8977 -11.916,11.06 -10.606,11.1611 -16.162,6.3923 -3.301,-3.3327 -6.447,-6.724 -9.168,-10.565 -0.93,-1.3133 -3.234,-2.5651 -2.622,-4.0538 2.018,-4.9121 4.714,-10.5345 9.533,-12.7647 2.515,-1.1639 4.188,3.6308 6.283,5.4462 0.317,0.9201 0.702,1.8196 0.952,2.7604 0.509,1.9202 0.772,4.665 0.664,6.5622 -0.206,3.5823 -1.552,6.7855 -2.897,10.0532 -0.41,0.6869 -0.597,1.5729 -1.231,2.0607 -0.268,0.2064 -0.07,-0.6756 -0.14,-1.006 -0.151,-0.6746 -0.826,-2.6291 -0.531,-2.0043 1.623,3.4346 1.319,10.1384 -1.357,12.1981 -3.178,2.4457 -7.984,0.7503 -11.977,1.1254 -1.438,-1.0751 -3.008,-1.9949 -4.316,-3.2253 -1.935,-1.8194 -7.366,-8.6524 -8.877,-10.514 -3.598,-4.4348 -7.522,-8.7461 -9.96,-13.9732 -0.378,-1.1969 -0.807,-2.379 -1.134,-3.5908 -1.408,-5.2094 3.527,4.1389 5.691,4.0216 3.964,-0.2149 6.716,-4.2344 10.073,-6.3516 -0.07,0.1324 -0.188,0.2489 -0.213,0.397 -0.176,1.0211 -0.256,2.0561 -0.385,3.0841 -0.27,1.6746 -0.392,3.3802 -0.811,5.0238 -1.209,4.7362 -3.634,9.2425 -6.532,13.1491 -0.448,0.6039 -0.776,1.6014 -1.526,1.6608 -0.511,0.041 -0.132,-1.0161 -0.199,-1.5241 -0.2,-0.6622 -0.886,-2.6176 -0.602,-1.9867 1.033,2.2921 2.911,8.894 0.837,10.2467 -12.585,8.2057 -15.023,3.2442 -19.654,-4.3271 -1.728,-2.8608 -5.858,-9.7612 -7.612,-12.3891 -1.553,-2.328 -3.194,-4.5979 -4.857,-6.8495 -2.648,-3.5872 -6.502,-7.9682 -8.578,-11.9794 -0.641,-1.2391 -0.8,-2.6728 -1.201,-4.0092 -0.09,-0.8401 -0.347,-1.6777 -0.279,-2.5202 0.03,-0.4367 -0.03,1.0958 0.38,1.2582 5.607,2.238 10.945,7.6445 13.75,2.4748 0.102,-0.1878 -0.977,0.901 -0.635,-0.083 -0.514,1.1531 -1.104,2.2724 -1.587,3.4383 -0.311,0.7499 -0.55,1.5282 -0.842,2.2856 -0.229,0.5922 -0.528,1.1582 -0.722,1.7627 -0.29,0.9045 -0.469,1.8412 -0.729,2.755 -0.231,0.8143 -0.495,1.6189 -0.743,2.4283 -0.166,0.476 -0.689,1.9051 -0.836,2.5155 -0.109,0.453 -0.05,0.9572 -0.262,1.3728 -0.115,0.2269 0.01,-1.0096 -0.05,-0.7618 -0.338,1.4539 0.486,3.647 -0.8,4.4057 -3.867,2.2827 -8.634,2.4738 -12.951,3.7107 -0.943,-0.9893 -1.971,-1.9043 -2.829,-2.9681 -0.285,-0.3526 -0.941,-1.9061 -1.174,-2.4576 -1.257,-2.9762 -2.579,-5.9271 -3.633,-8.9849 -0.287,-1.1764 16.35,-5.2361 16.637,-4.0597 z"
       inkscape:connector-curvature="0" />
  </g>
</svg>
