<?xml version="1.0" encoding="UTF-8" standalone="no"?>
<!-- Created with Inkscape (http://www.inkscape.org/) -->

<svg
   xmlns:dc="http://purl.org/dc/elements/1.1/"
   xmlns:cc="http://creativecommons.org/ns#"
   xmlns:rdf="http://www.w3.org/1999/02/22-rdf-syntax-ns#"
   xmlns:svg="http://www.w3.org/2000/svg"
   xmlns="http://www.w3.org/2000/svg"
   xmlns:sodipodi="http://sodipodi.sourceforge.net/DTD/sodipodi-0.dtd"
   xmlns:inkscape="http://www.inkscape.org/namespaces/inkscape"
   width="400.15625"
   height="400.15625"
   id="svg9167"
   version="1.1"
   inkscape:version="0.48.5 r10040"
   sodipodi:docname="plot.svg"
   inkscape:export-filename="/home/banana/flySightAndroid/FloatSight/icons/mainmenu/drawing.png"
   inkscape:export-xdpi="44.98243"
   inkscape:export-ydpi="44.98243">
  <defs
     id="defs9169" />
  <sodipodi:namedview
     id="base"
     pagecolor="#ffffff"
     bordercolor="#666666"
     borderopacity="1.0"
     inkscape:pageopacity="0.0"
     inkscape:pageshadow="2"
     inkscape:zoom="0.24748737"
     inkscape:cx="844.41982"
     inkscape:cy="99.718416"
     inkscape:document-units="px"
     inkscape:current-layer="layer1"
     showgrid="false"
     fit-margin-top="0"
     fit-margin-left="0"
     fit-margin-right="0"
     fit-margin-bottom="0"
     inkscape:window-width="1680"
     inkscape:window-height="1002"
     inkscape:window-x="0"
     inkscape:window-y="29"
     inkscape:window-maximized="1" />
  <metadata
     id="metadata9172">
    <rdf:RDF>
      <cc:Work
         rdf:about="">
        <dc:format>image/svg+xml</dc:format>
        <dc:type
           rdf:resource="http://purl.org/dc/dcmitype/StillImage" />
        <dc:title></dc:title>
      </cc:Work>
    </rdf:RDF>
  </metadata>
  <g
     inkscape:label="Layer 1"
     inkscape:groupmode="layer"
     id="layer1"
     transform="translate(-399.91966,-115.14732)">
    <path
       style="opacity:0.95999995000000005;fill:#4f4c4d;fill-opacity:1;stroke:#4f4c4d;stroke-width:0.79500000000000004;stroke-miterlimit:4;stroke-opacity:1;stroke-dasharray:none;stroke-dashoffset:0"
       id="path5740-9-1-8-09"
       d="m 542.44252,451.43253 c -2.7439,-39.32935 -1.0437,-7.37907 -1.6793,-50.30685 -0.1363,-9.08356 -0.4125,-18.16403 -0.7503,-27.23957 -0.3644,-9.78703 -1.2718,-19.54691 -1.3566,-29.34392 -0.092,-10.63825 0.6714,-21.26206 0.8266,-31.89928 0.1628,-11.25107 0.087,-22.50524 0.131,-33.75837 -4.6555,-27.02822 0.6425,-53.22197 2.3794,-80.01822 0.126,-1.94494 -1.4368,4.00391 -0.7787,5.77327 0.9937,2.66996 3.445,4.0148 5.1674,6.02254 -2.2149,-2.29404 23.7188,-41.48425 25.9336,-39.1901 l 0,0 c 3.2037,3.65951 7.911,5.98553 9.6118,10.97887 3.0374,8.91818 2.7834,19.07759 3.8921,28.67174 0.7584,6.56121 1.5479,13.14673 1.7067,19.77281 0.2252,9.40802 -0.3698,18.81891 -0.5547,28.22842 0.3381,11.09589 0.6763,22.19247 1.0144,33.28825 -0.1681,10.21717 -0.9573,54.87682 -0.9484,65.66028 0,9.69753 0.2039,19.39506 0.4431,29.08812 0.2252,9.1035 1.108,18.1913 0.954,27.29675 -0.2766,16.36029 -3.1016,32.54511 -3.2731,48.92156 -0.675,3.77939 -43.3939,-8.16714 -42.719,-11.9463 z"
       inkscape:connector-curvature="0" />
    <path
       style="opacity:0.95999995;fill:#918f90;fill-opacity:1;stroke:#918f90;stroke-width:0.61438656;stroke-miterlimit:4;stroke-opacity:1;stroke-dasharray:none;stroke-dashoffset:0"
       id="path5742-7-2-8-5-1"
       d="m 465.00341,453.83377 c -0.6559,-4.96103 -1.7003,-9.90268 -1.9677,-14.88388 -0.3273,-6.10151 0.3666,-12.21288 0.1872,-18.31749 -0.1131,-3.86283 -0.8972,-7.70216 -1.0686,-11.56396 -0.4628,-10.44754 -0.1117,-25.12729 -0.293,-35.6389 -0.1486,-8.59727 -0.4706,-17.19224 -0.7057,-25.78825 0.4304,-6.16146 0.8613,-12.32279 1.2917,-18.48391 -0.3317,-6.51009 -1.3898,-13.0218 -0.9955,-19.52983 0.204,-3.35362 2.6026,-6.50036 2.7755,-9.85535 0.2132,-4.12574 -2.0277,-8.20736 -1.6322,-12.32566 0.211,-2.20006 2.2684,-4.07315 3.4025,-6.10943 -0.043,-2.47845 -0.084,-4.95679 -0.1273,-7.43489 13.2971,0.64148 26.5939,1.28341 39.8912,1.92489 -0.1309,0.65568 -0.6067,1.32364 -0.3922,1.96693 0.1486,0.44963 0.9082,0.63059 1.3626,0.94565 0.7334,2.10689 -39.1383,9.85628 -39.8714,7.74962 l 0,0 c -0.2491,-0.0779 -0.7006,-0.0332 -0.7464,-0.23094 -2.2944,-9.93878 39.3695,-31.74971 39.7985,-5.57579 0.3666,-2.37255 -1.1481,-5.41993 1.099,-7.11845 1.8168,-1.37326 0.3616,3.85389 0.685,5.77006 0.7133,4.22568 2.1058,8.39624 2.4239,12.64932 1.6022,21.40658 -0.563,42.83379 0.1558,64.24553 -1.627,11.19114 -2.2094,12.15684 -1.2526,25.78677 0.4256,6.06357 2.3168,12.05437 2.4149,18.12563 0.1539,9.52424 -1.2152,19.02888 -1.6621,28.54784 -1.306,27.82614 1.028,10.64077 -3.4529,35.20671 -0.9523,2.18298 -42.2711,-7.87993 -41.3192,-10.06348 z"
       inkscape:connector-curvature="0" />
    <path
       style="opacity:0.95999995;fill:#918f90;fill-opacity:1;stroke:#918f90;stroke-width:0.50066704;stroke-miterlimit:4;stroke-opacity:1;stroke-dasharray:none;stroke-dashoffset:0"
       id="path5742-7-2-8-5-4-9"
       d="m 620.8613,457.9019 c -0.6559,-3.29436 -1.7003,-6.57589 -1.9677,-9.88412 -0.3273,-4.05159 0.3666,-8.10983 0.187,-12.16394 -0.113,-2.5651 -0.8973,-5.11472 -1.0683,-7.67913 -0.4629,-6.93805 -0.1118,-16.68635 -0.2929,-23.66692 -0.1487,-5.70909 -0.4708,-11.41669 -0.7062,-17.12509 0.4307,-4.0917 0.8613,-8.18329 1.2919,-12.27466 -0.3318,-4.32321 -1.3897,-8.64758 -0.9954,-12.96919 0.2038,-2.22711 2.6026,-4.31692 2.7755,-6.5446 0.2132,-2.73987 -2.0279,-5.45041 -1.6322,-8.18524 0.2109,-1.46106 2.2684,-2.70469 3.4025,-4.0571 -0.044,-1.6458 -0.084,-3.29172 -0.1273,-4.93741 13.2971,0.42624 26.5941,0.85247 39.8913,1.27848 -0.1309,0.43529 -0.6066,0.87883 -0.3923,1.30598 0.1486,0.29856 0.9083,0.4189 1.3628,0.62818 0.7333,1.39905 -39.1384,6.54529 -39.8716,5.14624 l 0,0 c -0.2489,-0.0504 -0.7006,-0.0218 -0.7464,-0.15427 -2.2942,-6.59995 39.3697,-21.08384 39.7986,-3.7026 0.3665,-1.57578 -1.1481,-3.59922 1.0992,-4.72733 1.8167,-0.91196 0.3615,2.55947 0.6848,3.83176 0.7132,2.80647 2.1057,5.5758 2.4238,8.40014 1.6025,14.21547 -0.563,28.44458 0.1558,42.66349 -1.627,7.43202 -2.2094,8.07315 -1.2526,17.12428 0.4254,4.02684 2.3167,8.00496 2.4146,12.03684 0.154,6.325 -1.2152,12.63648 -1.6618,18.9577 -1.306,18.47864 1.028,7.06619 -3.4529,23.37983 -0.9523,1.44971 -42.2714,-5.23276 -41.3192,-6.68293 z"
       inkscape:connector-curvature="0" />
    <path
       style="opacity:0.95999995000000005;fill:#4f4c4d;fill-opacity:1;stroke:#4f4c4d;stroke-width:0.67211549999999998;stroke-miterlimit:4;stroke-opacity:1;stroke-dasharray:none;stroke-dashoffset:0"
       id="path5742-7-2-8-5-4-9-3"
       d="m 695.76311,452.51567 c -0.6559,-5.93691 -1.7003,-11.85068 -1.9677,-17.81259 -0.3273,-7.30157 0.3666,-14.61512 0.187,-21.9212 -0.113,-4.62268 -0.8973,-9.21748 -1.0683,-13.83891 -0.4629,-12.50339 -0.1118,-30.07124 -0.2929,-42.65125 -0.1487,-10.28863 -0.4708,-20.57453 -0.7062,-30.86191 0.4307,-7.37385 0.8613,-14.74749 1.2919,-22.12072 -0.3318,-7.79107 -1.3897,-15.58421 -0.9954,-23.37238 0.2038,-4.01357 2.6026,-7.77971 2.7755,-11.79432 0.2132,-4.93764 -2.0279,-9.82244 -1.6322,-14.75101 0.2109,-2.63302 2.2684,-4.87424 3.4025,-7.31147 -0.044,-2.96598 -0.084,-5.93215 -0.1273,-8.89795 13.2971,0.76816 26.5941,1.53629 39.8913,2.30402 -0.1309,0.78446 -0.6066,1.5838 -0.3923,2.35356 0.1486,0.53805 0.9083,0.75493 1.3628,1.13208 0.7333,2.52129 -39.1384,11.79556 -39.8716,9.27427 l 0,0 c -0.2489,-0.0909 -0.7006,-0.0392 -0.7464,-0.27801 -2.2942,-11.89407 39.3697,-37.99616 39.7986,-6.67263 0.3665,-2.83979 -1.1481,-6.48632 1.0992,-8.51934 1.8167,-1.64349 0.3615,4.61255 0.6848,6.90541 0.7132,5.05765 2.1057,10.04839 2.4238,15.13827 1.6025,25.61834 -0.563,51.26127 0.1558,76.88581 -1.627,13.3936 -2.2094,14.54901 -1.2526,30.86046 0.4254,7.25693 2.3167,14.42611 2.4146,21.69214 0.154,11.39857 -1.2152,22.77279 -1.6618,34.16454 -1.306,33.3012 1.028,12.7343 -3.4529,42.13387 -0.9523,2.61258 -42.2714,-9.43021 -41.3192,-12.04363 z"
       inkscape:connector-curvature="0" />
  </g>
</svg>
