<?xml version="1.0" encoding="UTF-8" standalone="no"?>
<!-- Created with Inkscape (http://www.inkscape.org/) -->

<svg
   xmlns:dc="http://purl.org/dc/elements/1.1/"
   xmlns:cc="http://creativecommons.org/ns#"
   xmlns:rdf="http://www.w3.org/1999/02/22-rdf-syntax-ns#"
   xmlns:svg="http://www.w3.org/2000/svg"
   xmlns="http://www.w3.org/2000/svg"
   xmlns:sodipodi="http://sodipodi.sourceforge.net/DTD/sodipodi-0.dtd"
   xmlns:inkscape="http://www.inkscape.org/namespaces/inkscape"
   width="400.15625"
   height="400.15625"
   id="svg9167"
   version="1.1"
   inkscape:version="0.48.5 r10040"
   sodipodi:docname="stats.svg"
   inkscape:export-filename="/home/banana/flySightAndroid/FloatSight/icons/mainmenu/drawing.png"
   inkscape:export-xdpi="44.98243"
   inkscape:export-ydpi="44.98243">
  <defs
     id="defs9169" />
  <sodipodi:namedview
     id="base"
     pagecolor="#ffffff"
     bordercolor="#666666"
     borderopacity="1.0"
     inkscape:pageopacity="0.0"
     inkscape:pageshadow="2"
     inkscape:zoom="0.98994948"
     inkscape:cx="124.00116"
     inkscape:cy="273.47042"
     inkscape:document-units="px"
     inkscape:current-layer="layer1"
     showgrid="false"
     fit-margin-top="0"
     fit-margin-left="0"
     fit-margin-right="0"
     fit-margin-bottom="0"
     inkscape:window-width="1680"
     inkscape:window-height="1002"
     inkscape:window-x="0"
     inkscape:window-y="29"
     inkscape:window-maximized="1" />
  <metadata
     id="metadata9172">
    <rdf:RDF>
      <cc:Work
         rdf:about="">
        <dc:format>image/svg+xml</dc:format>
        <dc:type
           rdf:resource="http://purl.org/dc/dcmitype/StillImage" />
        <dc:title />
      </cc:Work>
    </rdf:RDF>
  </metadata>
  <g
     inkscape:label="Layer 1"
     inkscape:groupmode="layer"
     id="layer1"
     transform="translate(-399.91966,-115.14732)">
    <path
       style="opacity:0.95999995;fill:#4f4c4d;fill-opacity:1;stroke:#4f4c4d;stroke-width:0.79500002;stroke-miterlimit:4;stroke-opacity:1;stroke-dasharray:none;stroke-dashoffset:0"
       id="path5740-9-1-8-09-0"
       d="m 542.69558,445.57609 c -2.7439,-39.3294 -1.0437,-7.3791 -1.6793,-50.3069 -0.1363,-9.0835 -0.4125,-18.16399 -0.7503,-27.23949 -0.3644,-9.7871 -1.2718,-19.547 -1.3566,-29.344 -0.092,-10.6382 0.6714,-21.262 0.8266,-31.8992 0.1628,-11.2511 0.087,-22.5053 0.131,-33.7584 -4.6555,-27.0282 0.6425,-53.222 2.3794,-80.0182 0.126,-1.945 -1.4368,4.0039 -0.7787,5.7732 0.9937,2.67 3.445,4.0148 5.1674,6.0226 -2.2149,-2.2941 23.7188,-41.4843 25.9336,-39.1901 l 0,0 c 3.2037,3.6595 7.911,5.9855 9.6118,10.9788 3.0374,8.9182 2.7834,19.0776 3.8921,28.6718 0.7584,6.5612 1.5479,13.1467 1.7067,19.7728 0.2252,9.408 -0.3698,18.8189 -0.5547,28.2284 0.3381,11.0959 0.6763,22.1925 1.0144,33.2883 -0.1681,10.2171 -0.9573,54.8768 -0.9484,65.6602 0,9.6976 0.2039,19.3951 0.4431,29.0882 0.2252,9.10349 1.108,18.19129 0.954,27.29669 -0.2766,16.3603 -3.1016,32.5451 -3.2731,48.9216 -0.675,3.7794 -43.3939,-8.1672 -42.719,-11.9463 z"
       inkscape:connector-curvature="0" />
    <path
       style="opacity:0.95999995000000005;fill:#b5d92a;fill-opacity:1;stroke:#b5d92a;stroke-width:0.61438656000000003;stroke-miterlimit:4;stroke-opacity:1;stroke-dasharray:none;stroke-dashoffset:0"
       id="path5742-7-2-8-5-1-4"
       d="m 465.25648,447.97729 c -0.6559,-4.961 -1.7003,-9.9027 -1.9677,-14.8839 -0.3273,-6.1015 0.3666,-12.2128 0.1872,-18.3175 -0.1131,-3.8628 -0.8972,-7.7021 -1.0686,-11.5639 -0.4628,-10.4476 -0.1117,-25.12729 -0.293,-35.63889 -0.1486,-8.5973 -0.4706,-17.1923 -0.7057,-25.7883 0.4304,-6.1614 0.8613,-12.3228 1.2917,-18.4839 -0.3317,-6.5101 -1.3898,-13.0218 -0.9955,-19.5298 0.204,-3.3536 2.6026,-6.5004 2.7755,-9.8554 0.2132,-4.1257 -2.0277,-8.2073 -1.6322,-12.3256 0.211,-2.2001 2.2684,-4.0732 3.4025,-6.1094 -0.043,-2.4785 -0.084,-4.9568 -0.1273,-7.4349 13.2971,0.6414 26.5939,1.2834 39.8912,1.9249 -0.1309,0.6556 -0.6067,1.3236 -0.3922,1.9669 0.1486,0.4496 0.9082,0.6306 1.3626,0.9456 0.7334,2.1069 -39.1383,9.8563 -39.8714,7.7497 l 0,0 c -0.2491,-0.078 -0.7006,-0.033 -0.7464,-0.231 -2.2944,-9.9388 39.3695,-31.7497 39.7985,-5.5758 0.3666,-2.3725 -1.1481,-5.4199 1.099,-7.1184 1.8168,-1.3733 0.3616,3.8539 0.685,5.77 0.7133,4.2257 2.1058,8.3963 2.4239,12.6494 1.6022,21.4065 -0.563,42.8337 0.1558,64.2455 -1.627,11.1911 -2.2094,12.1568 -1.2526,25.7868 0.4256,6.0635 2.3168,12.05429 2.4149,18.12559 0.1539,9.5242 -1.2152,19.0289 -1.6621,28.5478 -1.306,27.8262 1.028,10.6408 -3.4529,35.2067 -0.9523,2.183 -42.2711,-7.8799 -41.3192,-10.0634 z"
       inkscape:connector-curvature="0" />
    <path
       style="opacity:0.95999995000000005;fill:#b5d92a;fill-opacity:1;stroke:#b5d92a;stroke-width:0.50066703999999995;stroke-miterlimit:4;stroke-opacity:1;stroke-dasharray:none;stroke-dashoffset:0"
       id="path5742-7-2-8-5-4-9-2"
       d="m 621.11438,452.04539 c -0.6559,-3.2943 -1.7003,-6.5758 -1.9677,-9.8841 -0.3273,-4.0516 0.3666,-8.1098 0.187,-12.1639 -0.113,-2.5651 -0.8973,-5.1147 -1.0683,-7.6791 -0.4629,-6.9381 -0.1118,-16.6864 -0.2929,-23.667 -0.1487,-5.7091 -0.4708,-11.4167 -0.7062,-17.12509 0.4307,-4.0917 0.8613,-8.1832 1.2919,-12.2746 -0.3318,-4.3232 -1.3897,-8.6476 -0.9954,-12.9692 0.2038,-2.2271 2.6026,-4.3169 2.7755,-6.5446 0.2132,-2.7399 -2.0279,-5.4504 -1.6322,-8.1852 0.2109,-1.4611 2.2684,-2.7047 3.4025,-4.0571 -0.044,-1.6458 -0.084,-3.2918 -0.1273,-4.9375 13.2975,0.4263 26.5945,0.8525 39.8915,1.2785 -0.131,0.4353 -0.607,0.8789 -0.392,1.306 0.148,0.2986 0.908,0.4189 1.362,0.6282 0.734,1.399 -39.1381,6.5453 -39.8713,5.1462 l 0,0 c -0.2489,-0.05 -0.7006,-0.022 -0.7464,-0.1542 -2.2942,-6.6 39.3697,-21.0839 39.7987,-3.7026 0.366,-1.5758 -1.148,-3.5993 1.099,-4.7274 1.817,-0.9119 0.362,2.5595 0.685,3.8318 0.713,2.8065 2.106,5.5758 2.424,8.4001 1.602,14.2155 -0.563,28.4446 0.156,42.66349 -1.627,7.432 -2.21,8.0732 -1.253,17.1243 0.425,4.0268 2.317,8.005 2.415,12.0368 0.154,6.325 -1.216,12.6365 -1.662,18.9577 -1.306,18.4787 1.028,7.0662 -3.453,23.3799 -0.952,1.4497 -42.2716,-5.2328 -41.3194,-6.683 z"
       inkscape:connector-curvature="0" />
    <path
       style="opacity:0.95999995;fill:#4f4c4d;fill-opacity:1;stroke:#4f4c4d;stroke-width:0.6721155;stroke-miterlimit:4;stroke-opacity:1;stroke-dasharray:none;stroke-dashoffset:0"
       id="path5742-7-2-8-5-4-9-3-2"
       d="m 696.01578,446.65919 c -0.655,-5.9369 -1.7,-11.8507 -1.967,-17.8126 -0.328,-7.3015 0.366,-14.6151 0.187,-21.9212 -0.113,-4.6227 -0.898,-9.2175 -1.069,-13.8389 -0.462,-12.50339 -0.111,-30.07119 -0.292,-42.65119 -0.149,-10.2887 -0.471,-20.5746 -0.707,-30.8619 0.431,-7.3739 0.862,-14.7475 1.292,-22.1208 -0.332,-7.791 -1.389,-15.5842 -0.995,-23.3723 0.204,-4.0136 2.602,-7.7798 2.775,-11.7944 0.214,-4.9376 -2.028,-9.8224 -1.632,-14.751 0.211,-2.633 2.269,-4.8742 3.403,-7.3115 -0.04,-2.9659 -0.08,-5.9321 -0.128,-8.8979 13.297,0.7682 26.594,1.5363 39.892,2.304 -0.131,0.7845 -0.607,1.5838 -0.393,2.3536 0.149,0.538 0.909,0.7549 1.363,1.1321 0.733,2.5212 -39.138,11.7955 -39.871,9.2742 l 0,0 c -0.249,-0.091 -0.701,-0.039 -0.747,-0.278 -2.294,-11.8941 39.37,-37.9961 39.799,-6.6726 0.366,-2.8398 -1.148,-6.4863 1.099,-8.5194 1.817,-1.6434 0.361,4.6126 0.685,6.9055 0.713,5.0576 2.105,10.0483 2.424,15.1382 1.602,25.6184 -0.563,51.2613 0.155,76.8858 -1.627,13.3936 -2.209,14.5491 -1.252,30.8605 0.425,7.2569 2.316,14.4261 2.414,21.6921 0.154,11.39859 -1.215,22.77279 -1.661,34.16459 -1.306,33.3012 1.028,12.7343 -3.453,42.1339 -0.953,2.6125 -42.272,-9.4303 -41.32,-12.0437 z"
       inkscape:connector-curvature="0" />
  </g>
</svg>
