<?xml version="1.0" encoding="UTF-8" standalone="no"?>
<!-- Created with Inkscape (http://www.inkscape.org/) -->

<svg
   xmlns:dc="http://purl.org/dc/elements/1.1/"
   xmlns:cc="http://creativecommons.org/ns#"
   xmlns:rdf="http://www.w3.org/1999/02/22-rdf-syntax-ns#"
   xmlns:svg="http://www.w3.org/2000/svg"
   xmlns="http://www.w3.org/2000/svg"
   xmlns:sodipodi="http://sodipodi.sourceforge.net/DTD/sodipodi-0.dtd"
   xmlns:inkscape="http://www.inkscape.org/namespaces/inkscape"
   width="192"
   height="192"
   id="svg3858"
   version="1.1"
   inkscape:version="0.48.5 r10040"
   sodipodi:docname="launcher_bars_round.svg">
  <defs
     id="defs3860" />
  <sodipodi:namedview
     id="base"
     pagecolor="#ffffff"
     bordercolor="#666666"
     borderopacity="1.0"
     inkscape:pageopacity="0.0"
     inkscape:pageshadow="2"
     inkscape:zoom="1.4142136"
     inkscape:cx="146.73746"
     inkscape:cy="218.03681"
     inkscape:document-units="px"
     inkscape:current-layer="layer1"
     showgrid="false"
     fit-margin-top="0"
     fit-margin-left="0"
     fit-margin-right="0"
     fit-margin-bottom="0"
     inkscape:window-width="1680"
     inkscape:window-height="1002"
     inkscape:window-x="0"
     inkscape:window-y="29"
     inkscape:window-maximized="1"
     showguides="true"
     inkscape:guide-bbox="true" />
  <metadata
     id="metadata3863">
    <rdf:RDF>
      <cc:Work
         rdf:about="">
        <dc:format>image/svg+xml</dc:format>
        <dc:type
           rdf:resource="http://purl.org/dc/dcmitype/StillImage" />
        <dc:title></dc:title>
      </cc:Work>
    </rdf:RDF>
  </metadata>
  <g
     inkscape:label="Layer 1"
     inkscape:groupmode="layer"
     id="layer1"
     transform="translate(-158.28572,-74.933601)">
    <g
       id="g5696"
       transform="translate(-205.76807,-12.020815)">
      <path
         sodipodi:open="true"
         sodipodi:end="6.2828801"
         sodipodi:start="0"
         transform="matrix(1.0205798,0,0,1.0205798,356.19451,90.565824)"
         d="m 186.78571,91.10714 c 0,46.84558 -37.97584,84.82143 -84.82142,84.82143 -46.845583,0 -84.82143,-37.97585 -84.82143,-84.82143 0,-46.845581 37.975847,-84.8214268 84.82143,-84.8214268 46.83547,0 84.80712,37.9600698 84.82142,84.7955378"
         sodipodi:ry="84.821426"
         sodipodi:rx="84.821426"
         sodipodi:cy="91.10714"
         sodipodi:cx="101.96429"
         id="path4632"
         style="fill:#b5d92a;fill-opacity:1;stroke:#b5d92a;stroke-width:4;stroke-miterlimit:4;stroke-opacity:1;stroke-dasharray:none;stroke-dashoffset:0"
         sodipodi:type="arc" />
      <path
         sodipodi:nodetypes="ccccccc"
         inkscape:connector-curvature="0"
         id="path2987-3-7-56-93-3-4-1-5-21-7-6-9-3-1"
         d="m 167.78792,63.821833 148.50868,7e-6 104.16455,180.41831 -104.16457,180.41831 -208.32911,-10e-6 L 3.8029175,244.24013 53.355948,161.60411"
         style="opacity:0.95999995;fill:#b5d92a;fill-opacity:1;stroke:#a0b643;stroke-width:27.73947144;stroke-miterlimit:4;stroke-opacity:1;stroke-dashoffset:0"
         transform="matrix(0.13704695,0,0,0.13704695,390.07031,101.66927)" />
      <path
         transform="matrix(0.13704695,0,0,0.13704695,432.61397,126.25627)"
         d="M 316.29658,424.65846 107.96747,424.65845 3.8029175,244.24013 107.96748,63.82183 l 208.32912,1e-5 104.16455,180.41831 z"
         inkscape:randomized="0"
         inkscape:rounded="0"
         inkscape:flatsided="true"
         sodipodi:arg2="1.5707963"
         sodipodi:arg1="1.0471976"
         sodipodi:r2="180.4183"
         sodipodi:r1="208.32912"
         sodipodi:cy="244.24014"
         sodipodi:cx="212.13203"
         sodipodi:sides="6"
         id="path2987-3-7-56-9-6-3-1-3-6-42-4-9-7-8-13"
         style="opacity:0.95999995;fill:#b6d92a;fill-opacity:1;stroke:#a0b643;stroke-width:27.73947144;stroke-miterlimit:4;stroke-opacity:1;stroke-dasharray:none;stroke-dashoffset:0"
         sodipodi:type="star" />
      <path
         transform="matrix(0.13704695,0,0,0.13704695,389.92398,151.25462)"
         d="M 316.29658,424.65846 107.96747,424.65845 3.8029175,244.24013 107.96748,63.82183 l 208.32912,1e-5 104.16455,180.41831 z"
         inkscape:randomized="0"
         inkscape:rounded="0"
         inkscape:flatsided="true"
         sodipodi:arg2="1.5707963"
         sodipodi:arg1="1.0471976"
         sodipodi:r2="180.4183"
         sodipodi:r1="208.32912"
         sodipodi:cy="244.24014"
         sodipodi:cx="212.13203"
         sodipodi:sides="6"
         id="path2987-3-7-56-1-0-1-1-3-1-9-9-0-7-2-12"
         style="opacity:0.95999995;fill:#b5d92a;fill-opacity:1;stroke:#a0b643;stroke-width:27.73947144;stroke-miterlimit:4;stroke-opacity:1;stroke-dasharray:none;stroke-dashoffset:0"
         sodipodi:type="star" />
      <path
         sodipodi:nodetypes="ccccccc"
         inkscape:connector-curvature="0"
         id="path2987-3-7-56-7-2-9-9-0-5-1-2-1-6-1-0"
         d="M 23.759515,279.07242 3.8029175,244.24013 107.96748,63.82183 l 208.32912,1e-5 104.16455,180.41831 -104.16457,180.41831 -123.3606,0.16287"
         style="opacity:0.95999995;fill:#b5d92a;fill-opacity:1;stroke:#a0b643;stroke-width:27.73947144;stroke-miterlimit:4;stroke-opacity:1;stroke-dashoffset:0"
         transform="matrix(0.13704695,0,0,0.13704695,390.03601,200.47196)" />
      <path
         sodipodi:nodetypes="cccccc"
         inkscape:connector-curvature="0"
         id="path2987-3-7-56-93-4-1-9-5-0-8-5-9-0-6"
         d="M 422.00846,242.04135 316.29658,424.65846 107.96747,424.65845 3.8029175,244.24013 107.96748,63.82183 l 125.7864,-0.0855"
         style="opacity:0.95999995;fill:#b5d92a;fill-opacity:1;stroke:#a0b643;stroke-width:27.73947144;stroke-miterlimit:4;stroke-opacity:1;stroke-dashoffset:0"
         transform="matrix(0.13704695,0,0,0.13704695,475.4506,101.72109)" />
      <path
         transform="matrix(0.13704695,0,0,0.13704695,475.34556,151.0949)"
         d="M 316.29658,424.65846 107.96747,424.65845 3.8029175,244.24013 107.96748,63.82183 l 208.32912,1e-5 104.16455,180.41831 z"
         inkscape:randomized="0"
         inkscape:rounded="0"
         inkscape:flatsided="true"
         sodipodi:arg2="1.5707963"
         sodipodi:arg1="1.0471976"
         sodipodi:r2="180.4183"
         sodipodi:r1="208.32912"
         sodipodi:cy="244.24014"
         sodipodi:cx="212.13203"
         sodipodi:sides="6"
         id="path2987-3-7-56-1-0-0-5-3-0-2-5-7-2-5-87"
         style="opacity:0.95999995;fill:#b5d92a;fill-opacity:1;stroke:#a0b643;stroke-width:27.73947144;stroke-miterlimit:4;stroke-opacity:1;stroke-dasharray:none;stroke-dashoffset:0"
         sodipodi:type="star" />
      <path
         transform="matrix(0.13704695,0,0,0.13704695,432.69746,175.68715)"
         d="M 316.29658,424.65846 107.96747,424.65845 3.8029175,244.24013 107.96748,63.82183 l 208.32912,1e-5 104.16455,180.41831 z"
         inkscape:randomized="0"
         inkscape:rounded="0"
         inkscape:flatsided="true"
         sodipodi:arg2="1.5707963"
         sodipodi:arg1="1.0471976"
         sodipodi:r2="180.4183"
         sodipodi:r1="208.32912"
         sodipodi:cy="244.24014"
         sodipodi:cx="212.13203"
         sodipodi:sides="6"
         id="path2987-3-7-56-2-6-7-9-4-6-2-0-7-2-8-4"
         style="opacity:0.95999995;fill:#b5d92a;fill-opacity:1;stroke:#a0b643;stroke-width:27.73947144;stroke-miterlimit:4;stroke-opacity:1;stroke-dasharray:none;stroke-dashoffset:0"
         sodipodi:type="star" />
      <path
         sodipodi:nodetypes="cccccc"
         inkscape:connector-curvature="0"
         id="path2987-3-7-56-7-2-8-8-6-2-05-3-6-1-5-9"
         d="M 208.57098,424.65846 107.96747,424.65845 3.8029175,244.24013 107.96748,63.82183 l 208.32912,1e-5 101.17014,174.42949"
         style="opacity:0.95999995;fill:#b5d92a;fill-opacity:1;stroke:#a0b643;stroke-width:27.73947144;stroke-miterlimit:4;stroke-opacity:1;stroke-dashoffset:0"
         transform="matrix(0.13704695,0,0,0.13704695,475.41599,200.5219)" />
      <path
         sodipodi:nodetypes="cccccc"
         inkscape:connector-curvature="0"
         id="path2987-3-7-56-93-4-1-9-5-0-8-5-9-0-6-2"
         d="m 368.30196,162.86128 52.15919,81.37887 -104.16457,180.41831 -208.32911,-10e-6 L 3.8029175,244.24013 53.324902,157.08153"
         style="opacity:0.95999995;fill:#b5d92a;fill-opacity:1;stroke:#a0b643;stroke-width:27.73947144;stroke-miterlimit:4;stroke-opacity:1;stroke-dashoffset:0"
         transform="matrix(0.13704695,0,0,0.13704695,432.70031,77.054324)" />
      <path
         sodipodi:nodetypes="cc"
         inkscape:connector-curvature="0"
         id="path2987-3-7-56-93-4-1-9-5-0-8-5-9-0-6-0"
         d="M 176.28977,64.147582 316.2966,63.82184"
         style="opacity:0.95999995;fill:#b5d92a;fill-opacity:1;stroke:#a0b643;stroke-width:27.73947144;stroke-miterlimit:4;stroke-opacity:1;stroke-dashoffset:0"
         transform="matrix(0.13704695,0,0,0.13704695,347.53289,175.88254)" />
      <path
         sodipodi:nodetypes="cccccc"
         inkscape:connector-curvature="0"
         id="path2987-3-7-56-93-4-1-9-5-0-8-5-9-0-6-93"
         d="M 43.393843,312.81363 3.8029175,244.24013 107.96748,63.82183 l 208.32912,1e-5 104.16455,180.41831 -34.5483,60.51993"
         style="opacity:0.95999995;fill:#b5d92a;fill-opacity:1;stroke:#a0b643;stroke-width:27.73947144;stroke-miterlimit:4;stroke-opacity:1;stroke-dashoffset:0"
         transform="matrix(0.13704695,0,0,0.13704695,432.76452,225.25375)" />
      <path
         sodipodi:nodetypes="ccc"
         inkscape:connector-curvature="0"
         id="path2987-3-7-56-93-4-1-9-5-0-8-5-9-0-6-6"
         d="M 3.8029175,244.24013 107.96748,63.82183 l 117.98493,5e-6"
         style="opacity:0.95999995;fill:#b5d92a;fill-opacity:1;stroke:#a0b643;stroke-width:27.73947144;stroke-miterlimit:4;stroke-opacity:1;stroke-dashoffset:0"
         transform="matrix(0.13704695,0,0,0.13704695,517.86986,175.63)" />
      <path
         transform="translate(158.28572,74.933601)"
         inkscape:connector-curvature="0"
         id="path5525"
         d="m 283.3538,24.606026 1.78013,-2.940848 -0.0144,-0.06529 -5.05076,1.116692 0.32751,0.915451 z"
         style="color:#000000;fill:#a0b643;fill-opacity:1;stroke:none;stroke-width:1px;marker:none;visibility:visible;display:inline;overflow:visible;enable-background:accumulate" />
      <path
         sodipodi:nodetypes="cccccc"
         inkscape:connector-curvature="0"
         id="path5525-2"
         d="m 413.17099,112.31112 1.06528,-1.91742 -1.1597,-1.87899 -2.92108,1.88351 -2.52796,1.93108 z"
         style="color:#000000;fill:#a0b643;fill-opacity:1;stroke:none;stroke-width:1px;marker:none;visibility:visible;display:inline;overflow:visible;enable-background:accumulate" />
      <path
         sodipodi:nodetypes="cccccc"
         inkscape:connector-curvature="0"
         id="path5525-2-6"
         d="m 507.35052,112.3501 -1.06528,-1.91742 1.1597,-1.87899 2.92108,1.88351 2.52796,1.93108 z"
         style="color:#000000;fill:#a0b643;fill-opacity:1;stroke:none;stroke-width:1px;marker:none;visibility:visible;display:inline;overflow:visible;enable-background:accumulate" />
      <path
         sodipodi:nodetypes="cccccc"
         inkscape:connector-curvature="0"
         id="path5525-2-6-1"
         d="m 503.81058,256.83541 -1.06528,1.91742 1.25914,1.87899 2.93213,-1.73988 3.14667,-2.07471 z"
         style="color:#000000;fill:#a0b643;fill-opacity:1;stroke:none;stroke-width:1px;marker:none;visibility:visible;display:inline;overflow:visible;enable-background:accumulate" />
      <path
         sodipodi:nodetypes="cccccc"
         inkscape:connector-curvature="0"
         id="path5525-2-6-1-8"
         d="m 416.67142,256.80306 1.06528,1.91742 -1.25914,1.87899 -2.93213,-1.73988 -3.14666,-2.07471 z"
         style="color:#000000;fill:#a0b643;fill-opacity:1;stroke:none;stroke-width:1px;marker:none;visibility:visible;display:inline;overflow:visible;enable-background:accumulate" />
      <path
         sodipodi:nodetypes="cccccc"
         inkscape:connector-curvature="0"
         id="path5525-2-6-1-8-7"
         d="m 394.73902,237.46387 -2.19317,0.0361 -0.99768,2.02994 4.44159,5.01311 5.62009,5.31273 z"
         style="color:#000000;fill:#a0b643;fill-opacity:1;stroke:none;stroke-width:1px;marker:none;visibility:visible;display:inline;overflow:visible;enable-background:accumulate" />
      <path
         sodipodi:nodetypes="cccccc"
         inkscape:connector-curvature="0"
         id="path5525-2-6-1-8-7-9"
         d="m 398.80351,125.13441 -2.19317,-0.0361 -0.99768,-2.02994 4.50409,-4.73186 4.30759,-3.62523 z"
         style="color:#000000;fill:#a0b643;fill-opacity:1;stroke:none;stroke-width:1px;marker:none;visibility:visible;display:inline;overflow:visible;enable-background:accumulate" />
      <path
         sodipodi:nodetypes="cccccc"
         inkscape:connector-curvature="0"
         id="path5525-2-6-1-8-7-2"
         d="m 481.61953,100.44962 2.19196,0.0814 0.94085,-2.137684 -1.97154,-0.579627 -3.20463,-0.758898 z"
         style="color:#000000;fill:#a0b643;fill-opacity:1;stroke:none;stroke-width:1px;marker:none;visibility:visible;display:inline;overflow:visible;enable-background:accumulate" />
      <path
         sodipodi:nodetypes="ccccccc"
         inkscape:connector-curvature="0"
         id="path5525-2-6-1-8-7-2-0"
         d="m 530.97383,234.05819 0.71493,-2.07369 2.55972,0.22582 0.0402,0.0479 -0.95425,1.42048 -1.40044,1.96711 z"
         style="color:#000000;fill:#a0b643;fill-opacity:1;stroke:none;stroke-width:1px;marker:none;visibility:visible;display:inline;overflow:visible;enable-background:accumulate" />
      <path
         sodipodi:nodetypes="ccccccc"
         inkscape:connector-curvature="0"
         id="path5525-2-6-1-8-7-2-0-2"
         d="m 482.41799,269.34296 1.62091,-3.33322 2.21721,0.91083 1.05667,1.02017 -0.89901,0.29353 -1.47778,0.40926 z"
         style="color:#000000;fill:#a0b643;fill-opacity:1;stroke:none;stroke-width:1px;marker:none;visibility:visible;display:inline;overflow:visible;enable-background:accumulate" />
      <path
         sodipodi:nodetypes="ccccccc"
         inkscape:connector-curvature="0"
         id="path5525-2-6-1-8-7-2-0-2-3"
         d="m 442.29859,270.32306 -1.95237,-3.17854 -2.21721,0.91083 -1.05667,1.02017 0.90453,0.26038 1.48331,0.37612 z"
         style="color:#000000;fill:#a0b643;fill-opacity:1;stroke:none;stroke-width:1px;marker:none;visibility:visible;display:inline;overflow:visible;enable-background:accumulate" />
    </g>
    <path
       style="opacity:0.95999995;fill:#4f4c4d;fill-opacity:1;stroke:#4f4c4d;stroke-width:0.2931239;stroke-miterlimit:4;stroke-opacity:1;stroke-dasharray:none;stroke-dashoffset:0"
       id="path5740-9-1-8-09-9-9-9-1-2-7-0"
       d="m 246.78723,210.63158 c -1.10262,-13.30312 -0.41925,-2.49596 -0.67457,-17.01625 -0.0547,-3.07249 -0.16611,-6.14394 -0.30146,-9.21376 -0.1469,-3.31042 -0.51125,-6.61171 -0.54554,-9.92553 -0.0361,-3.59834 0.26958,-7.19186 0.33241,-10.78987 0.065,-3.80568 0.0361,-7.61239 0.0526,-11.41874 -1.87132,-9.14226 0.25804,-18.00226 0.95629,-27.06608 0.0507,-0.65783 -0.57742,1.35434 -0.313,1.9528 0.39951,0.90313 1.38465,1.35802 2.07682,2.03715 -0.8901,-0.77596 9.53322,-14.03199 10.42305,-13.25603 l 0,0 c 1.2878,1.23784 3.17976,2.02458 3.86342,3.71361 1.22102,3.01657 1.11902,6.45295 1.5644,9.69816 0.30508,2.21931 0.62203,4.44688 0.68579,6.68812 0.0908,3.18225 -0.1488,6.36549 -0.22284,9.54829 0.13572,3.75314 0.27202,7.50652 0.40773,11.25966 -0.0673,3.45593 -0.38495,18.56203 -0.38132,22.20952 0,3.28016 0.0819,6.56036 0.17813,9.839 0.0905,3.07928 0.44536,6.15321 0.38312,9.23312 -0.11081,5.53383 -1.24591,11.00835 -1.31514,16.54765 -0.2714,1.27835 -17.44102,-2.76253 -17.16992,-4.04082 z"
       inkscape:connector-curvature="0" />
    <path
       style="opacity:0.95999995;fill:#4f4c4d;fill-opacity:1;stroke:#4f4c4d;stroke-width:0.22653225;stroke-miterlimit:4;stroke-opacity:1;stroke-dasharray:none;stroke-dashoffset:0"
       id="path5742-7-2-8-5-1-0-0-8-3-1-3-9"
       d="m 209.34715,211.9976 c -0.26351,-1.67807 -0.68307,-3.34955 -0.79084,-5.03442 -0.13149,-2.06384 0.14753,-4.13103 0.0749,-6.1959 -0.0452,-1.30657 -0.36065,-2.60526 -0.42897,-3.91151 -0.18637,-3.53383 -0.0452,-8.49926 -0.11799,-12.05479 -0.0595,-2.90802 -0.18911,-5.81528 -0.28355,-8.72285 0.17285,-2.08411 0.34609,-4.16818 0.51914,-6.25218 -0.1336,-2.20202 -0.55861,-4.40458 -0.40013,-6.60591 0.0819,-1.13438 1.04616,-2.19875 1.11568,-3.33355 0.0857,-1.39557 -0.81513,-2.77615 -0.65605,-4.16917 0.0846,-0.74417 0.91167,-1.37769 1.36735,-2.0665 -0.0148,-0.83833 -0.0319,-1.67662 -0.0511,-2.51484 5.34432,0.21699 10.68866,0.43413 16.0333,0.6511 -0.0528,0.2218 -0.24409,0.44772 -0.15787,0.6653 0.0595,0.15217 0.36522,0.2133 0.54768,0.31986 0.29476,0.71266 -15.73065,3.3339 -16.02512,2.62132 l 0,0 c -0.10025,-0.0264 -0.28172,-0.0106 -0.29993,-0.0781 -0.92231,-3.36175 15.82321,-10.73925 15.99565,-1.88598 0.14753,-0.80251 -0.46115,-1.83326 0.44172,-2.40777 0.73012,-0.46452 0.14542,1.30357 0.27535,1.95169 0.28658,1.42934 0.84639,2.84002 0.97421,4.27862 0.6439,7.24075 -0.22617,14.48847 0.0625,21.73098 -0.65392,3.78537 -0.88828,4.11203 -0.50335,8.72233 0.17096,2.05099 0.93111,4.07737 0.97058,6.13096 0.0618,3.22159 -0.48818,6.43654 -0.6679,9.65631 -0.52491,9.41216 0.41319,3.5992 -1.38799,11.90859 -0.38253,0.73841 -16.9893,-2.66536 -16.60709,-3.40395 z"
       inkscape:connector-curvature="0" />
    <path
       style="opacity:0.95999995;fill:#4f4c4d;fill-opacity:1;stroke:#4f4c4d;stroke-width:0.18460239;stroke-miterlimit:4;stroke-opacity:1;stroke-dasharray:none;stroke-dashoffset:0"
       id="path5742-7-2-8-5-4-9-6-7-1-7-7-3-6"
       d="m 285.76983,213.92745 c -0.26353,-1.11429 -0.68368,-2.22427 -0.79054,-3.34329 -0.13213,-1.37041 0.14668,-2.7431 0.0749,-4.11442 -0.0456,-0.86764 -0.36097,-1.73007 -0.42988,-2.59746 -0.18552,-2.34679 -0.0443,-5.64413 -0.11714,-8.0053 -0.0602,-1.93111 -0.18953,-3.86169 -0.28415,-5.79255 0.17328,-1.38402 0.34639,-2.76802 0.51942,-4.15192 -0.1336,-1.4623 -0.55859,-2.92499 -0.40013,-4.38681 0.0823,-0.75329 1.04586,-1.46019 1.11539,-2.21365 0.0859,-0.92681 -0.81514,-1.84363 -0.65606,-2.76868 0.0851,-0.49418 0.91228,-0.91486 1.36796,-1.37231 -0.0148,-0.55669 -0.0325,-1.11342 -0.0517,-1.67005 5.34432,0.14415 10.68867,0.28835 16.0333,0.43242 -0.0525,0.14732 -0.24379,0.29728 -0.15787,0.44175 0.0597,0.10088 0.36551,0.14162 0.54768,0.21249 0.29508,0.47322 -15.73003,2.21393 -16.0245,1.74069 l 0,0 c -0.10047,-0.0169 -0.28204,-0.006 -0.30055,-0.0521 -0.92199,-2.23242 15.82351,-7.13157 15.99626,-1.25238 0.1469,-0.53299 -0.46175,-1.21744 0.44141,-1.59901 0.73044,-0.30849 0.14521,0.86574 0.27535,1.29609 0.2866,0.94926 0.84609,1.88601 0.97452,2.84133 0.64361,4.80838 -0.22648,9.62136 0.0623,14.43088 -0.65393,2.51384 -0.88799,2.73073 -0.50334,5.79227 0.17096,1.36207 0.9308,2.70768 0.97026,4.07142 0.0618,2.13945 -0.48847,4.27429 -0.66758,6.41245 -0.5249,6.25038 0.41317,2.39013 -1.38801,7.90817 -0.38282,0.4904 -16.98989,-1.76992 -16.60707,-2.26047 z"
       inkscape:connector-curvature="0" />
  </g>
</svg>
