<?xml version="1.0" encoding="UTF-8" standalone="no"?>
<!-- Created with Inkscape (http://www.inkscape.org/) -->

<svg
   xmlns:dc="http://purl.org/dc/elements/1.1/"
   xmlns:cc="http://creativecommons.org/ns#"
   xmlns:rdf="http://www.w3.org/1999/02/22-rdf-syntax-ns#"
   xmlns:svg="http://www.w3.org/2000/svg"
   xmlns="http://www.w3.org/2000/svg"
   xmlns:sodipodi="http://sodipodi.sourceforge.net/DTD/sodipodi-0.dtd"
   xmlns:inkscape="http://www.inkscape.org/namespaces/inkscape"
   width="400.15625"
   height="400.15625"
   id="svg9167"
   version="1.1"
   inkscape:version="0.48.5 r10040"
   sodipodi:docname="folder_file_picker.svg"
   inkscape:export-filename="/home/banana/flySightAndroid/FloatSight/icons/mainmenu/drawing.png"
   inkscape:export-xdpi="44.98243"
   inkscape:export-ydpi="44.98243">
  <defs
     id="defs9169" />
  <sodipodi:namedview
     id="base"
     pagecolor="#ffffff"
     bordercolor="#666666"
     borderopacity="1.0"
     inkscape:pageopacity="0.0"
     inkscape:pageshadow="2"
     inkscape:zoom="0.70000001"
     inkscape:cx="819.59757"
     inkscape:cy="12.837469"
     inkscape:document-units="px"
     inkscape:current-layer="layer1"
     showgrid="false"
     fit-margin-top="0"
     fit-margin-left="0"
     fit-margin-right="0"
     fit-margin-bottom="0"
     inkscape:window-width="1680"
     inkscape:window-height="1002"
     inkscape:window-x="0"
     inkscape:window-y="29"
     inkscape:window-maximized="1" />
  <metadata
     id="metadata9172">
    <rdf:RDF>
      <cc:Work
         rdf:about="">
        <dc:format>image/svg+xml</dc:format>
        <dc:type
           rdf:resource="http://purl.org/dc/dcmitype/StillImage" />
        <dc:title />
      </cc:Work>
    </rdf:RDF>
  </metadata>
  <g
     inkscape:label="Layer 1"
     inkscape:groupmode="layer"
     id="layer1"
     transform="translate(-399.91966,-115.14732)">
    <g
       id="g3074"
       transform="matrix(1,0,0,1.1937756,-328.57143,112.01252)">
      <path
         inkscape:connector-curvature="0"
         id="path8912"
         d="m 765.05141,58.711553 2.3438,130.468697 6.25,-10.1562 21.875,-64.8438 276.56249,-2.3437 -1.5625,-19.531297 -159.37499,-3.125 -38.2813,-30.4687 z"
         style="color:#000000;fill:#918f90;fill-opacity:1;stroke:none;stroke-width:1px;marker:none;visibility:visible;display:inline;overflow:visible;enable-background:accumulate" />
      <path
         inkscape:connector-curvature="0"
         id="path5320-3-5-0-7"
         d="m 754.24751,287.71925 c 1.3906,-0.7745 2.78,-1.5645 4.1728,-2.3109 0.7826,-0.4195 1.5659,-0.8309 2.3518,-1.2042 0.5,-0.2376 0.9991,-0.5159 1.5075,-0.5886 1.0653,-0.1524 2.1376,-0.083 3.2093,0 0,0 0,0 0,0 1.3802,0.1067 2.7613,0.2819 4.1427,0.4679 0,0 0,0 0,0 2.4689,0.3328 4.9406,0.821 7.4051,0.8854 10e-5,0 10e-5,0 10e-5,0 3.0148,0.079 6.0268,0 9.0274,-0.4175 0,0 0,0 0,0 2.9862,-0.4174 5.9635,-1.0672 8.945,-1.6032 2.6219,-0.3351 5.2423,-0.712 7.8629,-1.0793 1.184,-0.1659 2.3683,-0.3396 3.5576,-0.3279 0,0 0,0 0,0 1.2654,0.013 2.5343,0.2047 3.8023,0.3666 0,10e-5 0,10e-5 1e-4,10e-5 2.866,0.366 5.7317,0.7056 8.5969,1.0042 10e-5,0 10e-5,0 10e-5,0 3.3569,0.3499 6.7135,0.6831 10.0702,1.0218 2.2857,0.2307 4.5712,0.4608 6.8568,0.6873 0,0 0,0 0,0 0.7922,0.079 1.5841,0.1568 2.3762,0.2327 0.3669,0.035 0.7338,0.079 1.1004,0.1 2.7568,0.16 5.5233,0.6118 8.2594,0.077 3.3667,-0.6576 6.6767,-2.4313 10.0159,-3.6472 7.7951,1.8198 15.5069,-1.1065 23.2843,-0.8655 0,0 0,0 0,0 3.3191,0.103 6.654,1.5462 9.9764,1.8231 3.1025,0.2586 6.1888,-0.2227 9.2864,-0.2176 2.4673,0 4.9346,0 7.4044,0.1163 0.5392,0.026 1.0788,0.091 1.6182,0.1353 0,0 10e-5,0 10e-5,0 0.5908,0.048 1.1781,-0.059 1.7667,-0.1085 2.6161,-0.2177 5.2326,-0.4206 7.8495,-0.6148 3.301,0.6686 6.6058,1.7757 9.9021,2.0058 3.3867,0.2364 6.7503,-0.4712 10.1288,-0.6077 2.5121,-0.1019 5.0244,-0.2008 7.5373,-0.2728 0.6091,-0.021 1.2183,-0.032 1.8275,-0.042 0,0 0,10e-5 1e-4,10e-5 0,0 0,0 0,0 0.2716,7e-4 0.5431,-0.01 0.8149,0 0,0 0,0 0,0 0.023,-8e-4 0.047,0 0.071,0.01 10e-5,0 10e-5,0 10e-5,0 0.01,-2e-4 0.011,-4e-4 0.017,-5e-4 0,6e-4 0,-10e-5 0.01,-2e-4 3e-4,0.01 0,0.01 0,0.01 -0.01,2e-4 -0.01,4e-4 -0.016,5e-4 -0.02,7e-4 -0.04,0.011 -0.06,0.012 0,0 0,0 0,0 0,0 0,0 -1e-4,0 -0.1918,0.03 -0.3842,0.041 -0.5766,0.056 0,0 0,0 0,0 -0.6928,0.053 -1.3861,0.088 -2.0795,0.1171 -0.6354,0.022 -1.2704,0.057 -1.9067,0.037 -0.084,-0.01 -0.1676,-0.01 -0.2516,-0.015 -0.024,9e-4 -0.05,-0.01 -0.074,-0.013 -0.011,4e-4 -0.023,8e-4 -0.035,-0.016 -6e-4,-0.016 0,-0.017 0.01,-0.019 0,0 0,0 0,0 0.017,-0.013 0.035,-0.018 0.053,-0.024 0.084,-0.029 0.1705,-0.044 0.256,-0.06 0,0 0,-1e-4 0,-1e-4 1.1662,-0.2213 2.3375,-0.3141 3.5074,-0.4378 2.9151,-0.3081 5.8317,-0.5725 8.7484,-0.833 2.9325,-0.2618 5.873,-0.2559 8.8124,-0.2674 2.9119,-0.011 5.8248,0.021 8.7371,0.031 10e-5,0 10e-5,0 10e-5,0 4.9589,-1.0975 10.0156,1.6927 15.0063,1.4922 0,0 0,0 10e-5,0 2.1076,-0.085 4.1677,-1.3587 6.2687,-1.6504 10e-5,0 10e-5,0 10e-5,0 2.4655,-0.3422 4.94629,-0.1902 7.42049,-0.2538 2.1156,-0.051 4.2315,-0.094 6.3487,-0.081 2.3139,0.013 4.6198,-0.2707 6.9299,-0.404 0,0 0,0 0,0 3.9498,0.2101 7.8994,0.3857 11.8348,0.026 0,0 0,0 0,0 2.3115,-0.2111 4.6097,-0.8143 6.9239,-0.9359 0,0 0,0 0,0 4.1108,-0.2156 8.2463,0.8018 12.3709,1.2415 4.2313,-0.2512 8.4435,-1.4218 12.6932,-0.6203 0.5557,0.1048 1.1115,0.2983 1.6672,0.4811 0,0 0,0 0,0 0.8375,0.2756 1.675,0.575 2.5121,0.8879 0,0 0,0 0,0 0.857,0.3203 1.7139,0.6547 2.5703,1.0175 0.6142,0.2601 1.229,0.515 1.841,0.8696 0,0 0,0 0,0 0.9718,0.563 1.9288,1.482 2.8934,2.2232 0,0 0,0 0,0 0.5743,0.4228 1.1485,0.8455 1.7229,1.2683 0,0 0,0 0,0 0,-0.2315 -0.027,-0.4597 -0.042,-0.6901 -0.011,-0.1907 -0.011,-0.4318 0.041,-0.5039 0.287,-0.395 0.6061,-0.5267 0.9177,-0.6953 0.4625,-0.2503 0.9294,-0.4382 1.3983,-0.5873 0,0 10e-5,0 10e-5,0 0.4393,-0.1396 0.8806,-0.2521 1.3249,-0.266 0.1536,0 0.3079,-5e-4 0.4619,0.054 0,0 2e-4,0 2e-4,0 0.081,0.029 0.174,0.026 0.236,0.2143 0.5915,1.7953 1.1743,3.6951 1.5739,5.9744 0.2323,1.3254 0.3812,2.8527 0.3133,4.2958 0,0 0,0 0,0 -0.063,1.3278 -0.2831,2.4805 -0.5275,3.5179 -0.2978,1.2643 -0.6365,2.4154 -0.9488,3.6409 0,0 0,0 0,0 -0.5054,0.3441 -1.0108,0.6881 -1.5161,1.0322 0,0 0,0 -1e-4,0 -0.027,0.032 -0.058,-0.044 -0.081,-0.1111 -0.045,-0.1294 -0.081,-0.2883 -0.1155,-0.4475 -0.118,-0.5429 -0.2146,-1.1296 -0.309,-1.7165 -0.2835,-1.7629 -0.5291,-3.5814 -0.7627,-5.4113 -0.2338,-1.8298 -0.4559,-3.6756 -0.6377,-5.5563 -0.061,-0.6261 -0.1194,-1.2564 -0.1525,-1.8978 -0.01,-0.188 -0.017,-0.3786 -0.015,-0.5651 0,-0.097 0.01,-0.2152 0.037,-0.2471 0.037,0.4075 0.072,0.8153 0.1087,1.2229 0,10e-5 0,10e-5 0,10e-5 -0.024,1.0196 -0.064,2.037 -0.052,3.0686 0,1e-4 0,1e-4 0,1e-4 0.01,0.7706 0.07,1.5483 0.1851,2.2481 0.1667,1.0159 0.4031,1.9 0.6373,2.771 0,0 0,0 0,0 0.4243,1.578 0.8682,3.0984 1.306,4.6368 0.069,0.2405 0.1824,0.2229 0.277,0.1824 0,0 0,0 10e-5,0 0,0 0,0 0,0 0.1283,-0.055 0.251,-0.1878 0.3694,-0.3429 0,0 10e-5,0 10e-5,0 0.094,-0.1235 0.1875,-0.2574 0.2719,-0.4365 0,-1e-4 0,-1e-4 0,-1e-4 0.011,-0.022 0.021,-0.046 0.032,-0.073 0,-10e-5 0,-10e-5 10e-5,-10e-5 0.01,-0.012 0.01,-0.025 0.01,-0.045 -4e-4,-0.017 -0.01,-0.013 -0.014,-0.011 -0.014,5e-4 -0.027,0.018 -0.041,0.031 -2.5277,2.4419 -5.2662,3.8478 -7.9163,1.5323 0,0 -10e-5,0 -10e-5,0 -0.8581,-0.1042 -1.715,-0.037 -2.5736,-0.3125 -1.2936,-0.4153 -2.5846,-1.0437 -3.8717,-1.8017 -1.3576,-0.7996 -2.727,-0.9581 -4.0906,-1.113 -1.5594,-0.1772 -3.1048,0.2892 -4.6628,0.1985 0,0 0,0 0,0 -1.7606,-0.103 -3.5249,-0.5698 -5.2874,-1.2114 0,0 -10e-5,0 -10e-5,0 -0.7137,0.4623 -1.4246,0.9596 -2.1383,1.423 0,0 0,0 0,0 -0.3075,0.1997 -0.6173,0.3874 -0.9342,0.4243 -0.3993,0.047 -0.8016,-0.033 -1.2028,-0.062 -0.9824,-0.073 -1.9636,-0.07 -2.9437,-0.037 -2.6594,0.09 -5.3165,0.2669 -7.9744,0.411 0,0 0,0 0,0 -2.3155,0.1252 -4.6251,0.4772 -6.9457,0.3988 -2.072,-0.07 -4.1537,-0.801 -6.2252,-0.8437 -1.8547,-0.038 -3.6957,0.4007 -5.5439,0.6011 0,0 -10e-5,0 -10e-5,0 -1.3081,0.013 -2.6209,-0.1459 -3.9238,0.037 0,0 -10e-5,0 -10e-5,0 -1.6301,0.2292 -3.2602,0.4612 -4.8884,0.7445 -0.6322,0.1097 -1.267,0.1758 -1.8931,0.4101 -0.044,0.015 -0.085,0.03 -0.1273,0.062 -0.01,0.01 -0.017,0.011 -0.023,0.026 0,0 0,0 0,0 0,0 0,0.01 0,0.012 5e-4,0.01 0,0.01 0,0.011 0,0 0,1e-4 0,1e-4 0.01,0.013 0.016,0.017 0.024,0.02 0.015,0.01 0.03,0.013 0.044,0.019 0.047,0.014 0.094,0.023 0.1416,0.029 0.3253,0.047 0.6499,0.047 0.9747,0.055 0.2821,0.01 0.564,0 0.8467,0.034 0.023,-8e-4 0.047,0 0.07,0.018 0,0 0,-10e-5 0,0.01 0,0.01 0,0.01 0,0.01 -0.01,0.01 -0.015,0.01 -0.022,0.013 0,0 0,0 0,0 -0.1228,0.05 -0.2479,0.057 -0.3722,0.076 0,0 0,0 0,0 -2.7671,0.4298 -5.5424,0.6265 -8.31479,0.9055 -3.144,0.3164 -6.2864,0.6806 -9.4325,0.9241 -0.2108,0.017 -0.4216,0.034 -0.6328,0.037 -0.049,8e-4 -0.097,0 -0.1468,-0.01 -10e-5,0 -10e-5,0 -10e-5,0 -0.012,4e-4 -0.025,9e-4 -0.038,-0.01 0,0 0,0 0,0 -0.01,2e-4 -0.011,4e-4 -0.017,-0.01 -2e-4,-0.01 -3e-4,-0.011 0,-0.013 0,0 0,0 0,0 0.01,-0.01 0.012,-0.011 0.018,-0.016 0.025,-0.017 0.052,-0.028 0.078,-0.04 0,0 0,0 0,0 0.089,-0.039 0.1783,-0.071 0.2675,-0.1062 0.1027,-0.041 0.2054,-0.082 0.3074,-0.1334 0.073,-0.037 0.1483,-0.067 0.2171,-0.1509 0,0 0,0 0,0 0.01,-0.01 0.017,-0.023 0.024,-0.039 0,0 0,0 0,0 0.01,-0.01 0.01,-0.022 0.01,-0.039 -4e-4,-0.016 0,-0.03 -0.01,-0.04 -0.01,-0.019 -0.018,-0.029 -0.028,-0.04 -0.1151,-0.1167 -0.2352,-0.1245 -0.3533,-0.1557 -0.7599,-0.2007 -1.5189,-0.2186 -2.2776,-0.2633 -1.7477,-0.103 -3.4937,-0.1225 -5.2396,-0.1324 -2.4922,-0.014 -4.9683,0.5229 -7.4527,0.7844 -1.8863,-0.2834 -3.7772,-0.8951 -5.6576,-0.8499 -2.7691,0.067 -5.5153,0.8391 -8.2759,1.1851 0,0 0,0 0,0 -3.2205,0.4037 -6.4463,0.6549 -9.6667,1.0641 0,0 0,0 0,0 -3.9414,0.5008 -7.8625,1.6143 -11.8175,1.6656 -3.3897,0.044 -6.8006,-1.2364 -10.1946,-1.3801 -3.3684,-0.1427 -6.7215,0.3477 -10.0823,0.5215 -3.1044,-0.4981 -6.2106,-1.1791 -9.3129,-1.4943 -3.0279,-0.3076 -6.0496,-0.261 -9.0742,-0.3735 -3.0883,-0.1149 -6.1785,-0.3256 -9.2637,-0.3089 0,0 0,0 0,0 -3.3301,0.018 -6.6522,0.3401 -9.9809,0.4134 -3.3528,0.074 -6.7089,0.014 -10.064,-0.01 0,0 0,0 0,0 -3.1748,-0.019 -6.3497,-0.046 -9.5246,-0.068 -3.4128,0.9211 -6.807,2.2572 -10.2376,2.763 -7.2688,1.0718 -14.589,0.511 -21.9027,-0.1373 -3.4524,-0.306 -6.9073,-0.7894 -10.3609,-1.1871 -3.0238,-0.3481 -6.0559,-1.1752 -9.0702,-1.0502 0,0 0,0 0,0 -3.6807,0.1529 -7.3284,1.2548 -10.9932,1.8823 -4.1356,-0.1427 -8.274,-0.4192 -12.4068,-0.428 -3.1202,-0.01 -6.2242,0.6505 -9.3495,0.3819 0,0 0,0 0,0 -2.3845,-0.2048 -4.7741,-1.2218 -7.1616,-1.8001 -1.3729,-0.3324 -2.7457,-0.6504 -4.1184,-0.9315 -1.4617,-0.2993 -2.9294,-0.976 -4.382,-0.8087 0,0 0,0 0,0 -0.9646,0.111 -1.8777,1.0911 -2.8182,1.6377 -0.027,0.05 -0.063,-0.013 -0.09,-0.071 -0.053,-0.1118 -0.099,-0.2601 -0.1437,-0.4096 -0.1516,-0.5098 -0.2832,-1.0787 -0.4125,-1.649 0,0 0,-1e-4 0,-1e-4 -0.3885,-1.7132 -0.7409,-3.5073 -1.0814,-5.3204 -0.3403,-1.8133 -0.6697,-3.6499 -0.9592,-5.5471 -0.096,-0.6317 -0.1911,-1.2687 -0.2598,-1.9323 -0.02,-0.1946 -0.04,-0.3925 -0.045,-0.5937 0,-0.1051 0,-0.2337 0.023,-0.2837 z"
         style="opacity:0.95999995;fill:#4f4c4d;fill-opacity:1;stroke:#4f4c4d;stroke-width:0.16533154;stroke-miterlimit:4;stroke-opacity:1;stroke-dashoffset:0" />
      <path
         inkscape:connector-curvature="0"
         d="m 751.02911,279.03585 c 0.3899,-9.3311 -2.6354,-18.487 -2.6712,-27.7807 -0.2934,-76.2575 3.3187,24.1423 2.0638,-42.0248 -1.6568,-29.4066 -1.1915,-15.1508 -1.5176,-42.7646 0.1,-46.1936 -0.082,-4.6552 0.3609,-48.5429 0.086,-8.5568 -0.044,-17.1164 0.1882,-25.671097 0.1448,-5.3289 0.6388,-10.646 0.9433,-15.9697 0.5806,-10.1513 -0.4276,-6.4448 0.9467,-10.9505 -0.55,-1.8116 -0.483,-1.0584 2.0664,1.3354 -1.1591,-0.3277 4.0688,-14.8578 5.2279,-14.53 l 0,0 c 8.2586,4.6042 4.9646,1.5362 9.7511,9.3129 0.2435,6.4335 0.4082,12.8692 0.6622,19.3023 0.4441,11.248 1.1382,21.018197 1.0215,32.277397 -0.08,7.7717 -0.6288,15.5361 -0.707,23.308 -0.085,8.4301 0.1452,16.8604 0.2178,25.2906 0.3735,12.6477 1.3921,38.8264 0.9932,52.6536 -0.1817,6.3005 -0.9455,12.5777 -1.312,18.872 -0.2577,4.4276 -0.3547,8.8616 -0.5604,13.2914 -0.9441,20.3336 -0.8812,9.2915 -0.5256,27.298 0.4222,1.0748 -16.727,6.3676 -17.1492,5.2927 z"
         id="path5476-9-6-3-8-5"
         style="opacity:0.95999995;fill:#4f4c4d;fill-opacity:1;stroke:#4f4c4d;stroke-width:0.28244853;stroke-miterlimit:4;stroke-opacity:1;stroke-dasharray:none;stroke-dashoffset:0" />
      <path
         inkscape:connector-curvature="0"
         d="m 1066.6543,120.22645 c 0.3899,-1.5743 -2.6354,-3.119 -2.6712,-4.687 -0.2934,-12.8658 3.3187,4.0731 2.0638,-7.0902 -1.6568,-4.9613 -1.1915,-2.5562 -1.5176,-7.215 0.1,-7.793497 -0.082,-0.7854 0.3609,-8.189897 0.086,-1.4437 -0.044,-2.8878 0.1882,-4.3311 0.1448,-0.899 0.6388,-1.7961 0.9433,-2.6943 0.5806,-1.7127 -0.4276,-1.0873 0.9467,-1.8475 -0.55,-0.3056 -0.483,-0.1786 2.0664,0.2253 -1.1591,-0.055 4.0688,-2.5067 5.2279,-2.4514 l 0,0 c 8.2586,0.7768 4.9646,0.2592 9.7511,1.5712 0.2435,1.0854 0.4082,2.1712 0.6622,3.2566 0.4441,1.8977 1.1382,3.546 1.0215,5.4456 -0.08,1.3112 -0.6288,2.6212 -0.707,3.9324 -0.085,1.4223 0.1452,2.8446 0.2178,4.266897 0.3735,2.1339 1.3921,6.5506 0.9932,8.8834 -0.1817,1.063 -0.9455,2.1221 -1.312,3.184 -0.2577,0.747 -0.3547,1.4951 -0.5604,2.2425 -0.9441,3.4305 -0.8812,1.5676 -0.5256,4.6055 0.4222,0.1814 -16.727,1.0743 -17.1492,0.893 z"
         id="path5476-9-6-3-9-8-9"
         style="opacity:0.95999995;fill:#4f4c4d;fill-opacity:1;stroke:#4f4c4d;stroke-width:0.11601534;stroke-miterlimit:4;stroke-opacity:1;stroke-dasharray:none;stroke-dashoffset:0" />
      <path
         inkscape:connector-curvature="0"
         d="m 909.88901,93.104653 c 7.0898,-0.39 14.0465,2.6354 21.108,2.6712 57.9406,0.2933 -18.3435,-3.3187 31.9305,-2.0638 22.3433,1.6568 11.5116,1.1914 32.4927,1.5176 35.09799,-0.1 3.537,0.082 36.88309,-0.3609 6.5015,-0.086 13.005,0.044 19.505,-0.1882 4.0489,-0.1448 8.0888,-0.6388 12.1338,-0.9433 7.713,-0.5806 4.8969,0.4276 8.3202,-0.9467 1.3765,0.55 0.8042,0.483 -1.0146,-2.0665 0.2489,1.1592 11.2889,-4.0688 11.04,-5.2278 l 0,0 c -3.4984,-8.2587 -1.1673,-4.9646 -7.076,-9.7511 -4.8882,-0.2435 -9.7781,-0.4082 -14.666,-0.6622 -8.5462,-0.4441 -15.9697,-1.1383 -24.5245,-1.0216 -5.905,0.08 -11.8044,0.6289 -17.7094,0.7071 -6.4054,0.085 -12.8107,-0.1452 -19.21589,-0.2178 -9.6099,-0.3735 -29.5005,-1.3922 -40.0064,-0.9932 -4.7871,0.1817 -9.5566,0.9455 -14.339,1.312 -3.3642,0.2577 -6.7331,0.3546 -10.0989,0.5604 -15.4496,0.9441 -7.0597,0.8812 -20.7412,0.5256 -0.8167,-0.4223 -4.8381,16.7269 -4.021,17.1493 z"
         id="path5476-9-6-3-9-4-5-6"
         style="opacity:0.95999995;fill:#4f4c4d;fill-opacity:1;stroke:#918f90;stroke-width:0.24620108;stroke-miterlimit:4;stroke-opacity:1;stroke-dasharray:none;stroke-dashoffset:0" />
      <path
         inkscape:connector-curvature="0"
         d="m 756.92681,60.866853 c 5.5204,-0.39 10.9372,2.6353 16.4356,2.6712 45.1151,0.2933 -14.2831,-3.3188 24.8625,-2.0639 17.3975,1.6569 8.9634,1.1915 25.3003,1.5176 27.3288,-0.1 2.754,0.082 28.7188,-0.3608 5.0623,-0.086 10.1262,0.044 15.1874,-0.1882 3.1527,-0.1448 6.2983,-0.6389 9.4479,-0.9433 6.0057,-0.5807 3.813,0.4276 6.4785,-0.9468 1.0718,0.55 0.6262,0.483 -0.79,-2.0664 0.1938,1.1591 8.7901,-4.0688 8.5962,-5.2279 l 0,0 c -2.724,-8.2586 -0.9089,-4.9646 -5.5096,-9.751 -3.8062,-0.2435 -7.6137,-0.4083 -11.4196,-0.6623 -6.6545,-0.444 -12.4348,-1.1382 -19.0959,-1.0215 -4.5979,0.08 -9.1914,0.6288 -13.7893,0.7071 -4.9876,0.085 -9.975,-0.1453 -14.9624,-0.2178 -7.4827,-0.3735 -22.9704,-1.3922 -31.1507,-0.9932 -3.7275,0.1817 -7.4412,0.9455 -11.165,1.3119 -2.6195,0.2577 -5.2427,0.3547 -7.8635,0.5605 -12.0297,0.9441 -5.497,0.8812 -16.15,0.5256 -0.6359,-0.4223 -3.7671,16.7269 -3.1309,17.1493 z"
         id="path5476-9-6-3-9-4-8-0-2"
         style="opacity:0.95999995;fill:#4f4c4d;fill-opacity:1;stroke:#918f90;stroke-width:0.21699999;stroke-miterlimit:4;stroke-opacity:1;stroke-dasharray:none;stroke-dashoffset:0" />
      <path
         inkscape:connector-curvature="0"
         d="m 865.88851,52.179153 c 1.9097,1.5196 1.2627,5.3041 2.8511,7.1032 13.033,14.7613 -1.74,-6.8441 8.8285,6.6372 3.884,6.7311 1.7512,3.6954 6.3081,9.1886 8.1001,8.7549 0.748,0.9442 8.7013,9.028 1.5504,1.5763 2.9414,3.2985 4.5996,4.7761 1.033,0.9203 2.3224,1.6033 3.4726,2.4151 2.1933,1.548 0.8035,1.5187 2.6029,1.4543 -0.092,0.7161 -0.1732,0.5272 1.2965,-1.6456 -0.8002,0.8429 5.5912,0.099 6.3917,-0.7431 l 0,0 c 5.3087,-6.437 3.4052,-3.6344 5.5945,-8.3406 -0.9377,-1.3926 -1.9341,-2.7326 -2.864,-4.1321 -1.6259,-2.4471 -2.81,-4.7801 -4.8528,-6.8519 -1.4094,-1.4304 -3.1645,-2.544 -4.5727,-3.9756 -1.5278,-1.5529 -2.8221,-3.3178 -4.2332,-4.9767 -1.9214,-2.6668 -5.7165,-8.352 -8.4141,-10.7243 -1.2291,-1.081 -2.8848,-1.7659 -4.2495,-2.7214 -0.96,-0.6722 -1.8021,-1.4537 -2.7241,-2.1613 -4.2313,-3.248 -2.2661,-1.1815 -5.1318,-4.8597 0.1259,-0.4894 -13.479,10.0404 -13.6047,10.5299 z"
         id="path5476-9-6-3-9-4-8-1-9-1"
         style="opacity:0.95999995;fill:#4f4c4d;fill-opacity:1;stroke:#918f90;stroke-width:0.14352033;stroke-miterlimit:4;stroke-opacity:1;stroke-dasharray:none;stroke-dashoffset:0" />
      <path
         inkscape:connector-curvature="0"
         d="m 797.52361,109.06405 c 44.3876,-1.1312 8.3288,-0.4356 56.7751,-0.6743 10.2509,-0.051 20.4992,-0.1615 30.7416,-0.2979 11.0453,-0.147 22.0604,-0.5233 33.1174,-0.5524 12.0052,-0.032 23.9937,0.298 35.9975,0.3709 12.6965,0.077 25.3979,0.052 38.0969,0.078 30.50859,-1.9464 60.06159,0.3079 90.29939,1.0594 2.1949,0.054 -4.5166,-0.6091 -6.5144,-0.3325 -3.0137,0.4178 -4.5357,1.4513 -6.8037,2.1769 2.5917,-0.9334 46.7827,10.0399 44.19,10.9733 l 0,0 c -4.1342,1.3498 -6.7658,3.335 -12.4033,4.0494 -10.0678,1.2762 -21.5333,1.1618 -32.3621,1.6232 -7.4057,0.3155 -14.8391,0.6443 -22.3167,0.7068 -10.6173,0.089 -21.2371,-0.1692 -31.8557,-0.2536 -12.5226,0.135 -25.04559,0.2701 -37.56789,0.4051 -11.5304,-0.078 -61.9282,-0.442 -74.0978,-0.4455 -10.9442,-0.01 -21.8886,0.073 -32.8275,0.167 -10.2738,0.089 -20.5307,0.4552 -30.8062,0.3838 -18.4628,-0.1281 -36.7244,-1.3316 -55.2049,-1.4152 -4.2636,-0.2876 9.2787,-18.3105 13.5427,-18.0231 z"
         id="path5740-1-2-9-2-6-7"
         style="opacity:0.95999995;fill:#4f4c4d;fill-opacity:1;stroke:#4f4c4d;stroke-width:0.54868263;stroke-miterlimit:4;stroke-opacity:1;stroke-dasharray:none;stroke-dashoffset:0" />
      <path
         inkscape:connector-curvature="0"
         d="m 782.76751,127.30775 c -6.3885,24.2812 -1.4171,4.5097 -7.4156,31.218 -1.2698,5.6512 -2.5974,11.2887 -3.9497,16.9173 -1.4581,6.07 -3.137,12.0759 -4.4812,18.1767 -1.4598,6.6242 -2.5638,13.3142 -3.9209,19.9594 -1.4361,7.0284 -2.971,14.0387 -4.4573,21.058 -5.5342,16.4459 -6.846,33.2373 -9.7093,50.0945 -0.208,1.2236 -0.058,-2.6211 0.4501,-3.6672 0.7695,-1.5767 1.9593,-2.2034 2.939,-3.3052 -1.2217,1.2374 4.2531,27.926 5.4749,26.688 l 0,0 c 1.8121,-2.0027 4.067,-3.0436 5.4369,-6.0087 2.4464,-5.2954 3.6987,-11.6518 5.4386,-17.537 1.1899,-4.0247 2.3962,-8.0619 3.3472,-12.1791 1.3498,-5.8457 2.3617,-11.7648 3.5426,-17.6472 1.6223,-6.8885 3.2447,-13.777 4.867,-20.6654 1.2958,-6.3847 6.9371,-34.2961 8.3819,-41.0184 1.2955,-6.0462 2.6758,-12.0744 4.0698,-18.0968 1.3092,-5.6559 2.8884,-11.2449 4.0413,-16.935 2.0718,-10.2242 3.0676,-20.5605 5.1851,-30.7852 0.2263,-2.4146 -19.0146,1.3187 -19.2408,3.7334 z"
         id="path5740-1-2-9-2-9-3-8"
         style="opacity:0.95999995;fill:#4f4c4d;fill-opacity:1;stroke:#4f4c4d;stroke-width:0.41242111;stroke-miterlimit:4;stroke-opacity:1;stroke-dasharray:none;stroke-dashoffset:0" />
      <path
         inkscape:connector-curvature="0"
         d="m 1095.0482,125.41825 c -6.3885,24.2813 -1.4171,4.5098 -7.4156,31.2181 -1.2698,5.6512 -2.5974,11.2887 -3.9497,16.9173 -1.4581,6.07 -3.137,12.0758 -4.4812,18.1767 -1.4598,6.6241 -2.5638,13.3141 -3.9209,19.9593 -1.4361,7.0284 -2.971,14.0388 -4.4573,21.058 -5.5342,16.4459 -6.846,33.2373 -9.7093,50.0946 -0.208,1.2235 -0.058,-2.6212 0.4501,-3.6672 0.7695,-1.5768 1.9593,-2.2035 2.939,-3.3053 -1.2217,1.2374 4.2531,27.9261 5.4749,26.6881 l 0,0 c 1.8121,-2.0027 4.067,-3.0436 5.4369,-6.0087 2.4464,-5.2955 3.6987,-11.6519 5.4386,-17.537 1.1899,-4.0248 2.3962,-8.0619 3.3472,-12.1791 1.3498,-5.8457 2.3617,-11.7648 3.5426,-17.6473 1.6223,-6.8885 3.2447,-13.777 4.867,-20.6653 1.2958,-6.3848 6.9371,-34.2962 8.3819,-41.0185 1.2955,-6.0461 2.6758,-12.0744 4.0698,-18.0967 1.3092,-5.6559 2.8884,-11.2449 4.0413,-16.935 2.0718,-10.2242 3.0676,-20.5605 5.1851,-30.7852 0.2263,-2.4146 -19.0146,1.3187 -19.2408,3.7334 z"
         id="path5740-1-2-9-2-9-9-8-57"
         style="opacity:0.95999995;fill:#4f4c4d;fill-opacity:1;stroke:#4f4c4d;stroke-width:0.41242111;stroke-miterlimit:4;stroke-opacity:1;stroke-dasharray:none;stroke-dashoffset:0" />
      <path
         inkscape:connector-curvature="0"
         id="path8914"
         d="m 799.59481,125.96765 -35.3553,163.5184 302.72999,-4.4194 33.1457,-161.3087 z"
         style="color:#000000;fill:#b5d92a;fill-opacity:1;stroke:none;stroke-width:1px;marker:none;visibility:visible;display:inline;overflow:visible;enable-background:accumulate" />
    </g>
  </g>
</svg>
