<?xml version="1.0" encoding="UTF-8" standalone="no"?>
<!-- Created with Inkscape (http://www.inkscape.org/) -->

<svg
   xmlns:dc="http://purl.org/dc/elements/1.1/"
   xmlns:cc="http://creativecommons.org/ns#"
   xmlns:rdf="http://www.w3.org/1999/02/22-rdf-syntax-ns#"
   xmlns:svg="http://www.w3.org/2000/svg"
   xmlns="http://www.w3.org/2000/svg"
   xmlns:sodipodi="http://sodipodi.sourceforge.net/DTD/sodipodi-0.dtd"
   xmlns:inkscape="http://www.inkscape.org/namespaces/inkscape"
   width="400.15625"
   height="400.15625"
   id="svg9167"
   version="1.1"
   inkscape:version="0.48.5 r10040"
   sodipodi:docname="disk_file_picker.svg"
   inkscape:export-filename="/home/banana/flySightAndroid/FloatSight/icons/mainmenu/drawing.png"
   inkscape:export-xdpi="44.98243"
   inkscape:export-ydpi="44.98243">
  <defs
     id="defs9169" />
  <sodipodi:namedview
     id="base"
     pagecolor="#ffffff"
     bordercolor="#666666"
     borderopacity="1.0"
     inkscape:pageopacity="0.0"
     inkscape:pageshadow="2"
     inkscape:zoom="0.7"
     inkscape:cx="264.08758"
     inkscape:cy="227.88984"
     inkscape:document-units="px"
     inkscape:current-layer="layer1"
     showgrid="false"
     fit-margin-top="0"
     fit-margin-left="0"
     fit-margin-right="0"
     fit-margin-bottom="0"
     inkscape:window-width="1680"
     inkscape:window-height="1002"
     inkscape:window-x="0"
     inkscape:window-y="29"
     inkscape:window-maximized="1" />
  <metadata
     id="metadata9172">
    <rdf:RDF>
      <cc:Work
         rdf:about="">
        <dc:format>image/svg+xml</dc:format>
        <dc:type
           rdf:resource="http://purl.org/dc/dcmitype/StillImage" />
        <dc:title></dc:title>
      </cc:Work>
    </rdf:RDF>
  </metadata>
  <g
     inkscape:label="Layer 1"
     inkscape:groupmode="layer"
     id="layer1"
     transform="translate(-399.91966,-115.14732)">
    <g
       id="g3138"
       transform="matrix(1.0285058,0,0,1.0285058,29.436929,83.340619)">
      <path
         inkscape:connector-curvature="0"
         id="path8769-3"
         d="m 436.01106,163.37512 c 0,2.7622 -1.6573,22.0971 -1.6573,22.0971 l 56.3476,2.7622 13.2582,23.2019 -1.1048,75.1301 -43.6418,105.5136 5.5243,6.6291 11.601,-4.9718 9.3912,-8.2864 143.6311,-0.5525 11.601,10.4961 11.6009,-0.5524 3.3146,-6.6291 -41.432,-101.6466 2.2097,-86.7311 12.7058,-12.7058 26.5165,-4.4194 24.8592,-1.6573 0.5525,-22.0971 -94.4651,-32.0407 -62.9767,-0.5525 z"
         style="color:#000000;fill:#b5d92a;fill-opacity:1;stroke:none;stroke-width:1px;marker:none;visibility:visible;display:inline;overflow:visible;enable-background:accumulate" />
      <path
         inkscape:connector-curvature="0"
         d="m 541.19686,382.50812 c 3.9653,0.318 7.8562,-2.1494 11.8053,-2.1786 32.4046,-0.2393 -10.259,2.7066 17.8578,1.6832 12.496,-1.3512 6.4381,-0.9718 18.1724,-1.2377 19.6294,0.082 1.9783,-0.067 20.6279,0.2943 3.636,0.07 7.2734,-0.036 10.9083,0.1535 2.2648,0.1181 4.524,0.521 6.7863,0.7693 4.3137,0.4735 2.7386,-0.3487 4.6534,0.7721 0.77,-0.4485 0.4496,-0.3939 -0.5674,1.6853 0.1389,-0.9453 6.3136,3.3184 6.1742,4.2637 l 0,0 c -1.9564,6.7354 -0.6528,4.049 -3.9574,7.9527 -2.7337,0.1985 -5.4686,0.3329 -8.2023,0.54 -4.7798,0.3622 -8.9316,0.9283 -13.7161,0.8331 -3.3023,-0.066 -6.6016,-0.5128 -9.9043,-0.5766 -3.5825,-0.069 -7.1646,0.1184 -10.747,0.1776 -5.3746,0.3047 -16.4989,1.1354 -22.3742,0.8101 -2.6774,-0.1482 -5.345,-0.7711 -8.0197,-1.07 -1.8813,-0.2102 -3.7657,-0.2893 -5.6481,-0.4571 -8.6405,-0.77 -3.9481,-0.7187 -11.5998,-0.4287 -0.4567,0.3444 -2.7059,-13.6419 -2.2493,-13.9862 z"
         id="path5476-9-1-20-7-6-1-0-8-1"
         style="fill:#4f4c4d;fill-opacity:1;stroke:#4f4c4d;stroke-width:0.16627677;stroke-miterlimit:4;stroke-opacity:1;stroke-dasharray:none;stroke-dashoffset:0" />
      <path
         sodipodi:nodetypes="ccccccccccccccccccccc"
         inkscape:connector-curvature="0"
         d="m 521.64266,115.39962 c 3.2595,-1.063 5.862,-1.989 8.8333,-2.0182 6.2889,1.0037 6.0919,0.6351 13.436,0.3021 9.4018,-1.3512 4.8439,-0.9717 13.6727,-1.2377 14.769,0.082 1.4884,-0.067 15.5202,0.2943 2.7356,0.07 5.4723,-0.036 8.2072,0.1535 1.704,0.1181 3.4038,0.521 5.1059,0.7694 3.2456,0.4735 2.0605,-0.3488 3.5011,0.7721 0.5793,-0.4486 0.3383,-0.394 -0.4268,1.6852 0.1044,-0.9453 4.7502,3.3184 4.6454,4.2637 l 0,0 c -1.472,6.7355 -0.4913,4.049 -2.9775,7.9527 -2.0568,0.1986 -4.1145,0.3329 -6.1714,0.5401 -3.5962,0.3621 -6.7199,0.9282 -10.3198,0.8331 -2.4846,-0.066 -4.9669,-0.5129 -7.4518,-0.5766 -2.6954,-0.069 -5.3905,0.1184 -8.0859,0.1776 -4.0439,0.3046 -12.4135,1.1353 -16.8342,0.81 -2.0144,-0.1482 -4.0214,-0.7711 -6.0338,-1.0699 -1.4155,-0.2103 -2.8333,-0.2894 -4.2496,-0.4572 -6.501,-0.7699 -2.9705,-0.7186 -8.7275,-0.4286 -0.3436,0.3443 -1.9871,-12.4213 -1.6435,-12.7656 z"
         id="path5476-9-1-20-7-6-1-9-6-1-8"
         style="fill:#4f4c4d;fill-opacity:1;stroke:#4f4c4d;stroke-width:0.14422897;stroke-miterlimit:4;stroke-opacity:1;stroke-dasharray:none;stroke-dashoffset:0" />
      <path
         inkscape:connector-curvature="0"
         d="m 586.76196,113.76382 c 4.4775,2.0467 9.8611,1.4577 14.4437,3.1728 37.6029,14.0734 -12.8416,-1.9971 20.0762,9.4517 14.949,4.2507 7.7999,1.9325 21.4806,6.8612 22.6976,8.7368 2.3143,0.8104 23.7779,9.3762 4.1847,1.6697 8.4339,3.1755 12.5748,4.9562 2.5802,1.1096 5.0524,2.4828 7.5832,3.713 4.8257,2.3458 3.2948,0.8824 5.1126,2.7746 1.0511,-0.079 0.6609,-0.1697 -1.2571,1.3245 0.4975,-0.8221 6.1283,5.8864 5.6303,6.7083 l 0,0 c -4.6636,5.4307 -2.1977,3.4954 -7.4137,5.6853 -3.2359,-1.0206 -6.4501,-2.1017 -9.689,-3.1142 -5.6628,-1.7704 -10.6713,-3.0732 -16.1769,-5.2731 -3.7998,-1.5187 -7.4607,-3.3919 -11.2618,-4.9086 -4.1229,-1.6454 -8.3371,-3.0504 -12.5059,-4.5756 -6.3313,-2.0867 -19.5065,-6.2185 -26.1932,-9.1148 -3.047,-1.3197 -5.9138,-3.0788 -8.9041,-4.5381 -2.1033,-1.0265 -4.2567,-1.9318 -6.3765,-2.9191 -9.7297,-4.5318 -4.3151,-2.4135 -13.2775,-5.5184 -0.6513,0.1202 1.725,-13.9416 2.3764,-14.0619 z"
         id="path5476-9-1-20-7-6-4-8-2-5"
         style="fill:#4f4c4d;fill-opacity:1;stroke:#4f4c4d;stroke-width:0.18508378;stroke-miterlimit:4;stroke-opacity:1;stroke-dasharray:none;stroke-dashoffset:0" />
      <path
         sodipodi:nodetypes="csccccscccccccccssccc"
         inkscape:connector-curvature="0"
         d="m 530.73526,113.59422 c -3.4521,0.3867 -11.5039,2.0353 -13.5341,2.7167 -2.9284,0.9829 -15.4703,6.9798 -20.6286,8.3469 -14.9491,4.2507 -8.3524,2.7611 -22.033,7.6898 -22.6977,8.7368 -2.3143,0.8104 -23.778,9.3762 -4.1846,1.6697 -8.4338,3.1755 -12.5748,4.9562 -2.5802,1.1096 -5.0524,2.4828 -7.5832,3.713 -4.8257,2.3457 -3.2948,0.8824 -5.1126,2.7746 -1.0511,-0.079 -0.6608,-0.1698 1.2571,1.3244 -0.4975,-0.8221 -6.1282,5.8865 -5.6302,6.7084 l 0,0 c 4.6635,5.4307 2.1977,3.4954 7.4137,5.6853 3.2358,-1.0206 6.4501,-2.1017 9.6889,-3.1143 5.6629,-1.7704 10.6714,-3.0732 16.1769,-5.2731 3.7998,-1.5186 7.4607,-3.3918 11.2618,-4.9085 4.1229,-1.6454 8.3371,-3.0504 12.506,-4.5757 6.3312,-2.0867 19.5064,-6.2184 26.1932,-9.1147 3.0469,-1.3197 5.9137,-3.0788 8.9041,-4.5382 2.1032,-1.0264 4.2566,-1.9317 6.3765,-2.919 9.7296,-4.5318 4.315,-2.4135 13.2774,-5.5185 0.6513,0.1202 -1.5297,-13.2092 -2.1811,-13.3295 z"
         id="path5476-9-1-20-7-6-4-7-9-9-9"
         style="fill:#4f4c4d;fill-opacity:1;stroke:#4f4c4d;stroke-width:0.18508378;stroke-miterlimit:4;stroke-opacity:1;stroke-dasharray:none;stroke-dashoffset:0" />
      <path
         inkscape:connector-curvature="0"
         d="m 491.88196,288.14642 c -0.9444,-12.5157 -0.3597,-2.3481 -0.5782,-16.0091 -0.049,-2.8908 -0.1419,-5.7805 -0.2586,-8.6686 -0.1256,-3.1145 -0.4371,-6.2205 -0.4665,-9.3383 -0.033,-3.3854 0.2308,-6.7661 0.2847,-10.1513 0.057,-3.5804 0.033,-7.1618 0.041,-10.743 -1.6025,-8.6012 0.2211,-16.937 0.8189,-25.4644 0.041,-0.619 -0.4943,1.2741 -0.2684,1.8372 0.3426,0.8497 1.1859,1.2777 1.7788,1.9166 -0.7626,-0.7301 8.1654,-13.2017 8.928,-12.4716 l 0,0 c 1.1026,1.1646 2.7232,1.9047 3.3087,3.4938 1.0456,2.838 0.9583,6.0712 1.34,9.1243 0.261,2.0879 0.5326,4.1836 0.5872,6.2924 0.082,2.9939 -0.1272,5.9887 -0.1908,8.9831 0.1158,3.5311 0.2324,7.0623 0.349,10.5935 -0.057,3.2514 -0.3295,17.4634 -0.3262,20.8952 0,3.0861 0.073,6.1723 0.1525,9.2569 0.073,2.897 0.3809,5.7891 0.3279,8.6866 -0.095,5.2066 -1.0676,10.357 -1.1263,15.5686 -0.2325,1.2027 -14.9379,-2.5991 -14.7055,-3.8019 z"
         id="path5740-9-8-3-8-8-2-3-7"
         style="fill:#4f4c4d;fill-opacity:1;stroke:#4f4c4d;stroke-width:0.26312819;stroke-miterlimit:4;stroke-opacity:1;stroke-dasharray:none;stroke-dashoffset:0" />
      <path
         inkscape:connector-curvature="0"
         d="m 449.13376,386.22072 c 0.9175,-2.9077 1.7069,-5.8537 2.7532,-8.7234 1.2818,-3.5148 2.8918,-6.9057 4.2226,-10.4029 0.8399,-2.2139 1.463,-4.4989 2.2859,-6.719 2.2254,-6.0064 5.6714,-14.3185 8.0038,-20.3245 1.908,-4.9119 3.7556,-9.8467 5.6337,-14.7698 1.5379,-3.4521 3.0757,-6.9043 4.6127,-10.357 1.3732,-3.748 2.5149,-7.5896 4.1193,-11.2439 0.8301,-1.8818 2.3095,-3.3682 3.127,-5.2558 1.0056,-2.3213 1.2167,-4.931 2.2788,-7.2247 0.568,-1.225 1.6503,-2.0291 2.4759,-3.0436 0.5479,-1.4166 1.0958,-2.8336 1.6514,-4.2472 4.1058,2.0624 8.2107,4.1244 12.3166,6.1866 -0.1869,0.3582 -0.4947,0.676 -0.5727,1.0695 -0.056,0.2741 0.1469,0.4746 0.2207,0.7122 -0.2439,1.293 -14.7527,0.6158 -14.508,-0.6769 l 0,0 c -0.062,-0.075 -0.217,-0.1076 -0.1861,-0.2266 1.5243,-5.9505 19.8005,-13.0492 13.9906,1.9047 0.6564,-1.3037 0.8649,-3.2314 1.9689,-3.9117 0.893,-0.5499 -0.7598,2.2401 -1.0922,3.3718 -0.7322,2.4966 -1.2343,5.0482 -2.0984,7.5098 -4.3519,12.3902 -9.9127,24.3108 -14.5446,36.5926 -3.0632,6.1628 -3.4689,6.638 -6.2599,14.5188 -1.2414,3.506 -1.9982,7.1576 -3.3465,10.6261 -2.1111,5.4427 -4.7122,10.6766 -7.0175,16.0384 -6.7406,15.6728 -2.0891,6.1884 -9.1039,19.6002 -0.8005,1.1211 -11.7241,-9.8799 -10.9234,-11.0012 z"
         id="path5742-7-2-33-1-7-4-0-6-9-5"
         style="fill:#4f4c4d;fill-opacity:1;stroke:#4f4c4d;stroke-width:0.2822099;stroke-miterlimit:4;stroke-opacity:1;stroke-dasharray:none;stroke-dashoffset:0" />
      <path
         inkscape:connector-curvature="0"
         d="m 666.35276,384.61352 c -0.9174,-2.9078 -1.7068,-5.8538 -2.7531,-8.7234 -1.2818,-3.5149 -2.8918,-6.9057 -4.2226,-10.403 -0.8399,-2.2138 -1.4631,-4.4989 -2.2859,-6.7189 -2.2254,-6.0065 -5.6714,-14.3186 -8.0038,-20.3245 -1.908,-4.9119 -3.7556,-9.8467 -5.6337,-14.7698 -1.538,-3.4522 -3.0757,-6.9044 -4.6127,-10.3571 -1.3732,-3.7479 -2.5149,-7.5895 -4.1194,-11.2438 -0.83,-1.8819 -2.3094,-3.3682 -3.1269,-5.2558 -1.0056,-2.3213 -1.2167,-4.9311 -2.2788,-7.2248 -0.568,-1.2249 -1.6503,-2.029 -2.4759,-3.0435 -0.5479,-1.4166 -1.0959,-2.8336 -1.6514,-4.2472 -4.1058,2.0623 -8.2107,4.1244 -12.3166,6.1865 0.1868,0.3582 0.4946,0.6761 0.5727,1.0696 0.056,0.2741 -0.1469,0.4746 -0.2207,0.7121 0.2439,1.293 14.7527,0.6159 14.508,-0.6768 l 0,0 c 0.062,-0.075 0.2169,-0.1077 0.1861,-0.2267 -1.5243,-5.9505 -19.8005,-13.0492 -13.9906,1.9047 -0.6564,-1.3037 -0.8649,-3.2313 -1.9689,-3.9117 -0.893,-0.5498 0.7598,2.2401 1.0922,3.3719 0.7322,2.4965 1.2343,5.0482 2.0984,7.5098 4.3519,12.3902 9.9127,24.3108 14.5446,36.5925 3.0632,6.1629 3.4689,6.6381 6.2598,14.5189 1.2415,3.5059 1.9983,7.1576 3.3466,10.6261 2.111,5.4426 4.7122,10.6765 7.0175,16.0384 6.7406,15.6728 2.089,6.1883 9.1039,19.6001 0.8005,1.1212 11.7241,-9.8799 10.9234,-11.0011 z"
         id="path5742-7-2-33-1-7-4-0-1-6-0-3"
         style="fill:#4f4c4d;fill-opacity:1;stroke:#4f4c4d;stroke-width:0.2822099;stroke-miterlimit:4;stroke-opacity:1;stroke-dasharray:none;stroke-dashoffset:0" />
      <path
         inkscape:connector-curvature="0"
         d="m 481.43776,183.43482 c -8.1667,-0.9444 -1.5322,-0.3597 -10.4461,-0.5782 -1.8862,-0.049 -3.7717,-0.1419 -5.6563,-0.2586 -2.0323,-0.1256 -4.0589,-0.4371 -6.0933,-0.4665 -2.209,-0.033 -4.415,0.2308 -6.6238,0.2847 -2.3362,0.057 -4.6732,0.033 -7.0098,0.041 -5.6124,-1.6025 -11.0516,0.2211 -16.6159,0.8189 -0.4038,0.041 0.8315,-0.4943 1.1989,-0.2683 0.5544,0.3425 0.8337,1.1858 1.2506,1.7787 -0.4765,-0.7626 -8.6142,8.1654 -8.1378,8.928 l 0,0 c 0.7599,1.1026 1.2428,2.7232 2.2797,3.3087 1.8518,1.0456 3.9615,0.9583 5.9538,1.34 1.3623,0.261 2.7297,0.5326 4.1058,0.5872 1.9534,0.082 3.9077,-0.1272 5.8615,-0.1908 2.3041,0.1158 4.6082,0.2324 6.9123,0.349 2.1216,-0.057 11.395,-0.3295 13.6342,-0.3262 2.0138,0 4.0276,0.073 6.0403,0.1525 1.8903,0.073 3.7774,0.3809 5.6681,0.3279 3.3972,-0.095 6.758,-1.0676 10.1586,-1.1263 0.7847,-0.2325 -1.696,-14.9379 -2.4808,-14.7055 z"
         id="path5740-9-8-3-8-8-5-3-3-2-4-8-8"
         style="fill:#4f4c4d;fill-opacity:1;stroke:#4f4c4d;stroke-width:0.21254954;stroke-miterlimit:4;stroke-opacity:1;stroke-dasharray:none;stroke-dashoffset:0" />
      <path
         inkscape:connector-curvature="0"
         d="m 626.05286,286.27902 c 0.9444,-12.5156 0.3597,-2.348 0.5783,-16.009 0.049,-2.8908 0.1419,-5.7805 0.2585,-8.6687 0.1256,-3.1144 0.4371,-6.2204 0.4665,-9.3382 0.033,-3.3854 -0.2308,-6.7661 -0.2846,-10.1513 -0.057,-3.5804 -0.033,-7.1618 -0.041,-10.743 1.6026,-8.6012 -0.221,-16.9371 -0.8188,-25.4644 -0.041,-0.6191 0.4942,1.2741 0.2683,1.8372 -0.3426,0.8496 -1.1859,1.2776 -1.7788,1.9166 0.7626,-0.7301 -8.1654,-13.2017 -8.928,-12.4716 l 0,0 c -1.1026,1.1646 -2.7231,1.9047 -3.3087,3.4937 -1.0456,2.8381 -0.9583,6.0713 -1.34,9.1244 -0.261,2.0879 -0.5326,4.1836 -0.5872,6.2924 -0.082,2.9939 0.1272,5.9887 0.1908,8.9831 -0.1158,3.5311 -0.2324,7.0623 -0.349,10.5935 0.057,3.2514 0.3295,17.4634 0.3262,20.8952 0,3.0861 -0.073,6.1723 -0.1525,9.2569 -0.073,2.897 -0.3809,5.7891 -0.3279,8.6866 0.095,5.2066 1.0676,10.357 1.1263,15.5686 0.2325,1.2027 14.9379,-2.5992 14.7055,-3.802 z"
         id="path5740-9-8-3-8-8-0-9-8-8"
         style="fill:#4f4c4d;fill-opacity:1;stroke:#4f4c4d;stroke-width:0.26312819;stroke-miterlimit:4;stroke-opacity:1;stroke-dasharray:none;stroke-dashoffset:0" />
      <path
         inkscape:connector-curvature="0"
         d="m 636.49706,181.56752 c 8.1667,-0.9444 1.5322,-0.3597 10.4461,-0.5782 1.8863,-0.049 3.7718,-0.142 5.6563,-0.2586 2.0323,-0.1256 4.059,-0.4371 6.0933,-0.4665 2.209,-0.033 4.415,0.2308 6.6238,0.2846 2.3363,0.057 4.6732,0.033 7.0099,0.041 5.6123,-1.6026 11.0515,0.221 16.6158,0.8189 0.4038,0.041 -0.8315,-0.4943 -1.1989,-0.2684 -0.5543,0.3426 -0.8337,1.1859 -1.2506,1.7788 0.4765,-0.7626 8.6142,8.1654 8.1378,8.928 l 0,0 c -0.7598,1.1026 -1.2428,2.7231 -2.2797,3.3087 -1.8518,1.0456 -3.9615,0.9583 -5.9537,1.34 -1.3624,0.261 -2.7298,0.5326 -4.1058,0.5872 -1.9535,0.082 -3.9077,-0.1272 -5.8616,-0.1908 -2.3041,0.1158 -4.6082,0.2324 -6.9123,0.349 -2.1216,-0.057 -11.395,-0.3295 -13.6342,-0.3262 -2.0137,0 -4.0275,0.073 -6.0403,0.1525 -1.8903,0.073 -3.7773,0.3809 -5.6681,0.3279 -3.3972,-0.095 -6.758,-1.0676 -10.1586,-1.1263 -0.7847,-0.2325 1.696,-14.9379 2.4808,-14.7055 z"
         id="path5740-9-8-3-8-8-5-3-3-2-6-5-5-3"
         style="fill:#4f4c4d;fill-opacity:1;stroke:#4f4c4d;stroke-width:0.21254954;stroke-miterlimit:4;stroke-opacity:1;stroke-dasharray:none;stroke-dashoffset:0" />
      <path
         inkscape:connector-curvature="0"
         d="m 422.07946,194.34362 c -0.2259,-1.0077 -0.5848,-2.0112 -0.6769,-3.0229 -0.1126,-1.2392 0.1256,-2.4805 0.065,-3.7202 -0.041,-0.7846 -0.3091,-1.5644 -0.3678,-2.3487 -0.1599,-2.1219 -0.041,-5.1033 -0.1011,-7.2381 -0.049,-1.7462 -0.1623,-3.4918 -0.2431,-5.2376 0.1485,-1.2514 0.2969,-2.5027 0.4445,-3.7541 -0.1142,-1.3221 -0.4779,-2.6447 -0.3425,-3.9664 0.073,-0.6811 0.8963,-1.3203 0.9558,-2.0016 0.073,-0.8379 -0.6981,-1.667 -0.5619,-2.5034 0.073,-0.4467 0.7805,-0.8271 1.1711,-1.2408 -0.016,-0.5033 -0.033,-1.0066 -0.041,-1.5099 4.5777,0.1303 9.1547,0.2606 13.7325,0.3909 -0.041,0.1332 -0.2088,0.2689 -0.1354,0.3994 0.049,0.091 0.3123,0.1282 0.4689,0.1922 0.2528,0.4278 -13.4731,2.0017 -13.7251,1.5739 l 0,0 c -0.086,-0.016 -0.2414,-0.01 -0.2569,-0.047 -0.7903,-2.0185 13.5522,-6.4483 13.6998,-1.1324 0.1264,-0.4819 -0.3947,-1.1008 0.3785,-1.4458 0.6255,-0.2789 0.1247,0.7828 0.2357,1.1719 0.2454,0.8582 0.725,1.7053 0.8351,2.569 0.5513,4.3476 -0.1941,8.6994 0.057,13.0482 -0.5603,2.2729 -0.7609,2.469 -0.4314,5.2372 0.1468,1.2315 0.7976,2.4483 0.831,3.6813 0.057,1.9344 -0.4184,3.8646 -0.5717,5.7979 -0.4502,5.6515 0.354,2.1612 -1.1891,7.1504 -0.3279,0.4435 -14.5513,-1.6004 -14.2235,-2.0438 z"
         id="path5742-7-2-33-1-7-4-06-1-0-0-1"
         style="fill:#4f4c4d;fill-opacity:1;stroke:#4f4c4d;stroke-width:0.16245243;stroke-miterlimit:4;stroke-opacity:1;stroke-dasharray:none;stroke-dashoffset:0" />
      <path
         inkscape:connector-curvature="0"
         d="m 679.49226,193.03992 c -0.226,-1.0077 -0.5848,-2.0112 -0.677,-3.0229 -0.1125,-1.2392 0.1256,-2.4805 0.065,-3.7202 -0.041,-0.7846 -0.3091,-1.5643 -0.3678,-2.3487 -0.1599,-2.1218 -0.041,-5.1033 -0.1012,-7.2381 -0.049,-1.7461 -0.1623,-3.4918 -0.243,-5.2376 0.1484,-1.2514 0.2969,-2.5027 0.4445,-3.7541 -0.1142,-1.3221 -0.4779,-2.6446 -0.3426,-3.9663 0.073,-0.6812 0.8963,-1.3204 0.9559,-2.0017 0.073,-0.8379 -0.6981,-1.667 -0.5619,-2.5034 0.073,-0.4467 0.7805,-0.8271 1.1711,-1.2408 -0.016,-0.5032 -0.033,-1.0066 -0.041,-1.5099 4.5778,0.1303 9.1548,0.2607 13.7325,0.3909 -0.041,0.1332 -0.2088,0.2689 -0.1354,0.3995 0.049,0.091 0.3124,0.1281 0.469,0.1921 0.2528,0.4279 -13.4732,2.0017 -13.7252,1.5739 l 0,0 c -0.086,-0.015 -0.2414,-0.01 -0.2569,-0.046 -0.7902,-2.0185 13.5523,-6.4483 13.6999,-1.1324 0.1264,-0.4819 -0.3947,-1.1008 0.3784,-1.4458 0.6256,-0.2789 0.1248,0.7828 0.2357,1.1719 0.2455,0.8582 0.7251,1.7053 0.8352,2.569 0.5513,4.3477 -0.1941,8.6994 0.057,13.0482 -0.5602,2.2729 -0.7609,2.469 -0.4314,5.2372 0.1468,1.2315 0.7976,2.4483 0.8311,3.6813 0.057,1.9344 -0.4184,3.8647 -0.5717,5.798 -0.4502,5.6514 0.3539,2.1611 -1.1891,7.1504 -0.3279,0.4434 -14.5513,-1.6004 -14.2235,-2.0439 z"
         id="path5742-7-2-33-1-7-4-06-1-5-4-9-8"
         style="fill:#4f4c4d;fill-opacity:1;stroke:#4f4c4d;stroke-width:0.16245243;stroke-miterlimit:4;stroke-opacity:1;stroke-dasharray:none;stroke-dashoffset:0" />
      <path
         inkscape:connector-curvature="0"
         d="m 476.70786,183.80302 c 1.1585,0 2.317,0 3.4755,0 0.085,0 0.2559,-0.085 0.2559,0 -10e-5,4.5444 -0.1245,9.0881 -0.2562,13.6305 0,0.047 -0.1392,0.047 -0.1386,0 0.05,-4.5443 0.1921,-9.087 0.2881,-13.6305 0.3931,0.1008 2.5556,-0.1315 2.8042,0 1.2944,0.6853 2.537,1.4642 3.8056,2.1964 0.395,-0.4757 0.6045,-0.6837 -1.3026,-1.1267 -1.4576,-0.3386 -5.8087,-0.9816 -4.4795,-0.2941 2.1742,1.1245 4.8222,0.9173 7.1497,1.6752 0.4091,0.1332 1.227,1.2001 0.8838,0.9406 -0.7238,-0.5475 -1.3558,-1.2069 -2.0337,-1.8103 0.5065,0.2936 0.986,0.6397 1.5194,0.8809 0.093,0.042 -0.075,-0.2003 -0.1546,-0.2638 -0.2702,-0.2147 -1.2034,-0.6589 -0.8745,-0.5542 2.0875,0.6642 2.6514,1.1892 4.3045,2.5135 -1.125,-1.3444 0.037,0.1332 0.4766,0.1378 0.3324,0 -0.4854,-0.454 -0.7282,-0.6811 0.9028,0.8841 1.743,1.8368 2.7081,2.6523 0.2677,0.2262 -0.3173,-0.6533 -0.5952,-0.8669 -1.0173,-0.7819 -2.1592,-1.3867 -3.2389,-2.0801 1.2143,0.697 2.4012,1.4443 3.643,2.0912 0.1237,0.065 -0.1728,-0.219 -0.2592,-0.3286 -0.5171,-0.3569 -2.0544,-1.4473 -1.5513,-1.0709 4.4369,3.3201 2.032,0.4562 4.8774,5.3085 0.3519,-2.9968 -3.5352,-2.6379 -4.3583,-4.5773 -0.408,-0.9611 1.8746,0.9202 2.8194,1.3647 0.04,0.019 0.087,0.016 0.1301,0.023 0.9061,1.2715 1.6662,2.6612 2.7185,3.8148 0.4229,0.4636 -0.5301,-1.1376 -0.7952,-1.7064 -0.1023,-0.1715 -0.5057,-0.5332 -0.3069,-0.5146 0.2845,0.027 0.4844,0.3219 0.6594,0.5478 0.4667,0.6023 1.7476,2.3347 2.0583,3.4103 0.2156,0.7463 0.9417,2.911 0.4911,2.2781 -0.7773,-1.0921 -1.0132,-2.4822 -1.5199,-3.7232 1.5431,1.4992 -3.2811,-2.3392 -2.4449,-1.7772 5.4013,3.6292 2.1276,1.0137 4.8858,6.872 -0.4198,-2.1922 -0.6685,-2.6384 -0.1628,-1.5236 0.1696,0.7482 0.4171,1.483 0.5087,2.2447 0.07,0.5842 0.1992,2.3083 -0.027,1.765 -0.568,-1.3676 -0.6782,-2.883 -1.0348,-4.3202 -0.016,-0.067 -0.1141,-0.2513 -0.084,-0.1892 0.4872,1.0124 1.1436,1.9606 1.456,3.0397 0.2407,0.8312 0.1161,1.7268 0.1741,2.5901 -0.2098,-1.1259 -0.4196,-2.2518 -0.6292,-3.3776 -0.026,-0.073 -0.1069,-0.2904 -0.079,-0.2184 0.3445,0.8833 0.8149,1.728 1.0277,2.6519 0.1726,0.7489 0.4504,2.9939 0.114,2.3028 -0.5708,-1.1724 -0.4996,-2.5613 -0.825,-3.8241 0.2277,-2.8212 2.0765,6.7985 1.2793,5.201 -0.5464,-1.0951 -0.4746,-2.4013 -0.7258,-3.599 -0.014,-0.066 -0.095,-0.2541 -0.068,-0.1914 1.4176,3.4547 1.0715,1.7932 1.2448,5.1238 0.011,0.493 -0.1435,0.9676 -0.1874,1.4544 0,0.038 0.04,-0.076 0.025,-0.1106 -0.8375,-1.9077 -2.8704,-3.6335 -2.5739,-5.6957 0.2455,-1.7072 2.3158,2.7086 2.7639,4.3741 0.367,1.3645 -0.3022,2.8097 -0.4533,4.2145 0.5336,-1.5857 0.3171,-0.9011 -0.2957,-4.855 -0.059,-0.3821 -0.7678,-1.3426 -0.566,-1.0127 0.4415,0.7215 1.0125,1.3873 1.2851,2.1881 0.7953,2.3364 0.5653,2.8395 0.3134,4.8694 0.011,2.0585 -2.7477,-1.3803 -2.5083,-5.6419 0.087,-1.5447 2.1465,2.3803 2.5618,3.8707 0.609,2.1855 0.2605,3.0727 -0.2792,4.4778 0.045,-0.1661 0.1999,-0.6726 0.1705,-0.8444 -0.1679,-0.9822 -0.4694,-1.9384 -0.6371,-2.9206 -0.012,-0.073 0.1329,0.081 0.1638,0.148 0.3696,0.7989 0.8601,1.568 1.0294,2.4319 0.2079,1.0608 0.055,2.1612 0.083,3.2419 -3.4433,-13.6336 0.9858,1.7487 0.1503,-2.5517 0.3926,0.9062 -12.423,6.4588 -12.8156,5.5526 l 0,0 c -0.2248,-0.5931 -1.1135,-2.2368 -0.6744,-1.7791 0.5327,0.5551 0.7225,1.3654 0.9748,2.0922 0.098,0.2816 -0.4272,-0.4505 -0.5048,-0.7384 -0.4105,-1.5229 -0.6294,-3.0912 -0.9441,-4.6367 0.542,5.6458 -0.3077,-0.323 1.0118,4.0302 0.081,0.2652 -0.3876,-0.414 -0.4899,-0.6716 -1.0519,-2.6483 -1.4967,-3.1424 -1.2785,-5.3997 0.051,-0.527 0.1795,-1.0437 0.2692,-1.5656 0.8357,-2.7051 -0.3646,0.8482 0.2986,2.8156 0.4621,1.3709 2.7652,4.9868 2.4659,3.5715 -1.4939,-7.0631 -3.7215,-3.9478 -2.799,-7.9215 2e-4,1.1546 -0.054,1.4343 0.5295,2.9007 0.2139,0.5379 1.456,1.7102 0.9313,1.4657 -0.5885,-0.2742 -0.9852,-0.9423 -1.1538,-1.5694 -1.1978,-4.4555 -1.1856,-3.9479 -0.3515,-6.4989 -0.055,1.1895 -0.5373,2.4378 -0.1636,3.5682 0.5122,1.5493 3.0865,5.6708 2.6943,4.0869 -2.4016,-9.6992 -3.4338,-3.2211 -3.1121,-7.0457 0.063,-0.7428 -0.06,-0.8673 0.1209,-0.6568 0.3984,3.0371 -0.1976,-0.4338 1.1214,3.4469 0.089,0.2631 -0.3896,-0.4202 -0.4757,-0.6844 -0.4415,-1.3547 -0.6412,-2.7811 -1.0939,-4.1322 -0.3917,-1.1695 1.0766,6.4082 1.1586,3.5142 -1.4056,-1.9467 0.226,0.4637 -1.6159,-4.8353 -0.149,-0.4285 0.038,0.9166 0.1729,1.3497 0.2095,0.6731 0.6395,1.2639 0.8496,1.9368 0.086,0.2752 -0.3141,-0.4833 -0.4711,-0.7251 -0.3282,-1.3113 -0.6563,-2.6226 -0.9844,-3.9339 0.079,0.5356 0.046,1.1002 0.236,1.607 0.3103,0.8251 0.9059,1.5195 1.2455,2.333 0.1066,0.2548 -0.4409,-0.373 -0.5352,-0.6326 -0.5687,-1.565 -0.8877,-3.2121 -1.4334,-4.7852 -0.091,-0.2614 0.01,0.5568 0.06,0.8278 0.1023,0.4963 0.2745,0.9755 0.4118,1.4632 -0.3759,-0.6967 -2.4392,-4.4948 -0.812,-2.8395 0.8555,0.8704 0.6461,2.4269 1.4095,3.3791 0.521,0.6498 7.9006,5.2041 -0.3897,-0.068 -0.6298,-1.3515 -1.1691,-2.749 -1.8894,-4.0546 -0.218,-0.3953 0.092,0.943 0.361,1.3055 0.3229,0.435 0.7153,0.8247 0.9763,1.2995 0.3453,0.6279 -3.8254,-3.8902 -1.5719,-1.4667 -0.4092,-0.7263 -1.8801,-2.6976 -1.2276,-2.1788 1.0447,0.8305 1.7044,2.0589 2.4602,3.1588 0.1054,0.1534 -0.6529,-0.3553 -0.4825,-0.2807 0.7531,0.3295 2.9198,1.4978 2.2327,1.0466 -5.4688,-3.5908 -2.9134,-0.3158 -5.6663,-5.0144 0.5897,0.9178 1.2853,1.7756 1.7689,2.7534 0.1548,0.313 -1.0657,-0.8914 -0.7624,-0.7184 0.9153,0.522 2.2567,0.7844 2.6153,1.7751 0.306,0.8454 -1.6333,-0.7583 -2.4107,-1.2101 -0.3144,-0.1827 -1.181,-0.8332 -0.8491,-0.6845 1.1037,0.4944 2.1253,1.1548 3.1879,1.7323 -1.3055,-0.6951 -2.6875,-1.2624 -3.9165,-2.0852 -0.4224,-0.2827 -1.379,-1.4752 -0.9638,-1.1819 0.8589,0.6067 1.7913,1.2294 2.3187,2.1391 0.5955,1.027 -3.4064,-2.4864 -2.9407,-1.9077 0.3124,0.2509 0.6766,0.4485 0.9373,0.7529 0.1087,0.127 -0.6113,-0.2704 -0.4611,-0.197 0.015,0.01 4.4483,2.0126 -0.7165,-0.066 -0.4454,-0.1792 -0.8331,-0.4853 -1.2806,-0.6592 -0.2043,-0.079 0.3615,0.2481 0.5422,0.3722 -0.8962,-0.6659 -1.7554,-1.3849 -2.6888,-1.9978 -0.2145,-0.141 0.2686,0.5047 0.5165,0.5714 2.2096,0.5936 5.0706,-0.2063 6.7249,1.3743 1.3205,1.2616 -3.6808,0.1554 -5.4758,-0.181 -0.8627,-0.1617 -1.5552,-0.8172 -2.3029,-1.2771 -0.2774,-0.1706 -0.5093,-0.4061 -0.7639,-0.6093 1.0389,0.5507 2.1064,1.0503 3.1166,1.6521 0.098,0.059 -0.2291,0 -0.3437,0 -0.1496,0 -0.2994,0 -0.4491,0 -0.6705,0 -1.3409,0 -2.0114,0 -0.096,-4.5435 -0.2383,-9.0862 -0.2881,-13.6305 -5e-4,-0.046 0.1373,-0.046 0.1387,0 0.1316,4.5424 0.2561,9.0862 0.2562,13.6305 0,0.085 -0.1707,0 -0.256,0 -1.1584,0 -2.3169,0 -3.4754,0 -0.9638,-0.2155 2.0829,-13.8459 3.0467,-13.6305 z"
         id="path8006-8-6-9"
         style="fill:#4f4c4d;fill-opacity:1;stroke:#4f4c4d;stroke-width:0.64837432;stroke-miterlimit:4;stroke-opacity:1;stroke-dasharray:none;stroke-dashoffset:0" />
      <path
         inkscape:connector-curvature="0"
         d="m 639.41616,182.71432 c -1.1585,0 -2.3169,0 -3.4755,0 -0.085,0 -0.2559,-0.085 -0.2559,0 10e-5,4.5443 0.1246,9.088 0.2562,13.6304 0,0.046 0.1392,0.046 0.1386,0 -0.05,-4.5442 -0.192,-9.0869 -0.2881,-13.6304 -0.3931,0.1008 -2.5556,-0.1316 -2.8042,0 -1.2944,0.6852 -2.537,1.4641 -3.8055,2.1963 -0.395,-0.4757 -0.6045,-0.6837 1.3026,-1.1267 1.4576,-0.3386 5.8086,-0.9816 4.4795,-0.2941 -2.1742,1.1246 -4.8222,0.9173 -7.1498,1.6752 -0.4091,0.1332 -1.227,1.2001 -0.8838,0.9406 0.7238,-0.5475 1.3558,-1.2069 2.0337,-1.8103 -0.5065,0.2936 -0.986,0.6397 -1.5194,0.8809 -0.093,0.042 0.075,-0.2003 0.1546,-0.2638 0.2702,-0.2147 1.2034,-0.6588 0.8746,-0.5542 -2.0876,0.6643 -2.6514,1.1892 -4.3046,2.5135 1.125,-1.3444 -0.037,0.1332 -0.4766,0.1378 -0.3324,0 0.4854,-0.454 0.7282,-0.6811 -0.9027,0.8841 -1.7429,1.8368 -2.7081,2.6523 -0.2677,0.2263 0.3173,-0.6532 0.5952,-0.8669 1.0173,-0.7819 2.1592,-1.3867 3.2389,-2.0801 -1.2143,0.697 -2.4012,1.4444 -3.643,2.0913 -0.1237,0.064 0.1728,-0.2191 0.2592,-0.3286 0.5171,-0.357 2.0544,-1.4474 1.5513,-1.071 -4.4369,3.3201 -2.032,0.4562 -4.8774,5.3086 -0.3519,-2.9969 3.5352,-2.638 4.3584,-4.5774 0.4079,-0.9611 -1.8747,0.9202 -2.8194,1.3648 -0.04,0.019 -0.087,0.016 -0.1301,0.023 -0.9062,1.2716 -1.6662,2.6612 -2.7186,3.8148 -0.4228,0.4636 0.5302,-1.1376 0.7952,-1.7064 0.1023,-0.1715 0.5058,-0.5332 0.3069,-0.5145 -0.2845,0.027 -0.4843,0.3219 -0.6594,0.5477 -0.4666,0.6023 -1.7476,2.3347 -2.0583,3.4103 -0.2156,0.7463 -0.9416,2.911 -0.4911,2.2781 0.7774,-1.092 1.0132,-2.4822 1.5199,-3.7232 -1.5431,1.4992 3.2811,-2.3391 2.4449,-1.7772 -5.4013,3.6293 -2.1276,1.0137 -4.8858,6.872 0.4198,-2.1922 0.6685,-2.6383 0.1628,-1.5235 -0.1695,0.7482 -0.4171,1.4829 -0.5087,2.2446 -0.07,0.5842 -0.1992,2.3083 0.027,1.765 0.568,-1.3675 0.6782,-2.883 1.0349,-4.3202 0.016,-0.067 0.1141,-0.2513 0.084,-0.1891 -0.4872,1.0123 -1.1436,1.9605 -1.456,3.0397 -0.2407,0.8311 -0.1161,1.7267 -0.174,2.59 0.2097,-1.1259 0.4195,-2.2517 0.6292,-3.3776 0.026,-0.072 0.1068,-0.2904 0.079,-0.2184 -0.3445,0.8833 -0.8149,1.7281 -1.0277,2.6519 -0.1726,0.749 -0.4504,2.9939 -0.114,2.3029 0.5708,-1.1725 0.4997,-2.5614 0.8251,-3.8241 -0.2278,-2.8212 -2.0766,6.7984 -1.2794,5.2009 0.5464,-1.0951 0.4747,-2.4013 0.7259,-3.599 0.014,-0.066 0.095,-0.2541 0.068,-0.1913 -1.4177,3.4546 -1.0715,1.7931 -1.2449,5.1237 -0.011,0.4931 0.1435,0.9676 0.1874,1.4544 0,0.038 -0.04,-0.076 -0.025,-0.1106 0.8375,-1.9077 2.8704,-3.6335 2.5739,-5.6957 -0.2454,-1.7071 -2.3158,2.7087 -2.7638,4.3741 -0.3671,1.3645 0.3021,2.8097 0.4532,4.2145 -0.5336,-1.5857 -0.317,-0.9011 0.2957,-4.8549 0.06,-0.3822 0.7678,-1.3427 0.566,-1.0128 -0.4415,0.7215 -1.0125,1.3874 -1.2851,2.1881 -0.7953,2.3364 -0.5653,2.8395 -0.3134,4.8694 -0.011,2.0585 2.7477,-1.3803 2.5083,-5.6418 -0.087,-1.5448 -2.1465,2.3802 -2.5618,3.8706 -0.609,2.1855 -0.2605,3.0728 0.2792,4.4778 -0.045,-0.166 -0.1999,-0.6726 -0.1705,-0.8444 0.1679,-0.9822 0.4694,-1.9384 0.6371,-2.9206 0.012,-0.073 -0.1329,0.081 -0.1638,0.148 -0.3696,0.7989 -0.86,1.5681 -1.0293,2.4319 -0.208,1.0608 -0.055,2.1613 -0.083,3.2419 3.4433,-13.6336 -0.9858,1.7487 -0.1502,-2.5517 -0.3927,0.9062 12.4229,6.4588 12.8155,5.5526 l 0,0 c 0.2248,-0.593 1.1135,-2.2367 0.6744,-1.7791 -0.5327,0.5551 -0.7224,1.3654 -0.9748,2.0922 -0.098,0.2816 0.4272,-0.4505 0.5049,-0.7384 0.4104,-1.5229 0.6293,-3.0911 0.9441,-4.6367 -0.5421,5.6458 0.3076,-0.323 -1.0118,4.0302 -0.081,0.2652 0.3875,-0.414 0.4898,-0.6716 1.0519,-2.6483 1.4967,-3.1424 1.2786,-5.3996 -0.051,-0.5271 -0.1795,-1.0438 -0.2693,-1.5657 -0.8357,-2.7051 0.3646,0.8482 -0.2985,2.8157 -0.4621,1.3709 -2.7653,4.9867 -2.466,3.5714 1.4939,-7.0631 3.7215,-3.9478 2.799,-7.9215 -2e-4,1.1546 0.054,1.4343 -0.5295,2.9007 -0.2138,0.5379 -1.456,1.7103 -0.9313,1.4658 0.5885,-0.2743 0.9852,-0.9424 1.1538,-1.5695 1.1978,-4.4554 1.1856,-3.9478 0.3516,-6.4988 0.055,1.1894 0.5373,2.4377 0.1635,3.5681 -0.5122,1.5493 -3.0865,5.6708 -2.6943,4.0869 2.4016,-9.6992 3.4338,-3.2211 3.1121,-7.0457 -0.063,-0.7428 0.06,-0.8673 -0.1209,-0.6568 -0.3984,3.0371 0.1976,-0.4338 -1.1214,3.4469 -0.089,0.2631 0.3896,-0.4202 0.4758,-0.6843 0.4414,-1.3548 0.6412,-2.7812 1.0938,-4.1323 0.3917,-1.1695 -1.0766,6.4083 -1.1586,3.5142 1.4056,-1.9467 -0.226,0.4638 1.616,-4.8353 0.1489,-0.4285 -0.038,0.9166 -0.1729,1.3497 -0.2096,0.6731 -0.6395,1.2639 -0.8497,1.9369 -0.086,0.2751 0.3141,-0.4834 0.4712,-0.7252 0.3281,-1.3113 0.6562,-2.6226 0.9843,-3.9339 -0.079,0.5356 -0.046,1.1003 -0.236,1.607 -0.3103,0.8252 -0.9058,1.5195 -1.2455,2.333 -0.1065,0.2548 0.441,-0.373 0.5352,-0.6326 0.5687,-1.565 0.8877,-3.2121 1.4334,-4.7852 0.091,-0.2614 -0.01,0.5568 -0.06,0.8279 -0.1022,0.4962 -0.2745,0.9755 -0.4117,1.4632 0.3758,-0.6968 2.4391,-4.4949 0.8119,-2.8396 -0.8555,0.8704 -0.646,2.427 -1.4095,3.3791 -0.521,0.6498 -7.9005,5.2042 0.3898,-0.068 0.6297,-1.3516 1.1691,-2.7491 1.8893,-4.0546 0.218,-0.3953 -0.092,0.9429 -0.361,1.3054 -0.3229,0.4351 -0.7153,0.8247 -0.9763,1.2995 -0.3453,0.628 3.8254,-3.8902 1.5719,-1.4666 0.4092,-0.7264 1.8802,-2.6977 1.2276,-2.1789 -1.0446,0.8306 -1.7043,2.0589 -2.4602,3.1588 -0.1054,0.1534 0.6529,-0.3553 0.4825,-0.2807 -0.753,0.3295 -2.9198,1.4978 -2.2327,1.0466 5.4688,-3.5907 2.9134,-0.3158 5.6663,-5.0144 -0.5897,0.9178 -1.2853,1.7757 -1.7689,2.7534 -0.1548,0.3131 1.0657,-0.8914 0.7624,-0.7184 -0.9152,0.522 -2.2567,0.7844 -2.6153,1.7751 -0.306,0.8454 1.6334,-0.7582 2.4108,-1.2101 0.3143,-0.1827 1.1809,-0.8331 0.849,-0.6845 -1.1037,0.4944 -2.1252,1.1549 -3.1878,1.7323 1.3054,-0.695 2.6874,-1.2623 3.9165,-2.0852 0.4224,-0.2827 1.3789,-1.4752 0.9637,-1.1819 -0.8588,0.6067 -1.7913,1.2294 -2.3187,2.1391 -0.5955,1.027 3.4064,-2.4863 2.9408,-1.9077 -0.3125,0.2509 -0.6766,0.4486 -0.9374,0.7529 -0.1087,0.127 0.6113,-0.2703 0.4611,-0.1969 -0.015,0.01 -4.4483,2.0125 0.7165,-0.066 0.4454,-0.1792 0.8331,-0.4853 1.2806,-0.6592 0.2043,-0.079 -0.3614,0.2482 -0.5422,0.3722 0.8963,-0.6659 1.7555,-1.3849 2.6888,-1.9978 0.2146,-0.1409 -0.2686,0.5048 -0.5165,0.5714 -2.2096,0.5936 -5.0706,-0.2063 -6.7249,1.3743 -1.3205,1.2616 3.6808,0.1554 5.4759,-0.181 0.8627,-0.1617 1.5552,-0.8172 2.3028,-1.2771 0.2774,-0.1706 0.5093,-0.4061 0.7639,-0.6093 -1.0388,0.5507 -2.1064,1.0503 -3.1166,1.6521 -0.098,0.059 0.2291,0 0.3437,0 0.1497,0 0.2994,0 0.4491,0 0.6705,0 1.3409,0 2.0114,0 0.096,-4.5435 0.2383,-9.0862 0.2881,-13.6305 5e-4,-0.046 -0.1373,-0.046 -0.1386,0 -0.1317,4.5424 -0.2562,9.0862 -0.2563,13.6305 0,0.085 0.1707,0 0.256,0 1.1585,0 2.317,0 3.4754,0 0.9638,-0.2155 -2.0829,-13.8458 -3.0467,-13.6305 z"
         id="path8006-5-7-3-6"
         style="fill:#4f4c4d;fill-opacity:1;stroke:#4f4c4d;stroke-width:0.64837432;stroke-miterlimit:4;stroke-opacity:1;stroke-dasharray:none;stroke-dashoffset:0" />
      <path
         inkscape:connector-curvature="0"
         d="m 462.06196,386.24862 c -2.1616,2.0241 -0.6776,0.7295 -0.5742,0.4084 0.2803,-0.8703 0.9324,-1.7912 0.6568,-2.663 -0.6827,-2.1599 -2.3604,-3.874 -3.3648,-5.9044 -0.093,-0.1877 0.436,0.1001 0.5721,0.2591 1.1499,1.3427 2.1622,2.7975 3.2433,4.1962 0.2771,4.3589 0.6799,2.7522 -1.0942,6.798 -0.079,0.1797 -0.3908,0.6713 -0.3367,0.4827 0.1426,-0.4969 0.5183,-0.9177 0.6075,-1.4269 0.3236,-1.8473 0.2387,-2.0271 -0.01,-3.2609 -0.4289,2.3685 -0.8579,4.7371 -1.2869,7.1057 -0.3032,0.2893 -1.0988,1.2418 -0.9094,0.868 0.4104,-0.81 1.1837,-1.3997 1.5901,-2.2116 1.2687,-2.534 -0.1364,-3.7701 -1.3155,-6.3208 -0.024,-0.049 -0.099,-0.1934 -0.07,-0.1474 2.7849,4.4175 2.7421,2.8521 2.5112,7.4912 0,0.055 -0.3394,1.7833 -0.1334,0.3295 0.01,-0.1218 -0.1086,-0.3498 0.012,-0.3652 0.099,-0.013 0.1145,2 0.1098,2.2039 -0.01,0.2124 0.01,0.8455 -0.031,0.6367 -0.1716,-0.9101 -0.2456,-1.836 -0.3683,-2.754 0.6377,0.9667 -0.2523,-0.4352 0.8503,2.2999 0.1018,0.2525 -0.3193,-1.0285 -0.1735,-0.7984 0.2276,0.3589 0.2293,0.8253 0.4285,1.2007 0.1429,0.2694 -0.1714,-0.5851 -0.2571,-0.8777 0.2009,0.4498 0.402,0.8995 0.6029,1.3493 -6.6567,-7.6558 -0.1251,-1.2085 -0.5717,-1.5073 -0.8289,-0.5544 -1.3208,-1.6309 -2.2634,-1.9562 -1.4464,-0.4993 -5.918,-1.1324 -4.5728,-0.4033 14.5645,7.8927 4.5863,-0.3016 7.4901,2.1154 -0.5266,-0.422 -2.0852,-1.7133 -1.5798,-1.2661 0.9498,0.8405 1.8838,1.7069 2.914,2.4467 0.27,0.1939 -0.7732,-1.0787 -0.6078,-0.7904 4.8384,8.4315 0.6735,0.8388 0.6126,0.6187 -0.2957,-0.2686 -1.2142,-1.0357 -0.8873,-0.8059 0.8248,0.5801 1.5697,1.2679 2.3861,1.86 0.09,0.065 -0.1006,-0.2097 -0.1934,-0.27 -0.9249,-0.6008 -1.7606,-1.4673 -2.8387,-1.6996 -1.262,-0.272 -5.0445,-0.2687 -3.8645,0.2548 2.3547,1.0448 5.0665,0.9349 7.5998,1.4024 2.5181,2.3846 -0.8735,-0.7537 -0.6641,-0.5552 0.8669,0.8218 1.679,1.7106 2.627,2.4375 0.343,0.263 -0.4527,-0.758 -0.7898,-1.0287 -0.7406,-0.595 -1.476,-1.321 -2.4017,-1.5348 -1.2442,-0.2873 -2.553,0.064 -3.8295,0.096 2.414,0.4635 4.8279,0.927 7.2418,1.3906 0.3609,0.3608 1.4817,1.4003 1.0825,1.0824 -0.5793,-0.4612 -0.9265,-1.2693 -1.6252,-1.5145 -1.4797,-0.5191 -3.0955,-0.5125 -4.6537,-0.6881 -0.08,-0.01 -0.274,0.1351 -0.1941,0.1419 0.2037,0.017 0.4026,-0.071 0.604,-0.1068 1.5457,-0.2989 3.8493,-0.8124 5.096,-0.1766 1.9658,1.0026 2.93,3.4052 4.8303,4.5272 1.6168,0.9547 -2.177,-3.409 -3.9557,-4.0108 -2.9633,-1.0024 -8.5305,1.8662 -4.9002,0.097 2.8384,-0.9511 1.8432,-0.7974 6.317,-0.6711 0.3768,0.011 0.7272,0.201 1.0958,0.2804 0.098,0.021 0.2654,0.1142 0.3002,0.02 0.035,-0.094 -0.14,-0.1767 -0.2403,-0.1819 -1.0384,-0.054 -2.0795,0.01 -3.1192,0.01 1.6836,-0.1318 3.3119,-0.1136 5.0358,-0.1189 0.2699,-9e-4 1.0741,-0.02 0.809,0.031 -5.4567,1.0386 -3.7182,-0.3798 -5.4057,1.1223 0.9291,-0.5616 1.7639,-1.3364 2.732,-1.8044 0.6362,-0.3075 1.1945,-0.8581 1.8952,-0.9495 1.8347,-0.2393 3.7005,-0.015 5.5508,-0.022 -2.5972,0.6786 -5.182,1.4065 -7.7915,2.036 -0.093,0.023 0.1343,-0.1369 0.2017,-0.2051 0.459,-0.4657 0.4058,-0.4119 0.923,-0.9294 0.1915,-0.1915 0.6524,-0.8337 0.5748,-0.5742 -0.1358,0.4546 -0.5083,0.8013 -0.7624,1.2019 0.3989,-0.6356 0.6997,-1.3445 1.1966,-1.9068 0.5457,-0.6177 1.2563,-1.0676 1.8935,-1.5905 0.089,-0.073 -0.1749,0.153 -0.2495,0.2413 -0.4902,0.5802 -0.9554,1.1809 -1.4435,1.7628 -0.033,0.04 0.048,-0.093 0.078,-0.1358 0.6497,-0.894 1.308,-1.7816 1.9619,-2.6724 3.996,-3.2093 0.019,0.4312 -0.1341,0.5326 -0.4473,0.2973 1.2721,-1.6984 1.078,-1.1975 -0.4102,1.0583 -2.4087,3.8453 -1.7468,2.9232 0.7753,-1.0799 1.4994,-2.2058 2.0876,-3.398 0.2923,-0.5925 -0.7948,1.0556 -1.1923,1.5833 0.7513,-0.8477 1.4694,-1.7263 2.2541,-2.5433 0.1042,-0.1084 0.4861,-0.3365 0.3964,-0.2158 -0.5045,0.6792 -2.6252,3.212 -0.7798,0.4869 0.3258,-0.4812 0.71,-0.9201 1.065,-1.3801 0.3236,-0.3162 0.9785,-1.4009 0.9706,-0.9486 -0.01,0.5534 -0.6603,0.8886 -0.9774,1.3423 -0.023,0.033 -0.067,0.146 -0.041,0.1148 0.8887,-1.0657 1.8178,-2.1016 2.6336,-3.2241 0.3361,-0.4624 -0.8555,0.7732 -1.1823,1.2422 0.101,-0.1266 1.2019,-1.526 1.2542,-1.5026 0.3254,0.1446 -0.7785,1.1917 -0.564,0.9074 3.5492,-4.6996 0.4902,-1.1591 0.1193,0.085 -0.3392,1.1386 -0.2157,2.3663 -0.3236,3.5494 -0.211,-0.9648 13.433,-3.9497 13.6441,-2.9848 l 0,0 c -0.2112,5.1065 0.5387,2.9779 -1.6995,6.693 -0.3638,0.6039 1.1837,-2.5133 1.086,-1.8151 -0.1862,1.3304 -1.0454,1.8185 -1.7807,2.6397 -0.6839,0.9045 -2.659,3.5851 -2.16,2.3487 0.4366,-1.0816 1.2551,-1.9724 1.9903,-2.8778 0.2189,-0.2694 -0.2458,0.6536 -0.4254,0.9507 -1.3834,2.2892 -0.8919,2.8058 -1.5267,2.0633 0.083,-0.2889 0.2541,-0.8293 0.075,-0.5256 -0.2215,0.3757 -0.3265,0.8176 -0.5781,1.1739 -0.629,0.8906 -1.3202,1.7387 -2.0509,2.5479 -0.4776,0.5292 -4.2687,1.7697 1.076,-1.8481 -0.5054,0.7069 -1.6496,2.9796 -1.5162,2.1209 0.1791,-1.1534 2.2974,-4.0615 1.6652,-3.0804 -0.7136,1.1075 -1.3241,2.2802 -1.91,3.4603 -0.1528,0.3078 0.867,-1.0583 0.6062,-0.8344 -0.811,0.6964 -1.5033,1.5207 -2.2713,2.2642 -0.2311,0.2238 0.44,-0.4694 0.66,-0.7042 0.4028,-0.7004 0.7513,-1.4349 1.2085,-2.1011 0.2129,-0.31 -0.2634,0.7113 -0.47,1.0255 -0.6219,0.9456 -1.2541,1.8937 -2.006,2.7396 -0.3191,0.3591 -1.2909,1.303 -1.1732,0.8372 0.151,-0.5978 0.9275,-0.8256 1.2954,-1.3204 0.3492,-0.4697 0.5563,-1.03 0.8345,-1.5451 -0.4241,0.7516 -0.8008,1.5321 -1.2725,2.2547 -0.147,0.2254 -0.3809,0.3802 -0.5715,0.5701 -2.7704,2.7619 -2.016,1.8316 -9.1783,3.4229 1.5929,-0.051 3.2048,0.1003 4.7785,-0.1507 0.4573,-0.073 0.7839,-0.4978 1.1404,-0.7932 0.2051,-0.1699 -0.4542,0.5507 -0.683,0.4144 -0.2037,-0.1213 0.6498,-0.6667 0.4379,-0.5604 -0.5405,0.2715 -0.8561,0.8929 -1.4521,1.0877 -2.7719,2.1137 -0.9096,0.9575 -7.2808,2.1817 -0.2113,0.041 -0.8605,0.012 -0.6454,0.01 0.8422,-0.019 1.6847,-0.019 2.5265,-0.048 0.2763,-0.01 -1.5596,-0.115 -0.829,0.02 -1.3237,0.018 -2.648,0.094 -3.9711,0.053 -0.5261,-0.016 -1.0253,-0.3536 -1.5494,-0.3054 -0.072,0.01 0.1004,0.1296 0.172,0.1287 3.615,-0.043 2.6862,0.5608 4.0585,-0.5694 0.9003,-2.3723 -0.8512,2.4072 -6.6254,0.7778 -1.8892,-0.5332 -5.9967,-3.1299 -4.2672,-4.0586 1.7608,-0.9455 2.7586,3.0155 4.5466,3.9086 0.963,0.4809 2.1542,0.031 3.2292,-0.024 0.053,0 0.045,-0.097 0.067,-0.1454 -3.3478,0.3686 -1.4839,1.4876 -7.3148,-0.2902 -0.9231,-0.2814 -1.4998,-1.2199 -2.3047,-1.7524 -0.2464,-0.163 0.4117,0.4243 0.6176,0.6364 2.2319,0.3487 4.4638,0.6972 6.6957,1.0459 -4.5968,0.249 -4.4828,1.0411 -8.0767,-1.3237 -0.534,-0.3514 -1.8654,-1.7233 -1.3178,-1.3934 0.8322,0.5016 2.432,0.979 2.1927,1.9207 -0.174,0.6848 -3.2938,-2.7595 -1.9251,-1.2701 2.3599,0.3513 5.0786,-0.2456 7.0797,1.0537 1.3402,0.8702 -3.1939,0.6862 -4.7733,0.4439 -1.2783,-0.1962 -2.3533,-1.0799 -3.4823,-1.7108 -0.2588,-0.1446 -0.9045,-0.7617 -0.6553,-0.601 0.6237,0.4021 2.3538,0.8521 1.7858,1.3299 -0.5904,0.4968 -1.345,-0.7567 -2.0175,-1.135 -1.2759,-1.0342 -2.0919,-1.5371 -2.7149,-3.5064 -0.3086,-0.976 1.3141,1.6042 1.7202,2.5438 0.2127,0.4919 -1.5795,-1.4286 -1.1193,-1.154 0.147,0.088 6.0539,4.6717 0.1182,0.5 -1.9661,-0.919 4.8315,-0.2176 6.3787,1.3042 1.2962,1.2749 -3.7002,0.1859 -5.4444,-0.327 -1.1192,-0.3289 -1.8108,-1.4815 -2.8016,-2.0974 -0.3508,-0.2181 1.0925,1.2335 0.8611,0.8913 -0.7316,-1.0821 -1.5792,-2.0809 -2.3688,-3.1213 0.069,0.1481 0.2779,0.5918 0.2078,0.4441 -0.2809,-0.5915 -0.5504,-1.1886 -0.8401,-1.7759 -0.049,-0.099 0.1559,0.415 0.1176,0.311 -0.2072,-0.5622 -0.4327,-1.1177 -0.6242,-1.6854 -0.1283,-0.3807 0.369,0.7279 0.435,1.1243 0.04,0.2399 -0.2361,-0.4252 -0.354,-0.6378 -0.292,-1.2296 -0.6103,-2.4533 -0.8761,-3.6888 -0.02,-0.096 0.01,-0.1967 0.02,-0.2939 0.011,-0.081 0.064,0.3476 0.036,0.1116 -0.1588,-1.3694 0.06,1.0529 -0.1614,-1.6752 0.025,-0.4977 0.023,-0.9978 0.077,-1.4932 0.042,-0.3855 0.1281,-0.7653 0.2096,-1.1444 0.015,-0.07 0.071,-0.2705 0.08,-0.1994 0.1037,0.8526 -0.1261,1.7771 0.2085,2.5681 0.5352,1.2651 1.6484,2.2077 2.319,3.4065 0.1412,0.2525 -0.4668,-0.3419 -0.7003,-0.5129 -1.2849,-2.234 -2.8927,-3.6092 -2.7122,-6.0893 0.073,-0.9967 0.1119,-2.033 0.4912,-2.9575 0.4456,-1.0857 1.3026,-1.9529 1.9304,-2.9445 0.1115,-0.1762 -0.3424,0.2916 -0.3804,0.4966 -0.4181,2.2525 -0.6497,4.5357 -0.9744,6.8034 -0.6645,-1.9193 -0.9191,-2.209 -0.5775,-4.8494 0.1071,-0.8276 0.5259,-1.5861 0.8535,-2.3536 0.098,-0.2304 0.4278,-0.875 0.418,-0.6247 -0.2261,5.78 -1.0822,-1.9594 -0.1072,4.5425 6.9751,8.2484 -0.103,0.347 -1.1345,-2.5747 -0.583,-1.6515 1.1116,-4.6653 2.0598,-5.9188 0.5203,-0.6879 1.2,-1.2391 1.8,-1.8586 0.688,-0.7086 10.709,9.0202 10.0211,9.7288 z"
         id="path8052-1-8-4"
         style="fill:#4f4c4d;fill-opacity:1;stroke:#4f4c4d;stroke-width:0.64837432;stroke-miterlimit:4;stroke-opacity:1;stroke-dasharray:none;stroke-dashoffset:0" />
      <path
         inkscape:connector-curvature="0"
         d="m 652.20916,384.76952 c 2.1615,2.0241 0.6775,0.7295 0.5741,0.4084 -0.2802,-0.8703 -0.9323,-1.7912 -0.6568,-2.663 0.6827,-2.1599 2.3604,-3.874 3.3649,-5.9044 0.093,-0.1877 -0.436,0.1 -0.5721,0.2591 -1.15,1.3427 -2.1622,2.7974 -3.2434,4.1962 -0.277,4.3589 -0.6798,2.7522 1.0943,6.798 0.079,0.1797 0.3907,0.6713 0.3366,0.4827 -0.1425,-0.4969 -0.5182,-0.9177 -0.6075,-1.427 -0.3235,-1.8472 -0.2386,-2.027 0.01,-3.2608 0.429,2.3685 0.858,4.7371 1.287,7.1057 0.3031,0.2893 1.0988,1.2417 0.9093,0.868 -0.4104,-0.81 -1.1836,-1.3997 -1.5901,-2.2116 -1.2687,-2.534 0.1365,-3.7701 1.3155,-6.3208 0.024,-0.049 0.1,-0.1934 0.07,-0.1474 -2.7849,4.4175 -2.7421,2.8521 -2.5112,7.4912 0,0.055 0.3393,1.7833 0.1334,0.3295 -0.01,-0.1218 0.1085,-0.3498 -0.012,-0.3653 -0.099,-0.013 -0.1145,2.0001 -0.1098,2.204 0.01,0.2124 -0.01,0.8454 0.031,0.6367 0.1716,-0.9101 0.2455,-1.836 0.3683,-2.754 -0.6377,0.9666 0.2522,-0.4352 -0.8503,2.2998 -0.1018,0.2526 0.3193,-1.0284 0.1734,-0.7983 -0.2275,0.3589 -0.2293,0.8253 -0.4284,1.2007 -0.1429,0.2693 0.1714,-0.5851 0.2571,-0.8777 -0.201,0.4497 -0.402,0.8995 -0.6029,1.3493 6.6567,-7.6558 0.1251,-1.2085 0.5717,-1.5073 0.8289,-0.5544 1.3208,-1.6309 2.2634,-1.9562 1.4464,-0.4993 5.918,-1.1324 4.5727,-0.4033 -14.5644,7.8927 -4.5862,-0.3016 -7.4901,2.1154 0.5267,-0.422 2.0853,-1.7133 1.5799,-1.2661 -0.9498,0.8405 -1.8838,1.7069 -2.914,2.4467 -0.27,0.1939 0.7732,-1.0787 0.6078,-0.7904 -4.8384,8.4315 -0.6735,0.8388 -0.6127,0.6187 0.2958,-0.2686 1.2143,-1.0357 0.8874,-0.8059 -0.8249,0.5801 -1.5697,1.2679 -2.3861,1.86 -0.09,0.065 0.1005,-0.2097 0.1934,-0.27 0.9249,-0.6008 1.7606,-1.4673 2.8387,-1.6996 1.262,-0.272 5.0445,-0.2687 3.8645,0.2548 -2.3547,1.0448 -5.0666,0.9349 -7.5999,1.4024 -2.518,2.3846 0.8736,-0.7538 0.6641,-0.5552 -0.8668,0.8218 -1.679,1.7106 -2.6269,2.4375 -0.343,0.263 0.4526,-0.758 0.7897,-1.0287 0.7407,-0.595 1.476,-1.321 2.4018,-1.5348 1.2441,-0.2873 2.5529,0.064 3.8295,0.096 -2.414,0.4635 -4.8279,0.927 -7.2419,1.3906 -0.3608,0.3608 -1.4817,1.4002 -1.0825,1.0824 0.5793,-0.4612 0.9265,-1.2693 1.6252,-1.5145 1.4798,-0.5191 3.0956,-0.5125 4.6538,-0.6881 0.08,-0.01 0.2739,0.1351 0.1941,0.1419 -0.2037,0.017 -0.4026,-0.071 -0.604,-0.1068 -1.5457,-0.2989 -3.8494,-0.8124 -5.0961,-0.1766 -1.9657,1.0026 -2.93,3.4052 -4.8302,4.5271 -1.6169,0.9548 2.177,-3.4089 3.9557,-4.0107 2.9633,-1.0025 8.5305,1.8662 4.9002,0.097 -2.8384,-0.9511 -1.8432,-0.7974 -6.317,-0.6711 -0.3769,0.011 -0.7272,0.201 -1.0959,0.2804 -0.098,0.021 -0.2654,0.1142 -0.3002,0.02 -0.035,-0.094 0.1401,-0.1767 0.2404,-0.1819 1.0383,-0.054 2.0795,0.01 3.1192,0.01 -1.6837,-0.1318 -3.3119,-0.1137 -5.0359,-0.119 -0.2699,0 -1.074,-0.02 -0.8089,0.031 5.4567,1.0386 3.7182,-0.3799 5.4057,1.1223 -0.9291,-0.5616 -1.7639,-1.3364 -2.7321,-1.8044 -0.6361,-0.3076 -1.1945,-0.8581 -1.8951,-0.9495 -1.8348,-0.2394 -3.7006,-0.015 -5.5508,-0.022 2.5971,0.6786 5.182,1.4065 7.7915,2.036 0.093,0.023 -0.1343,-0.1369 -0.2017,-0.2051 -0.459,-0.4657 -0.4058,-0.4119 -0.9231,-0.9294 -0.1915,-0.1916 -0.6523,-0.8337 -0.5748,-0.5742 0.1359,0.4546 0.5084,0.8013 0.7625,1.2019 -0.3989,-0.6356 -0.6998,-1.3445 -1.1966,-1.9068 -0.5458,-0.6177 -1.2563,-1.0676 -1.8935,-1.5905 -0.09,-0.073 0.1749,0.153 0.2495,0.2413 0.4901,0.5802 0.9554,1.1809 1.4434,1.7628 0.034,0.04 -0.048,-0.093 -0.078,-0.1358 -0.6497,-0.8941 -1.3081,-1.7816 -1.962,-2.6724 -3.9959,-3.2093 -0.019,0.4312 0.1342,0.5326 0.4472,0.2972 -1.2721,-1.6984 -1.078,-1.1975 0.4101,1.0583 2.4087,3.8453 1.7468,2.9232 -0.7753,-1.0799 -1.4995,-2.2059 -2.0877,-3.398 -0.2923,-0.5926 0.7949,1.0555 1.1924,1.5833 -0.7514,-0.8477 -1.4694,-1.7263 -2.2541,-2.5433 -0.1043,-0.1084 -0.4861,-0.3365 -0.3964,-0.2158 0.5044,0.6792 2.6251,3.212 0.7798,0.4868 -0.3259,-0.4811 -0.7101,-0.92 -1.0651,-1.38 -0.3235,-0.3162 -0.9784,-1.4009 -0.9706,-0.9486 0.01,0.5534 0.6604,0.8886 0.9775,1.3423 0.023,0.033 0.067,0.146 0.041,0.1148 -0.8887,-1.0657 -1.8178,-2.1016 -2.6335,-3.2241 -0.3361,-0.4624 0.8554,0.7732 1.1822,1.2421 -0.1009,-0.1265 -1.2019,-1.5259 -1.2541,-1.5025 -0.3254,0.1446 0.7785,1.1917 0.5639,0.9074 -3.5491,-4.6996 -0.4901,-1.1591 -0.1193,0.085 0.3393,1.1385 0.2157,2.3663 0.3236,3.5494 0.2111,-0.9648 -13.433,-3.9497 -13.644,-2.9848 l 0,0 c 0.2112,5.1065 -0.5387,2.9779 1.6994,6.693 0.3639,0.6039 -1.1836,-2.5133 -1.086,-1.8151 0.1862,1.3304 1.0454,1.8185 1.7807,2.6397 0.684,0.9045 2.6591,3.5851 2.16,2.3487 -0.4365,-1.0816 -1.255,-1.9724 -1.9903,-2.8778 -0.2189,-0.2694 0.2459,0.6535 0.4254,0.9507 1.3835,2.2892 0.8919,2.8057 1.5268,2.0633 -0.083,-0.2889 -0.2541,-0.8293 -0.075,-0.5256 0.2216,0.3757 0.3265,0.8176 0.5781,1.1739 0.6291,0.8905 1.3203,1.7387 2.0509,2.5479 0.4777,0.5292 4.2688,1.7696 -1.076,-1.8481 0.5055,0.7069 1.6496,2.9796 1.5163,2.1209 -0.1791,-1.1534 -2.2974,-4.0616 -1.6653,-3.0804 0.7137,1.1075 1.3241,2.2802 1.91,3.4602 0.1529,0.3079 -0.8669,-1.0582 -0.6061,-0.8343 0.811,0.6964 1.5032,1.5206 2.2713,2.2642 0.2311,0.2238 -0.44,-0.4694 -0.66,-0.7042 -0.4029,-0.7004 -0.7513,-1.4349 -1.2086,-2.1011 -0.2128,-0.31 0.2634,0.7113 0.4701,1.0255 0.6219,0.9456 1.254,1.8937 2.006,2.7396 0.3191,0.3591 1.2908,1.303 1.1732,0.8372 -0.1511,-0.5978 -0.9276,-0.8256 -1.2954,-1.3204 -0.3492,-0.4698 -0.5564,-1.03 -0.8346,-1.5451 0.4242,0.7516 0.8008,1.5321 1.2726,2.2547 0.147,0.2254 0.3808,0.3802 0.5714,0.5701 2.7704,2.7618 2.016,1.8316 9.1783,3.4229 -1.5929,-0.051 -3.2047,0.1003 -4.7785,-0.1507 -0.4573,-0.073 -0.7838,-0.4978 -1.1404,-0.7932 -0.2051,-0.1699 0.4543,0.5507 0.6831,0.4144 0.2036,-0.1213 -0.6498,-0.6667 -0.4379,-0.5604 0.5405,0.2714 0.8561,0.8929 1.4521,1.0877 2.7719,2.1137 0.9095,0.9575 7.2807,2.1817 0.2113,0.041 0.8605,0.012 0.6455,0.01 -0.8422,-0.019 -1.6848,-0.019 -2.5266,-0.048 -0.2762,-0.01 1.5597,-0.1151 0.829,0.02 1.3238,0.018 2.648,0.094 3.9712,0.053 0.5261,-0.016 1.0252,-0.3536 1.5494,-0.3054 0.072,0.01 -0.1004,0.1296 -0.172,0.1287 -3.615,-0.043 -2.6862,0.5608 -4.0586,-0.5694 -0.9003,-2.3723 0.8513,2.4072 6.6254,0.7778 1.8893,-0.5332 5.9968,-3.1299 4.2673,-4.0586 -1.7608,-0.9455 -2.7586,3.0155 -4.5466,3.9086 -0.963,0.4809 -2.1542,0.031 -3.2292,-0.025 -0.053,0 -0.045,-0.097 -0.067,-0.1454 3.3477,0.3686 1.4838,1.4876 7.3148,-0.2902 0.923,-0.2814 1.4997,-1.2199 2.3046,-1.7524 0.2465,-0.163 -0.4117,0.4243 -0.6175,0.6364 -2.232,0.3487 -4.4639,0.6972 -6.6957,1.0459 4.5967,0.249 4.4828,1.041 8.0767,-1.3237 0.534,-0.3514 1.8653,-1.7234 1.3178,-1.3934 -0.8322,0.5016 -2.4321,0.9789 -2.1927,1.9207 0.174,0.6848 3.2938,-2.7595 1.9251,-1.2701 -2.36,0.3513 -5.0786,-0.2456 -7.0797,1.0537 -1.3402,0.8702 3.1938,0.6862 4.7733,0.4438 1.2783,-0.1961 2.3533,-1.0798 3.4823,-1.7107 0.2587,-0.1446 0.9044,-0.7617 0.6553,-0.6011 -0.6238,0.4022 -2.3538,0.8521 -1.7859,1.33 0.5905,0.4968 1.345,-0.7567 2.0176,-1.135 1.2758,-1.0342 2.0919,-1.5371 2.7148,-3.5064 0.3087,-0.976 -1.314,1.6042 -1.7202,2.5438 -0.2126,0.4919 1.5796,-1.4286 1.1194,-1.154 -0.1471,0.088 -6.054,4.6716 -0.1182,0.5 1.966,-0.919 -4.8316,-0.2176 -6.3788,1.3042 -1.2961,1.2749 3.7002,0.1859 5.4445,-0.327 1.1192,-0.329 1.8108,-1.4815 2.8015,-2.0974 0.3509,-0.2181 -1.0924,1.2335 -0.861,0.8913 0.7315,-1.0821 1.5792,-2.0809 2.3688,-3.1213 -0.069,0.1481 -0.278,0.5918 -0.2078,0.4441 0.2809,-0.5915 0.5504,-1.1886 0.8401,-1.7759 0.049,-0.099 -0.1559,0.415 -0.1176,0.311 0.2071,-0.5622 0.4326,-1.1177 0.6241,-1.6854 0.1284,-0.3807 -0.3689,0.7279 -0.4349,1.1243 -0.04,0.2399 0.236,-0.4252 0.354,-0.6379 0.292,-1.2295 0.6102,-2.4532 0.876,-3.6887 0.02,-0.096 -0.01,-0.1967 -0.019,-0.2939 -0.012,-0.081 -0.064,0.3476 -0.036,0.1116 0.1588,-1.3694 -0.06,1.0529 0.1614,-1.6752 -0.025,-0.4977 -0.023,-0.9978 -0.077,-1.4932 -0.042,-0.3855 -0.128,-0.7653 -0.2096,-1.1444 -0.015,-0.07 -0.071,-0.2705 -0.08,-0.1994 -0.1038,0.8526 0.1261,1.7771 -0.2086,2.5681 -0.5351,1.2651 -1.6483,2.2077 -2.3189,3.4065 -0.1413,0.2525 0.4668,-0.3419 0.7002,-0.5129 1.2849,-2.234 2.8927,-3.6092 2.7123,-6.0893 -0.073,-0.9967 -0.1119,-2.033 -0.4913,-2.9575 -0.4455,-1.0858 -1.3025,-1.9529 -1.9303,-2.9445 -0.1115,-0.1762 0.3424,0.2916 0.3804,0.4966 0.418,2.2525 0.6496,4.5357 0.9744,6.8034 0.6644,-1.9193 0.9191,-2.209 0.5774,-4.8494 -0.1071,-0.8276 -0.5259,-1.5861 -0.8535,-2.3536 -0.098,-0.2304 -0.4277,-0.8751 -0.418,-0.6247 0.2261,5.78 1.0823,-1.9594 0.1073,4.5425 -6.9751,8.2484 0.103,0.347 1.1344,-2.5747 0.5831,-1.6515 -1.1116,-4.6653 -2.0597,-5.9188 -0.5203,-0.6879 -1.2001,-1.2391 -1.8001,-1.8587 -0.6879,-0.7085 -10.7089,9.0203 -10.021,9.7289 z"
         id="path8052-7-7-5-3"
         style="fill:#4f4c4d;fill-opacity:1;stroke:#4f4c4d;stroke-width:0.64837432;stroke-miterlimit:4;stroke-opacity:1;stroke-dasharray:none;stroke-dashoffset:0" />
      <path
         transform="matrix(0.30427061,0,0,0.31624671,-86.007844,-1251.1074)"
         sodipodi:open="true"
         sodipodi:end="6.2828801"
         sodipodi:start="0"
         d="m 2185.4017,4195.6729 c 0,39.6626 -32.1529,71.8155 -71.8155,71.8155 -39.6626,0 -71.8155,-32.1529 -71.8155,-71.8155 0,-39.6627 32.1529,-71.8156 71.8155,-71.8156 39.654,0 71.8034,32.1396 71.8155,71.7936"
         sodipodi:ry="71.815529"
         sodipodi:rx="71.815529"
         sodipodi:cy="4195.6729"
         sodipodi:cx="2113.5862"
         id="path6718-4-3"
         style="fill:#b5d92a;fill-opacity:1;stroke:#4f4c4d;stroke-width:0.79500002;stroke-miterlimit:4;stroke-opacity:1;stroke-dasharray:none;stroke-dashoffset:0"
         sodipodi:type="arc" />
      <path
         sodipodi:nodetypes="csccccccccccccccccccccccccccccccccsccccccccccccccccccccccccscccccccccccccccscscccccccsccccccccccccccccccccssccccccsccccscccccccccsccccccccccsccc"
         inkscape:connector-curvature="0"
         d="m 568.14066,86.844922 c 0.6272,-1.1247 1.2547,-2.2495 1.8818,-3.374 0.046,-0.083 0.057,-0.2948 0.1388,-0.2486 4.4114,2.4609 8.7551,5.0422 13.0936,7.6296 0.045,0.025 -0.032,0.1604 -0.074,0.1348 -4.3847,-2.509 -8.7176,-5.1071 -13.0764,-7.6608 0.5683,-1.0188 1.1366,-2.0377 1.705,-3.0566 1.8026,-3.0924 0.8555,-3.1547 1.6926,4.1369 -0.4245,-1.6137 -1.5087,-3.1892 -1.2734,-4.8413 0.3138,-2.2062 1.7705,-4.0962 2.8249,-6.0592 0.2012,-0.3791 0.6319,-0.583 0.9159,-0.9048 0.065,-0.075 0.1422,-0.37 0.1226,-0.2722 -1.9558,9.7406 -3.6792,6.6354 -1.2984,10.2429 -2.9381,-7.3834 -1.7805,-1.6802 0.784,-11.2872 0.5402,-2.0234 -1.5169,3.9049 -2.2249,5.876 -0.019,0.05 0.058,0.2008 0.06,0.1477 0.046,-0.8479 -0.2965,-3.3107 0.073,-2.5464 0.6053,1.2495 0.4555,2.7394 0.6833,4.109 -1.4836,-2.2387 -0.2183,-10.2089 -0.4834,-2.4022 -0.015,0.4212 -0.2236,-0.8221 -0.2283,-1.2435 -0.013,-1.0842 -0.5021,-4.0923 0.1777,-3.2477 0.7972,0.991 0.1812,2.5374 0.2717,3.8061 -0.1921,-0.9319 -0.8608,-3.452 -0.7554,-4.0492 0.028,-0.1557 1.739,6.5527 -0.1374,-0.7118 5.9654,11.0367 1.5374,2.6039 -0.013,0.6299 -0.4643,-0.5916 1.0898,2.7964 0.899,2.0689 -0.296,-1.1298 -0.791,-2.1979 -1.2177,-3.285 -0.2516,-0.6409 0.8465,2.6167 0.6921,1.9457 -0.226,-0.9825 -0.6055,-1.923 -0.9082,-2.8847 2.7169,7.0734 -0.1079,-0.2623 -0.159,-0.4795 -0.2192,-0.9292 0.7621,1.753 1.074,2.6554 0.083,0.2388 -0.6069,-0.7704 -0.3828,-0.6539 0.2787,0.145 0.7705,0.9925 0.5697,0.7509 -0.3748,-0.4504 -0.7278,-0.9191 -1.0915,-1.3786 0.06,0.073 0.2371,0.2975 0.1827,0.2194 -1.4776,-2.1224 -1.159,-1.2983 -2.1249,-3.8862 -0.1272,-0.341 0.5684,1.3373 0.4667,0.9877 -0.5532,-1.9025 -2.244,-5.9744 0.045,-0.302 1.0472,0.8891 2.602,1.4036 3.1414,2.6672 0.4504,1.0552 -1.9171,-1.2627 -2.8353,-1.9504 -0.4461,-0.3339 -2.7878,-3.4693 -2.0857,-2.7575 0.5517,0.5592 1.0995,1.1226 1.6491,1.6838 -0.5734,-0.5188 -1.147,-1.0376 -1.7205,-1.5564 -0.018,-0.021 -0.072,-0.079 -0.052,-0.061 3.0457,2.5797 -0.2156,-0.3054 -2.8744,-3.7035 -0.183,-0.2339 -0.1522,-0.5741 -0.2285,-0.861 0.5899,1.0364 1.043,2.1632 1.7691,3.1092 0.393,0.5119 1.9795,1.6507 1.5298,1.1877 -1.0033,-1.0327 -2.1918,-1.8736 -3.1972,-2.9042 -0.238,-0.244 -0.7461,-1.1303 -0.5041,-0.8902 3.5233,3.4977 -0.5549,0.3181 2.536,2.6008 0.01,0.017 0.044,0.058 0.025,0.051 -1.2292,-0.4224 -2.2827,-1.1434 -3.3834,-1.8082 -0.8414,-0.4194 -1.6605,-0.8805 -2.4757,-1.3477 -2.1535,-1.2252 -1.1209,-0.5671 5.7161,0.4917 0.1246,0.016 -0.2096,0.165 -0.3349,0.1727 -1.6207,0.098 -3.2682,0.4107 -4.8693,0.1404 -8.3501,-4.2103 -1.3217,-1.6391 2.3506,-1.0865 0.361,0.054 1.4081,-0.3726 1.0467,-0.3215 -1.5663,0.2204 -3.0943,0.9498 -4.6717,0.8321 -0.3279,-0.024 -8.4808,-3.3038 -1.0751,-0.3439 -8.5107,-2.1051 8.5908,0.3366 0.1478,0.1107 -0.5979,-0.045 7.485,-5.7251 -0.8003,-0.097 2.5406,-4.9899 -0.7089,-3.9026 1.4062,-1.2858 1.5445,-7.8459 -2.0479,2.6917 -2.3435,0.6093 2.6095,-9.6379 0.9709,-2.443 -0.9959,-9.6988 0,-1.0325 -1.5625,-2.962 1.3034,-4.5269 -2.3538,-0.4971 -5.4188,0.7841 -0.563,-0.5774 10.3447,1.3615 0.9298,0.1219 0.732,0.1071 -0.3408,-0.02 -1.3511,0.1532 -1.0101,0.1713 1.6169,0.085 3.2435,0.1626 4.8577,0.033 1.9197,-0.1542 -4.3085,-0.4092 -0.7987,-0.2451 1.1906,0.3917 2.451,0.614 3.5719,1.1747 0.9306,0.465 -1.9525,-0.8799 -2.9928,-0.885 -1.3402,-0.01 -2.5901,0.8057 -3.9295,0.8509 -0.6085,0.021 1.0458,-0.7966 1.6541,-0.7739 6.3997,0.2377 5.4777,-0.2999 7.9672,1.6764 -0.7527,0.3383 1.1763,-0.5146 -2.1137,-0.7867 -1.3593,-0.1121 -2.7178,0.2513 -4.081,0.3005 -0.1171,0 0.1944,-0.168 0.3115,-0.1643 6.6061,0.2101 4.827,-0.7126 7.2197,0.6481 0.9356,0.5376 1.8936,1.0315 2.8344,1.5594 1.2806,0.7941 0.3593,0.3874 2.1511,1.0946 2.9752,1.862 1.6241,0.7149 4.0827,3.6192 0.064,0.076 -0.1209,-0.1608 -0.1977,-0.2245 -0.9272,-0.761 -2.2988,-1.1616 -2.8114,-2.2459 -1.0277,-2.1736 8.84,7.4425 4.8442,5.3447 -1.2346,-2.078 3.3392,5.5834 -4.0532,-4.2413 -0.3344,-0.4443 1.0111,0.4725 1.478,0.7745 0.5373,0.3476 1.0355,0.7545 1.5245,1.1673 0.2346,0.1971 0.9299,0.761 0.6405,0.6598 -0.4314,-0.1515 -0.733,-0.5469 -1.0996,-0.8204 0.8024,0.7315 1.6582,1.4086 2.4074,2.1949 0.2784,0.2923 1.0105,0.8284 0.6546,1.0195 -0.3711,0.199 -0.5879,-0.6034 -0.897,-0.8895 -0.1166,-0.1076 0.4629,0.4188 0.3182,0.3539 -0.6933,-0.3097 -2.5381,-1.6311 -1.9937,-1.1014 1.172,1.1342 2.6016,1.9678 3.9025,2.9519 0.4537,1.0618 0.9535,2.1053 1.3614,3.1856 0.3001,0.7944 -0.8948,-1.4896 -1.0372,-2.3267 -0.1227,-0.7229 0.7407,1.2772 0.977,1.9714 0.1168,0.3436 -0.3842,-0.6177 -0.6122,-0.8998 -0.2019,-0.25 -0.8537,-0.956 -0.673,-0.6902 0.2722,0.4001 0.6336,0.732 0.9503,1.0979 -0.975,-0.6718 -0.1623,-0.1527 1.1329,1.483 0.085,0.1076 0.1308,0.2409 0.1866,0.366 0.4833,1.0826 1.0293,2.1406 1.4302,3.2563 0.313,0.871 -1.4103,-3.4133 -1.1658,-2.5206 0.3157,1.1533 0.9214,2.2068 1.3822,3.3102 -2.3524,-5.6273 0.2114,0.4472 0.1487,0.5774 -0.3885,0.8079 -1.4706,-3.2662 -1.1704,-2.4213 0.3373,0.9492 2.0658,3.3705 1.2825,2.7368 -1.2152,-0.9833 -3.0852,-5.3635 -2.6671,-3.8572 0.5488,1.9773 2.0511,3.5547 3.0764,5.3322 -1.7175,-5.3786 -0.011,-0.07 0.1087,0.4832 0.083,0.389 -0.158,-1.3454 -0.4687,-1.0972 -0.3234,0.2585 0.2451,0.7909 0.3517,1.1907 0.09,0.3407 0.2242,0.6777 0.2407,1.0299 0.01,0.1695 -0.1429,-0.3077 -0.2143,-0.4614 0.1476,1.4982 0.2427,3.0023 0.4423,4.4944 0.107,0.7995 -0.1092,-1.6097 -0.1637,-2.4146 -0.067,-0.1719 -0.2052,-0.7001 -0.2009,-0.5157 0.1457,6.3236 0.614,4.3053 -0.1107,0.7445 -0.068,-0.3339 -0.3038,-0.61 -0.4556,-0.9149 0.3164,1.5905 0.5513,3.1995 0.9491,4.7718 0.1427,0.5639 -0.1086,-1.1588 -0.1812,-1.7361 -0.037,-0.2921 0.1562,0.5977 0.073,0.8803 -0.6558,2.2395 -1.0701,4.6206 -2.2701,6.6221 -1.6551,2.7597 5.3626,-10.4989 0.1835,-9.6526 2.918,4.2289 1.5847,1.5184 -0.5621,11.5196 -0.065,0.3068 -0.4491,0.4414 -0.6379,0.6921 -0.016,0.027 0.045,0.1081 0.058,0.078 0.7513,-1.7067 2.0232,-3.2952 2.1761,-5.1537 0.1183,-1.4394 -0.9437,-2.7299 -1.4155,-4.0948 1.4897,2.4384 0.7229,1.0064 1.3639,7.2101 0.02,0.1836 -0.9085,1.5023 -1.0097,1.8103 -0.5684,1.019 -1.1367,2.0379 -1.7051,3.0568 -4.463,-2.3672 -8.9499,-4.689 -13.3885,-7.1013 -0.045,-0.024 0.03,-0.1585 0.074,-0.1346 4.481,2.332 8.9594,4.6714 13.3712,7.1322 0.083,0.046 -0.093,0.1657 -0.1386,0.2485 -0.6274,1.1246 -1.2546,2.2493 -1.8819,3.374 -0.3128,1.0523 -15.1952,-3.3708 -14.8824,-4.4233 z"
         id="path8159-4-7-6"
         style="fill:#4f4c4d;fill-opacity:1;stroke:#4f4c4d;stroke-width:0.72074443;stroke-miterlimit:4;stroke-opacity:1;stroke-dasharray:none;stroke-dashoffset:0" />
      <path
         sodipodi:nodetypes="csccccccccccccccccccccccccccccccccsccccccccccccccccccccccccscccccccccccccccscscccccccsccccccccccccccccccccssccccccsccccscccccccccsccccccccccsccc"
         inkscape:connector-curvature="0"
         d="m 563.15466,61.132022 c -1.2528,-0.2977 -2.5057,-0.5954 -3.7586,-0.8928 -0.093,-0.021 -0.299,0.026 -0.2769,-0.066 1.1676,-4.9147 2.4696,-9.7968 3.779,-14.6758 0.012,-0.05 0.1626,-0.014 0.1497,0.034 -1.2213,4.9019 -2.5423,9.7784 -3.8135,14.6675 -1.1349,-0.2695 -2.2703,-0.5391 -3.4053,-0.809 -3.4663,-0.8931 -3.2685,0.035 3.5203,-2.7543 -1.4373,0.8475 -2.6585,2.3196 -4.3121,2.5428 -2.2085,0.2984 -4.4234,-0.5892 -6.5993,-1.0697 -0.4197,-0.09 -0.7331,-0.4495 -1.1199,-0.6352 -0.089,-0.043 -0.3947,-0.036 -0.2954,-0.044 9.9054,-0.7684 7.3862,1.7349 10.2098,-1.5377 -6.3054,4.8363 -1.1323,2.1705 -11.0747,2.3168 -2.094,0.032 4.1704,0.3971 6.2598,0.5422 0.053,0 0.1773,-0.1105 0.1256,-0.099 -0.829,0.185 -3.1054,1.1861 -2.4705,0.6222 1.0379,-0.9224 2.5122,-1.1837 3.7682,-1.7755 -1.7506,2.0367 -9.7645,2.9879 -2.1801,1.1187 0.4092,-0.101 -0.7304,0.4388 -1.1346,0.558 -1.0405,0.3048 -3.8011,1.5967 -3.1735,0.7127 0.7368,-1.0367 2.3924,-0.8647 3.5887,-1.2972 -0.8446,0.4386 -3.0876,1.7678 -3.6911,1.829 -0.1575,0.015 5.8325,-3.4563 -0.6474,0.3258 8.997,-8.7435 2.0872,-2.1879 0.6097,-0.1587 -0.4429,0.6076 2.3943,-1.8095 1.7462,-1.4282 -1.0066,0.5924 -1.8997,1.3595 -2.8297,2.0657 -0.5482,0.4163 2.2878,-1.5266 1.684,-1.1954 -0.8839,0.4848 -1.6857,1.106 -2.5288,1.6589 6.0672,-4.5392 -0.2229,0.1751 -0.418,0.2835 -0.8345,0.4638 1.4795,-1.2105 2.2628,-1.756 0.2076,-0.144 -0.5762,0.7935 -0.525,0.5462 0.063,-0.3077 0.7456,-1.0116 0.5676,-0.7525 -0.3315,0.4832 -0.6864,0.9503 -1.0297,1.4254 0.055,-0.078 0.2218,-0.3091 0.1615,-0.2354 -1.6404,1.9992 -0.934,1.4684 -3.1615,3.102 -0.2934,0.2153 1.1321,-0.9108 0.8235,-0.7178 -1.6801,1.05 -5.1384,3.7849 -0.3029,0.039 0.5707,-1.2496 0.6427,-2.8858 1.7118,-3.7487 0.8928,-0.7205 -0.6936,2.1883 -1.1052,3.2591 -0.1999,0.5201 -2.58,3.6266 -2.086,2.7573 0.388,-0.683 0.781,-1.3635 1.1715,-2.0452 -0.3431,0.6931 -0.6864,1.3862 -1.0296,2.0792 -0.016,0.022 -0.057,0.09 -0.045,0.066 1.6537,-3.6327 -0.2351,0.2906 -2.7817,3.7736 -0.1752,0.2398 -0.5111,0.3029 -0.7663,0.4542 0.8368,-0.8495 1.7979,-1.5922 2.5106,-2.5482 0.3856,-0.5176 1.0497,-2.3542 0.7266,-1.7954 -0.7208,1.2465 -1.2064,2.6189 -1.9247,3.8667 -0.1701,0.2956 -0.8846,1.0255 -0.7194,0.7274 2.407,-4.342 0.457,0.4475 1.8126,-3.1479 0.013,-0.014 0.043,-0.058 0.043,-0.038 -0.072,1.2977 -0.4793,2.5077 -0.8193,3.7478 -0.1747,0.9238 -0.3956,1.8374 -0.6233,2.7491 -0.5929,2.4056 -0.2407,1.2329 -1.0821,-5.6343 -0.019,-0.1241 0.2158,0.1568 0.2573,0.2752 0.5348,1.5331 1.2845,3.0332 1.46,4.6474 -1.7795,9.1807 -1.2176,1.7179 -1.685,-1.9662 -0.046,-0.3622 -0.7418,-1.2537 -0.5943,-0.9198 0.6384,1.4472 1.756,2.7193 2.0718,4.269 0.066,0.3221 -0.8714,9.06 -0.038,1.1282 0.2901,8.7624 -2.0137,-8.3582 0.066,-0.1723 0.1182,0.5877 -7.5458,-5.6448 0.1242,0.7966 -5.4928,-1.0869 -3.5625,1.7439 -1.6199,-1.0034 -7.97,0.6486 3.1474,1.2382 1.224,2.0893 -9.9843,0.1114 -2.615,-0.2695 -9.0619,3.5973 -0.9937,0.2806 -2.4251,2.3097 -4.7108,-0.022 0.1623,2.4005 2.229,5.0013 -0.4024,0.6992 -1.5047,-10.3249 -0.1357,-0.928 -0.097,-0.7337 0.075,0.3332 0.515,1.2586 0.4397,0.9254 -0.3571,-1.5792 -0.7261,-3.1655 -1.2892,-4.6835 -0.6708,-1.8054 0.7784,4.2572 -0.019,0.8352 0.053,-1.2523 -0.076,-2.5256 0.1584,-3.7568 0.1943,-1.022 -0.3155,2.1183 -0.037,3.1208 0.3558,1.2921 1.4802,2.273 1.8883,3.5496 0.1857,0.5797 -1.0514,-0.7896 -1.1951,-1.3812 -1.5126,-6.2229 -1.779,-5.1893 -0.5546,-8.1226 0.5303,0.6323 -0.8153,-0.9919 -0.1819,2.248 0.262,1.3387 0.9814,2.547 1.3995,3.8452 0.034,0.1125 -0.2144,-0.1413 -0.2427,-0.255 -1.5954,-6.4141 -1.9993,-4.4511 -1.3409,-7.1236 0.2627,-1.0466 0.4773,-2.1029 0.7292,-3.1518 0.4157,-1.4483 0.2752,-0.4511 0.468,-2.3676 0.9824,-3.3699 0.2462,-1.7575 2.3718,-4.9137 0.057,-0.083 -0.1218,0.1602 -0.1621,0.2514 -0.4801,1.0993 -0.4924,2.5281 -1.3963,3.3165 -1.8121,1.5803 4.7564,-10.5317 3.8248,-6.1157 -1.6635,1.7534 4.4643,-4.7325 -2.9783,5.0542 -0.3365,0.4427 0.1796,-1.1013 0.3433,-1.6329 0.1882,-0.6117 0.4442,-1.2018 0.7083,-1.7847 0.126,-0.2794 0.4794,-1.1018 0.4607,-0.7958 -0.028,0.4563 -0.327,0.8541 -0.4903,1.2813 0.4855,-0.9711 0.9042,-1.979 1.457,-2.9138 0.2055,-0.3475 0.5224,-1.1976 0.8029,-0.9072 0.2926,0.3029 -0.4207,0.7299 -0.6118,1.1051 -0.073,0.1414 0.277,-0.5593 0.254,-0.4024 -0.1095,0.7514 -0.8791,2.8861 -0.5177,2.218 0.7728,-1.4363 1.1859,-3.0388 1.7788,-4.5583 0.8983,-0.7256 1.7665,-1.4905 2.6951,-2.1768 0.6827,-0.505 -1.1899,1.2663 -1.9566,1.631 -0.6623,0.3147 1.0274,-1.0602 1.6311,-1.4766 0.2989,-0.2057 -0.4899,0.5379 -0.6994,0.8341 -0.1855,0.2623 -0.6875,1.0815 -0.481,0.8354 0.3111,-0.3709 0.532,-0.809 0.798,-1.2133 -0.3811,1.121 -0.1031,0.1978 1.1187,-1.4936 0.081,-0.1114 0.1963,-0.1914 0.3014,-0.2791 0.9103,-0.7597 1.7797,-1.5731 2.7443,-2.2624 0.7531,-0.5382 -2.9007,2.286 -2.1081,1.8076 1.0238,-0.6176 1.8727,-1.4869 2.8091,-2.2305 -4.7749,3.7946 0.3727,-0.3251 0.5152,-0.3003 0.8832,0.1539 -2.7427,2.3038 -2.0117,1.785 0.8218,-0.5827 2.6815,-2.9049 2.2848,-1.9788 -0.6156,1.437 -4.3216,4.4283 -2.986,3.6162 1.7534,-1.0661 2.8625,-2.9411 4.2938,-4.4114 -4.7083,3.1163 -0.063,0.029 0.4354,-0.236 0.3517,-0.186 -1.2516,0.518 -0.9281,0.7494 0.3367,0.2411 0.6943,-0.4509 1.0501,-0.6622 0.3029,-0.1804 0.591,-0.4002 0.9253,-0.5118 0.1605,-0.057 -0.2569,0.221 -0.3855,0.3315 1.4015,-0.5496 2.823,-1.0503 4.2044,-1.6485 0.7402,-0.3205 -1.5193,0.5432 -2.2789,0.8147 -0.1473,0.1111 -0.6177,0.3879 -0.4416,0.3336 6.0453,-1.8609 3.9758,-1.7623 0.7465,-0.097 -0.3027,0.1567 -0.5042,0.4584 -0.7565,0.6873 1.4446,-0.7371 2.9289,-1.4011 4.3337,-2.2117 0.5038,-0.2907 -1.0856,0.42 -1.6213,0.6467 -0.2709,0.1152 0.5326,-0.3128 0.827,-0.3102 2.3334,0.021 4.7375,-0.2276 6.99,0.3827 3.1059,0.8416 -11.562,-2.3035 -9.3384,2.4497 3.2754,-3.9584 1.03,-1.9381 11.238,-2.5935 0.3128,-0.021 0.547,0.3121 0.8395,0.4254 0.032,0.011 0.092,-0.073 0.059,-0.077 -1.8468,-0.2584 -3.7215,-1.0501 -5.5517,-0.6915 -1.4171,0.2777 -2.37,1.6507 -3.5551,2.4762 1.9411,-2.097 0.7719,-0.9696 6.5671,-3.2745 0.1715,-0.068 1.6928,0.4657 2.0168,0.4792 1.135,0.2697 2.2702,0.5394 3.4054,0.8089 -1.0635,4.9388 -2.0769,9.8882 -3.1904,14.8157 -0.01,0.051 -0.1605,0.015 -0.1498,-0.034 1.0248,-4.9465 2.0574,-9.8925 3.2249,-14.8074 0.021,-0.093 0.1845,0.044 0.2769,0.066 1.2528,0.2977 2.5059,0.5952 3.7587,0.8929 1.0976,0.015 0.891,15.539 -0.2069,15.5245 z"
         id="path8159-4-5-6-0"
         style="fill:#4f4c4d;fill-opacity:1;stroke:#4f4c4d;stroke-width:0.72074443;stroke-miterlimit:4;stroke-opacity:1;stroke-dasharray:none;stroke-dashoffset:0" />
      <path
         sodipodi:nodetypes="csccccccccccccccccccccccccccccccccsccccccccccccccccccccccccscccccccccccccccscscccccccsccccccccccccccccccccssccccccsccccscccccccccsccccccccccsccc"
         inkscape:connector-curvature="0"
         d="m 545.88876,63.294422 c -0.7506,1.0464 -1.5016,2.0928 -2.252,3.1389 -0.056,0.077 -0.088,0.2865 -0.1661,0.2313 -4.1041,-2.945 -8.1273,-6.0019 -12.1447,-9.0644 -0.042,-0.032 0.048,-0.1557 0.088,-0.1255 4.0721,2.9899 8.0828,6.0622 12.124,9.0934 -0.68,0.9478 -1.3603,1.8958 -2.0403,2.8437 -2.1417,2.8681 -1.2077,3.0374 -1.2129,-4.3021 0.2388,1.6516 1.1374,3.3397 0.7164,4.9545 -0.5618,2.1565 -2.2232,3.869 -3.4934,5.7001 -0.2428,0.3538 -0.694,0.5076 -1.0125,0.7949 -0.073,0.067 -0.1832,0.3516 -0.1527,0.2568 3.0471,-9.4562 4.4076,-6.1757 2.451,-10.0298 2.0824,7.6688 1.5785,1.8712 -2.0582,11.1255 -0.766,1.9493 1.9497,-3.7079 2.8765,-5.5859 0.023,-0.046 -0.035,-0.2061 -0.044,-0.1537 -0.1429,0.8371 -0.081,3.323 -0.3616,2.5216 -0.4597,-1.31 -0.142,-2.7731 -0.2131,-4.1599 1.2201,2.3924 -0.9402,10.168 0.2081,2.4415 0.062,-0.4168 0.1288,0.8422 0.085,1.2615 -0.1103,1.0786 0.035,4.1229 -0.5446,3.2065 -0.6798,-1.0749 0.1076,-2.5415 0.1613,-3.8123 0.085,0.9477 0.4641,3.5273 0.2919,4.1087 -0.046,0.1516 -0.9852,-6.7076 0.056,0.7227 -4.6762,-11.6415 -1.2324,-2.7612 0.084,-0.6242 0.3944,0.6403 -0.7658,-2.9019 -0.6588,-2.1576 0.1662,1.156 0.537,2.2734 0.8378,3.4019 0.1771,0.6653 -0.5446,-2.6959 -0.4673,-2.0116 0.1132,1.0016 0.3836,1.9792 0.5755,2.969 -1.8978,-7.3356 0.077,0.2728 0.1041,0.4944 0.1124,0.9481 -0.5587,-1.8281 -0.7663,-2.76 -0.056,-0.2466 0.5158,0.8342 0.3064,0.6931 -0.2606,-0.1757 -0.6531,-1.0736 -0.481,-0.8107 0.3214,0.4901 0.6189,0.9957 0.9282,1.4934 -0.052,-0.08 -0.2017,-0.3224 -0.1566,-0.2387 1.2276,2.2762 1.0043,1.4215 1.6708,4.102 0.087,0.3534 -0.4132,-1.393 -0.3518,-1.0341 0.334,1.9528 1.5524,6.1903 -0.08,0.2948 -0.9396,-1.002 -2.4262,-1.6894 -2.8189,-3.0061 -0.3279,-1.0993 1.7617,1.4721 2.5961,2.2592 0.4054,0.3823 2.3765,3.763 1.7597,2.9764 -0.4849,-0.6184 -0.9652,-1.2402 -1.4479,-1.86 0.5111,0.5804 1.0222,1.1608 1.5331,1.7414 0.015,0.022 0.062,0.086 0.045,0.067 -2.7337,-2.9083 0.1796,0.3279 2.4361,4.0054 0.1554,0.2531 0.085,0.5877 0.1295,0.8814 -0.4687,-1.0966 -0.7911,-2.2676 -1.4052,-3.2897 -0.3325,-0.5533 -1.7799,-1.8644 -1.3854,-1.3535 0.8797,1.1399 1.9653,2.11 2.8473,3.2479 0.2089,0.2695 0.6132,1.2076 0.4001,0.9415 -3.1043,-3.8743 0.5874,-0.253 -2.2248,-2.8713 -0.011,-0.018 -0.037,-0.061 -0.02,-0.055 1.1733,0.5591 2.1383,1.395 3.1566,2.1801 0.7885,0.5121 1.5499,1.063 2.3071,1.6197 2.0008,1.4612 1.0494,0.6905 -5.6236,-1.1366 -0.122,-0.029 0.2269,-0.1401 0.3522,-0.1334 1.6215,0.086 3.2938,-0.038 4.854,0.4122 7.8192,5.1295 1.1274,1.7784 -2.4586,0.8131 -0.3527,-0.095 -1.4413,0.2106 -1.0764,0.2009 1.5811,-0.042 3.1821,-0.5931 4.7359,-0.2973 0.323,0.061 8.0518,4.2436 1.0292,0.4635 8.2173,3.056 -8.4973,-1.308 -0.1343,-0.1268 0.5887,0.1138 -8.0856,4.8401 0.7842,0.1875 -3.0896,4.6696 0.2619,3.9576 -1.5428,1.118 -2.4239,7.6204 2.3395,-2.4423 2.3973,-0.3398 -3.6848,9.280098 -1.2416,2.3172 -0.1097,9.749298 -0.1169,1.0257 1.2168,3.12 -1.8081,4.3499 2.2824,0.7606 5.4729,-0.1648 0.494,0.6376 -10.1237,-2.5251 -0.91,-0.2266 -0.7151,-0.1894 0.3365,0.058 1.3599,0 1.0231,-0.056 -1.5969,-0.2688 -3.2044,-0.5291 -4.8226,-0.5837 -1.925,-0.064 4.2343,0.8948 0.7657,0.3339 -1.1386,-0.524 -2.3657,-0.8877 -3.4158,-1.572 -0.8718,-0.5675 1.8402,1.0957 2.8733,1.2186 1.3304,0.1609 2.6645,-0.507 4.0005,-0.4003 0.607,0.047 -1.1293,0.6731 -1.7312,0.5816 -6.3315,-0.9614 -5.4762,-0.3228 -7.7259,-2.5685 0.7863,-0.2507 -1.2269,0.378 2.011,1.0211 1.3379,0.2656 2.7288,0.059 4.0887,0.1639 0.1166,0.014 -0.2121,0.1449 -0.328,0.128 -6.5398,-0.9574 -4.8767,0.161 -7.0997,-1.4622 -0.8686,-0.6399 -1.7646,-1.2393 -2.6395,-1.8704 -1.1823,-0.934198 -0.3129,-0.425698 -2.0131,-1.331398 -2.7451,-2.1872 -1.5328,-0.8944 -3.6464,-4.0586 -0.056,-0.083 0.1021,0.1736 0.1711,0.2454 0.835,0.8612 2.1522,1.4147 2.5388,2.5501 0.7748,2.276098 -7.9397,-8.3964 -4.2072,-5.8591 0.9911,2.2045 -2.685,-5.926 3.5462,4.6732 0.2819,0.4793 -0.9508,-0.5841 -1.3806,-0.9371 -0.4944,-0.4063 -0.9432,-0.867 -1.3824,-1.3324 -0.2107,-0.2226 -0.8376,-0.8616 -0.5616,-0.7282 0.4114,0.1993 0.6662,0.6265 0.9995,0.9397 -0.7142,-0.8177 -1.4879,-1.5874 -2.1431,-2.4536 -0.2434,-0.322 -0.91,-0.9377 -0.5348,-1.087 0.3913,-0.1558 0.5156,0.6662 0.7905,0.9854 0.1041,0.12 -0.4125,-0.4685 -0.276,-0.3878 0.6535,0.3865 2.3367,1.9083 1.8558,1.3204 -1.0359,-1.2598 -2.3618,-2.2501 -3.5428,-3.3752 -0.3305,-1.1063 -0.7086,-2.1998 -0.9916,-3.3193 -0.2081,-0.8234 0.7203,1.5811 0.7668,2.429 0.04,0.7322 -0.5912,-1.3527 -0.7472,-2.0694 -0.077,-0.3545 0.3117,0.6573 0.5064,0.9635 0.1722,0.2712 0.7396,1.0466 0.5903,0.7621 -0.2249,-0.4285 -0.5465,-0.7991 -0.8198,-1.1986 0.8926,0.778 0.144,0.1701 -0.9575,-1.6018 -0.073,-0.1165 -0.102,-0.2542 -0.1439,-0.3847 -0.3575,-1.1305 -0.7801,-2.2434 -1.0519,-3.3974 -0.2123,-0.901 1.0143,3.5511 0.8726,2.6362 -0.183,-1.1815 -0.6653,-2.2969 -0.9981,-3.4454 1.6994,5.8576 -0.1593,-0.4682 -0.083,-0.5905 0.4775,-0.7588 1.091,3.4117 0.8884,2.5384 -0.2276,-0.9814 -1.6705,-3.583 -0.964,-2.8646 1.096,1.1148 2.4575,5.6787 2.2128,4.1346 -0.3213,-2.0268 -1.6352,-3.7642 -2.4525,-5.6464 1.097,5.5386 0,0.07 -0.054,-0.4924 -0.039,-0.396 0,1.3546 0.3413,1.1432 0.3508,-0.2202 -0.1539,-0.8135 -0.2144,-1.2229 -0.052,-0.3488 -0.146,-0.6988 -0.1225,-1.0505 0.01,-0.1695 0.1071,0.3218 0.1606,0.4826 0.023,-1.5053 0.099,-3.0105 0.07,-4.5154 -0.016,-0.8066 -0.073,1.6116 -0.1109,2.4175 0.046,0.1784 0.1245,0.7188 0.1411,0.5352 0.5718,-6.2995 -0.1221,-4.3472 0.1943,-0.7272 0.031,0.3395 0.2328,0.6405 0.349,0.9608 -0.134,-1.6162 -0.1851,-3.2416 -0.4022,-4.8487 -0.078,-0.5767 -0.023,1.1635 -0.018,1.7453 0,0.2945 -0.087,-0.6115 0.027,-0.8829 0.9054,-2.1507 1.5869,-4.4696 3.0061,-6.3221 1.9572,-2.5544 -6.518,9.8235 -1.2764,9.5696 -2.4199,-4.5323 -1.4024,-1.6882 1.864,-11.3817 0.1,-0.2974 0.4963,-0.3877 0.7123,-0.6155 0.019,-0.025 -0.032,-0.1123 -0.048,-0.084 -0.9399,1.6107 -2.3836,3.0447 -2.7462,4.874 -0.2807,1.4168 0.6281,2.8193 0.9422,4.229 -1.2037,-2.5916 -0.6041,-1.0821 -0.538,-7.3184 0,-0.1846 1.0731,-1.3897 1.2084,-1.6842 0.6803,-0.9479 1.3604,-1.8959 2.0406,-2.8438 4.1659,2.8576 8.361,5.6729 12.4975,8.5728 0.043,0.03 -0.046,0.1542 -0.088,0.1253 -4.1879,-2.8247 -8.3724,-5.6567 -12.4769,-8.6015 -0.077,-0.056 0.1106,-0.1543 0.1661,-0.2313 0.7506,-1.0462 1.5014,-2.0927 2.252,-3.1389 0.43,-1.01 14.7153,5.0711 14.2852,6.0813 z"
         id="path8159-4-2-3-4"
         style="fill:#4f4c4d;fill-opacity:1;stroke:#4f4c4d;stroke-width:0.72074443;stroke-miterlimit:4;stroke-opacity:1;stroke-dasharray:none;stroke-dashoffset:0" />
      <path
         sodipodi:nodetypes="csccccccccccccccccccccccccccccccccsccccccccccccccccccccccccscccccccccccccccscscccccccsccccccccccccccccccccssccccccsccccscccccccccsccccccccccsccc"
         inkscape:connector-curvature="0"
         d="m 546.72396,90.213122 c 1.1511,0.4159 2.3021,0.8321 3.4531,1.2478 0.085,0.03 0.2851,0.01 0.2542,0.092 -1.6318,4.5149 -3.3871,8.984598 -5.149,13.450598 -0.017,0.046 -0.1549,-0.01 -0.1376,-0.048 1.6812,-4.4971 3.4538,-8.959398 5.1807,-13.438898 1.0427,0.3767 2.0856,0.7535 3.1283,1.1306 3.1768,1.2167 3.09,0.3186 -3.6207,2.2216 1.4486,-0.6454 2.7601,-1.9038 4.3456,-1.9365 2.1175,-0.044 4.1134,1.0328 6.1162,1.7207 0.3864,0.1308 0.6437,0.5035 0.989,0.7205 0.081,0.05 0.3688,0.077 0.2741,0.073 -9.4358,-0.3413 -6.7873,-2.4337 -9.8061,0.3523 6.4747,-3.8876 1.303,-1.9275 10.7067,-0.9947 1.9806,0.1964 -3.895,-0.8242 -5.8523,-1.1863 -0.05,-0.01 -0.1794,0.085 -0.1292,0.081 0.8026,-0.085 3.0599,-0.7855 2.3997,-0.3214 -1.0793,0.7592 -2.4996,0.847 -3.7492,1.2707 1.8722,-1.7346 9.5418,-1.7696 2.1789,-0.8216 -0.3972,0.051 0.737,-0.3357 1.1314,-0.4047 1.0155,-0.1757 3.7613,-1.0983 3.0733,-0.3312 -0.8072,0.8997 -2.352,0.5589 -3.5282,0.8384 0.8446,-0.3232 3.1058,-1.3366 3.6822,-1.3295 0.1503,0 -5.8795,2.6355 0.6464,-0.2377 -9.4371,7.2868 -2.2065,1.841 -0.5927,0.084 0.4836,-0.5261 -2.4558,1.4508 -1.8027,1.1605 1.0143,-0.4509 1.9402,-1.079 2.8943,-1.6458 0.5626,-0.3341 -2.3245,1.1952 -1.7187,0.9474 0.8868,-0.3626 1.7109,-0.8627 2.5664,-1.2941 -6.2178,3.6327 0.2295,-0.1413 0.4253,-0.2226 0.838,-0.3481 -1.5275,0.9836 -2.3258,1.4145 -0.2114,0.1135 0.6295,-0.6874 0.5545,-0.4594 -0.093,0.2838 -0.8128,0.875 -0.617,0.6494 0.3651,-0.4206 0.7506,-0.8234 1.1257,-1.2349 -0.059,0.069 -0.2427,0.2679 -0.1777,0.2048 1.7642,-1.711 1.0401,-1.286 3.3193,-2.5884 0.3003,-0.1717 -1.167,0.7379 -0.8548,0.5889 1.6995,-0.8105 5.2595,-3.0204 0.2902,0 -0.6735,1.1185 -0.9177,2.6556 -2.0202,3.3553 -0.9206,0.5842 0.8906,-1.9916 1.3947,-2.9582 0.2447,-0.4697 2.8268,-3.1466 2.2668,-2.379 -0.4401,0.6032 -0.8845,1.2033 -1.3266,1.805 0.3987,-0.6174 0.7973,-1.2349 1.1961,-1.8524 0.018,-0.019 0.063,-0.079 0.05,-0.057 -1.9528,3.252 0.2534,-0.2493 3.033,-3.2638 0.1912,-0.2076 0.5151,-0.2309 0.7725,-0.3463 -0.8817,0.712 -1.8691,1.3098 -2.645,2.1357 -0.4199,0.4473 -1.2448,2.1098 -0.8795,1.6171 0.8148,-1.0993 1.4212,-2.3429 2.2339,-3.4438 0.1923,-0.2608 0.9456,-0.8732 0.7575,-0.6093 -2.7404,3.8405 -0.3833,-0.4718 -2.0505,2.7771 -0.014,0.011 -0.046,0.049 -0.044,0.032 0.2074,-1.2177 0.7227,-2.3163 1.1774,-3.4506 0.2645,-0.8535 0.5714,-1.6924 0.8846,-2.5288 0.8189,-2.2075 0.3601,-1.1381 0.4149,5.4368 0.01,0.1191 -0.1868,-0.1713 -0.2131,-0.2876 -0.34,-1.5052 -0.8863,-3.0024 -0.8783,-4.5455 2.6691,-8.4772 1.3348,-1.491 1.3793,2.0381 0.01,0.3468 0.5654,1.2637 0.4621,0.9325 -0.4468,-1.4353 -1.3652,-2.7569 -1.4965,-4.2543 -0.028,-0.3111 1.7987,-8.4608 0.1575,-1.0611 0.6699,-8.3051 1.0012,8.1091 -0.081,0.1555 -0.048,-0.5676 6.5171,6.1429 -0.032,-0.7654 5.0695,1.6179 3.5517,-1.263 1.4216,1.1218 7.5956,0.246 -2.8386,-1.508 -0.9308,-2.1046 9.4397,0.9701 2.4402,0.5361 8.9441,-2.4207 0.9685,-0.158 2.5387,-1.9197 4.4457,0.5287 0.1053,-2.2841 -1.566,-4.9624 0.4553,-0.6167 0.3086,9.9113 0.029,0.8909 0.012,0.703 -0.035,-0.3225 -0.3508,-1.2437 -0.3155,-0.9212 0.1672,1.5298 0.3447,3.0673 0.7129,4.5614 0.4389,1.7769 -0.2765,-4.1038 0.1078,-0.7866 -0.1844,1.1768 -0.2,2.393 -0.5541,3.5302 -0.2935,0.9442 0.526,-1.9662 0.3712,-2.9428 -0.1967,-1.2583 -1.1527,-2.3056 -1.4008,-3.5551 -0.1129,-0.5674 0.9078,0.8588 0.9797,1.4329 0.758,6.0389 1.1209,5.0916 -0.351,7.7296 -0.4327,-0.6542 0.6629,1.0244 0.4138,-2.1031 -0.1032,-1.2922 -0.6523,-2.5106 -0.9074,-3.7816 -0.019,-0.1097 0.1872,0.1566 0.2018,0.2669 0.8156,6.2283 1.4083,4.4182 0.4988,6.8708 -0.3607,0.96 -0.6772,1.9344 -1.028,2.8978 -0.5485,1.3226 -0.3085,0.3962 -0.697,2.1851 -1.2904,3.0762 -0.4216,1.6331 -2.7687,4.3842 -0.062,0.071 0.1323,-0.1381 0.1802,-0.2199 0.5717,-0.9862 0.7371,-2.334 1.6755,-2.9811 1.8813,-1.2972 -5.6254,9.432198 -4.2703,5.3627 1.7597,-1.4764 -4.7249,3.987798 3.3567,-4.4517 0.3655,-0.3818 -0.2882,1.0207 -0.5,1.505 -0.2435,0.5573 -0.5488,1.0869 -0.8609,1.6089 -0.1491,0.2501 -0.5714,0.9887 -0.5208,0.7017 0.076,-0.4278 0.4007,-0.7712 0.6008,-1.157 -0.5629,0.8647 -1.0668,1.7713 -1.6894,2.5945 -0.2316,0.3058 -0.6224,1.0747 -0.856,0.7701 -0.2435,-0.3175 0.4759,-0.6439 0.6968,-0.9777 0.082,-0.1257 -0.3217,0.4984 -0.2833,0.3527 0.1844,-0.6977 1.141,-2.6304 0.7277,-2.0386 -0.8843,1.273 -1.447,2.7416 -2.1705,4.112598 -0.9264,0.5885 -1.8285,1.2171 -2.7792,1.7652 -0.699,0.4033 1.2598,-1.0675 2.0231,-1.3294 0.6593,-0.2259 -1.0843,0.8906 -1.6992,1.2185 -0.3043,0.1622 0.5205,-0.4549 0.7503,-0.7121 0.2034,-0.2278 0.7656,-0.9472 0.5441,-0.737 -0.3337,0.3166 -0.5894,0.7065 -0.8841,1.0597 0.4806,-1.0176 0.1184,-0.1757 -1.2172,1.2898 -0.088,0.097 -0.206,0.1596 -0.3147,0.2312 -0.9414,0.6191 -1.85,1.2936 -2.835,1.8405 -0.7691,0.4271 2.9853,-1.846 2.1853,-1.4797 -1.0333,0.4729 -1.9285,1.2023 -2.8927,1.8037 4.9174,-3.0689 -0.387,0.2668 -0.5188,0.228 -0.8175,-0.2405 2.838,-1.88 2.0918,-1.4689 -0.8388,0.4618 -2.8449,2.4542 -2.3706,1.6225 0.7361,-1.2907 4.5577,-3.7161 3.209,-3.0931 -1.7705,0.8179 -3.0197,2.4689 -4.5296,3.703 4.7815,-2.4355 0.063,-0.019 -0.4366,0.176 -0.3521,0.1378 1.2377,-0.3544 0.9572,-0.6077 -0.292,-0.2638 -0.7042,0.3509 -1.0629,0.5123 -0.3054,0.1376 -0.6013,0.3142 -0.9289,0.3836 -0.1575,0.036 0.2665,-0.1811 0.3998,-0.2717 -1.3826,0.368 -2.7789,0.6878 -4.1476,1.1039 -0.7334,0.2228 1.4931,-0.3492 2.2396,-0.5238 0.151,-0.089 0.6251,-0.2998 0.4528,-0.2676 -5.9087,1.1061 -3.944,1.2359 -0.7151,0.01 0.3027,-0.1153 0.5256,-0.3785 0.7883,-0.5675 -1.4435,0.5404 -2.9165,1.0074 -4.3302,1.6216 -0.5071,0.2202 1.0702,-0.2797 1.6005,-0.4361 0.2682,-0.08 -0.5366,0.2381 -0.8143,0.2038 -2.2009,-0.2718 -4.4979,-0.2953 -6.559,-1.114 -2.8422,-1.1293 10.6693,3.4202 9.0815,-1.3075 -3.5191,3.3848 -1.1812,1.7191 -10.8907,1.2386 -0.2977,-0.014 -0.4829,-0.3537 -0.747,-0.4922 -0.029,-0.012 -0.095,0.058 -0.065,0.067 1.716,0.4428 3.4009,1.3924 5.1676,1.2509 1.3681,-0.1097 2.4159,-1.3035 3.6237,-1.9552 -2.0587,1.771 -0.8334,0.8322 -6.5537,2.3845 -0.1693,0.045 -1.5483,-0.622 -1.8527,-0.6696 -1.0427,-0.377 -2.0855,-0.7539 -3.1284,-1.1306 1.5361,-4.5488 3.026,-9.113298 4.6083,-13.645998 0.016,-0.046 0.1531,0 0.1376,0.048 -1.5003,4.5603 -3.0082,9.119298 -4.6399,13.634398 -0.03,0.085 -0.1696,-0.061 -0.2543,-0.093 -1.1509,-0.416 -2.302,-0.8318 -3.4529,-1.248 -1.0351,-0.1318 0.8322,-14.768398 1.8673,-14.636498 z"
         id="path8159-4-5-5-1-8"
         style="fill:#4f4c4d;fill-opacity:1;stroke:#4f4c4d;stroke-width:0.68497497;stroke-miterlimit:4;stroke-opacity:1;stroke-dasharray:none;stroke-dashoffset:0" />
      <path
         sodipodi:nodetypes="cccccccccccccccccccc"
         inkscape:connector-curvature="0"
         d="m 575.03036,382.38712 c -11.0479,2.298 -26.2255,1.3599 -29.6631,-0.4954 -12.496,-1.3512 -6.4381,-0.9718 -18.1724,-1.2377 -19.6294,0.082 -1.9783,-0.067 -20.6279,0.2943 -3.636,0.07 -7.2734,-0.036 -10.9083,0.1535 -2.2648,0.1181 -4.524,0.521 -6.7863,0.7693 -4.3137,0.4735 -2.7386,-0.3487 -4.6534,0.7721 -0.77,-0.4485 -0.4496,-0.3939 0.5674,1.6853 -0.1389,-0.9453 -6.3136,3.3184 -6.1742,4.2637 l 0,0 c 1.9564,6.7354 0.6528,4.049 3.9574,7.9527 2.7337,0.1985 5.4686,0.3329 8.2023,0.54 4.7798,0.3622 8.9316,0.9283 13.7161,0.8331 3.3023,-0.066 6.6016,-0.5128 9.9043,-0.5766 3.5825,-0.069 7.1646,0.1184 10.747,0.1776 5.3746,0.3047 16.4989,1.1354 22.3742,0.8101 2.6774,-0.1482 5.345,-0.7711 8.0197,-1.07 1.8813,-0.2102 3.7657,-0.2893 5.6481,-0.4571 8.6405,-0.77 3.9481,-0.7187 11.5998,-0.4287 0.4567,0.3444 2.7059,-13.6419 2.2493,-13.9862 z"
         id="path5476-9-1-20-7-6-1-0-8-1-8"
         style="fill:#4f4c4d;fill-opacity:1;stroke:#4f4c4d;stroke-width:0.16627677;stroke-miterlimit:4;stroke-opacity:1;stroke-dasharray:none;stroke-dashoffset:0" />
    </g>
  </g>
</svg>
