<?xml version="1.0" encoding="UTF-8" standalone="no"?>
<!-- Created with Inkscape (http://www.inkscape.org/) -->

<svg
   xmlns:dc="http://purl.org/dc/elements/1.1/"
   xmlns:cc="http://creativecommons.org/ns#"
   xmlns:rdf="http://www.w3.org/1999/02/22-rdf-syntax-ns#"
   xmlns:svg="http://www.w3.org/2000/svg"
   xmlns="http://www.w3.org/2000/svg"
   xmlns:sodipodi="http://sodipodi.sourceforge.net/DTD/sodipodi-0.dtd"
   xmlns:inkscape="http://www.inkscape.org/namespaces/inkscape"
   width="192"
   height="192"
   id="svg3858"
   version="1.1"
   inkscape:version="0.48.5 r10040"
   sodipodi:docname="launcher_device_round.svg">
  <defs
     id="defs3860" />
  <sodipodi:namedview
     id="base"
     pagecolor="#ffffff"
     bordercolor="#666666"
     borderopacity="1.0"
     inkscape:pageopacity="0.0"
     inkscape:pageshadow="2"
     inkscape:zoom="1.4142136"
     inkscape:cx="146.73746"
     inkscape:cy="274.60536"
     inkscape:document-units="px"
     inkscape:current-layer="layer1"
     showgrid="false"
     fit-margin-top="0"
     fit-margin-left="0"
     fit-margin-right="0"
     fit-margin-bottom="0"
     inkscape:window-width="1680"
     inkscape:window-height="1002"
     inkscape:window-x="0"
     inkscape:window-y="29"
     inkscape:window-maximized="1"
     showguides="true"
     inkscape:guide-bbox="true" />
  <metadata
     id="metadata3863">
    <rdf:RDF>
      <cc:Work
         rdf:about="">
        <dc:format>image/svg+xml</dc:format>
        <dc:type
           rdf:resource="http://purl.org/dc/dcmitype/StillImage" />
        <dc:title></dc:title>
      </cc:Work>
    </rdf:RDF>
  </metadata>
  <g
     inkscape:label="Layer 1"
     inkscape:groupmode="layer"
     id="layer1"
     transform="translate(-158.28572,-74.933601)">
    <g
       id="g5696"
       transform="translate(-205.76807,-12.020815)">
      <path
         sodipodi:open="true"
         sodipodi:end="6.2828801"
         sodipodi:start="0"
         transform="matrix(1.0205798,0,0,1.0205798,356.19451,90.565824)"
         d="m 186.78571,91.10714 c 0,46.84558 -37.97584,84.82143 -84.82142,84.82143 -46.845583,0 -84.82143,-37.97585 -84.82143,-84.82143 0,-46.845581 37.975847,-84.8214268 84.82143,-84.8214268 46.83547,0 84.80712,37.9600698 84.82142,84.7955378"
         sodipodi:ry="84.821426"
         sodipodi:rx="84.821426"
         sodipodi:cy="91.10714"
         sodipodi:cx="101.96429"
         id="path4632"
         style="fill:#b5d92a;fill-opacity:1;stroke:#b5d92a;stroke-width:4;stroke-miterlimit:4;stroke-opacity:1;stroke-dasharray:none;stroke-dashoffset:0"
         sodipodi:type="arc" />
      <path
         sodipodi:nodetypes="ccccccc"
         inkscape:connector-curvature="0"
         id="path2987-3-7-56-93-3-4-1-5-21-7-6-9-3-1"
         d="m 167.78792,63.821833 148.50868,7e-6 104.16455,180.41831 -104.16457,180.41831 -208.32911,-10e-6 L 3.8029175,244.24013 53.355948,161.60411"
         style="opacity:0.95999995;fill:#b5d92a;fill-opacity:1;stroke:#a0b643;stroke-width:27.73947144;stroke-miterlimit:4;stroke-opacity:1;stroke-dashoffset:0"
         transform="matrix(0.13704695,0,0,0.13704695,390.07031,101.66927)" />
      <path
         transform="matrix(0.13704695,0,0,0.13704695,432.61397,126.25627)"
         d="M 316.29658,424.65846 107.96747,424.65845 3.8029175,244.24013 107.96748,63.82183 l 208.32912,1e-5 104.16455,180.41831 z"
         inkscape:randomized="0"
         inkscape:rounded="0"
         inkscape:flatsided="true"
         sodipodi:arg2="1.5707963"
         sodipodi:arg1="1.0471976"
         sodipodi:r2="180.4183"
         sodipodi:r1="208.32912"
         sodipodi:cy="244.24014"
         sodipodi:cx="212.13203"
         sodipodi:sides="6"
         id="path2987-3-7-56-9-6-3-1-3-6-42-4-9-7-8-13"
         style="opacity:0.95999995;fill:#b6d92a;fill-opacity:1;stroke:#a0b643;stroke-width:27.73947144;stroke-miterlimit:4;stroke-opacity:1;stroke-dasharray:none;stroke-dashoffset:0"
         sodipodi:type="star" />
      <path
         transform="matrix(0.13704695,0,0,0.13704695,389.92398,151.25462)"
         d="M 316.29658,424.65846 107.96747,424.65845 3.8029175,244.24013 107.96748,63.82183 l 208.32912,1e-5 104.16455,180.41831 z"
         inkscape:randomized="0"
         inkscape:rounded="0"
         inkscape:flatsided="true"
         sodipodi:arg2="1.5707963"
         sodipodi:arg1="1.0471976"
         sodipodi:r2="180.4183"
         sodipodi:r1="208.32912"
         sodipodi:cy="244.24014"
         sodipodi:cx="212.13203"
         sodipodi:sides="6"
         id="path2987-3-7-56-1-0-1-1-3-1-9-9-0-7-2-12"
         style="opacity:0.95999995;fill:#b5d92a;fill-opacity:1;stroke:#a0b643;stroke-width:27.73947144;stroke-miterlimit:4;stroke-opacity:1;stroke-dasharray:none;stroke-dashoffset:0"
         sodipodi:type="star" />
      <path
         sodipodi:nodetypes="ccccccc"
         inkscape:connector-curvature="0"
         id="path2987-3-7-56-7-2-9-9-0-5-1-2-1-6-1-0"
         d="M 23.759515,279.07242 3.8029175,244.24013 107.96748,63.82183 l 208.32912,1e-5 104.16455,180.41831 -104.16457,180.41831 -123.3606,0.16287"
         style="opacity:0.95999995;fill:#b5d92a;fill-opacity:1;stroke:#a0b643;stroke-width:27.73947144;stroke-miterlimit:4;stroke-opacity:1;stroke-dashoffset:0"
         transform="matrix(0.13704695,0,0,0.13704695,390.03601,200.47196)" />
      <path
         sodipodi:nodetypes="cccccc"
         inkscape:connector-curvature="0"
         id="path2987-3-7-56-93-4-1-9-5-0-8-5-9-0-6"
         d="M 422.00846,242.04135 316.29658,424.65846 107.96747,424.65845 3.8029175,244.24013 107.96748,63.82183 l 125.7864,-0.0855"
         style="opacity:0.95999995;fill:#b5d92a;fill-opacity:1;stroke:#a0b643;stroke-width:27.73947144;stroke-miterlimit:4;stroke-opacity:1;stroke-dashoffset:0"
         transform="matrix(0.13704695,0,0,0.13704695,475.4506,101.72109)" />
      <path
         transform="matrix(0.13704695,0,0,0.13704695,475.34556,151.0949)"
         d="M 316.29658,424.65846 107.96747,424.65845 3.8029175,244.24013 107.96748,63.82183 l 208.32912,1e-5 104.16455,180.41831 z"
         inkscape:randomized="0"
         inkscape:rounded="0"
         inkscape:flatsided="true"
         sodipodi:arg2="1.5707963"
         sodipodi:arg1="1.0471976"
         sodipodi:r2="180.4183"
         sodipodi:r1="208.32912"
         sodipodi:cy="244.24014"
         sodipodi:cx="212.13203"
         sodipodi:sides="6"
         id="path2987-3-7-56-1-0-0-5-3-0-2-5-7-2-5-87"
         style="opacity:0.95999995;fill:#b5d92a;fill-opacity:1;stroke:#a0b643;stroke-width:27.73947144;stroke-miterlimit:4;stroke-opacity:1;stroke-dasharray:none;stroke-dashoffset:0"
         sodipodi:type="star" />
      <path
         transform="matrix(0.13704695,0,0,0.13704695,432.69746,175.68715)"
         d="M 316.29658,424.65846 107.96747,424.65845 3.8029175,244.24013 107.96748,63.82183 l 208.32912,1e-5 104.16455,180.41831 z"
         inkscape:randomized="0"
         inkscape:rounded="0"
         inkscape:flatsided="true"
         sodipodi:arg2="1.5707963"
         sodipodi:arg1="1.0471976"
         sodipodi:r2="180.4183"
         sodipodi:r1="208.32912"
         sodipodi:cy="244.24014"
         sodipodi:cx="212.13203"
         sodipodi:sides="6"
         id="path2987-3-7-56-2-6-7-9-4-6-2-0-7-2-8-4"
         style="opacity:0.95999995;fill:#b5d92a;fill-opacity:1;stroke:#a0b643;stroke-width:27.73947144;stroke-miterlimit:4;stroke-opacity:1;stroke-dasharray:none;stroke-dashoffset:0"
         sodipodi:type="star" />
      <path
         sodipodi:nodetypes="cccccc"
         inkscape:connector-curvature="0"
         id="path2987-3-7-56-7-2-8-8-6-2-05-3-6-1-5-9"
         d="M 208.57098,424.65846 107.96747,424.65845 3.8029175,244.24013 107.96748,63.82183 l 208.32912,1e-5 101.17014,174.42949"
         style="opacity:0.95999995;fill:#b5d92a;fill-opacity:1;stroke:#a0b643;stroke-width:27.73947144;stroke-miterlimit:4;stroke-opacity:1;stroke-dashoffset:0"
         transform="matrix(0.13704695,0,0,0.13704695,475.41599,200.5219)" />
      <path
         sodipodi:nodetypes="cccccc"
         inkscape:connector-curvature="0"
         id="path2987-3-7-56-93-4-1-9-5-0-8-5-9-0-6-2"
         d="m 368.30196,162.86128 52.15919,81.37887 -104.16457,180.41831 -208.32911,-10e-6 L 3.8029175,244.24013 53.324902,157.08153"
         style="opacity:0.95999995;fill:#b5d92a;fill-opacity:1;stroke:#a0b643;stroke-width:27.73947144;stroke-miterlimit:4;stroke-opacity:1;stroke-dashoffset:0"
         transform="matrix(0.13704695,0,0,0.13704695,432.70031,77.054324)" />
      <path
         sodipodi:nodetypes="cc"
         inkscape:connector-curvature="0"
         id="path2987-3-7-56-93-4-1-9-5-0-8-5-9-0-6-0"
         d="M 176.28977,64.147582 316.2966,63.82184"
         style="opacity:0.95999995;fill:#b5d92a;fill-opacity:1;stroke:#a0b643;stroke-width:27.73947144;stroke-miterlimit:4;stroke-opacity:1;stroke-dashoffset:0"
         transform="matrix(0.13704695,0,0,0.13704695,347.53289,175.88254)" />
      <path
         sodipodi:nodetypes="cccccc"
         inkscape:connector-curvature="0"
         id="path2987-3-7-56-93-4-1-9-5-0-8-5-9-0-6-93"
         d="M 43.393843,312.81363 3.8029175,244.24013 107.96748,63.82183 l 208.32912,1e-5 104.16455,180.41831 -34.5483,60.51993"
         style="opacity:0.95999995;fill:#b5d92a;fill-opacity:1;stroke:#a0b643;stroke-width:27.73947144;stroke-miterlimit:4;stroke-opacity:1;stroke-dashoffset:0"
         transform="matrix(0.13704695,0,0,0.13704695,432.76452,225.25375)" />
      <path
         sodipodi:nodetypes="ccc"
         inkscape:connector-curvature="0"
         id="path2987-3-7-56-93-4-1-9-5-0-8-5-9-0-6-6"
         d="M 3.8029175,244.24013 107.96748,63.82183 l 117.98493,5e-6"
         style="opacity:0.95999995;fill:#b5d92a;fill-opacity:1;stroke:#a0b643;stroke-width:27.73947144;stroke-miterlimit:4;stroke-opacity:1;stroke-dashoffset:0"
         transform="matrix(0.13704695,0,0,0.13704695,517.86986,175.63)" />
      <path
         transform="translate(158.28572,74.933601)"
         inkscape:connector-curvature="0"
         id="path5525"
         d="m 283.3538,24.606026 1.78013,-2.940848 -0.0144,-0.06529 -5.05076,1.116692 0.32751,0.915451 z"
         style="color:#000000;fill:#a0b643;fill-opacity:1;stroke:none;stroke-width:1px;marker:none;visibility:visible;display:inline;overflow:visible;enable-background:accumulate" />
      <path
         sodipodi:nodetypes="cccccc"
         inkscape:connector-curvature="0"
         id="path5525-2"
         d="m 413.17099,112.31112 1.06528,-1.91742 -1.1597,-1.87899 -2.92108,1.88351 -2.52796,1.93108 z"
         style="color:#000000;fill:#a0b643;fill-opacity:1;stroke:none;stroke-width:1px;marker:none;visibility:visible;display:inline;overflow:visible;enable-background:accumulate" />
      <path
         sodipodi:nodetypes="cccccc"
         inkscape:connector-curvature="0"
         id="path5525-2-6"
         d="m 507.35052,112.3501 -1.06528,-1.91742 1.1597,-1.87899 2.92108,1.88351 2.52796,1.93108 z"
         style="color:#000000;fill:#a0b643;fill-opacity:1;stroke:none;stroke-width:1px;marker:none;visibility:visible;display:inline;overflow:visible;enable-background:accumulate" />
      <path
         sodipodi:nodetypes="cccccc"
         inkscape:connector-curvature="0"
         id="path5525-2-6-1"
         d="m 503.81058,256.83541 -1.06528,1.91742 1.25914,1.87899 2.93213,-1.73988 3.14667,-2.07471 z"
         style="color:#000000;fill:#a0b643;fill-opacity:1;stroke:none;stroke-width:1px;marker:none;visibility:visible;display:inline;overflow:visible;enable-background:accumulate" />
      <path
         sodipodi:nodetypes="cccccc"
         inkscape:connector-curvature="0"
         id="path5525-2-6-1-8"
         d="m 416.67142,256.80306 1.06528,1.91742 -1.25914,1.87899 -2.93213,-1.73988 -3.14666,-2.07471 z"
         style="color:#000000;fill:#a0b643;fill-opacity:1;stroke:none;stroke-width:1px;marker:none;visibility:visible;display:inline;overflow:visible;enable-background:accumulate" />
      <path
         sodipodi:nodetypes="cccccc"
         inkscape:connector-curvature="0"
         id="path5525-2-6-1-8-7"
         d="m 394.73902,237.46387 -2.19317,0.0361 -0.99768,2.02994 4.44159,5.01311 5.62009,5.31273 z"
         style="color:#000000;fill:#a0b643;fill-opacity:1;stroke:none;stroke-width:1px;marker:none;visibility:visible;display:inline;overflow:visible;enable-background:accumulate" />
      <path
         sodipodi:nodetypes="cccccc"
         inkscape:connector-curvature="0"
         id="path5525-2-6-1-8-7-9"
         d="m 398.80351,125.13441 -2.19317,-0.0361 -0.99768,-2.02994 4.50409,-4.73186 4.30759,-3.62523 z"
         style="color:#000000;fill:#a0b643;fill-opacity:1;stroke:none;stroke-width:1px;marker:none;visibility:visible;display:inline;overflow:visible;enable-background:accumulate" />
      <path
         sodipodi:nodetypes="cccccc"
         inkscape:connector-curvature="0"
         id="path5525-2-6-1-8-7-2"
         d="m 481.61953,100.44962 2.19196,0.0814 0.94085,-2.137684 -1.97154,-0.579627 -3.20463,-0.758898 z"
         style="color:#000000;fill:#a0b643;fill-opacity:1;stroke:none;stroke-width:1px;marker:none;visibility:visible;display:inline;overflow:visible;enable-background:accumulate" />
      <path
         sodipodi:nodetypes="ccccccc"
         inkscape:connector-curvature="0"
         id="path5525-2-6-1-8-7-2-0"
         d="m 530.97383,234.05819 0.71493,-2.07369 2.55972,0.22582 0.0402,0.0479 -0.95425,1.42048 -1.40044,1.96711 z"
         style="color:#000000;fill:#a0b643;fill-opacity:1;stroke:none;stroke-width:1px;marker:none;visibility:visible;display:inline;overflow:visible;enable-background:accumulate" />
      <path
         sodipodi:nodetypes="ccccccc"
         inkscape:connector-curvature="0"
         id="path5525-2-6-1-8-7-2-0-2"
         d="m 482.41799,269.34296 1.62091,-3.33322 2.21721,0.91083 1.05667,1.02017 -0.89901,0.29353 -1.47778,0.40926 z"
         style="color:#000000;fill:#a0b643;fill-opacity:1;stroke:none;stroke-width:1px;marker:none;visibility:visible;display:inline;overflow:visible;enable-background:accumulate" />
      <path
         sodipodi:nodetypes="ccccccc"
         inkscape:connector-curvature="0"
         id="path5525-2-6-1-8-7-2-0-2-3"
         d="m 442.29859,270.32306 -1.95237,-3.17854 -2.21721,0.91083 -1.05667,1.02017 0.90453,0.26038 1.48331,0.37612 z"
         style="color:#000000;fill:#a0b643;fill-opacity:1;stroke:none;stroke-width:1px;marker:none;visibility:visible;display:inline;overflow:visible;enable-background:accumulate" />
    </g>
    <g
       id="g11867-3-3"
       transform="matrix(0.25077821,0,0,0.25077821,-3439.3613,-1064.9325)"
       style="fill:#4f4c4d;fill-opacity:1;stroke:#4f4c4d;stroke-opacity:1">
      <path
         inkscape:connector-curvature="0"
         d="m 14658.908,4892.5489 c -22.356,25.9777 -3.846,5.2235 -29.803,32.02 -5.491,5.6715 -10.888,11.4332 -16.241,17.2329 -5.773,6.2542 -11.171,12.8501 -17.135,18.9262 -6.473,6.601 -13.509,12.6213 -20.147,19.0542 -7.02,6.8064 -13.892,13.7644 -20.83,20.656 -13.535,19.68 -33.126,32.2777 -50.739,47.5955 -1.273,1.1169 3.409,-1.5112 4.063,-3.0331 0.984,-2.2959 0.194,-4.7411 0.292,-7.1114 0.05,2.8712 -41.148,9.8311 -41.202,6.959 l 0,0 c 0.141,-4.3635 -1.543,-8.9003 0.403,-13.0906 3.473,-7.4856 9.884,-13.5603 15.046,-20.1874 3.533,-4.5321 7.057,-9.1004 11.024,-13.2765 5.632,-5.9292 11.807,-11.3191 17.711,-16.9789 6.594,-7.0406 13.19,-14.0819 19.783,-21.1234 6.391,-6.166 34.352,-33.0872 40.972,-39.7191 5.959,-5.9586 11.783,-12.0513 17.581,-18.1651 5.445,-5.7429 10.446,-11.9094 16.142,-17.4031 10.237,-9.8693 22.047,-17.9487 32.221,-27.8992 2.767,-1.8763 23.629,33.6662 20.862,35.5426 z"
         id="path5740-9-1-8-09-2-0-6"
         style="opacity:0.95999995;fill:#4f4c4d;fill-opacity:1;stroke:#4f4c4d;stroke-width:0.71606553;stroke-miterlimit:4;stroke-opacity:1;stroke-dasharray:none;stroke-dashoffset:0" />
      <path
         inkscape:connector-curvature="0"
         d="m 14654.507,4848.0046 c 21.569,17.9486 4.397,3.0188 26.382,24.1645 4.651,4.4747 9.398,8.853 14.18,13.1885 5.157,4.6768 10.659,8.9805 15.635,13.8468 5.409,5.2811 10.24,11.1253 15.481,16.5708 5.545,5.7592 11.242,11.3699 16.872,17.0472 16.651,10.5053 26.312,27.1611 38.628,41.7705 0.898,1.0553 -1.063,-2.9603 -2.386,-3.4156 -1.997,-0.6855 -4.292,0.256 -6.437,0.3839 2.616,-0.3115 5.183,36.4976 2.567,36.8083 l 0,0 c -3.952,0.2704 -8.229,2.215 -11.861,0.8295 -6.487,-2.4742 -11.422,-7.7474 -16.973,-11.8342 -3.796,-2.7968 -7.626,-5.5834 -11.06,-8.808 -4.874,-4.5777 -9.21,-9.6977 -13.815,-14.5476 -5.797,-5.35 -11.596,-10.7016 -17.394,-16.0513 -5.019,-5.2457 -26.934,-28.2016 -32.359,-33.6133 -4.872,-4.8713 -9.877,-9.6089 -14.906,-14.3205 -4.721,-4.4248 -9.868,-8.4077 -14.342,-13.0826 -8.036,-8.4031 -14.301,-18.3995 -22.418,-26.7377 -1.45,-2.3445 32.753,-24.5453 34.205,-22.2013 z"
         id="path5740-9-1-8-09-2-4-0-7"
         style="opacity:0.95999995;fill:#4f4c4d;fill-opacity:1;stroke:#4f4c4d;stroke-width:0.64747411;stroke-miterlimit:4;stroke-opacity:1;stroke-dasharray:none;stroke-dashoffset:0" />
      <path
         inkscape:connector-curvature="0"
         d="m 14741.485,4978.0561 c 22.356,-25.9777 3.846,-5.2235 29.803,-32.02 5.491,-5.6715 10.888,-11.4332 16.241,-17.2329 5.773,-6.2542 11.171,-12.8501 17.135,-18.9262 6.473,-6.601 13.509,-12.6213 20.147,-19.0542 7.02,-6.8064 13.892,-13.7644 20.83,-20.656 13.535,-19.68 33.126,-32.2777 50.739,-47.5955 1.273,-1.1169 -3.409,1.5112 -4.063,3.0331 -0.984,2.2959 -0.194,4.7411 -0.292,7.1114 -0.05,-2.8712 41.148,-9.8311 41.202,-6.959 l 0,0 c -0.141,4.3635 1.543,8.9003 -0.403,13.0906 -3.473,7.4856 -9.884,13.5603 -15.046,20.1874 -3.533,4.5321 -7.057,9.1004 -11.024,13.2765 -5.632,5.9292 -11.807,11.3191 -17.711,16.9789 -6.594,7.0406 -13.19,14.0819 -19.783,21.1234 -6.391,6.166 -34.352,33.0872 -40.972,39.7191 -5.959,5.9586 -11.783,12.0513 -17.581,18.1651 -5.445,5.7429 -10.446,11.9094 -16.142,17.4031 -10.237,9.8693 -22.047,17.9487 -32.221,27.8992 -2.767,1.8763 -23.629,-33.6662 -20.862,-35.5426 z"
         id="path5740-9-1-8-09-2-95-4-5"
         style="opacity:0.95999995;fill:#4f4c4d;fill-opacity:1;stroke:#4f4c4d;stroke-width:0.71606553;stroke-miterlimit:4;stroke-opacity:1;stroke-dasharray:none;stroke-dashoffset:0" />
      <path
         inkscape:connector-curvature="0"
         d="m 14785.047,4851.1272 c 7.103,-1.9111 11.199,-10.9752 17.919,-13.768 55.121,-22.9445 -14.732,14.0661 32.252,-7.9505 19.954,-12.1051 9.997,-6.9493 29.771,-15.7214 33.624,-13.3126 3.312,-1.5349 35.553,-13.4489 6.283,-2.3238 12.389,-5.1033 18.797,-7.1173 3.991,-1.2562 8.268,-1.7699 12.39,-2.687 7.861,-1.746 4.32,-2.7882 8.749,-1.2087 0.854,-1.6893 0.361,-1.3306 0.774,4.7504 -0.739,-2.541 14.221,4.2343 14.959,6.7753 l 0,0 c 3.622,18.7678 3.072,10.9211 1.461,23.2947 -4.466,2.3963 -8.999,4.6271 -13.457,7.0471 -7.793,4.2291 -14.301,8.5547 -22.575,11.6046 -5.71,2.1062 -11.81,3.2206 -17.519,5.3317 -6.194,2.2885 -12.118,5.2435 -18.179,7.8644 -8.87,4.4902 -27.018,14.3023 -37.394,17.5088 -4.728,1.4603 -9.93,1.6868 -14.809,2.7573 -3.432,0.7524 -6.735,1.8449 -10.123,2.7096 -15.561,3.9603 -7.49,0.8608 -20.264,6.8816 -0.425,1.2054 -18.732,-33.4219 -18.305,-34.6258 z"
         id="path5476-9-6-3-9-4-8-0-1-8-3-0-60-5-3"
         style="opacity:0.95999995;fill:#4f4c4d;fill-opacity:1;stroke:#4f4c4d;stroke-width:0.37624249;stroke-miterlimit:4;stroke-opacity:1;stroke-dasharray:none;stroke-dashoffset:0" />
      <path
         inkscape:connector-curvature="0"
         d="m 14862.129,4945.264 c 3.671,-6.3737 0.158,-15.6791 2.935,-22.4059 22.753,-55.2002 -0.471,20.3631 17.185,-28.4275 5.549,-22.6698 2.155,-11.9823 9.933,-32.1679 14.363,-33.19 1.257,-3.4277 15.63,-34.6495 2.8,-6.0866 5.153,-12.3692 8.259,-18.3238 1.934,-3.7106 4.596,-7.0978 6.862,-10.6615 4.323,-6.7931 1.082,-5.0266 5.331,-7.0416 -0.591,-1.7975 -0.686,-1.195 3.906,2.812 -2.319,-1.2736 13.05,-7.0611 15.369,-5.7868 l 0,0 c 15.833,10.7097 9.894,5.5505 17.506,15.4386 -1.464,4.8528 -3.092,9.6357 -4.534,14.4987 -2.519,8.5013 -4.062,16.1618 -7.757,24.1685 -2.548,5.5275 -6.074,10.6292 -8.618,16.1586 -2.761,5.9972 -4.861,12.276 -7.293,18.4146 -3.096,9.4475 -8.992,29.2182 -14.061,38.822 -2.311,4.3764 -5.829,8.215 -8.522,12.4214 -1.895,2.9596 -3.457,6.0676 -5.242,9.0741 -8.203,13.804 -4.689,5.9044 -9.462,19.1954 0.552,1.1532 -36.879,-10.3874 -37.429,-11.5403 z"
         id="path5476-9-6-3-9-4-8-0-1-8-3-0-60-1-4-5"
         style="opacity:0.95999995;fill:#4f4c4d;fill-opacity:1;stroke:#4f4c4d;stroke-width:0.37624249;stroke-miterlimit:4;stroke-opacity:1;stroke-dasharray:none;stroke-dashoffset:0" />
    </g>
  </g>
</svg>
