<?xml version="1.0" encoding="UTF-8" standalone="no"?>
<!-- Created with Inkscape (http://www.inkscape.org/) -->

<svg
   xmlns:dc="http://purl.org/dc/elements/1.1/"
   xmlns:cc="http://creativecommons.org/ns#"
   xmlns:rdf="http://www.w3.org/1999/02/22-rdf-syntax-ns#"
   xmlns:svg="http://www.w3.org/2000/svg"
   xmlns="http://www.w3.org/2000/svg"
   xmlns:sodipodi="http://sodipodi.sourceforge.net/DTD/sodipodi-0.dtd"
   xmlns:inkscape="http://www.inkscape.org/namespaces/inkscape"
   width="4452.5576"
   height="144.03125"
   id="svg5431"
   version="1.1"
   inkscape:version="0.48.5 r10040"
   sodipodi:docname="New document 2">
  <defs
     id="defs5433" />
  <sodipodi:namedview
     id="base"
     pagecolor="#ffffff"
     bordercolor="#666666"
     borderopacity="1.0"
     inkscape:pageopacity="0.0"
     inkscape:pageshadow="2"
     inkscape:zoom="0.061871843"
     inkscape:cx="2498.9571"
     inkscape:cy="-58.896259"
     inkscape:document-units="px"
     inkscape:current-layer="layer1"
     showgrid="false"
     fit-margin-top="0"
     fit-margin-left="0"
     fit-margin-right="0"
     fit-margin-bottom="0"
     inkscape:window-width="481"
     inkscape:window-height="412"
     inkscape:window-x="504"
     inkscape:window-y="298"
     inkscape:window-maximized="0" />
  <metadata
     id="metadata5436">
    <rdf:RDF>
      <cc:Work
         rdf:about="">
        <dc:format>image/svg+xml</dc:format>
        <dc:type
           rdf:resource="http://purl.org/dc/dcmitype/StillImage" />
        <dc:title></dc:title>
      </cc:Work>
    </rdf:RDF>
  </metadata>
  <g
     inkscape:label="Layer 1"
     inkscape:groupmode="layer"
     id="layer1"
     transform="translate(1851.2876,-460.34375)">
    <path
       style="opacity:0.95999995;fill:#918f90;fill-opacity:1;stroke:#918f90;stroke-width:0.22095175;stroke-miterlimit:4;stroke-opacity:1;stroke-dasharray:none;stroke-dashoffset:0"
       id="path16708"
       d="m -1806.6931,479.01699 c 7.4687,1.75473 15.0196,3.19 22.406,5.26421 3.5117,0.98613 6.9931,2.20683 10.2243,3.89888 3.4444,1.80363 13.5427,6.1549 9.6718,6.51967 -17.6589,1.6641 -45.6551,13.65104 -53.1562,-2.42189 -12.3001,-26.35667 66.5501,-5.73219 71.7632,-4.59789 18.0143,5.35725 17.6086,6.27001 31.9103,8.14073 2.5462,0.33307 10.2328,0.89044 7.6714,0.7073 -6.9147,-0.49441 -13.8005,-1.54567 -20.7319,-1.64114 -2.8522,-0.0393 5.5942,1.7813 8.4297,1.4717 4.8906,-0.53395 9.4812,-2.6299 14.2219,-3.94485 6.8195,0.29679 13.6549,1.44313 20.4583,0.89036 16.5092,-1.34132 32.7233,-5.55189 49.2564,-6.55451 10.8802,-0.65981 21.7727,1.09829 32.6618,1.58673 11.6073,0.52066 23.2132,1.78265 34.8271,1.44055 3.0131,-0.0888 5.7495,-1.81363 8.6243,-2.72045 9.982,0.12986 19.964,0.25973 29.9461,0.38959 10.4433,-0.85432 20.8782,-1.81985 31.3301,-2.56296 20.7118,-1.47258 41.3941,-4.11365 62.1583,-4.08393 17.1103,0.0245 34.0831,3.10021 51.1549,4.24615 33.8596,2.27279 66.3108,3.77378 100.2395,2.54237 6.2809,-0.22797 12.4686,-1.59548 18.703,-2.39321 30.4544,-5.74569 60.8682,3.10294 91.2512,1.57081 25.7582,-1.29891 51.1126,-7.55365 76.8752,-8.76279 19.3602,-0.90864 38.7274,1.65957 58.0936,2.42823 145.32227,5.76793 -13.1874,-0.84169 120.78657,4.8164 18.1234,-0.35255 36.247,-0.70509 54.3705,-1.05765 11.5193,-1.86548 22.91315,-4.83977 34.55805,-5.59643 25.1435,-1.63378 50.4221,-0.0535 75.5736,-1.55972 27.0626,-1.62071 53.8714,-6.63715 80.9567,-7.81454 20.3372,-0.88404 145.8944,-0.35585 180.2462,-0.25711 20.1219,0.67134 40.2559,1.04561 60.3657,2.01401 10.5686,0.50894 21.0738,2.71868 31.6505,2.41711 39.4852,-1.12588 89.7814,-9.97815 128.9864,-9.95032 197.822198,0.14045 -77.3235,16.79518 174.390398,-2.97474 60.1094,7.39873 84.0214,12.15569 143.2044,12.83668 19.9225,0.22923 39.8133,-2.09292 59.737102,-2.02823 12.287,0.0399 24.5091,2.823 36.7868,2.34163 34.8018,-1.36448 69.3755,-6.845 104.189,-7.86888 26.4764,-0.77867 52.9499,1.64582 79.4249,2.46873 24.3665,-0.0183 48.7341,-0.30289 73.0993,-0.0549 21.1358,0.21514 42.274,0.6015 63.394,1.44425 38.1953,1.5241 99.566,6.76044 137.5407,6.01473 25.1805,-0.49447 50.2384,-3.67969 75.3834,-5.1019 16.1454,-0.91318 32.3173,-1.26907 48.4759,-1.9036 70.1083,-3.2844 64.9637,-3.7503 131.1767,-4.34386 26.7119,-0.23945 53.4483,-1.33896 80.1384,-0.23625 19.2382,0.79484 38.2586,4.4861 57.4598,5.92116 9.71398,0.72602 102.75518,4.62397 113.72968,5.09261 8.9728,-1.65822 17.8151,-4.35019 26.9185,-4.97468 17.4963,-1.20023 35.0849,0.17065 52.6103,-0.48092 51.1807,-1.90283 72.1786,-7.7833 127.3787,-4.08885 15.8791,1.06275 31.2394,6.11086 46.9178,8.84214 12.2481,2.13373 24.568,3.83406 36.852,5.75109 10.4056,0.63958 20.867,3.17094 31.2168,1.91874 4.4392,-0.53709 7.5983,-4.71638 11.3975,-7.07457 13.7404,-2.36366 27.3225,-5.98877 41.221,-7.09099 15.5721,-1.23493 31.2462,0.47706 46.8628,0.10556 102.5569,-2.43976 36.4749,-4.89466 112.8431,-0.44138 8.5198,-0.0286 93.7299,-0.40087 97.1543,-0.0137 133.1681,15.05619 -21.1019,10.80696 100.8272,15.54927 5.9239,0.23041 11.8324,-0.76229 17.7513,-1.0976 14.3682,-0.81395 28.7399,-1.56677 43.1099,-2.35016 15.0248,-2.77943 29.8621,-6.90495 45.0743,-8.33827 33.4006,-3.14705 103.662,1.7708 130.8031,4.00492 49.1993,4.04981 45.9085,9.20872 93.6399,6.39075 5.9299,-0.3501 11.5725,-2.68751 17.3588,-4.03126 15.4659,-0.33945 31.0112,0.58412 46.3976,-1.01835 14.391,-1.4988 28.1751,-7.33785 42.6151,-8.25215 48.0738,-3.04389 64.8116,2.79092 107.8002,3.21154 33.3692,0.3265 76.9477,-1.70332 110.6601,-2.99014 1.9225,1.91318 3.2163,4.81807 5.7672,5.73953 14.0267,5.06692 11.0256,0.0836 22.4622,-0.38495 13.0867,-0.53616 26.1966,-0.008 39.2925,-0.23326 38.706,-0.66467 -2.7177,-1.10695 32.8373,-0.45929 1.679,1.22707 3.3578,2.45413 5.0366,3.6812 7.0314,1.45649 -13.5665,100.89413 -20.5979,99.43764 l 0,0 c -2.3863,-0.86493 -4.7726,-1.72986 -7.159,-2.59478 -0.9109,0.1008 -30.5013,3.85053 -32.1963,2.23333 -3.0878,-2.94647 8.5361,-1.52523 12.3131,-3.51306 2.387,-1.25631 -5.337,0.79119 -7.9966,1.24132 -42.5809,7.20676 12.3139,-0.96311 -73.995,10.64588 -18.1537,0.91097 -36.2908,3.20623 -54.4613,2.73293 -19.7815,-0.51527 -39.336,-4.5515 -59.0914,-5.69074 -24.6635,-1.42227 -28.7306,0.42383 -47.2382,0.47529 -60.7259,0.16885 -26.3403,-2.90094 -90.4326,8.07247 -25.9127,2.06159 -51.7464,5.79936 -77.7381,6.18476 -17.3997,0.25799 -34.6878,-2.83087 -52.0306,-4.26058 -16.2828,-1.34234 -32.7518,-1.24411 -48.8463,-4.05557 -5.826,-1.01772 -10.2835,-6.73462 -16.1706,-7.30194 -4.0709,-0.39231 -87.4007,3.38758 -90.203,3.50974 -60.3612,11.8479 -54.0353,13.46475 -127.2669,11.23491 -17.7697,-0.54107 -35.3533,-3.79301 -53.0215,-5.76558 -16.2449,-1.81364 -32.4813,-3.70223 -48.7172,-5.59299 -61.3438,-7.14377 -29.421,-5.53452 -90.7111,-4.96229 -13.2656,0.28479 -26.5322,1.17466 -39.797,0.85435 -59.5509,-1.43797 74.5007,-10.01658 -57.6748,-1.02928 -14.7294,1.00154 -29.3043,3.77535 -44.0365,4.73531 -61.9951,4.03965 -58.6914,3.05 -110.9793,0.83552 -88.7616,-9.14546 14.0338,0.79577 -71.8377,-5.54375 -7.0014,-0.51688 -13.914,-2.70864 -20.9267,-2.37717 -16.3691,0.77371 -32.5886,3.51775 -48.8334,5.67451 -93.5135,12.4154 -15.3361,6.70284 -139.5022,10.40237 -21.0877,0.16472 -42.2398,2.14803 -63.2633,0.49416 -148.68488,-11.69666 23.6783,-9.08919 -105.51758,-14.39019 -21.5702,-0.88505 -70.2193,7.35186 -83.5679,8.7608 -23.683,2.49971 -47.4518,4.10534 -71.1776,6.15801 -26.8904,0.77354 -149.4506,5.11456 -186.0289,3.57705 -23.4405,-0.98528 -46.62,-5.78878 -70.0632,-6.70899 -21.1527,-0.83031 -42.3269,0.97116 -63.4902,1.46664 -90.7908,2.12561 -43.7469,2.59772 -138.6678,-1.73727 -25.8395,0.25723 -51.6783,0.59446 -77.5185,0.77168 -15.1228,0.10371 -30.2482,-0.15438 -45.3698,0.0711 -32.6432,0.48679 -65.2732,2.34599 -97.919002,2.06567 -22.0466,-0.18931 -44.023,-2.54935 -66.0509,-3.47364 -142.517798,-5.98002 8.122,2.37157 -134.099498,-6.10618 -79.9715,1.24088 -17.9729,0.58668 -118.3577,0.44815 -22.9064,-0.0316 -45.8487,-1.18542 -68.7196,0.0924 -20.8179,1.16315 -41.3081,6.19178 -62.1332,7.21866 -49.4799,2.43986 -99.1542,-2.44492 -148.6049,2.1428 -253.1079,-4.14824 76.4094,-0.89542 -119.6168,2.76385 -26.9493,0.50307 -53.8983,-1.86403 -80.8492,-1.44399 -25.0727,0.39077 -50.0796,2.693 -75.1276,3.87495 -94.60455,4.46416 -75.00995,3.59216 -155.08985,5.70438 -19.0954,-2.028 -38.1314,-4.72761 -57.28617,-6.08401 -18.872,-1.33638 -37.8169,-1.2823 -56.7229,-1.98927 -108.0062,-4.03873 -19.5367,-1.78932 -79.3679,-2.03762 -14.656,-0.0608 -29.3423,-1.45406 -43.9659,-0.4783 -15.1149,1.00855 -29.9937,4.27597 -44.9906,6.41395 -25.4677,0.3158 -50.9354,0.6316 -76.4031,0.9474 -18.3097,-0.83555 -36.6002,-2.55967 -54.9287,-2.50665 -17.9143,0.0518 -35.8119,4.2502 -53.6691,2.82076 -13.5285,-1.08292 -26.0637,-7.74645 -39.3987,-10.27062 -14.3323,-2.71293 -29.7734,8.45574 -43.6964,2.36145 -88.8864,4.42738 54.5435,-1.81196 -87.7214,-0.7726 -12.455,0.091 -24.7941,2.74784 -37.2473,2.97344 -11.0088,0.19943 -21.992,-1.13406 -32.9878,-1.70109 0.135,-0.60903 1.0233,-1.74127 0.4053,-1.82711 -4.0231,-0.55892 -8.1225,0.1272 -12.1839,0.19081 -3.6119,0.88243 -7.126,2.39578 -10.8357,2.6473 -5.6337,0.38197 -11.2891,-0.38136 -16.9227,-0.76524 -13.3202,-0.90763 -26.5931,-2.54725 -39.9322,-3.10886 -5.0772,-0.21376 -10.1894,1.47074 -15.2249,0.78665 -5.7333,-0.77889 -11.0592,-3.40581 -16.5889,-5.10872 -4.012,-0.40589 -8.0237,-0.81178 -12.0357,-1.21767 -51.685,-7.15914 83.4873,12.93106 17.2935,-9.57637 -18.3918,-6.25372 -38.8186,-1.6162 -58.2278,-2.4243 0.9696,2.64009 5.5851,7.05556 2.9088,7.92027 -9.9869,3.22682 -18.355,-21.19922 -30.1129,-9.19604 -6.593,-3.09729 37.2102,-96.33463 43.8031,-93.23727 z"
       inkscape:connector-curvature="0" />
  </g>
</svg>
