<?xml version="1.0" encoding="UTF-8" standalone="no"?>
<!-- Created with Inkscape (http://www.inkscape.org/) -->

<svg
   xmlns:dc="http://purl.org/dc/elements/1.1/"
   xmlns:cc="http://creativecommons.org/ns#"
   xmlns:rdf="http://www.w3.org/1999/02/22-rdf-syntax-ns#"
   xmlns:svg="http://www.w3.org/2000/svg"
   xmlns="http://www.w3.org/2000/svg"
   xmlns:sodipodi="http://sodipodi.sourceforge.net/DTD/sodipodi-0.dtd"
   xmlns:inkscape="http://www.inkscape.org/namespaces/inkscape"
   width="32"
   height="32"
   id="svg2"
   version="1.1"
   inkscape:version="0.48.5 r10040"
   sodipodi:docname="hor_avg_stats.svg">
  <defs
     id="defs4">
    <marker
       inkscape:stockid="Arrow2Lstart"
       orient="auto"
       refY="0"
       refX="0"
       id="Arrow2Lstart"
       style="overflow:visible">
      <path
         id="path3777"
         style="fill-rule:evenodd;stroke-width:0.625;stroke-linejoin:round"
         d="M 8.7185878,4.0337352 -2.2072895,0.01601326 8.7185884,-4.0017078 c -1.7454984,2.3720609 -1.7354408,5.6174519 -6e-7,8.035443 z"
         transform="matrix(1.1,0,0,1.1,1.1,0)"
         inkscape:connector-curvature="0" />
    </marker>
    <marker
       inkscape:stockid="Arrow2Lstart"
       orient="auto"
       refY="0"
       refX="0"
       id="Arrow2Lstart-3"
       style="overflow:visible">
      <path
         inkscape:connector-curvature="0"
         id="path3777-6"
         style="fill-rule:evenodd;stroke-width:0.625;stroke-linejoin:round"
         d="M 8.7185878,4.0337352 -2.2072895,0.01601326 8.7185884,-4.0017078 c -1.7454984,2.3720609 -1.7354408,5.6174519 -6e-7,8.035443 z"
         transform="matrix(1.1,0,0,1.1,1.1,0)" />
    </marker>
  </defs>
  <sodipodi:namedview
     id="base"
     pagecolor="#ffffff"
     bordercolor="#666666"
     borderopacity="1.0"
     inkscape:pageopacity="0.0"
     inkscape:pageshadow="2"
     inkscape:zoom="16"
     inkscape:cx="17.895408"
     inkscape:cy="18.4578"
     inkscape:document-units="px"
     inkscape:current-layer="layer1"
     showgrid="false"
     inkscape:snap-global="false"
     showguides="true"
     inkscape:guide-bbox="true"
     inkscape:window-width="1085"
     inkscape:window-height="1000"
     inkscape:window-x="589"
     inkscape:window-y="29"
     inkscape:window-maximized="0">
    <sodipodi:guide
       orientation="1,0"
       position="16.003906,33.609375"
       id="guide6460" />
    <sodipodi:guide
       orientation="0,1"
       position="-2.4168689,16.003125"
       id="guide6462" />
  </sodipodi:namedview>
  <metadata
     id="metadata7">
    <rdf:RDF>
      <cc:Work
         rdf:about="">
        <dc:format>image/svg+xml</dc:format>
        <dc:type
           rdf:resource="http://purl.org/dc/dcmitype/StillImage" />
        <dc:title></dc:title>
      </cc:Work>
    </rdf:RDF>
  </metadata>
  <g
     inkscape:label="Layer 1"
     inkscape:groupmode="layer"
     id="layer1"
     transform="translate(0,-1020.3622)">
    <flowRoot
       xml:space="preserve"
       id="flowRoot6037"
       style="font-size:40px;font-style:normal;font-weight:normal;line-height:125%;letter-spacing:0px;word-spacing:0px;fill:#000000;fill-opacity:1;stroke:none;font-family:Sans"><flowRegion
         id="flowRegion6039"><rect
           id="rect6041"
           width="321.22852"
           height="40.406101"
           x="280.82242"
           y="-264.87674" /></flowRegion><flowPara
         id="flowPara6043">distd</flowPara></flowRoot>    <path
       style="opacity:0.95999995000000005;fill:#000000;fill-opacity:1;stroke:none;stroke-opacity:1"
       id="path5476-9-6-3-9-4-5-9-7"
       d="m 1.6814035,1030.9713 c 0.758867,0.6853 1.1834845,1.6775 1.8993594,2.4 5.8731581,5.9283 -1.5566954,-2.1794 3.4454485,3.0582 2.1203306,2.4304 1.0608723,1.2838 3.1663536,3.4516 3.592809,3.5561 0.360271,0.3603 3.789526,3.7231 0.680449,0.6437 1.324411,1.3244 2.004648,1.9679 0.429355,0.3954 0.883177,0.7643 1.32427,1.1472 0.840679,0.7303 0.458417,0.539 0.936916,0.7577 0.08846,0.1917 0.03642,0.1284 0.09023,-0.2973 -0.08372,0.1347 1.531169,0.7681 1.614678,0.634 l 0,0 c 0.418113,-1.1305 0.347048,-0.5841 0.193818,-1.6351 -0.474539,-0.5212 -0.956857,-1.0346 -1.432598,-1.5542 -0.828022,-0.9129 -1.519502,-1.7333 -2.402325,-2.5931 -0.601394,-0.6014 -1.262256,-1.142 -1.870014,-1.7371 -0.670691,-0.6339 -1.287642,-1.3216 -1.936483,-1.9775 -0.943987,-1.0133 -2.874035,-3.1344 -3.981152,-4.1672 -0.504521,-0.4706 -1.0616505,-0.8848 -1.5834246,-1.3371 -0.3681198,-0.3172 -0.7189861,-0.6525 -1.0814491,-0.9754 -1.6619837,-1.4851 -0.8018591,-0.6364 -2.161908,-2.0629 -0.043275,-0.1239 -2.0614284,1.076 -2.0175878,1.1988 z"
       inkscape:connector-curvature="0" />
    <path
       style="opacity:0.95999995000000005;fill:#000000;fill-opacity:1;stroke:none;stroke-opacity:1"
       id="path5476-9-6-3-9-4-8-0-1-8"
       d="m 17.302948,1037.3061 c 0.200252,0.524 -0.04533,1.1544 0.0985,1.6914 1.178535,4.4073 0.04299,-1.5032 0.936633,2.3542 0.255407,1.7514 0.08789,0.9138 0.48649,2.5169 0.749674,2.6604 0.06392,0.2708 0.820951,2.7871 0.14828,0.4898 0.267286,0.9884 0.433668,1.4741 0.104228,0.3019 0.25173,0.5933 0.376535,0.8893 0.2378,0.5652 0.04773,0.3858 0.296914,0.5997 -0.04313,0.1224 -0.04384,0.078 0.244517,-0.1469 -0.143118,0.057 0.761908,0.7209 0.906228,0.6633 l 0,0 c 0.992142,-0.5416 0.616173,-0.2547 1.109805,-0.8633 -0.07191,-0.3783 -0.152806,-0.7557 -0.222527,-1.1352 -0.122117,-0.6634 -0.188444,-1.2502 -0.38311,-1.8954 -0.134916,-0.4448 -0.329159,-0.8748 -0.463085,-1.3204 -0.145451,-0.4835 -0.250245,-0.9772 -0.375544,-1.4656 -0.153371,-0.742 -0.439608,-2.2856 -0.711632,-3.0696 -0.124451,-0.3568 -0.322512,-0.6937 -0.470509,-1.0442 -0.102884,-0.2477 -0.186393,-0.5 -0.284257,-0.7479 -0.446184,-1.1408 -0.26262,-0.5054 -0.503177,-1.5567 0.03748,-0.076 -2.260196,0.1923 -2.297673,0.2687 z"
       inkscape:connector-curvature="0" />
    <path
       style="opacity:0.95999995000000005;fill:#000000;fill-opacity:1;stroke:none;stroke-opacity:1"
       id="path5476-9-6-3-9-4-8-0-1-8-3"
       d="m 9.995706,1045.0501 c 0.524037,0.1999 1.153999,-0.045 1.691258,0.098 4.407043,1.1787 -1.503309,0.043 2.354312,0.9367 1.75108,0.2553 0.913441,0.088 2.516947,0.4863 2.660277,0.7499 0.270822,0.064 2.78692,0.8213 0.489813,0.1481 0.988323,0.2674 1.474035,0.4336 0.300874,0.1054 0.593333,0.2515 0.889257,0.3766 0.565261,0.2374 0.385868,0.048 0.599839,0.2969 0.1224,-0.043 0.07707,-0.044 -0.146937,0.2445 0.05685,-0.1431 0.720895,0.7619 0.663337,0.9063 l 0,0 c -0.541644,0.9921 -0.2547,0.6161 -0.863236,1.1096 -0.378373,-0.072 -0.755614,-0.1527 -1.13526,-0.2222 -0.663266,-0.1224 -1.250023,-0.1887 -1.895541,-0.3832 -0.444629,-0.1351 -0.874691,-0.3292 -1.32031,-0.4632 -0.48352,-0.1453 -0.977009,-0.2503 -1.465549,-0.3754 -0.741968,-0.1535 -2.285511,-0.4397 -3.069622,-0.7119 -0.356735,-0.1242 -0.693813,-0.3226 -1.044255,-0.4702 -0.247699,-0.1029 -0.499854,-0.1866 -0.747765,-0.2843 -1.140917,-0.4466 -0.50544,-0.2628 -1.556555,-0.5036 -0.07778,0.037 0.192121,-2.2599 0.268489,-2.2973 z"
       inkscape:connector-curvature="0" />
    <path
       style="opacity:0.95999995000000005;fill:#000000;fill-opacity:1;stroke:none;stroke-opacity:1"
       id="path5476-9-6-3-9-4-5-9-7-2"
       d="m 9.571664,1023.5748 c 0.851507,0.7779 1.367003,1.861 2.175146,2.6757 6.630177,6.6854 -1.79635,-2.419 3.862634,3.4755 2.412238,2.7222 1.211271,1.4341 3.59087,3.8761 4.05138,4.0146 0.406491,0.4065 4.27143,4.2049 0.765386,0.7287 1.494323,1.4944 2.25947,2.2227 0.482261,0.4484 0.98886,0.8701 1.482805,1.3058 0.941456,0.8311 0.5224,0.603 1.045622,0.8664 0.10643,0.2097 0.04698,0.1389 0.07695,-0.3105 -0.08046,0.1379 1.678655,0.9155 1.758917,0.7781 l 0,0 c 0.372419,-1.1761 0.331844,-0.5992 0.101369,-1.7275 -0.538413,-0.585 -1.084603,-1.1623 -1.624191,-1.7458 -0.939694,-1.0245 -1.728158,-1.942 -2.722762,-2.9135 -0.678548,-0.6786 -1.416483,-1.2963 -2.101396,-1.9685 -0.754376,-0.7176 -1.455012,-1.4889 -2.187548,-2.2285 -1.06954,-1.1389 -3.259454,-3.5198 -4.503843,-4.69 -0.567069,-0.5331 -1.186503,-1.0096 -1.770762,-1.5244 -0.412081,-0.3612 -0.806963,-0.7405 -1.213387,-1.1073 -1.863855,-1.6869 -0.894118,-0.7287 -2.432913,-2.3339 -0.054,-0.1346 -2.12464,1.0128 -2.070113,1.1462 z"
       inkscape:connector-curvature="0" />
  </g>
</svg>
