<?xml version="1.0" encoding="UTF-8" standalone="no"?>
<!-- Created with Inkscape (http://www.inkscape.org/) -->

<svg
   xmlns:dc="http://purl.org/dc/elements/1.1/"
   xmlns:cc="http://creativecommons.org/ns#"
   xmlns:rdf="http://www.w3.org/1999/02/22-rdf-syntax-ns#"
   xmlns:svg="http://www.w3.org/2000/svg"
   xmlns="http://www.w3.org/2000/svg"
   xmlns:sodipodi="http://sodipodi.sourceforge.net/DTD/sodipodi-0.dtd"
   xmlns:inkscape="http://www.inkscape.org/namespaces/inkscape"
   width="32"
   height="32"
   id="svg2"
   version="1.1"
   inkscape:version="0.48.5 r10040"
   sodipodi:docname="hor_vel.svg">
  <defs
     id="defs4">
    <marker
       inkscape:stockid="Arrow2Lstart"
       orient="auto"
       refY="0"
       refX="0"
       id="Arrow2Lstart"
       style="overflow:visible">
      <path
         id="path3777"
         style="fill-rule:evenodd;stroke-width:0.625;stroke-linejoin:round"
         d="M 8.7185878,4.0337352 -2.2072895,0.01601326 8.7185884,-4.0017078 c -1.7454984,2.3720609 -1.7354408,5.6174519 -6e-7,8.035443 z"
         transform="matrix(1.1,0,0,1.1,1.1,0)"
         inkscape:connector-curvature="0" />
    </marker>
    <marker
       inkscape:stockid="Arrow2Lstart"
       orient="auto"
       refY="0"
       refX="0"
       id="Arrow2Lstart-3"
       style="overflow:visible">
      <path
         inkscape:connector-curvature="0"
         id="path3777-6"
         style="fill-rule:evenodd;stroke-width:0.625;stroke-linejoin:round"
         d="M 8.7185878,4.0337352 -2.2072895,0.01601326 8.7185884,-4.0017078 c -1.7454984,2.3720609 -1.7354408,5.6174519 -6e-7,8.035443 z"
         transform="matrix(1.1,0,0,1.1,1.1,0)" />
    </marker>
  </defs>
  <sodipodi:namedview
     id="base"
     pagecolor="#ffffff"
     bordercolor="#666666"
     borderopacity="1.0"
     inkscape:pageopacity="0.0"
     inkscape:pageshadow="2"
     inkscape:zoom="16"
     inkscape:cx="17.895408"
     inkscape:cy="18.4578"
     inkscape:document-units="px"
     inkscape:current-layer="layer1"
     showgrid="false"
     inkscape:snap-global="false"
     showguides="true"
     inkscape:guide-bbox="true"
     inkscape:window-width="1085"
     inkscape:window-height="1000"
     inkscape:window-x="589"
     inkscape:window-y="29"
     inkscape:window-maximized="0">
    <sodipodi:guide
       orientation="1,0"
       position="16.003906,33.609375"
       id="guide6460" />
    <sodipodi:guide
       orientation="0,1"
       position="-2.4168689,16.003125"
       id="guide6462" />
  </sodipodi:namedview>
  <metadata
     id="metadata7">
    <rdf:RDF>
      <cc:Work
         rdf:about="">
        <dc:format>image/svg+xml</dc:format>
        <dc:type
           rdf:resource="http://purl.org/dc/dcmitype/StillImage" />
        <dc:title />
      </cc:Work>
    </rdf:RDF>
  </metadata>
  <g
     inkscape:label="Layer 1"
     inkscape:groupmode="layer"
     id="layer1"
     transform="translate(0,-1020.3622)">
    <flowRoot
       xml:space="preserve"
       id="flowRoot6037"
       style="font-size:40px;font-style:normal;font-weight:normal;line-height:125%;letter-spacing:0px;word-spacing:0px;fill:#000000;fill-opacity:1;stroke:none;font-family:Sans"><flowRegion
         id="flowRegion6039"><rect
           id="rect6041"
           width="321.22852"
           height="40.406101"
           x="280.82242"
           y="-264.87674" /></flowRegion><flowPara
         id="flowPara6043">distd</flowPara></flowRoot>    <path
       style="opacity:0.95999995000000005;fill:#ff0011;fill-opacity:1;stroke:#0003ba;stroke-width:0.03402719000000000;stroke-miterlimit:4;stroke-opacity:1;stroke-dasharray:none;stroke-dashoffset:0"
       id="path5476-9-6-3-9-4-5-9-7"
       d="m 1.9334353,1037.4825 c 1.0212,-0.052 2.0229997,0.3493 3.0400997,0.354 8.3449,0.039 -2.6417997,-0.4403 4.5988,-0.2738 3.2178,0.2192 1.6579,0.1576 4.6796,0.2017 5.055,-0.026 0.5095,0 5.3122,-0.047 0.9363,-0.026 1.873,0 2.809,-0.026 0.5832,-0.024 1.165,-0.084 1.7476,-0.1252 1.1109,-0.078 0.7053,0.057 1.1983,-0.1267 0.1981,0.073 0.1165,0.065 -0.1464,-0.274 0.036,0.1544 1.6258,-0.5396 1.59,-0.6935 l 0,0 c -0.5037,-1.095 -0.1676,-0.6584 -1.0191,-1.2932 -0.7041,-0.033 -1.4082,-0.055 -2.112,-0.086 -1.231,-0.06 -2.3001,-0.1512 -3.5323,-0.1349 -0.8505,0 -1.7001,0.085 -2.5506,0.094 -0.9225,0.026 -1.845,-0.024 -2.7676,-0.029 -1.384,-0.049 -4.2486,-0.1841 -5.7618,-0.1316 -0.6895,0.024 -1.3763,0.1251 -2.0651,0.1742 -0.4846,0.036 -0.9698,0.047 -1.4544,0.075 -2.2253,0.1251 -1.017,0.117 -2.9873997,0.07 -0.1182,-0.057 -0.6968,2.2185 -0.579,2.2743 z"
       inkscape:connector-curvature="0" />
    <path
       style="opacity:0.95999995000000005;fill:#ff0011;fill-opacity:1;stroke:#0003ba;stroke-width:0.02519437000000000;stroke-miterlimit:4;stroke-opacity:1;stroke-dasharray:none;stroke-dashoffset:0"
       id="path5476-9-6-3-9-4-8-0-1-8"
       d="m 17.458935,1030.9158 c 0.5121,0.2289 0.7842,0.8483 1.2656,1.1263 3.9498,2.2831 -1.0325,-1.0933 2.327,1.0024 1.419,1.0578 0.7083,0.584 2.1237,1.4357 2.4113,1.3511 0.2367,0.1463 2.5513,1.3903 0.4512,0.2415 0.8879,0.5099 1.349,0.7357 0.2872,0.1398 0.5975,0.2415 0.8951,0.3626 0.5678,0.2315 0.3065,0.239 0.634,0.2141 0.056,0.117 0.024,0.086 0.069,-0.2768 -0.061,0.1414 1.0485,-0.029 1.1098,-0.1718 l 0,0 c 0.3186,-1.0845 0.2556,-0.6158 0.1743,-1.3952 -0.3183,-0.2166 -0.6424,-0.4263 -0.96,-0.6453 -0.5555,-0.3828 -1.0173,-0.7508 -1.6112,-1.0694 -0.4099,-0.2191 -0.8513,-0.3858 -1.2611,-0.6062 -0.4447,-0.239 -0.8679,-0.514 -1.3019,-0.7708 -0.6331,-0.4162 -1.927,-1.3053 -2.6737,-1.6673 -0.3403,-0.1643 -0.7186,-0.2625 -1.0711,-0.4057 -0.2479,-0.1024 -0.4853,-0.2217 -0.7298,-0.3278 -1.1222,-0.4912 -0.5431,-0.1717 -1.4566,-0.745 -0.027,-0.08 -1.4622,1.7342 -1.4347,1.8147 z"
       inkscape:connector-curvature="0" />
    <path
       style="opacity:0.95999995000000005;fill:#ff0011;fill-opacity:1;stroke:#0003ba;stroke-width:0.02519437000000000;stroke-miterlimit:4;stroke-opacity:1;stroke-dasharray:none;stroke-dashoffset:0"
       id="path5476-9-6-3-9-4-8-0-1-8-3"
       d="m 17.767735,1041.5586 c 0.5119,-0.2292 0.784,-0.848 1.2655,-1.1263 3.9497,-2.2828 -1.0325,1.0935 2.3271,-1.0024 1.4187,-1.0577 0.7081,-0.5837 2.1236,-1.4359 2.4114,-1.3508 0.2367,-0.1463 2.5514,-1.3899 0.4511,-0.2416 0.8879,-0.5098 1.3489,-0.7357 0.2873,-0.1382 0.5974,-0.2417 0.8951,-0.3625 0.5676,-0.2318 0.3066,-0.2391 0.6341,-0.2142 0.056,-0.1171 0.023,-0.086 0.069,0.2768 -0.061,-0.1414 1.0485,0.029 1.1099,0.1718 l 0,0 c 0.3185,1.0845 0.2555,0.6157 0.1742,1.395 -0.3185,0.2166 -0.6423,0.4263 -0.9599,0.6456 -0.5555,0.3825 -1.0173,0.7505 -1.6113,1.0694 -0.4099,0.2189 -0.8513,0.3857 -1.2611,0.6061 -0.4447,0.2391 -0.8679,0.5138 -1.3018,0.7708 -0.6332,0.4161 -1.927,1.3052 -2.6739,1.6672 -0.3401,0.1644 -0.7187,0.2625 -1.0709,0.4059 -0.2479,0.1024 -0.4854,0.2215 -0.7298,0.3277 -1.1225,0.491 -0.5432,0.1716 -1.4567,0.7446 -0.029,0.081 -1.4622,-1.7339 -1.4346,-1.8143 z"
       inkscape:connector-curvature="0" />
  </g>
</svg>
