<?xml version="1.0" encoding="UTF-8" standalone="no"?>
<!-- Created with Inkscape (http://www.inkscape.org/) -->

<svg
   xmlns:dc="http://purl.org/dc/elements/1.1/"
   xmlns:cc="http://creativecommons.org/ns#"
   xmlns:rdf="http://www.w3.org/1999/02/22-rdf-syntax-ns#"
   xmlns:svg="http://www.w3.org/2000/svg"
   xmlns="http://www.w3.org/2000/svg"
   xmlns:sodipodi="http://sodipodi.sourceforge.net/DTD/sodipodi-0.dtd"
   xmlns:inkscape="http://www.inkscape.org/namespaces/inkscape"
   width="32"
   height="32"
   id="svg2"
   version="1.1"
   inkscape:version="0.48.5 r10040"
   sodipodi:docname="time.svg">
  <defs
     id="defs4">
    <marker
       inkscape:stockid="Arrow2Lstart"
       orient="auto"
       refY="0"
       refX="0"
       id="Arrow2Lstart"
       style="overflow:visible">
      <path
         id="path3777"
         style="fill-rule:evenodd;stroke-width:0.625;stroke-linejoin:round"
         d="M 8.7185878,4.0337352 -2.2072895,0.01601326 8.7185884,-4.0017078 c -1.7454984,2.3720609 -1.7354408,5.6174519 -6e-7,8.035443 z"
         transform="matrix(1.1,0,0,1.1,1.1,0)"
         inkscape:connector-curvature="0" />
    </marker>
    <marker
       inkscape:stockid="Arrow2Lstart"
       orient="auto"
       refY="0"
       refX="0"
       id="Arrow2Lstart-3"
       style="overflow:visible">
      <path
         inkscape:connector-curvature="0"
         id="path3777-6"
         style="fill-rule:evenodd;stroke-width:0.625;stroke-linejoin:round"
         d="M 8.7185878,4.0337352 -2.2072895,0.01601326 8.7185884,-4.0017078 c -1.7454984,2.3720609 -1.7354408,5.6174519 -6e-7,8.035443 z"
         transform="matrix(1.1,0,0,1.1,1.1,0)" />
    </marker>
  </defs>
  <sodipodi:namedview
     id="base"
     pagecolor="#ffffff"
     bordercolor="#666666"
     borderopacity="1.0"
     inkscape:pageopacity="0.0"
     inkscape:pageshadow="2"
     inkscape:zoom="4"
     inkscape:cx="37.301578"
     inkscape:cy="-17.162875"
     inkscape:document-units="px"
     inkscape:current-layer="layer1"
     showgrid="false"
     inkscape:snap-global="false"
     showguides="true"
     inkscape:guide-bbox="true"
     inkscape:window-width="1085"
     inkscape:window-height="1000"
     inkscape:window-x="589"
     inkscape:window-y="29"
     inkscape:window-maximized="0" />
  <metadata
     id="metadata7">
    <rdf:RDF>
      <cc:Work
         rdf:about="">
        <dc:format>image/svg+xml</dc:format>
        <dc:type
           rdf:resource="http://purl.org/dc/dcmitype/StillImage" />
        <dc:title />
      </cc:Work>
    </rdf:RDF>
  </metadata>
  <g
     inkscape:label="Layer 1"
     inkscape:groupmode="layer"
     id="layer1"
     transform="translate(0,-1020.3622)">
    <flowRoot
       xml:space="preserve"
       id="flowRoot6037"
       style="font-size:40px;font-style:normal;font-weight:normal;line-height:125%;letter-spacing:0px;word-spacing:0px;fill:#000000;fill-opacity:1;stroke:none;font-family:Sans"><flowRegion
         id="flowRegion6039"><rect
           id="rect6041"
           width="321.22852"
           height="40.406101"
           x="280.82242"
           y="-264.87674" /></flowRegion><flowPara
         id="flowPara6043">distd</flowPara></flowRoot>    <path
       style="opacity:0.95999995000000005;fill:#4f4c4d;fill-opacity:1;stroke:#4f4c4d;stroke-width:0.02191543000000000;stroke-miterlimit:4;stroke-opacity:1;stroke-dasharray:none;stroke-dashoffset:0"
       id="path5476-9-6-3-86"
       d="m 14.699071,1035.5991 c 0.444447,0.049 0.880575,-0.3332 1.323187,-0.3377 3.632035,-0.037 -1.149837,0.4195 2.00154,0.2609 1.400626,-0.2094 0.72166,-0.1507 2.036895,-0.1918 2.200092,0.013 0.221673,-0.01 2.312029,0.046 0.407502,0.011 0.815248,-0.01 1.222627,0.024 0.253847,0.018 0.507083,0.081 0.760563,0.1192 0.483595,0.073 0.307064,-0.054 0.521641,0.1196 0.08686,-0.07 0.05016,-0.061 -0.06361,0.2613 0.0159,-0.1465 0.707592,0.5143 0.692055,0.6608 l 0,0 c -0.219348,1.0439 -0.0734,0.6275 -0.44359,1.2325 -0.306452,0.031 -0.612904,0.052 -0.919356,0.084 -0.535709,0.056 -1.001076,0.1439 -1.537274,0.1291 -0.370189,-0.01 -0.740011,-0.08 -1.1102,-0.089 -0.401507,-0.011 -0.803014,0.018 -1.204521,0.028 -0.602383,0.047 -1.849232,0.176 -2.507767,0.1256 -0.30009,-0.023 -0.599079,-0.1195 -0.898925,-0.1659 -0.210785,-0.033 -0.422059,-0.045 -0.632967,-0.071 -0.968412,-0.1193 -0.442611,-0.1114 -1.300187,-0.066 -0.05138,0.053 -0.303271,-2.1143 -0.252135,-2.1676 z"
       inkscape:connector-curvature="0" />
    <path
       style="opacity:0.95999995;fill:#4f4c4d;fill-opacity:1;stroke:#4f4c4d;stroke-width:0.02397785;stroke-miterlimit:4;stroke-opacity:1;stroke-dasharray:none;stroke-dashoffset:0"
       d="m 2.8303551,1033.4283 c 0.3253752,-1.6463 3.595668,0.5663 1.2402185,0.6858 -1.2587446,-0.3557 -0.709534,-1.6015 -0.9662148,-1.7376 0.1414861,-1.1241 0.7279255,-1.6496 0.4199742,-1.1594 -0.095457,-0.6538 0.8074141,-1.1624 0.4937249,-1.1949 0.4349498,-0.5807 0.6810383,-0.8956 0.8821494,-1.2081 0.5271846,-0.6717 0.7117551,-1.0374 0.8094165,-0.933 0.7115701,-1.0124 1.336761,-1.4322 1.5183028,-1.4857 0.2052924,-0.2859 1.4042691,-1.1185 0.5810211,-0.2745 0.4997405,-0.8169 1.052594,-1.1909 1.2453591,-1.1296 1.1142802,-0.7354 0.6783881,-0.4524 0.8507678,-0.4117 -0.1568403,-0.5182 2.8199214,-0.8815 1.3401184,-0.7311 1.042136,-0.5262 1.345073,-0.045 0.834732,-0.2861 0.5174,-0.3397 1.694157,-0.1441 0.621236,-0.269 0.244213,-0.1451 -0.239172,0.3886 0.558289,-0.092 1.622097,-0.3412 -0.485539,-0.4309 -0.221379,0.2757 0.980576,-0.8318 0.731325,-0.4201 1.848087,-0.6215 -0.586574,-0.118 1.332865,0.1514 0.513647,0.059 1.264895,-0.061 1.039714,-0.1223 1.328415,-0.042 0.304359,-0.1576 2.795313,0.1453 2.465983,0.052 0.940689,0.091 1.779796,0.8641 0.417392,0.1684 -0.04979,-0.1724 2.278266,0.4103 0.616744,1.0672 -1.163725,1.6334 -0.266626,-0.3381 0.1211,-0.5418 -0.368964,1.0493 -2.061237,1.2839 -0.169157,1.4044 -0.854116,0.4943 -2.325044,-1.092 -0.761276,-0.015 0.877598,0.031 -1.564466,-0.1301 -1.590286,-0.1536 -0.930711,-0.01 -1.941264,0.074 -3.096122,0.01 -0.705032,-0.016 0.381913,-0.065 -0.781812,-0.01 -1.169564,0.2156 1.71222,-1.1582 0.462461,-0.1001 -0.956868,0.4912 -1.552208,0.064 -0.212452,-0.042 1.054487,-0.5063 -2.533491,1.2256 -0.758499,0.4109 -0.420185,0.5017 -1.553395,0.4214 -0.880063,0.4455 -0.39778,0.2051 -1.786325,0.3983 -0.555504,0.1827 -0.651575,0.2542 -1.431116,0.6575 -0.818301,0.2397 -0.716896,0.5993 -0.441495,0.2572 -1.15707,0.9225 -0.2704618,-0.4555 0.594356,-0.5106 -0.3302549,0.1823 0.075063,-0.3525 -1.0228952,0.8828 -1.0347747,0.6474 -0.4583556,0.4264 -1.9262207,1.8601 -1.0056227,0.6612 -0.5335787,1.2551 -0.5005061,0.713 -0.3671892,0.5578 -0.631055,1.1435 -0.2423866,0.022 -0.7690833,1.1278 0.1857653,-0.3203 -1.5786175,2.0589 -0.888922,1.133 -0.3830567,0.7 -0.2892822,0.8941 -0.193598,-0.034 0.4918572,1.379 -0.5631598,1.105 -0.029918,0.7352 -0.2054355,1.3928 -0.6808448,0.9084 -1.5322688,0.3275 -2.1381008,0.894 0.3979145,1.0718 1.1807703,1.2934 -0.1614088,1.0003 -1.6845071,0.083 -2.230142,-0.1194 z"
       id="path8175-57-0"
       inkscape:connector-curvature="0" />
    <path
       style="opacity:0.95999995;fill:#4f4c4d;fill-opacity:1;stroke:#4f4c4d;stroke-width:0.02397785;stroke-miterlimit:4;stroke-opacity:1;stroke-dasharray:none;stroke-dashoffset:0"
       d="m 20.255875,1023.2122 c 1.729821,0.6084 -2.236519,0.3964 0.300321,0.3914 2.043502,-0.06 -1.933052,0.8694 0.350379,0.1478 0.973779,-0.3327 2.246641,1.5062 1.685828,0.9168 -0.35647,0.957 -1.657938,-1.4099 -0.220899,-0.4933 0.934842,0.7689 0.935372,0.4424 -0.07712,0.2324 0.532948,0 1.644292,0.9443 0.904125,0.2008 0.958189,0.5473 -1.27812,-0.3639 0.255562,0.2901 1.327069,0.6011 -1.602318,-0.5569 0.04602,0.069 1.03883,0.2333 0.918142,1.342 0.680054,0.2879 0.316744,1.0853 0.889082,0.9603 0.04743,0.03 0.357834,0.04 0.801643,1.0971 0.415103,0.2378 0.534521,0.3543 0.293052,0.1782 0.87515,0.7773 -0.895173,-1.0052 1.337955,1.05 0.184082,0.061 0.28728,0.067 0.810208,0.9901 0.823198,1.0279 0.423718,0.8526 0.173128,0.3883 0.113672,0.054 -0.2841,0.01 0.463117,1.7805 0.236606,0.2895 0.708432,0.9227 -0.08082,0.7023 -0.104207,0.062 0.727379,0.788 0.948682,1.7352 0.279936,0.692 0.602475,0.7807 0.731425,1.2417 0.07802,0.2592 0.406707,0.8148 0.736516,0.4157 0.647066,0.9894 -0.0035,-0.9214 -1.348952,1.2102 -1.979208,0.4021 0.169545,0.2711 -0.04159,-0.4924 0.454974,0.4844 -0.545879,-0.578 -0.984733,-1.7783 -0.150161,-0.4423 -1.129642,-1.0629 -0.528842,-1.153 -0.516154,-0.7343 -0.61369,-0.6977 -0.552576,-0.3717 -0.546662,-1.4534 0.853065,1.6616 -0.257842,0.6467 -0.58336,-0.025 0.642186,0.5588 -0.615263,-0.7302 -0.06877,-0.033 -0.330642,-0.071 -1.177565,-1.158 -0.387145,-0.3168 -0.145887,0 -1.295116,-1.2018 -0.822256,-0.6059 0.5586,0.5515 -1.254613,-1.9778 -0.07909,-0.536 0.652694,1.8076 -1.633775,-1.5156 -0.512057,0.126 1.271608,0.4519 1.231283,-0.042 -0.02093,0.032 -1.504446,-0.9259 1.65761,0.316 -0.217138,-0.094 -0.695778,-0.3694 -0.06349,-0.2498 -0.649404,-0.5941 1.054722,0.3553 1.306978,0.7301 0.0036,0.1905 -0.818848,-0.4643 1.053276,0.2606 -0.271597,-0.3513 -1.08867,-0.4767 -0.149748,-0.408 -0.547848,0.015 -1.58486,-0.5338 2.313661,-1.0378 0.131289,-0.2355 -1.095131,0.1325 -1.276202,-0.4874 -0.03523,-0.4382 -2.169516,0.6681 -2.079646,-0.1769 -0.723223,-1.9138 z"
       id="path8187-49-4"
       inkscape:connector-curvature="0" />
    <path
       style="opacity:0.95999995;fill:#4f4c4d;fill-opacity:1;stroke:#4f4c4d;stroke-width:0.02397785;stroke-miterlimit:4;stroke-opacity:1;stroke-dasharray:none;stroke-dashoffset:0"
       d="m 27.12537,1028.1858 c 1.02801,1.3263 -2.788069,2.3401 -1.331621,0.4851 1.094821,-0.7159 1.673814,0.5164 1.945042,0.4122 0.754881,0.8447 0.766163,1.6321 0.59863,1.0779 0.56289,0.3639 0.324441,1.2887 0.577126,1.157 0.161543,1.0211 0.416583,1.3844 0.545963,2.7967 -0.08657,-0.8738 0.03488,1.8077 0.151641,1.8796 -0.169234,-1.0473 0.03492,2.2668 -0.243624,0.745 0.287659,0.9257 0.209567,1.555 0.03422,1.6809 -0.176982,1.3233 -0.104156,0.8088 -0.248066,0.912 0.492792,0.2242 -1.175461,2.6969 -0.328521,1.4908 -0.287423,1.1315 -0.849271,1.044 -0.332291,0.8175 -0.08359,0.6131 -1.003755,1.3724 -0.205074,0.6451 -0.05088,0.2794 -0.135976,-0.4355 -0.2973,0.4813 -0.807734,1.4475 0.643818,-0.083 -0.06256,-0.3479 -0.01598,1.2854 -0.164118,0.8276 -0.745123,1.8019 0.47419,-0.3649 -0.989317,0.9059 -0.382055,0.3485 -0.784379,0.9941 -0.590478,0.8644 -0.840975,1.0291 -0.0809,0.3331 -1.945066,2.0129 -1.65867,1.8256 -0.686389,0.6497 -1.820356,0.775 -0.401086,0.2042 0.162763,0.076 -1.805347,1.449 -1.209864,-0.2355 -0.467828,-1.9502 0.430079,0.021 0.329178,0.4471 -0.549168,-0.9673 0.385043,-2.3977 -0.948193,-1.0498 0.187995,-0.9687 2.350275,-1.0365 0.511124,-0.5643 -0.599438,0.6417 1.125335,-1.0946 1.160023,-1.0986 0.616096,-0.6977 1.218621,-1.513 2.026978,-2.3404 0.475123,-0.5212 -0.202011,0.3306 0.518695,-0.585 0.60537,-1.0237 -0.250673,2.0519 -0.228117,0.4146 0.257741,-1.0443 0.970598,-1.2131 0.171,-0.1328 -0.310122,1.128 0.741041,-2.7179 0.188121,-0.8419 -0.0066,-0.6971 0.563504,-1.353 0.256487,-0.9969 0.108422,-0.4391 0.849682,-1.5489 0.212292,-0.4983 0.236102,-0.6584 0.443742,-1.5112 0.356564,-0.7746 0.0187,-0.9343 0.09594,-0.5019 0.06398,-1.4785 0.52116,0.095 -0.0051,0.7836 0.07935,-0.3688 0.21655,0.2881 0.0061,-1.351 0.190813,-1.2055 -0.02065,-0.6258 -0.137708,-2.6742 0.161847,-1.1927 -0.596115,-1.2261 -0.209298,-0.8459 -0.179683,-0.6433 -0.448057,-1.2267 0.142807,-0.197 -0.345584,-1.3204 0.119856,0.3503 -0.516912,-2.5425 -0.27121,-1.4143 -0.276536,-0.7486 -0.484479,-0.8053 0.152457,-0.1239 -1.362994,-0.5345 -0.463606,-1.1503 -0.534824,-0.5053 -0.915651,-1.0695 -0.238803,-1.1099 0.758735,-1.3707 0.729591,-2.1997 -1.069648,-0.4037 -1.750821,0.041 -0.648479,-0.7788 1.04408,-1.3251 1.555002,-1.604 z"
       id="path8175-8-9-6"
       inkscape:connector-curvature="0" />
    <path
       style="opacity:0.95999995;fill:#4f4c4d;fill-opacity:1;stroke:#4f4c4d;stroke-width:0.02397785;stroke-miterlimit:4;stroke-opacity:1;stroke-dasharray:none;stroke-dashoffset:0"
       d="m 23.000447,1048.4828 c -1.594686,0.9052 1.169547,-1.9472 -0.49237,-0.031 -1.29636,1.5808 0.613539,-2.0288 -0.341579,0.1672 -0.388391,0.953 -2.611197,0.7055 -1.798356,0.6696 -0.487793,-0.8973 2.152,-0.3248 0.517114,0.1573 -1.19376,0.2003 -0.947882,0.4148 -0.124676,-0.2109 -0.353543,0.3988 -1.791886,0.6201 -0.745123,0.5501 -1.041934,0.3633 1.113692,-0.7251 -0.386632,0 -1.32473,0.6062 1.472114,-0.8429 -0.08222,-0.011 -0.858079,0.6303 -1.614988,-0.1887 -0.663707,0.3238 -1.026513,-0.4737 -1.308013,0.04 -0.05377,0.016 -0.412756,0.2262 -1.266249,-0.1 -0.38145,0.1878 -0.791757,-0.018 -0.254821,0.2107 -1.237164,0.062 1.143179,0.1881 -1.359805,0.191 -0.135513,0.1887 -1.704514,0.031 -0.588282,-0.01 -1.341691,-0.088 -0.921313,-0.2403 -0.406597,-0.1245 -0.115666,0.05 0.179388,-0.2204 -1.646976,-0.8197 -0.373718,-0.012 -1.161125,-0.072 -0.476663,-0.5221 0.02179,-0.1192 -1.07191,0.031 -1.931655,-0.4238 -0.705722,-0.2432 -0.984422,-0.058 -1.416898,-0.2637 -0.246779,-0.1114 -0.881594,-0.2282 -0.797133,0.2826 -1.171095,-0.1616 0.697251,0.6023 -0.027,-1.812 0.996276,-1.7568 -0.315801,-0.05 0.398722,0.292 -0.664094,0.025 0.794424,-0.032 1.98789,0.425 0.432215,0.1772 1.543459,-0.1541 1.216779,0.3581 0.892776,0.093 0.929179,0 0.643153,-0.1727 1.45511,0.542 -1.813348,-0.4476 -0.318443,-0.6191 0.402071,-0.4234 -0.843154,0.1174 0.954714,0.015 0.06975,-0.031 0.270899,-0.2026 1.646572,-0.1279 0.493077,-0.084 0.0943,-0.1112 1.756828,-0.1882 0.996915,-0.2227 -0.782772,0.059 2.315478,0.3524 0.456202,0.2923 -1.791878,-0.6946 2.215839,-0.237 0.241175,-0.4689 -1.175773,0.6624 -0.776588,0.9565 -0.01022,-0.037 1.686131,-0.5268 -1.326724,1.0427 0.213218,-0.1023 0.73548,-0.2822 0.230128,0.1161 0.874535,-0.1 -0.960544,0.5622 -1.408846,0.5064 -0.146063,-0.1223 0.887862,-0.3127 -0.888165,0.6233 0.443262,0.026 1.074418,-0.5081 0.406008,0.155 0.348486,-0.4231 1.443198,-0.8448 -0.736439,2.4265 0.09136,0.2537 0.619193,-0.913 1.20559,-0.6425 0.353627,0.2611 0.92107,-2.0758 1.498944,-1.4515 1.918657,0.7121 z"
       id="path8187-4-4-7"
       inkscape:connector-curvature="0" />
    <path
       style="opacity:0.95999995;fill:#4f4c4d;fill-opacity:1;stroke:#4f4c4d;stroke-width:0.02397785;stroke-miterlimit:4;stroke-opacity:1;stroke-dasharray:none;stroke-dashoffset:0"
       d="m 16.46369,1050.3371 c -1.734768,0.036 -0.321589,-3.5217 0.393296,-1.3867 0.353685,1.9776 -3.239417,1.376 -2.896272,1.2389 1.185902,0.012 -0.563505,0.1017 -0.590386,-0.011 -1.077766,-0.6457 0.364304,0.2872 -0.92048,-0.3164 -0.282156,-0.1987 -1.316014,-0.4131 -2.191458,-0.9742 0.768158,0.4255 -1.5070454,-0.999 -1.6325631,-0.9437 0.9578688,0.4561 -1.8847685,-1.2599 -0.4743913,-0.624 -0.9150453,-0.2822 -1.4141127,-0.7254 -1.4023846,-0.9273 -0.9880641,-0.8979 -0.6061853,-0.5455 -0.6093234,-0.7226 -0.465448,0.2778 -1.5508706,-2.5004 -1.0401087,-1.1175 -0.7676278,-0.8796 -0.3760905,-1.2921 -0.4836207,-0.738 -0.4568327,-0.4173 -0.5585745,-1.6056 -0.4141437,-0.5358 -0.2009849,-0.2007 0.4355724,0.1357 -0.2270492,-0.5182 -0.7317283,-1.4874 -0.2974516,0.577 0.3218669,0.1463 -1.0484547,-0.7438 -0.5876341,-0.6055 -1.0589461,-1.6373 0.030675,0.5975 -0.1828795,-1.3289 -0.069443,-0.5124 -0.3719932,-1.2104 -0.3756193,-0.9773 -0.3686111,-1.2769 -0.1580014,-0.6964 -0.470193,-1.1938 -0.5072535,-2.6122 -0.3308691,1.2443 0.3825855,-2.5253 -0.020293,-0.4655 0.077377,1.2659 -0.3173827,-2.1855 0.5817279,-0.7873 1.1640783,0.4219 1.3700523,0.8542 0.032206,0.3305 -1.26036,-0.7779 1.6804519,0.8725 1.1654245,0.5041 -0.1090614,-2.0573 0.4850341,0.8434 -0.087305,0.6512 0.459424,-0.7317 -0.02513,-1.4944 0.3411754,-0.2316 0.0824,1.1768 0.4080525,1.8825 0.5895438,2.7066 0.1143449,0.4786 0.5679554,1.9405 0.2648669,1.3635 1.0292976,1.8338 -0.6727596,0.3511 -0.2456762,0.1756 0.9381145,0.4119 0.8617976,1.9745 0.2944396,0.3588 -0.7517435,-0.8964 1.8147868,2.1546 0.5856653,0.6333 0.5773025,0.3908 0.7927582,1.2327 0.674417,0.7777 0.2996054,0.3388 0.7912439,1.5795 0.2892823,0.458 0.4074299,0.5684 0.9910761,1.2241 0.4346385,0.7337 0.7579861,0.5464 0.3583973,0.3642 1.1800047,0.893 -0.3745004,0.3747 -0.6417651,-0.4496 0.2582962,0.275 -0.360139,0.014 1.1079786,0.773 0.8833356,0.8422 0.526512,0.3388 2.278283,1.4068 0.889158,0.8112 1.347522,0.2066 0.815272,0.3087 0.631391,0.2178 1.263928,0.3287 0.08097,0.2295 1.282858,0.4663 -0.35637,-0.1005 2.385543,1.0201 1.31773,0.5809 0.77302,0.198 0.937912,0.059 0.01527,0.1958 1.214491,-0.8175 1.209897,0.2725 0.719714,-0.1528 1.400416,-0.1453 1.0489,0.4345 0.696418,1.4034 1.39493,1.8507 0.940133,-0.6505 0.961268,-1.4639 1.009425,-0.091 0.49656,1.6123 0.435715,2.1913 z"
       id="path8175-8-8-5-6"
       inkscape:connector-curvature="0" />
    <path
       style="opacity:0.95999995;fill:#4f4c4d;fill-opacity:1;stroke:#4f4c4d;stroke-width:0.02397785;stroke-miterlimit:4;stroke-opacity:1;stroke-dasharray:none;stroke-dashoffset:0"
       d="m 2.0441508,1036.0628 c 0.1617369,-1.8266 0.937088,2.069 0.3049393,-0.3878 -0.5636141,-1.9651 1.320372,1.6581 0.056655,-0.376 -0.5633197,-0.8613 0.9039313,-2.5493 0.4713877,-1.8602 1.015483,0.1088 -0.9561526,1.9551 -0.4233563,0.336 0.5137486,-1.096 0.197527,-1.0156 0.2443469,0.017 -0.1271247,-0.5176 0.5084146,-1.8267 -0.028967,-0.9257 0.2933627,-1.0638 -0.036581,1.3284 0.2179208,-0.3194 0.2543082,-1.4344 -0.1433875,1.6903 0.055427,-0.062 -0.030784,-1.0642 1.0732318,-1.2215 0.110845,-0.7301 0.9732736,-0.5753 0.7105857,-1.0989 0.017357,-0.053 0.048561,-0.4682 0.8017099,-0.9852 0.062292,-0.4206 0.4645393,-0.6412 -0.028412,-0.3292 0.6520209,-1.053 -0.8045957,0.8336 0.6158437,-1.2273 -0.07821,-0.2188 0.943255,-1.4201 0.340292,-0.4799 0.8350855,-1.0538 0.7214051,-0.6214 0.3335277,-0.2637 0.024609,-0.1236 0.079379,0.2729 1.6106133,-0.889 0.2219424,-0.3009 0.7189316,-0.9146 0.700515,-0.095 0.085672,0.086 0.5836545,-0.8996 1.4467141,-1.3482 0.601314,-0.4423 0.607523,-0.7768 1.0223735,-1.0158 0.2318953,-0.1397 0.6889467,-0.5956 0.2206551,-0.8165 0.7986727,-0.8717 -0.8918498,0.2313 1.5061035,1.0079 0.8790281,1.8184 0.2207476,-0.2314 -0.466853,0.162 0.3568745,-0.5606 -0.4251063,0.6718 -1.4796521,1.3939 -0.3914531,0.2549 -0.7506161,1.3574 -0.9863479,0.7975 -0.583907,0.6817 -0.5242652,0.7672 -0.2234988,0.6273 -1.2730388,0.889 1.3990698,-1.2374 0.6903434,0.09 0.1197968,0.5715 0.3826865,-0.7604 -0.5553944,0.7767 -0.014589,0.075 0.012628,0.338 -0.8308283,1.4274 -0.2111565,0.4535 0.037868,0.1407 -0.8438605,1.5523 -0.3835447,0.9467 0.396274,-0.6776 -1.6061458,1.7047 -0.4998077,0.2092 1.5900007,-1.0794 -1.0647008,1.9577 0.2486208,0.4649 0.1234313,-1.3438 -0.3454493,-1.1826 0.035958,0.012 -0.5251065,1.6866 -0.1037021,-1.6843 -0.037069,0.2335 -0.1859083,0.7655 -0.2263846,0.1233 -0.4151197,0.7762 0.08346,-1.1099 0.3842766,-1.4469 0.1836451,-0.051 -0.2474346,0.9083 -0.00782,-1.085 -0.2731709,0.3501 -0.192723,1.1727 -0.3583132,0.2459 0.14995,0.5272 -0.1253159,1.6675 -1.5776585,-1.9853 -0.260593,-0.069 0.3991429,1.0284 -0.1567815,1.3571 -0.4159106,0.1425 1.1845227,1.9376 0.3415288,2.0587 -1.676363,1.1735 z"
       id="path8187-4-1-9-0"
       inkscape:connector-curvature="0" />
    <path
       style="opacity:0.95999995000000005;fill:#4f4c4d;fill-opacity:1;stroke:#4f4c4d;stroke-width:0.02056548000000000;stroke-miterlimit:4;stroke-opacity:1;stroke-dasharray:none;stroke-dashoffset:0"
       id="path5476-9-6-0-3-9"
       d="m 15.217595,1027.2742 c 0.02928,0.394 0.479307,0.6959 0.560969,1.0781 0.669986,3.1357 -0.610826,-0.9123 0.09415,1.7837 0.449151,1.1706 0.273166,0.5946 0.542973,1.7248 0.371424,1.906 0.04853,0.1883 0.35871,2.0093 0.06047,0.3549 0.147734,0.7044 0.190056,1.0627 0.02638,0.2232 0.0095,0.4547 0.01616,0.682 0.01257,0.4327 0.106231,0.254 -0.02606,0.4747 0.08299,0.061 0.06899,0.034 -0.2665,0 0.143274,-0.029 -0.379443,0.7139 -0.525434,0.7293 l 0,0 c -1.059195,0.016 -0.626511,0.06 -1.28269,-0.1407 -0.08352,-0.2588 -0.157449,-0.5206 -0.24228,-0.7792 -0.148322,-0.4523 -0.315311,-0.8377 -0.394488,-1.3049 -0.05452,-0.3214 -0.05138,-0.656 -0.106241,-0.978 -0.05959,-0.3498 -0.158069,-0.6914 -0.237123,-1.0372 -0.151248,-0.5119 -0.494707,-1.5655 -0.560275,-2.1451 -0.02958,-0.2627 0.01229,-0.5423 0.0054,-0.8105 -0.0053,-0.1908 -0.02982,-0.3742 -0.04125,-0.562 -0.0522,-0.8613 0.03175,-0.4048 -0.161775,-1.1378 -0.06148,-0.036 2.014883,-0.6783 2.075532,-0.6469 z"
       inkscape:connector-curvature="0" />
  </g>
</svg>
