<?xml version="1.0" encoding="UTF-8" standalone="no"?>
<!-- Created with Inkscape (http://www.inkscape.org/) -->

<svg
   xmlns:dc="http://purl.org/dc/elements/1.1/"
   xmlns:cc="http://creativecommons.org/ns#"
   xmlns:rdf="http://www.w3.org/1999/02/22-rdf-syntax-ns#"
   xmlns:svg="http://www.w3.org/2000/svg"
   xmlns="http://www.w3.org/2000/svg"
   xmlns:sodipodi="http://sodipodi.sourceforge.net/DTD/sodipodi-0.dtd"
   xmlns:inkscape="http://www.inkscape.org/namespaces/inkscape"
   width="400.15625"
   height="400.15625"
   id="svg9167"
   version="1.1"
   inkscape:version="0.48.5 r10040"
   sodipodi:docname="import.svg"
   inkscape:export-filename="/home/banana/flySightAndroid/FloatSight/icons/mainmenu/drawing.png"
   inkscape:export-xdpi="44.98243"
   inkscape:export-ydpi="44.98243">
  <defs
     id="defs9169" />
  <sodipodi:namedview
     id="base"
     pagecolor="#ffffff"
     bordercolor="#666666"
     borderopacity="1.0"
     inkscape:pageopacity="0.0"
     inkscape:pageshadow="2"
     inkscape:zoom="0.7"
     inkscape:cx="703.84583"
     inkscape:cy="-19.814149"
     inkscape:document-units="px"
     inkscape:current-layer="layer1"
     showgrid="false"
     fit-margin-top="0"
     fit-margin-left="0"
     fit-margin-right="0"
     fit-margin-bottom="0"
     inkscape:window-width="1680"
     inkscape:window-height="1002"
     inkscape:window-x="0"
     inkscape:window-y="29"
     inkscape:window-maximized="1" />
  <metadata
     id="metadata9172">
    <rdf:RDF>
      <cc:Work
         rdf:about="">
        <dc:format>image/svg+xml</dc:format>
        <dc:type
           rdf:resource="http://purl.org/dc/dcmitype/StillImage" />
        <dc:title></dc:title>
      </cc:Work>
    </rdf:RDF>
  </metadata>
  <g
     inkscape:label="Layer 1"
     inkscape:groupmode="layer"
     id="layer1"
     transform="translate(-399.91966,-115.14732)">
    <g
       id="g5715"
       transform="matrix(0.95718716,0,0,1,-3572.9039,1960.2909)">
      <path
         sodipodi:nodetypes="cccc"
         inkscape:connector-curvature="0"
         id="path2987-3-7-56-2-6-2-9-9-7-6-7-6-1"
         d="M 420.46115,244.24015 316.29658,424.65846 107.96747,424.65845 3.8029175,244.24013"
         style="opacity:0.95999995;fill:#b5d92a;fill-opacity:1;stroke:#a0b643;stroke-width:27.73947144;stroke-miterlimit:4;stroke-opacity:1;stroke-dashoffset:0"
         transform="matrix(0.10814914,0,0,0.10814914,4473.7377,-1678.935)" />
      <path
         sodipodi:nodetypes="cccc"
         inkscape:connector-curvature="0"
         id="path2987-3-7-56-2-6-2-9-9-7-6-7-6-1-5"
         d="M 3.8029175,244.24013 107.96748,63.82183 l 208.32912,1e-5 104.16455,180.41831"
         style="opacity:0.95999995;fill:#b5d92a;fill-opacity:1;stroke:#a0b643;stroke-width:27.73947144;stroke-miterlimit:4;stroke-opacity:1;stroke-dashoffset:0"
         transform="matrix(0.10814914,0,0,0.10814914,4473.9331,-1640.0678)" />
      <path
         sodipodi:nodetypes="cccc"
         inkscape:connector-curvature="0"
         id="path2987-3-7-56-2-6-2-9-9-7-6-7-6-1-54"
         d="M 107.96747,424.65845 3.8029175,244.24013 107.96748,63.82183 c -0.36495,0.948774 312.49367,180.41832 312.49367,180.41832"
         style="opacity:0.95999995;fill:#b5d92a;fill-opacity:1;stroke:#a0b643;stroke-width:27.73947144;stroke-miterlimit:4;stroke-opacity:1;stroke-dashoffset:0"
         transform="matrix(0.10814914,0,0,0.10814914,4507.1362,-1659.1108)" />
      <path
         transform="matrix(0.10814914,0,0,0.10814914,4440.1441,-1659.2085)"
         d="M 316.29658,424.65846 107.96747,424.65845 3.8029175,244.24013 107.96748,63.82183 l 208.32912,1e-5 104.16455,180.41831 z"
         inkscape:randomized="0"
         inkscape:rounded="0"
         inkscape:flatsided="true"
         sodipodi:arg2="1.5707963"
         sodipodi:arg1="1.0471976"
         sodipodi:r2="180.4183"
         sodipodi:r1="208.32912"
         sodipodi:cy="244.24014"
         sodipodi:cx="212.13203"
         sodipodi:sides="6"
         id="path2987-3-7-56-2-6-2-9-9-7-6-7-6"
         style="opacity:0.95999995;fill:#b5d92a;fill-opacity:1;stroke:#a0b643;stroke-width:27.73947144;stroke-miterlimit:4;stroke-opacity:1;stroke-dasharray:none;stroke-dashoffset:0"
         sodipodi:type="star" />
      <path
         transform="matrix(0.10814914,0,0,0.10814914,4204.0977,-1834.314)"
         d="M 316.29658,424.65846 107.96747,424.65845 3.8029175,244.24013 107.96748,63.82183 l 208.32912,1e-5 104.16455,180.41831 z"
         inkscape:randomized="0"
         inkscape:rounded="0"
         inkscape:flatsided="true"
         sodipodi:arg2="1.5707963"
         sodipodi:arg1="1.0471976"
         sodipodi:r2="180.4183"
         sodipodi:r1="208.32912"
         sodipodi:cy="244.24014"
         sodipodi:cx="212.13203"
         sodipodi:sides="6"
         id="path2987-3-7-56-22-9-2-1"
         style="opacity:0.95999995;fill:#b5d92a;fill-opacity:1;stroke:#a0b643;stroke-width:27.73947144;stroke-miterlimit:4;stroke-opacity:1;stroke-dasharray:none;stroke-dashoffset:0"
         sodipodi:type="star" />
      <path
         transform="matrix(0.10814914,0,0,0.10814914,4204.0147,-1795.351)"
         d="M 316.29658,424.65846 107.96747,424.65845 3.8029175,244.24013 107.96748,63.82183 l 208.32912,1e-5 104.16455,180.41831 z"
         inkscape:randomized="0"
         inkscape:rounded="0"
         inkscape:flatsided="true"
         sodipodi:arg2="1.5707963"
         sodipodi:arg1="1.0471976"
         sodipodi:r2="180.4183"
         sodipodi:r1="208.32912"
         sodipodi:cy="244.24014"
         sodipodi:cx="212.13203"
         sodipodi:sides="6"
         id="path2987-3-7-56-1-06-3-7-9"
         style="opacity:0.95999995;fill:#b5d92a;fill-opacity:1;stroke:#a0b643;stroke-width:27.73947144;stroke-miterlimit:4;stroke-opacity:1;stroke-dasharray:none;stroke-dashoffset:0"
         sodipodi:type="star" />
      <path
         transform="matrix(0.10814914,0,0,0.10814914,4204.104,-1756.5117)"
         d="M 316.29658,424.65846 107.96747,424.65845 3.8029175,244.24013 107.96748,63.82183 l 208.32912,1e-5 104.16455,180.41831 z"
         inkscape:randomized="0"
         inkscape:rounded="0"
         inkscape:flatsided="true"
         sodipodi:arg2="1.5707963"
         sodipodi:arg1="1.0471976"
         sodipodi:r2="180.4183"
         sodipodi:r1="208.32912"
         sodipodi:cy="244.24014"
         sodipodi:cx="212.13203"
         sodipodi:sides="6"
         id="path2987-3-7-56-7-5-5-3-8"
         style="opacity:0.95999995;fill:#b5d92a;fill-opacity:1;stroke:#a0b643;stroke-width:27.73947144;stroke-miterlimit:4;stroke-opacity:1;stroke-dasharray:none;stroke-dashoffset:0"
         sodipodi:type="star" />
      <path
         transform="matrix(0.10814914,0,0,0.10814914,4204.1487,-1717.4024)"
         d="M 316.29658,424.65846 107.96747,424.65845 3.8029175,244.24013 107.96748,63.82183 l 208.32912,1e-5 104.16455,180.41831 z"
         inkscape:randomized="0"
         inkscape:rounded="0"
         inkscape:flatsided="true"
         sodipodi:arg2="1.5707963"
         sodipodi:arg1="1.0471976"
         sodipodi:r2="180.4183"
         sodipodi:r1="208.32912"
         sodipodi:cy="244.24014"
         sodipodi:cx="212.13203"
         sodipodi:sides="6"
         id="path2987-3-7-56-93-49-5-2-8"
         style="opacity:0.95999995;fill:#b5d92a;fill-opacity:1;stroke:#a0b643;stroke-width:27.73947144;stroke-miterlimit:4;stroke-opacity:1;stroke-dasharray:none;stroke-dashoffset:0"
         sodipodi:type="star" />
      <path
         transform="matrix(0.10814914,0,0,0.10814914,4170.3448,-1698.0407)"
         d="M 316.29658,424.65846 107.96747,424.65845 3.8029175,244.24013 107.96748,63.82183 l 208.32912,1e-5 104.16455,180.41831 z"
         inkscape:randomized="0"
         inkscape:rounded="0"
         inkscape:flatsided="true"
         sodipodi:arg2="1.5707963"
         sodipodi:arg1="1.0471976"
         sodipodi:r2="180.4183"
         sodipodi:r1="208.32912"
         sodipodi:cy="244.24014"
         sodipodi:cx="212.13203"
         sodipodi:sides="6"
         id="path2987-3-7-56-9-6-0-7-3-2"
         style="opacity:0.95999995;fill:#b5d92a;fill-opacity:1;stroke:#a0b643;stroke-width:27.73947144;stroke-miterlimit:4;stroke-opacity:1;stroke-dasharray:none;stroke-dashoffset:0"
         sodipodi:type="star" />
      <path
         transform="matrix(0.10814914,0,0,0.10814914,4204.0657,-1678.4395)"
         d="M 316.29658,424.65846 107.96747,424.65845 3.8029175,244.24013 107.96748,63.82183 l 208.32912,1e-5 104.16455,180.41831 z"
         inkscape:randomized="0"
         inkscape:rounded="0"
         inkscape:flatsided="true"
         sodipodi:arg2="1.5707963"
         sodipodi:arg1="1.0471976"
         sodipodi:r2="180.4183"
         sodipodi:r1="208.32912"
         sodipodi:cy="244.24014"
         sodipodi:cx="212.13203"
         sodipodi:sides="6"
         id="path2987-3-7-56-1-0-9-3-5-78"
         style="opacity:0.95999995;fill:#b5d92a;fill-opacity:1;stroke:#a0b643;stroke-width:27.73947144;stroke-miterlimit:4;stroke-opacity:1;stroke-dasharray:none;stroke-dashoffset:0"
         sodipodi:type="star" />
      <path
         transform="matrix(0.10814914,0,0,0.10814914,4170.4104,-1659.0329)"
         d="M 316.29658,424.65846 107.96747,424.65845 3.8029175,244.24013 107.96748,63.82183 l 208.32912,1e-5 104.16455,180.41831 z"
         inkscape:randomized="0"
         inkscape:rounded="0"
         inkscape:flatsided="true"
         sodipodi:arg2="1.5707963"
         sodipodi:arg1="1.0471976"
         sodipodi:r2="180.4183"
         sodipodi:r1="208.32912"
         sodipodi:cy="244.24014"
         sodipodi:cx="212.13203"
         sodipodi:sides="6"
         id="path2987-3-7-56-2-6-1-3-1-6"
         style="opacity:0.95999995;fill:#b5d92a;fill-opacity:1;stroke:#a0b643;stroke-width:27.73947144;stroke-miterlimit:4;stroke-opacity:1;stroke-dasharray:none;stroke-dashoffset:0"
         sodipodi:type="star" />
      <path
         transform="matrix(0.10814914,0,0,0.10814914,4204.155,-1639.6002)"
         d="M 316.29658,424.65846 107.96747,424.65845 3.8029175,244.24013 107.96748,63.82183 l 208.32912,1e-5 104.16455,180.41831 z"
         inkscape:randomized="0"
         inkscape:rounded="0"
         inkscape:flatsided="true"
         sodipodi:arg2="1.5707963"
         sodipodi:arg1="1.0471976"
         sodipodi:r2="180.4183"
         sodipodi:r1="208.32912"
         sodipodi:cy="244.24014"
         sodipodi:cx="212.13203"
         sodipodi:sides="6"
         id="path2987-3-7-56-7-2-7-8-7-7"
         style="opacity:0.95999995;fill:#b5d92a;fill-opacity:1;stroke:#a0b643;stroke-width:27.73947144;stroke-miterlimit:4;stroke-opacity:1;stroke-dasharray:none;stroke-dashoffset:0"
         sodipodi:type="star" />
      <path
         transform="matrix(0.10814914,0,0,0.10814914,4271.5564,-1834.2718)"
         d="M 316.29658,424.65846 107.96747,424.65845 3.8029175,244.24013 107.96748,63.82183 l 208.32912,1e-5 104.16455,180.41831 z"
         inkscape:randomized="0"
         inkscape:rounded="0"
         inkscape:flatsided="true"
         sodipodi:arg2="1.5707963"
         sodipodi:arg1="1.0471976"
         sodipodi:r2="180.4183"
         sodipodi:r1="208.32912"
         sodipodi:cy="244.24014"
         sodipodi:cx="212.13203"
         sodipodi:sides="6"
         id="path2987-3-7-56-3-3-1-5-3"
         style="opacity:0.95999995;fill:#b5d92a;fill-opacity:1;stroke:#a0b643;stroke-width:27.73947144;stroke-miterlimit:4;stroke-opacity:1;stroke-dasharray:none;stroke-dashoffset:0"
         sodipodi:type="star" />
      <path
         transform="matrix(0.10814914,0,0,0.10814914,4237.7525,-1814.9102)"
         d="M 316.29658,424.65846 107.96747,424.65845 3.8029175,244.24013 107.96748,63.82183 l 208.32912,1e-5 104.16455,180.41831 z"
         inkscape:randomized="0"
         inkscape:rounded="0"
         inkscape:flatsided="true"
         sodipodi:arg2="1.5707963"
         sodipodi:arg1="1.0471976"
         sodipodi:r2="180.4183"
         sodipodi:r1="208.32912"
         sodipodi:cy="244.24014"
         sodipodi:cx="212.13203"
         sodipodi:sides="6"
         id="path2987-3-7-56-9-75-6-8-4-9"
         style="opacity:0.95999995;fill:#b5d92a;fill-opacity:1;stroke:#a0b643;stroke-width:27.73947144;stroke-miterlimit:4;stroke-opacity:1;stroke-dasharray:none;stroke-dashoffset:0"
         sodipodi:type="star" />
      <path
         transform="matrix(0.10814914,0,0,0.10814914,4271.4734,-1795.3089)"
         d="M 316.29658,424.65846 107.96747,424.65845 3.8029175,244.24013 107.96748,63.82183 l 208.32912,1e-5 104.16455,180.41831 z"
         inkscape:randomized="0"
         inkscape:rounded="0"
         inkscape:flatsided="true"
         sodipodi:arg2="1.5707963"
         sodipodi:arg1="1.0471976"
         sodipodi:r2="180.4183"
         sodipodi:r1="208.32912"
         sodipodi:cy="244.24014"
         sodipodi:cx="212.13203"
         sodipodi:sides="6"
         id="path2987-3-7-56-1-92-5-7-8-6"
         style="opacity:0.95999995;fill:#b5d92a;fill-opacity:1;stroke:#a0b643;stroke-width:27.73947144;stroke-miterlimit:4;stroke-opacity:1;stroke-dasharray:none;stroke-dashoffset:0"
         sodipodi:type="star" />
      <path
         transform="matrix(0.10814914,0,0,0.10814914,4237.8181,-1775.9023)"
         d="M 316.29658,424.65846 107.96747,424.65845 3.8029175,244.24013 107.96748,63.82183 l 208.32912,1e-5 104.16455,180.41831 z"
         inkscape:randomized="0"
         inkscape:rounded="0"
         inkscape:flatsided="true"
         sodipodi:arg2="1.5707963"
         sodipodi:arg1="1.0471976"
         sodipodi:r2="180.4183"
         sodipodi:r1="208.32912"
         sodipodi:cy="244.24014"
         sodipodi:cx="212.13203"
         sodipodi:sides="6"
         id="path2987-3-7-56-2-28-6-0-7-5"
         style="opacity:0.95999995;fill:#b5d92a;fill-opacity:1;stroke:#a0b643;stroke-width:27.73947144;stroke-miterlimit:4;stroke-opacity:1;stroke-dasharray:none;stroke-dashoffset:0"
         sodipodi:type="star" />
      <path
         transform="matrix(0.10814914,0,0,0.10814914,4271.5627,-1756.4696)"
         d="M 316.29658,424.65846 107.96747,424.65845 3.8029175,244.24013 107.96748,63.82183 l 208.32912,1e-5 104.16455,180.41831 z"
         inkscape:randomized="0"
         inkscape:rounded="0"
         inkscape:flatsided="true"
         sodipodi:arg2="1.5707963"
         sodipodi:arg1="1.0471976"
         sodipodi:r2="180.4183"
         sodipodi:r1="208.32912"
         sodipodi:cy="244.24014"
         sodipodi:cx="212.13203"
         sodipodi:sides="6"
         id="path2987-3-7-56-7-9-3-5-3-7"
         style="opacity:0.95999995;fill:#b5d92a;fill-opacity:1;stroke:#a0b643;stroke-width:27.73947144;stroke-miterlimit:4;stroke-opacity:1;stroke-dasharray:none;stroke-dashoffset:0"
         sodipodi:type="star" />
      <path
         transform="matrix(0.10814914,0,0,0.10814914,4237.8674,-1736.9755)"
         d="M 316.29658,424.65846 107.96747,424.65845 3.8029175,244.24013 107.96748,63.82183 l 208.32912,1e-5 104.16455,180.41831 z"
         inkscape:randomized="0"
         inkscape:rounded="0"
         inkscape:flatsided="true"
         sodipodi:arg2="1.5707963"
         sodipodi:arg1="1.0471976"
         sodipodi:r2="180.4183"
         sodipodi:r1="208.32912"
         sodipodi:cy="244.24014"
         sodipodi:cx="212.13203"
         sodipodi:sides="6"
         id="path2987-3-0-7-9-1-3-4"
         style="opacity:0.95999995;fill:#b5d92a;fill-opacity:1;stroke:#a0b643;stroke-width:27.73947144;stroke-miterlimit:4;stroke-opacity:1;stroke-dasharray:none;stroke-dashoffset:0"
         sodipodi:type="star" />
      <path
         transform="matrix(0.10814914,0,0,0.10814914,4271.6074,-1717.3603)"
         d="M 316.29658,424.65846 107.96747,424.65845 3.8029175,244.24013 107.96748,63.82183 l 208.32912,1e-5 104.16455,180.41831 z"
         inkscape:randomized="0"
         inkscape:rounded="0"
         inkscape:flatsided="true"
         sodipodi:arg2="1.5707963"
         sodipodi:arg1="1.0471976"
         sodipodi:r2="180.4183"
         sodipodi:r1="208.32912"
         sodipodi:cy="244.24014"
         sodipodi:cx="212.13203"
         sodipodi:sides="6"
         id="path2987-3-7-56-93-3-4-1-5-3"
         style="opacity:0.95999995;fill:#b5d92a;fill-opacity:1;stroke:#a0b643;stroke-width:27.73947144;stroke-miterlimit:4;stroke-opacity:1;stroke-dasharray:none;stroke-dashoffset:0"
         sodipodi:type="star" />
      <path
         transform="matrix(0.10814914,0,0,0.10814914,4237.8035,-1697.9986)"
         d="M 316.29658,424.65846 107.96747,424.65845 3.8029175,244.24013 107.96748,63.82183 l 208.32912,1e-5 104.16455,180.41831 z"
         inkscape:randomized="0"
         inkscape:rounded="0"
         inkscape:flatsided="true"
         sodipodi:arg2="1.5707963"
         sodipodi:arg1="1.0471976"
         sodipodi:r2="180.4183"
         sodipodi:r1="208.32912"
         sodipodi:cy="244.24014"
         sodipodi:cx="212.13203"
         sodipodi:sides="6"
         id="path2987-3-7-56-9-6-6-8-0-0-9"
         style="opacity:0.95999995;fill:#b5d92a;fill-opacity:1;stroke:#a0b643;stroke-width:27.73947144;stroke-miterlimit:4;stroke-opacity:1;stroke-dasharray:none;stroke-dashoffset:0"
         sodipodi:type="star" />
      <path
         transform="matrix(0.10814914,0,0,0.10814914,4271.5244,-1678.3974)"
         d="M 316.29658,424.65846 107.96747,424.65845 3.8029175,244.24013 107.96748,63.82183 l 208.32912,1e-5 104.16455,180.41831 z"
         inkscape:randomized="0"
         inkscape:rounded="0"
         inkscape:flatsided="true"
         sodipodi:arg2="1.5707963"
         sodipodi:arg1="1.0471976"
         sodipodi:r2="180.4183"
         sodipodi:r1="208.32912"
         sodipodi:cy="244.24014"
         sodipodi:cx="212.13203"
         sodipodi:sides="6"
         id="path2987-3-7-56-1-0-1-1-3-1-44"
         style="opacity:0.95999995;fill:#b5d92a;fill-opacity:1;stroke:#a0b643;stroke-width:27.73947144;stroke-miterlimit:4;stroke-opacity:1;stroke-dasharray:none;stroke-dashoffset:0"
         sodipodi:type="star" />
      <path
         transform="matrix(0.10814914,0,0,0.10814914,4237.8691,-1658.9908)"
         d="M 316.29658,424.65846 107.96747,424.65845 3.8029175,244.24013 107.96748,63.82183 l 208.32912,1e-5 104.16455,180.41831 z"
         inkscape:randomized="0"
         inkscape:rounded="0"
         inkscape:flatsided="true"
         sodipodi:arg2="1.5707963"
         sodipodi:arg1="1.0471976"
         sodipodi:r2="180.4183"
         sodipodi:r1="208.32912"
         sodipodi:cy="244.24014"
         sodipodi:cx="212.13203"
         sodipodi:sides="6"
         id="path2987-3-7-56-2-6-2-2-0-4-0"
         style="opacity:0.95999995;fill:#b5d92a;fill-opacity:1;stroke:#a0b643;stroke-width:27.73947144;stroke-miterlimit:4;stroke-opacity:1;stroke-dasharray:none;stroke-dashoffset:0"
         sodipodi:type="star" />
      <path
         transform="matrix(0.10814914,0,0,0.10814914,4271.6137,-1639.5581)"
         d="M 316.29658,424.65846 107.96747,424.65845 3.8029175,244.24013 107.96748,63.82183 l 208.32912,1e-5 104.16455,180.41831 z"
         inkscape:randomized="0"
         inkscape:rounded="0"
         inkscape:flatsided="true"
         sodipodi:arg2="1.5707963"
         sodipodi:arg1="1.0471976"
         sodipodi:r2="180.4183"
         sodipodi:r1="208.32912"
         sodipodi:cy="244.24014"
         sodipodi:cx="212.13203"
         sodipodi:sides="6"
         id="path2987-3-7-56-7-2-9-9-0-5-6"
         style="opacity:0.95999995;fill:#b5d92a;fill-opacity:1;stroke:#a0b643;stroke-width:27.73947144;stroke-miterlimit:4;stroke-opacity:1;stroke-dasharray:none;stroke-dashoffset:0"
         sodipodi:type="star" />
      <path
         transform="matrix(0.10814914,0,0,0.10814914,4338.9663,-1834.3978)"
         d="M 316.29658,424.65846 107.96747,424.65845 3.8029175,244.24013 107.96748,63.82183 l 208.32912,1e-5 104.16455,180.41831 z"
         inkscape:randomized="0"
         inkscape:rounded="0"
         inkscape:flatsided="true"
         sodipodi:arg2="1.5707963"
         sodipodi:arg1="1.0471976"
         sodipodi:r2="180.4183"
         sodipodi:r1="208.32912"
         sodipodi:cy="244.24014"
         sodipodi:cx="212.13203"
         sodipodi:sides="6"
         id="path2987-3-7-56-37-9-4-9-19"
         style="opacity:0.95999995;fill:#b5d92a;fill-opacity:1;stroke:#a0b643;stroke-width:27.73947144;stroke-miterlimit:4;stroke-opacity:1;stroke-dasharray:none;stroke-dashoffset:0"
         sodipodi:type="star" />
      <path
         transform="matrix(0.10814914,0,0,0.10814914,4305.1624,-1815.0362)"
         d="M 316.29658,424.65846 107.96747,424.65845 3.8029175,244.24013 107.96748,63.82183 l 208.32912,1e-5 104.16455,180.41831 z"
         inkscape:randomized="0"
         inkscape:rounded="0"
         inkscape:flatsided="true"
         sodipodi:arg2="1.5707963"
         sodipodi:arg1="1.0471976"
         sodipodi:r2="180.4183"
         sodipodi:r1="208.32912"
         sodipodi:cy="244.24014"
         sodipodi:cx="212.13203"
         sodipodi:sides="6"
         id="path2987-3-7-56-9-4-6-9-4-0"
         style="opacity:0.95999995;fill:#b5d92a;fill-opacity:1;stroke:#a0b643;stroke-width:27.73947144;stroke-miterlimit:4;stroke-opacity:1;stroke-dasharray:none;stroke-dashoffset:0"
         sodipodi:type="star" />
      <path
         transform="matrix(0.10814914,0,0,0.10814914,4338.8834,-1795.4349)"
         d="M 316.29658,424.65846 107.96747,424.65845 3.8029175,244.24013 107.96748,63.82183 l 208.32912,1e-5 104.16455,180.41831 z"
         inkscape:randomized="0"
         inkscape:rounded="0"
         inkscape:flatsided="true"
         sodipodi:arg2="1.5707963"
         sodipodi:arg1="1.0471976"
         sodipodi:r2="180.4183"
         sodipodi:r1="208.32912"
         sodipodi:cy="244.24014"
         sodipodi:cx="212.13203"
         sodipodi:sides="6"
         id="path2987-3-7-56-1-5-3-8-6-0"
         style="opacity:0.95999995;fill:#b5d92a;fill-opacity:1;stroke:#a0b643;stroke-width:27.73947144;stroke-miterlimit:4;stroke-opacity:1;stroke-dasharray:none;stroke-dashoffset:0"
         sodipodi:type="star" />
      <path
         transform="matrix(0.10814914,0,0,0.10814914,4305.2281,-1776.0284)"
         d="M 316.29658,424.65846 107.96747,424.65845 3.8029175,244.24013 107.96748,63.82183 l 208.32912,1e-5 104.16455,180.41831 z"
         inkscape:randomized="0"
         inkscape:rounded="0"
         inkscape:flatsided="true"
         sodipodi:arg2="1.5707963"
         sodipodi:arg1="1.0471976"
         sodipodi:r2="180.4183"
         sodipodi:r1="208.32912"
         sodipodi:cy="244.24014"
         sodipodi:cx="212.13203"
         sodipodi:sides="6"
         id="path2987-3-7-56-2-25-8-1-4-0"
         style="opacity:0.95999995;fill:#b5d92a;fill-opacity:1;stroke:#a0b643;stroke-width:27.73947144;stroke-miterlimit:4;stroke-opacity:1;stroke-dasharray:none;stroke-dashoffset:0"
         sodipodi:type="star" />
      <path
         transform="matrix(0.10814914,0,0,0.10814914,4338.9727,-1756.5956)"
         d="M 316.29658,424.65846 107.96747,424.65845 3.8029175,244.24013 107.96748,63.82183 l 208.32912,1e-5 104.16455,180.41831 z"
         inkscape:randomized="0"
         inkscape:rounded="0"
         inkscape:flatsided="true"
         sodipodi:arg2="1.5707963"
         sodipodi:arg1="1.0471976"
         sodipodi:r2="180.4183"
         sodipodi:r1="208.32912"
         sodipodi:cy="244.24014"
         sodipodi:cx="212.13203"
         sodipodi:sides="6"
         id="path2987-3-7-56-7-4-5-6-5-2"
         style="opacity:0.95999995;fill:#b5d92a;fill-opacity:1;stroke:#a0b643;stroke-width:27.73947144;stroke-miterlimit:4;stroke-opacity:1;stroke-dasharray:none;stroke-dashoffset:0"
         sodipodi:type="star" />
      <path
         transform="matrix(0.10814914,0,0,0.10814914,4305.2773,-1737.1015)"
         d="M 316.29658,424.65846 107.96747,424.65845 3.8029175,244.24013 107.96748,63.82183 l 208.32912,1e-5 104.16455,180.41831 z"
         inkscape:randomized="0"
         inkscape:rounded="0"
         inkscape:flatsided="true"
         sodipodi:arg2="1.5707963"
         sodipodi:arg1="1.0471976"
         sodipodi:r2="180.4183"
         sodipodi:r1="208.32912"
         sodipodi:cy="244.24014"
         sodipodi:cx="212.13203"
         sodipodi:sides="6"
         id="path2987-3-0-74-6-3-5-5"
         style="opacity:0.95999995;fill:#b5d92a;fill-opacity:1;stroke:#a0b643;stroke-width:27.73947144;stroke-miterlimit:4;stroke-opacity:1;stroke-dasharray:none;stroke-dashoffset:0"
         sodipodi:type="star" />
      <path
         transform="matrix(0.10814914,0,0,0.10814914,4339.0173,-1717.4863)"
         d="M 316.29658,424.65846 107.96747,424.65845 3.8029175,244.24013 107.96748,63.82183 l 208.32912,1e-5 104.16455,180.41831 z"
         inkscape:randomized="0"
         inkscape:rounded="0"
         inkscape:flatsided="true"
         sodipodi:arg2="1.5707963"
         sodipodi:arg1="1.0471976"
         sodipodi:r2="180.4183"
         sodipodi:r1="208.32912"
         sodipodi:cy="244.24014"
         sodipodi:cx="212.13203"
         sodipodi:sides="6"
         id="path2987-3-7-56-93-4-1-9-5-7"
         style="opacity:0.95999995;fill:#b5d92a;fill-opacity:1;stroke:#a0b643;stroke-width:27.73947144;stroke-miterlimit:4;stroke-opacity:1;stroke-dasharray:none;stroke-dashoffset:0"
         sodipodi:type="star" />
      <path
         transform="matrix(0.10814914,0,0,0.10814914,4305.2134,-1698.1246)"
         d="M 316.29658,424.65846 107.96747,424.65845 3.8029175,244.24013 107.96748,63.82183 l 208.32912,1e-5 104.16455,180.41831 z"
         inkscape:randomized="0"
         inkscape:rounded="0"
         inkscape:flatsided="true"
         sodipodi:arg2="1.5707963"
         sodipodi:arg1="1.0471976"
         sodipodi:r2="180.4183"
         sodipodi:r1="208.32912"
         sodipodi:cy="244.24014"
         sodipodi:cx="212.13203"
         sodipodi:sides="6"
         id="path2987-3-7-56-9-6-3-1-3-6-6"
         style="opacity:0.95999995;fill:#b5d92a;fill-opacity:1;stroke:#a0b643;stroke-width:27.73947144;stroke-miterlimit:4;stroke-opacity:1;stroke-dasharray:none;stroke-dashoffset:0"
         sodipodi:type="star" />
      <path
         transform="matrix(0.10814914,0,0,0.10814914,4338.9344,-1678.5234)"
         d="M 316.29658,424.65846 107.96747,424.65845 3.8029175,244.24013 107.96748,63.82183 l 208.32912,1e-5 104.16455,180.41831 z"
         inkscape:randomized="0"
         inkscape:rounded="0"
         inkscape:flatsided="true"
         sodipodi:arg2="1.5707963"
         sodipodi:arg1="1.0471976"
         sodipodi:r2="180.4183"
         sodipodi:r1="208.32912"
         sodipodi:cy="244.24014"
         sodipodi:cx="212.13203"
         sodipodi:sides="6"
         id="path2987-3-7-56-1-0-0-5-3-0-91"
         style="opacity:0.95999995;fill:#b5d92a;fill-opacity:1;stroke:#a0b643;stroke-width:27.73947144;stroke-miterlimit:4;stroke-opacity:1;stroke-dasharray:none;stroke-dashoffset:0"
         sodipodi:type="star" />
      <path
         transform="matrix(0.10814914,0,0,0.10814914,4305.2791,-1659.1168)"
         d="M 316.29658,424.65846 107.96747,424.65845 3.8029175,244.24013 107.96748,63.82183 l 208.32912,1e-5 104.16455,180.41831 z"
         inkscape:randomized="0"
         inkscape:rounded="0"
         inkscape:flatsided="true"
         sodipodi:arg2="1.5707963"
         sodipodi:arg1="1.0471976"
         sodipodi:r2="180.4183"
         sodipodi:r1="208.32912"
         sodipodi:cy="244.24014"
         sodipodi:cx="212.13203"
         sodipodi:sides="6"
         id="path2987-3-7-56-2-6-7-9-4-6-9"
         style="opacity:0.95999995;fill:#b5d92a;fill-opacity:1;stroke:#a0b643;stroke-width:27.73947144;stroke-miterlimit:4;stroke-opacity:1;stroke-dasharray:none;stroke-dashoffset:0"
         sodipodi:type="star" />
      <path
         transform="matrix(0.10814914,0,0,0.10814914,4339.0237,-1639.6841)"
         d="M 316.29658,424.65846 107.96747,424.65845 3.8029175,244.24013 107.96748,63.82183 l 208.32912,1e-5 104.16455,180.41831 z"
         inkscape:randomized="0"
         inkscape:rounded="0"
         inkscape:flatsided="true"
         sodipodi:arg2="1.5707963"
         sodipodi:arg1="1.0471976"
         sodipodi:r2="180.4183"
         sodipodi:r1="208.32912"
         sodipodi:cy="244.24014"
         sodipodi:cx="212.13203"
         sodipodi:sides="6"
         id="path2987-3-7-56-7-2-8-8-6-2-8"
         style="opacity:0.95999995;fill:#b5d92a;fill-opacity:1;stroke:#a0b643;stroke-width:27.73947144;stroke-miterlimit:4;stroke-opacity:1;stroke-dasharray:none;stroke-dashoffset:0"
         sodipodi:type="star" />
      <path
         transform="matrix(0.10814914,0,0,0.10814914,4406.425,-1834.3557)"
         d="M 316.29658,424.65846 107.96747,424.65845 3.8029175,244.24013 107.96748,63.82183 l 208.32912,1e-5 104.16455,180.41831 z"
         inkscape:randomized="0"
         inkscape:rounded="0"
         inkscape:flatsided="true"
         sodipodi:arg2="1.5707963"
         sodipodi:arg1="1.0471976"
         sodipodi:r2="180.4183"
         sodipodi:r1="208.32912"
         sodipodi:cy="244.24014"
         sodipodi:cx="212.13203"
         sodipodi:sides="6"
         id="path2987-3-7-56-3-2-4-2-5-5"
         style="opacity:0.95999995;fill:#b5d92a;fill-opacity:1;stroke:#a0b643;stroke-width:27.73947144;stroke-miterlimit:4;stroke-opacity:1;stroke-dasharray:none;stroke-dashoffset:0"
         sodipodi:type="star" />
      <path
         transform="matrix(0.10814914,0,0,0.10814914,4372.6211,-1814.994)"
         d="M 316.29658,424.65846 107.96747,424.65845 3.8029175,244.24013 107.96748,63.82183 l 208.32912,1e-5 104.16455,180.41831 z"
         inkscape:randomized="0"
         inkscape:rounded="0"
         inkscape:flatsided="true"
         sodipodi:arg2="1.5707963"
         sodipodi:arg1="1.0471976"
         sodipodi:r2="180.4183"
         sodipodi:r1="208.32912"
         sodipodi:cy="244.24014"
         sodipodi:cx="212.13203"
         sodipodi:sides="6"
         id="path2987-3-7-56-9-75-0-4-8-3-7"
         style="opacity:0.95999995;fill:#b5d92a;fill-opacity:1;stroke:#a0b643;stroke-width:27.73947144;stroke-miterlimit:4;stroke-opacity:1;stroke-dasharray:none;stroke-dashoffset:0"
         sodipodi:type="star" />
      <path
         transform="matrix(0.10814914,0,0,0.10814914,4406.3421,-1795.3928)"
         d="M 316.29658,424.65846 107.96747,424.65845 3.8029175,244.24013 107.96748,63.82183 l 208.32912,1e-5 104.16455,180.41831 z"
         inkscape:randomized="0"
         inkscape:rounded="0"
         inkscape:flatsided="true"
         sodipodi:arg2="1.5707963"
         sodipodi:arg1="1.0471976"
         sodipodi:r2="180.4183"
         sodipodi:r1="208.32912"
         sodipodi:cy="244.24014"
         sodipodi:cx="212.13203"
         sodipodi:sides="6"
         id="path2987-3-7-56-1-92-6-4-12-8-6"
         style="opacity:0.95999995;fill:#b5d92a;fill-opacity:1;stroke:#a0b643;stroke-width:27.73947144;stroke-miterlimit:4;stroke-opacity:1;stroke-dasharray:none;stroke-dashoffset:0"
         sodipodi:type="star" />
      <path
         transform="matrix(0.10814914,0,0,0.10814914,4372.6868,-1775.9862)"
         d="M 316.29658,424.65846 107.96747,424.65845 3.8029175,244.24013 107.96748,63.82183 l 208.32912,1e-5 104.16455,180.41831 z"
         inkscape:randomized="0"
         inkscape:rounded="0"
         inkscape:flatsided="true"
         sodipodi:arg2="1.5707963"
         sodipodi:arg1="1.0471976"
         sodipodi:r2="180.4183"
         sodipodi:r1="208.32912"
         sodipodi:cy="244.24014"
         sodipodi:cx="212.13203"
         sodipodi:sides="6"
         id="path2987-3-7-56-2-28-8-7-4-6-6"
         style="opacity:0.95999995;fill:#b5d92a;fill-opacity:1;stroke:#a0b643;stroke-width:27.73947144;stroke-miterlimit:4;stroke-opacity:1;stroke-dasharray:none;stroke-dashoffset:0"
         sodipodi:type="star" />
      <path
         transform="matrix(0.10814914,0,0,0.10814914,4406.4314,-1756.5535)"
         d="M 316.29658,424.65846 107.96747,424.65845 3.8029175,244.24013 107.96748,63.82183 l 208.32912,1e-5 104.16455,180.41831 z"
         inkscape:randomized="0"
         inkscape:rounded="0"
         inkscape:flatsided="true"
         sodipodi:arg2="1.5707963"
         sodipodi:arg1="1.0471976"
         sodipodi:r2="180.4183"
         sodipodi:r1="208.32912"
         sodipodi:cy="244.24014"
         sodipodi:cx="212.13203"
         sodipodi:sides="6"
         id="path2987-3-7-56-7-9-9-6-7-7-9"
         style="opacity:0.95999995;fill:#b5d92a;fill-opacity:1;stroke:#a0b643;stroke-width:27.73947144;stroke-miterlimit:4;stroke-opacity:1;stroke-dasharray:none;stroke-dashoffset:0"
         sodipodi:type="star" />
      <path
         transform="matrix(0.10814914,0,0,0.10814914,4372.736,-1737.0594)"
         d="M 316.29658,424.65846 107.96747,424.65845 3.8029175,244.24013 107.96748,63.82183 l 208.32912,1e-5 104.16455,180.41831 z"
         inkscape:randomized="0"
         inkscape:rounded="0"
         inkscape:flatsided="true"
         sodipodi:arg2="1.5707963"
         sodipodi:arg1="1.0471976"
         sodipodi:r2="180.4183"
         sodipodi:r1="208.32912"
         sodipodi:cy="244.24014"
         sodipodi:cx="212.13203"
         sodipodi:sides="6"
         id="path2987-3-0-7-2-3-8-3-1"
         style="opacity:0.95999995;fill:#b5d92a;fill-opacity:1;stroke:#a0b643;stroke-width:27.73947144;stroke-miterlimit:4;stroke-opacity:1;stroke-dasharray:none;stroke-dashoffset:0"
         sodipodi:type="star" />
      <path
         transform="matrix(0.10814914,0,0,0.10814914,4406.476,-1717.4442)"
         d="M 316.29658,424.65846 107.96747,424.65845 3.8029175,244.24013 107.96748,63.82183 l 208.32912,1e-5 104.16455,180.41831 z"
         inkscape:randomized="0"
         inkscape:rounded="0"
         inkscape:flatsided="true"
         sodipodi:arg2="1.5707963"
         sodipodi:arg1="1.0471976"
         sodipodi:r2="180.4183"
         sodipodi:r1="208.32912"
         sodipodi:cy="244.24014"
         sodipodi:cx="212.13203"
         sodipodi:sides="6"
         id="path2987-3-7-56-93-3-6-1-6-6-4"
         style="opacity:0.95999995;fill:#b5d92a;fill-opacity:1;stroke:#a0b643;stroke-width:27.73947144;stroke-miterlimit:4;stroke-opacity:1;stroke-dasharray:none;stroke-dashoffset:0"
         sodipodi:type="star" />
      <path
         transform="matrix(0.10814914,0,0,0.10814914,4372.6721,-1698.0825)"
         d="M 316.29658,424.65846 107.96747,424.65845 3.8029175,244.24013 107.96748,63.82183 l 208.32912,1e-5 104.16455,180.41831 z"
         inkscape:randomized="0"
         inkscape:rounded="0"
         inkscape:flatsided="true"
         sodipodi:arg2="1.5707963"
         sodipodi:arg1="1.0471976"
         sodipodi:r2="180.4183"
         sodipodi:r1="208.32912"
         sodipodi:cy="244.24014"
         sodipodi:cx="212.13203"
         sodipodi:sides="6"
         id="path2987-3-7-56-9-6-6-6-7-3-0-3"
         style="opacity:0.95999995;fill:#b5d92a;fill-opacity:1;stroke:#a0b643;stroke-width:27.73947144;stroke-miterlimit:4;stroke-opacity:1;stroke-dasharray:none;stroke-dashoffset:0"
         sodipodi:type="star" />
      <path
         transform="matrix(0.10814914,0,0,0.10814914,4406.3931,-1678.4812)"
         d="M 316.29658,424.65846 107.96747,424.65845 3.8029175,244.24013 107.96748,63.82183 l 208.32912,1e-5 104.16455,180.41831 z"
         inkscape:randomized="0"
         inkscape:rounded="0"
         inkscape:flatsided="true"
         sodipodi:arg2="1.5707963"
         sodipodi:arg1="1.0471976"
         sodipodi:r2="180.4183"
         sodipodi:r1="208.32912"
         sodipodi:cy="244.24014"
         sodipodi:cx="212.13203"
         sodipodi:sides="6"
         id="path2987-3-7-56-1-0-1-4-5-7-2-6"
         style="opacity:0.95999995;fill:#b5d92a;fill-opacity:1;stroke:#a0b643;stroke-width:27.73947144;stroke-miterlimit:4;stroke-opacity:1;stroke-dasharray:none;stroke-dashoffset:0"
         sodipodi:type="star" />
      <path
         transform="matrix(0.10814914,0,0,0.10814914,4372.7378,-1659.0747)"
         d="M 316.29658,424.65846 107.96747,424.65845 3.8029175,244.24013 107.96748,63.82183 l 208.32912,1e-5 104.16455,180.41831 z"
         inkscape:randomized="0"
         inkscape:rounded="0"
         inkscape:flatsided="true"
         sodipodi:arg2="1.5707963"
         sodipodi:arg1="1.0471976"
         sodipodi:r2="180.4183"
         sodipodi:r1="208.32912"
         sodipodi:cy="244.24014"
         sodipodi:cx="212.13203"
         sodipodi:sides="6"
         id="path2987-3-7-56-2-6-2-9-9-7-6-7"
         style="opacity:0.95999995;fill:#b5d92a;fill-opacity:1;stroke:#a0b643;stroke-width:27.73947144;stroke-miterlimit:4;stroke-opacity:1;stroke-dasharray:none;stroke-dashoffset:0"
         sodipodi:type="star" />
      <path
         transform="matrix(0.10814914,0,0,0.10814914,4406.4824,-1639.642)"
         d="M 316.29658,424.65846 107.96747,424.65845 3.8029175,244.24013 107.96748,63.82183 l 208.32912,1e-5 104.16455,180.41831 z"
         inkscape:randomized="0"
         inkscape:rounded="0"
         inkscape:flatsided="true"
         sodipodi:arg2="1.5707963"
         sodipodi:arg1="1.0471976"
         sodipodi:r2="180.4183"
         sodipodi:r1="208.32912"
         sodipodi:cy="244.24014"
         sodipodi:cx="212.13203"
         sodipodi:sides="6"
         id="path2987-3-7-56-7-2-9-5-6-2-9-6"
         style="opacity:0.95999995;fill:#b5d92a;fill-opacity:1;stroke:#a0b643;stroke-width:27.73947144;stroke-miterlimit:4;stroke-opacity:1;stroke-dasharray:none;stroke-dashoffset:0"
         sodipodi:type="star" />
      <path
         transform="matrix(0.10814914,0,0,0.10814914,4170.1124,-1503.495)"
         d="M 316.29658,424.65846 107.96747,424.65845 3.8029175,244.24013 107.96748,63.82183 l 208.32912,1e-5 104.16455,180.41831 z"
         inkscape:randomized="0"
         inkscape:rounded="0"
         inkscape:flatsided="true"
         sodipodi:arg2="1.5707963"
         sodipodi:arg1="1.0471976"
         sodipodi:r2="180.4183"
         sodipodi:r1="208.32912"
         sodipodi:cy="244.24014"
         sodipodi:cx="212.13203"
         sodipodi:sides="6"
         id="path2987-3-27-7-6-4-6"
         style="opacity:0.95999995;fill:#b5d92a;fill-opacity:1;stroke:#a0b643;stroke-width:27.73947144;stroke-miterlimit:4;stroke-opacity:1;stroke-dasharray:none;stroke-dashoffset:0"
         sodipodi:type="star" />
      <path
         transform="matrix(0.10814914,0,0,0.10814914,4170.2119,-1620.4561)"
         d="M 316.29658,424.65846 107.96747,424.65845 3.8029175,244.24013 107.96748,63.82183 l 208.32912,1e-5 104.16455,180.41831 z"
         inkscape:randomized="0"
         inkscape:rounded="0"
         inkscape:flatsided="true"
         sodipodi:arg2="1.5707963"
         sodipodi:arg1="1.0471976"
         sodipodi:r2="180.4183"
         sodipodi:r1="208.32912"
         sodipodi:cy="244.24014"
         sodipodi:cx="212.13203"
         sodipodi:sides="6"
         id="path2987-3-6-7-1-3-3-40"
         style="opacity:0.95999995;fill:#b5d92a;fill-opacity:1;stroke:#a0b643;stroke-width:27.73947144;stroke-miterlimit:4;stroke-opacity:1;stroke-dasharray:none;stroke-dashoffset:0"
         sodipodi:type="star" />
      <path
         transform="matrix(0.10814914,0,0,0.10814914,4203.952,-1600.8409)"
         d="M 316.29658,424.65846 107.96747,424.65845 3.8029175,244.24013 107.96748,63.82183 l 208.32912,1e-5 104.16455,180.41831 z"
         inkscape:randomized="0"
         inkscape:rounded="0"
         inkscape:flatsided="true"
         sodipodi:arg2="1.5707963"
         sodipodi:arg1="1.0471976"
         sodipodi:r2="180.4183"
         sodipodi:r1="208.32912"
         sodipodi:cy="244.24014"
         sodipodi:cx="212.13203"
         sodipodi:sides="6"
         id="path2987-3-7-56-18-11-1-3-9-7"
         style="opacity:0.95999995;fill:#b5d92a;fill-opacity:1;stroke:#a0b643;stroke-width:27.73947144;stroke-miterlimit:4;stroke-opacity:1;stroke-dasharray:none;stroke-dashoffset:0"
         sodipodi:type="star" />
      <path
         transform="matrix(0.10814914,0,0,0.10814914,4170.148,-1581.4792)"
         d="M 316.29658,424.65846 107.96747,424.65845 3.8029175,244.24013 107.96748,63.82183 l 208.32912,1e-5 104.16455,180.41831 z"
         inkscape:randomized="0"
         inkscape:rounded="0"
         inkscape:flatsided="true"
         sodipodi:arg2="1.5707963"
         sodipodi:arg1="1.0471976"
         sodipodi:r2="180.4183"
         sodipodi:r1="208.32912"
         sodipodi:cy="244.24014"
         sodipodi:cx="212.13203"
         sodipodi:sides="6"
         id="path2987-3-7-56-9-7-5-0-9-7-5"
         style="opacity:0.95999995;fill:#b5d92a;fill-opacity:1;stroke:#a0b643;stroke-width:27.73947144;stroke-miterlimit:4;stroke-opacity:1;stroke-dasharray:none;stroke-dashoffset:0"
         sodipodi:type="star" />
      <path
         transform="matrix(0.10814914,0,0,0.10814914,4203.869,-1561.878)"
         d="M 316.29658,424.65846 107.96747,424.65845 3.8029175,244.24013 107.96748,63.82183 l 208.32912,1e-5 104.16455,180.41831 z"
         inkscape:randomized="0"
         inkscape:rounded="0"
         inkscape:flatsided="true"
         sodipodi:arg2="1.5707963"
         sodipodi:arg1="1.0471976"
         sodipodi:r2="180.4183"
         sodipodi:r1="208.32912"
         sodipodi:cy="244.24014"
         sodipodi:cx="212.13203"
         sodipodi:sides="6"
         id="path2987-3-7-56-1-9-9-3-2-5-4"
         style="opacity:0.95999995;fill:#b5d92a;fill-opacity:1;stroke:#a0b643;stroke-width:27.73947144;stroke-miterlimit:4;stroke-opacity:1;stroke-dasharray:none;stroke-dashoffset:0"
         sodipodi:type="star" />
      <path
         transform="matrix(0.10814914,0,0,0.10814914,4170.2137,-1542.4714)"
         d="M 316.29658,424.65846 107.96747,424.65845 3.8029175,244.24013 107.96748,63.82183 l 208.32912,1e-5 104.16455,180.41831 z"
         inkscape:randomized="0"
         inkscape:rounded="0"
         inkscape:flatsided="true"
         sodipodi:arg2="1.5707963"
         sodipodi:arg1="1.0471976"
         sodipodi:r2="180.4183"
         sodipodi:r1="208.32912"
         sodipodi:cy="244.24014"
         sodipodi:cx="212.13203"
         sodipodi:sides="6"
         id="path2987-3-7-56-2-2-77-4-4-4-0"
         style="opacity:0.95999995;fill:#b5d92a;fill-opacity:1;stroke:#a0b643;stroke-width:27.73947144;stroke-miterlimit:4;stroke-opacity:1;stroke-dasharray:none;stroke-dashoffset:0"
         sodipodi:type="star" />
      <path
         transform="matrix(0.10814914,0,0,0.10814914,4203.9583,-1523.0387)"
         d="M 316.29658,424.65846 107.96747,424.65845 3.8029175,244.24013 107.96748,63.82183 l 208.32912,1e-5 104.16455,180.41831 z"
         inkscape:randomized="0"
         inkscape:rounded="0"
         inkscape:flatsided="true"
         sodipodi:arg2="1.5707963"
         sodipodi:arg1="1.0471976"
         sodipodi:r2="180.4183"
         sodipodi:r1="208.32912"
         sodipodi:cy="244.24014"
         sodipodi:cx="212.13203"
         sodipodi:sides="6"
         id="path2987-3-7-56-7-0-6-0-4-4-1"
         style="opacity:0.95999995;fill:#b5d92a;fill-opacity:1;stroke:#a0b643;stroke-width:27.73947144;stroke-miterlimit:4;stroke-opacity:1;stroke-dasharray:none;stroke-dashoffset:0"
         sodipodi:type="star" />
      <path
         transform="matrix(0.10814914,0,0,0.10814914,4237.571,-1503.4529)"
         d="M 316.29658,424.65846 107.96747,424.65845 3.8029175,244.24013 107.96748,63.82183 l 208.32912,1e-5 104.16455,180.41831 z"
         inkscape:randomized="0"
         inkscape:rounded="0"
         inkscape:flatsided="true"
         sodipodi:arg2="1.5707963"
         sodipodi:arg1="1.0471976"
         sodipodi:r2="180.4183"
         sodipodi:r1="208.32912"
         sodipodi:cy="244.24014"
         sodipodi:cx="212.13203"
         sodipodi:sides="6"
         id="path2987-3-2-7-3-4-9-2"
         style="opacity:0.95999995;fill:#b5d92a;fill-opacity:1;stroke:#a0b643;stroke-width:27.73947144;stroke-miterlimit:4;stroke-opacity:1;stroke-dasharray:none;stroke-dashoffset:0"
         sodipodi:type="star" />
      <path
         transform="matrix(0.10814914,0,0,0.10814914,4237.6706,-1620.4139)"
         d="M 316.29658,424.65846 107.96747,424.65845 3.8029175,244.24013 107.96748,63.82183 l 208.32912,1e-5 104.16455,180.41831 z"
         inkscape:randomized="0"
         inkscape:rounded="0"
         inkscape:flatsided="true"
         sodipodi:arg2="1.5707963"
         sodipodi:arg1="1.0471976"
         sodipodi:r2="180.4183"
         sodipodi:r1="208.32912"
         sodipodi:cy="244.24014"
         sodipodi:cx="212.13203"
         sodipodi:sides="6"
         id="path2987-3-6-3-3-6-4-9-8"
         style="opacity:0.95999995;fill:#b5d92a;fill-opacity:1;stroke:#a0b643;stroke-width:27.73947144;stroke-miterlimit:4;stroke-opacity:1;stroke-dasharray:none;stroke-dashoffset:0"
         sodipodi:type="star" />
      <path
         transform="matrix(0.10814914,0,0,0.10814914,4271.4106,-1600.7987)"
         d="M 316.29658,424.65846 107.96747,424.65845 3.8029175,244.24013 107.96748,63.82183 l 208.32912,1e-5 104.16455,180.41831 z"
         inkscape:randomized="0"
         inkscape:rounded="0"
         inkscape:flatsided="true"
         sodipodi:arg2="1.5707963"
         sodipodi:arg1="1.0471976"
         sodipodi:r2="180.4183"
         sodipodi:r1="208.32912"
         sodipodi:cy="244.24014"
         sodipodi:cx="212.13203"
         sodipodi:sides="6"
         id="path2987-3-7-56-18-1-9-4-9-1-0"
         style="opacity:0.95999995;fill:#b5d92a;fill-opacity:1;stroke:#a0b643;stroke-width:27.73947144;stroke-miterlimit:4;stroke-opacity:1;stroke-dasharray:none;stroke-dashoffset:0"
         sodipodi:type="star" />
      <path
         transform="matrix(0.10814914,0,0,0.10814914,4237.6067,-1581.4371)"
         d="M 316.29658,424.65846 107.96747,424.65845 3.8029175,244.24013 107.96748,63.82183 l 208.32912,1e-5 104.16455,180.41831 z"
         inkscape:randomized="0"
         inkscape:rounded="0"
         inkscape:flatsided="true"
         sodipodi:arg2="1.5707963"
         sodipodi:arg1="1.0471976"
         sodipodi:r2="180.4183"
         sodipodi:r1="208.32912"
         sodipodi:cy="244.24014"
         sodipodi:cx="212.13203"
         sodipodi:sides="6"
         id="path2987-3-7-56-9-7-9-0-0-5-0-1"
         style="opacity:0.95999995;fill:#b5d92a;fill-opacity:1;stroke:#a0b643;stroke-width:27.73947144;stroke-miterlimit:4;stroke-opacity:1;stroke-dasharray:none;stroke-dashoffset:0"
         sodipodi:type="star" />
      <path
         transform="matrix(0.10814914,0,0,0.10814914,4271.3277,-1561.8358)"
         d="M 316.29658,424.65846 107.96747,424.65845 3.8029175,244.24013 107.96748,63.82183 l 208.32912,1e-5 104.16455,180.41831 z"
         inkscape:randomized="0"
         inkscape:rounded="0"
         inkscape:flatsided="true"
         sodipodi:arg2="1.5707963"
         sodipodi:arg1="1.0471976"
         sodipodi:r2="180.4183"
         sodipodi:r1="208.32912"
         sodipodi:cy="244.24014"
         sodipodi:cx="212.13203"
         sodipodi:sides="6"
         id="path2987-3-7-56-1-9-4-8-0-5-4-5"
         style="opacity:0.95999995;fill:#b5d92a;fill-opacity:1;stroke:#a0b643;stroke-width:27.73947144;stroke-miterlimit:4;stroke-opacity:1;stroke-dasharray:none;stroke-dashoffset:0"
         sodipodi:type="star" />
      <path
         transform="matrix(0.10814914,0,0,0.10814914,4237.6724,-1542.4292)"
         d="M 316.29658,424.65846 107.96747,424.65845 3.8029175,244.24013 107.96748,63.82183 l 208.32912,1e-5 104.16455,180.41831 z"
         inkscape:randomized="0"
         inkscape:rounded="0"
         inkscape:flatsided="true"
         sodipodi:arg2="1.5707963"
         sodipodi:arg1="1.0471976"
         sodipodi:r2="180.4183"
         sodipodi:r1="208.32912"
         sodipodi:cy="244.24014"
         sodipodi:cx="212.13203"
         sodipodi:sides="6"
         id="path2987-3-7-56-2-2-7-8-4-7-1-2"
         style="opacity:0.95999995;fill:#b5d92a;fill-opacity:1;stroke:#a0b643;stroke-width:27.73947144;stroke-miterlimit:4;stroke-opacity:1;stroke-dasharray:none;stroke-dashoffset:0"
         sodipodi:type="star" />
      <path
         transform="matrix(0.10814914,0,0,0.10814914,4271.417,-1522.9965)"
         d="M 316.29658,424.65846 107.96747,424.65845 3.8029175,244.24013 107.96748,63.82183 l 208.32912,1e-5 104.16455,180.41831 z"
         inkscape:randomized="0"
         inkscape:rounded="0"
         inkscape:flatsided="true"
         sodipodi:arg2="1.5707963"
         sodipodi:arg1="1.0471976"
         sodipodi:r2="180.4183"
         sodipodi:r1="208.32912"
         sodipodi:cy="244.24014"
         sodipodi:cx="212.13203"
         sodipodi:sides="6"
         id="path2987-3-7-56-7-0-8-5-6-3-1-0"
         style="opacity:0.95999995;fill:#b5d92a;fill-opacity:1;stroke:#a0b643;stroke-width:27.73947144;stroke-miterlimit:4;stroke-opacity:1;stroke-dasharray:none;stroke-dashoffset:0"
         sodipodi:type="star" />
      <path
         transform="matrix(0.10814914,0,0,0.10814914,4304.981,-1503.5789)"
         d="M 316.29658,424.65846 107.96747,424.65845 3.8029175,244.24013 107.96748,63.82183 l 208.32912,1e-5 104.16455,180.41831 z"
         inkscape:randomized="0"
         inkscape:rounded="0"
         inkscape:flatsided="true"
         sodipodi:arg2="1.5707963"
         sodipodi:arg1="1.0471976"
         sodipodi:r2="180.4183"
         sodipodi:r1="208.32912"
         sodipodi:cy="244.24014"
         sodipodi:cx="212.13203"
         sodipodi:sides="6"
         id="path2987-3-9-0-2-9-8-7"
         style="opacity:0.95999995;fill:#b5d92a;fill-opacity:1;stroke:#a0b643;stroke-width:27.73947144;stroke-miterlimit:4;stroke-opacity:1;stroke-dasharray:none;stroke-dashoffset:0"
         sodipodi:type="star" />
      <path
         transform="matrix(0.10814914,0,0,0.10814914,4305.0806,-1620.54)"
         d="M 316.29658,424.65846 107.96747,424.65845 3.8029175,244.24013 107.96748,63.82183 l 208.32912,1e-5 104.16455,180.41831 z"
         inkscape:randomized="0"
         inkscape:rounded="0"
         inkscape:flatsided="true"
         sodipodi:arg2="1.5707963"
         sodipodi:arg1="1.0471976"
         sodipodi:r2="180.4183"
         sodipodi:r1="208.32912"
         sodipodi:cy="244.24014"
         sodipodi:cx="212.13203"
         sodipodi:sides="6"
         id="path2987-3-6-6-4-9-7-0-1"
         style="opacity:0.95999995;fill:#b5d92a;fill-opacity:1;stroke:#a0b643;stroke-width:27.73947144;stroke-miterlimit:4;stroke-opacity:1;stroke-dasharray:none;stroke-dashoffset:0"
         sodipodi:type="star" />
      <path
         transform="matrix(0.10814914,0,0,0.10814914,4338.8206,-1600.9248)"
         d="M 316.29658,424.65846 107.96747,424.65845 3.8029175,244.24013 107.96748,63.82183 l 208.32912,1e-5 104.16455,180.41831 z"
         inkscape:randomized="0"
         inkscape:rounded="0"
         inkscape:flatsided="true"
         sodipodi:arg2="1.5707963"
         sodipodi:arg1="1.0471976"
         sodipodi:r2="180.4183"
         sodipodi:r1="208.32912"
         sodipodi:cy="244.24014"
         sodipodi:cx="212.13203"
         sodipodi:sides="6"
         id="path2987-3-7-56-18-8-8-6-9-7-6"
         style="opacity:0.95999995;fill:#b5d92a;fill-opacity:1;stroke:#a0b643;stroke-width:27.73947144;stroke-miterlimit:4;stroke-opacity:1;stroke-dasharray:none;stroke-dashoffset:0"
         sodipodi:type="star" />
      <path
         transform="matrix(0.10814914,0,0,0.10814914,4305.0167,-1581.5631)"
         d="M 316.29658,424.65846 107.96747,424.65845 3.8029175,244.24013 107.96748,63.82183 l 208.32912,1e-5 104.16455,180.41831 z"
         inkscape:randomized="0"
         inkscape:rounded="0"
         inkscape:flatsided="true"
         sodipodi:arg2="1.5707963"
         sodipodi:arg1="1.0471976"
         sodipodi:r2="180.4183"
         sodipodi:r1="208.32912"
         sodipodi:cy="244.24014"
         sodipodi:cx="212.13203"
         sodipodi:sides="6"
         id="path2987-3-7-56-9-7-8-1-0-3-2-4"
         style="opacity:0.95999995;fill:#b5d92a;fill-opacity:1;stroke:#a0b643;stroke-width:27.73947144;stroke-miterlimit:4;stroke-opacity:1;stroke-dasharray:none;stroke-dashoffset:0"
         sodipodi:type="star" />
      <path
         transform="matrix(0.10814914,0,0,0.10814914,4338.7376,-1561.9618)"
         d="M 316.29658,424.65846 107.96747,424.65845 3.8029175,244.24013 107.96748,63.82183 l 208.32912,1e-5 104.16455,180.41831 z"
         inkscape:randomized="0"
         inkscape:rounded="0"
         inkscape:flatsided="true"
         sodipodi:arg2="1.5707963"
         sodipodi:arg1="1.0471976"
         sodipodi:r2="180.4183"
         sodipodi:r1="208.32912"
         sodipodi:cy="244.24014"
         sodipodi:cx="212.13203"
         sodipodi:sides="6"
         id="path2987-3-7-56-1-9-43-0-2-6-9-9"
         style="opacity:0.95999995;fill:#b5d92a;fill-opacity:1;stroke:#a0b643;stroke-width:27.73947144;stroke-miterlimit:4;stroke-opacity:1;stroke-dasharray:none;stroke-dashoffset:0"
         sodipodi:type="star" />
      <path
         transform="matrix(0.10814914,0,0,0.10814914,4305.0823,-1542.5553)"
         d="M 316.29658,424.65846 107.96747,424.65845 3.8029175,244.24013 107.96748,63.82183 l 208.32912,1e-5 104.16455,180.41831 z"
         inkscape:randomized="0"
         inkscape:rounded="0"
         inkscape:flatsided="true"
         sodipodi:arg2="1.5707963"
         sodipodi:arg1="1.0471976"
         sodipodi:r2="180.4183"
         sodipodi:r1="208.32912"
         sodipodi:cy="244.24014"
         sodipodi:cx="212.13203"
         sodipodi:sides="6"
         id="path2987-3-7-56-2-2-1-3-7-2-9-5"
         style="opacity:0.95999995;fill:#b5d92a;fill-opacity:1;stroke:#a0b643;stroke-width:27.73947144;stroke-miterlimit:4;stroke-opacity:1;stroke-dasharray:none;stroke-dashoffset:0"
         sodipodi:type="star" />
      <path
         transform="matrix(0.10814914,0,0,0.10814914,4338.8269,-1523.1226)"
         d="M 316.29658,424.65846 107.96747,424.65845 3.8029175,244.24013 107.96748,63.82183 l 208.32912,1e-5 104.16455,180.41831 z"
         inkscape:randomized="0"
         inkscape:rounded="0"
         inkscape:flatsided="true"
         sodipodi:arg2="1.5707963"
         sodipodi:arg1="1.0471976"
         sodipodi:r2="180.4183"
         sodipodi:r1="208.32912"
         sodipodi:cy="244.24014"
         sodipodi:cx="212.13203"
         sodipodi:sides="6"
         id="path2987-3-7-56-7-0-4-0-6-1-3-3"
         style="opacity:0.95999995;fill:#b5d92a;fill-opacity:1;stroke:#a0b643;stroke-width:27.73947144;stroke-miterlimit:4;stroke-opacity:1;stroke-dasharray:none;stroke-dashoffset:0"
         sodipodi:type="star" />
      <path
         transform="matrix(0.10814914,0,0,0.10814914,4372.4397,-1503.5368)"
         d="M 316.29658,424.65846 107.96747,424.65845 3.8029175,244.24013 107.96748,63.82183 l 208.32912,1e-5 104.16455,180.41831 z"
         inkscape:randomized="0"
         inkscape:rounded="0"
         inkscape:flatsided="true"
         sodipodi:arg2="1.5707963"
         sodipodi:arg1="1.0471976"
         sodipodi:r2="180.4183"
         sodipodi:r1="208.32912"
         sodipodi:cy="244.24014"
         sodipodi:cx="212.13203"
         sodipodi:sides="6"
         id="path2987-3-2-9-4-1-2-0-5"
         style="opacity:0.95999995;fill:#b5d92a;fill-opacity:1;stroke:#a0b643;stroke-width:27.73947144;stroke-miterlimit:4;stroke-opacity:1;stroke-dasharray:none;stroke-dashoffset:0"
         sodipodi:type="star" />
      <path
         transform="matrix(0.10814914,0,0,0.10814914,4372.5393,-1620.4978)"
         d="M 316.29658,424.65846 107.96747,424.65845 3.8029175,244.24013 107.96748,63.82183 l 208.32912,1e-5 104.16455,180.41831 z"
         inkscape:randomized="0"
         inkscape:rounded="0"
         inkscape:flatsided="true"
         sodipodi:arg2="1.5707963"
         sodipodi:arg1="1.0471976"
         sodipodi:r2="180.4183"
         sodipodi:r1="208.32912"
         sodipodi:cy="244.24014"
         sodipodi:cx="212.13203"
         sodipodi:sides="6"
         id="path2987-3-6-3-0-2-7-9-6-1"
         style="opacity:0.95999995;fill:#b5d92a;fill-opacity:1;stroke:#a0b643;stroke-width:27.73947144;stroke-miterlimit:4;stroke-opacity:1;stroke-dasharray:none;stroke-dashoffset:0"
         sodipodi:type="star" />
      <path
         transform="matrix(0.10814914,0,0,0.10814914,4406.2793,-1600.8826)"
         d="M 316.29658,424.65846 107.96747,424.65845 3.8029175,244.24013 107.96748,63.82183 l 208.32912,1e-5 104.16455,180.41831 z"
         inkscape:randomized="0"
         inkscape:rounded="0"
         inkscape:flatsided="true"
         sodipodi:arg2="1.5707963"
         sodipodi:arg1="1.0471976"
         sodipodi:r2="180.4183"
         sodipodi:r1="208.32912"
         sodipodi:cy="244.24014"
         sodipodi:cx="212.13203"
         sodipodi:sides="6"
         id="path2987-3-7-56-18-1-4-1-5-1-5-1"
         style="opacity:0.95999995;fill:#b5d92a;fill-opacity:1;stroke:#a0b643;stroke-width:27.73947144;stroke-miterlimit:4;stroke-opacity:1;stroke-dasharray:none;stroke-dashoffset:0"
         sodipodi:type="star" />
      <path
         transform="matrix(0.10814914,0,0,0.10814914,4372.4754,-1581.521)"
         d="M 316.29658,424.65846 107.96747,424.65845 3.8029175,244.24013 107.96748,63.82183 l 208.32912,1e-5 104.16455,180.41831 z"
         inkscape:randomized="0"
         inkscape:rounded="0"
         inkscape:flatsided="true"
         sodipodi:arg2="1.5707963"
         sodipodi:arg1="1.0471976"
         sodipodi:r2="180.4183"
         sodipodi:r1="208.32912"
         sodipodi:cy="244.24014"
         sodipodi:cx="212.13203"
         sodipodi:sides="6"
         id="path2987-3-7-56-9-7-9-8-7-8-9-6-0"
         style="opacity:0.95999995;fill:#b5d92a;fill-opacity:1;stroke:#a0b643;stroke-width:27.73947144;stroke-miterlimit:4;stroke-opacity:1;stroke-dasharray:none;stroke-dashoffset:0"
         sodipodi:type="star" />
      <path
         transform="matrix(0.10814914,0,0,0.10814914,4406.1963,-1561.9197)"
         d="M 316.29658,424.65846 107.96747,424.65845 3.8029175,244.24013 107.96748,63.82183 l 208.32912,1e-5 104.16455,180.41831 z"
         inkscape:randomized="0"
         inkscape:rounded="0"
         inkscape:flatsided="true"
         sodipodi:arg2="1.5707963"
         sodipodi:arg1="1.0471976"
         sodipodi:r2="180.4183"
         sodipodi:r1="208.32912"
         sodipodi:cy="244.24014"
         sodipodi:cx="212.13203"
         sodipodi:sides="6"
         id="path2987-3-7-56-1-9-4-7-8-7-6-3-0"
         style="opacity:0.95999995;fill:#b5d92a;fill-opacity:1;stroke:#a0b643;stroke-width:27.73947144;stroke-miterlimit:4;stroke-opacity:1;stroke-dasharray:none;stroke-dashoffset:0"
         sodipodi:type="star" />
      <path
         transform="matrix(0.10814914,0,0,0.10814914,4372.541,-1542.5131)"
         d="M 316.29658,424.65846 107.96747,424.65845 3.8029175,244.24013 107.96748,63.82183 l 208.32912,1e-5 104.16455,180.41831 z"
         inkscape:randomized="0"
         inkscape:rounded="0"
         inkscape:flatsided="true"
         sodipodi:arg2="1.5707963"
         sodipodi:arg1="1.0471976"
         sodipodi:r2="180.4183"
         sodipodi:r1="208.32912"
         sodipodi:cy="244.24014"
         sodipodi:cx="212.13203"
         sodipodi:sides="6"
         id="path2987-3-7-56-2-2-7-1-5-0-3-0-7"
         style="opacity:0.95999995;fill:#b5d92a;fill-opacity:1;stroke:#a0b643;stroke-width:27.73947144;stroke-miterlimit:4;stroke-opacity:1;stroke-dasharray:none;stroke-dashoffset:0"
         sodipodi:type="star" />
      <path
         transform="matrix(0.10814914,0,0,0.10814914,4406.2856,-1523.0804)"
         d="M 316.29658,424.65846 107.96747,424.65845 3.8029175,244.24013 107.96748,63.82183 l 208.32912,1e-5 104.16455,180.41831 z"
         inkscape:randomized="0"
         inkscape:rounded="0"
         inkscape:flatsided="true"
         sodipodi:arg2="1.5707963"
         sodipodi:arg1="1.0471976"
         sodipodi:r2="180.4183"
         sodipodi:r1="208.32912"
         sodipodi:cy="244.24014"
         sodipodi:cx="212.13203"
         sodipodi:sides="6"
         id="path2987-3-7-56-7-0-8-7-7-4-6-2-0"
         style="opacity:0.95999995;fill:#b5d92a;fill-opacity:1;stroke:#a0b643;stroke-width:27.73947144;stroke-miterlimit:4;stroke-opacity:1;stroke-dasharray:none;stroke-dashoffset:0"
         sodipodi:type="star" />
      <path
         sodipodi:nodetypes="csccccscccccccccccscc"
         inkscape:connector-curvature="0"
         d="m 4192.5654,-1828.603 c 10.6473,0.439 21.0947,-2.9667 31.6994,-3.0069 87.0139,-0.3304 -27.5478,3.7358 47.9527,2.3231 33.5544,-1.865 17.2876,-1.3412 48.7966,-1.7083 52.7095,0.1122 5.3118,-0.093 55.3901,0.4062 9.7638,0.097 19.5309,-0.049 29.2922,0.2119 6.0806,0.163 21.2627,-0.662 27.3372,-0.3193 11.5833,0.6536 7.3541,-0.4813 12.4952,1.0658 2.067,-0.6191 1.2078,-0.5437 -1.5237,2.3261 0.3738,-1.3048 11.4294,5.1326 11.0553,6.4375 l 0,0 c -5.2536,9.2966 -5.3437,6.4171 -14.2173,11.8052 -7.341,0.2741 -14.6846,0.4596 -22.0251,0.7454 -12.8345,0.5 -23.9829,1.2813 -36.8302,1.15 -8.868,-0.09 -17.7276,-0.7078 -26.5956,-0.7959 -9.6193,-0.095 -19.2387,0.1635 -28.8581,0.2452 -14.4317,0.4203 -44.303,1.5671 -60.0806,1.1181 -7.1892,-0.2047 -14.3517,-1.0645 -21.534,-1.4769 -5.0521,-0.2902 -10.1115,-0.3994 -15.1662,-0.6309 -23.2018,-1.0628 -10.6021,-0.992 -31.1486,-0.5917 -1.2264,0.4753 -7.2658,-18.8294 -6.0393,-19.3046 z"
         id="path5476-0"
         style="opacity:0.95999995;fill:#4f4c4d;fill-opacity:1;stroke:#4f4c4d;stroke-width:0.32011145;stroke-miterlimit:4;stroke-opacity:1;stroke-dasharray:none;stroke-dashoffset:0" />
      <path
         inkscape:connector-curvature="0"
         d="m 4169.7311,-1475.3862 c 11.7955,0.4517 23.3695,-3.0521 35.1179,-3.0935 96.3976,-0.3398 -30.5187,3.8435 53.1239,2.3902 37.173,-1.9189 19.1521,-1.3801 54.0589,-1.7577 58.3937,0.1155 5.8848,-0.096 61.3635,0.4179 10.8168,0.1 21.6371,-0.051 32.4511,0.2181 6.7364,0.1677 13.4578,0.7399 20.1874,1.0924 12.8324,0.6725 8.147,-0.4952 13.8428,1.0965 2.29,-0.637 1.3379,-0.5594 -1.6882,2.3931 0.4143,-1.3423 18.7818,4.7123 18.3675,6.0547 l 0,0 c -5.8201,9.5648 -1.9419,5.7498 -11.7725,11.2932 -8.1327,0.282 -16.2681,0.4728 -24.4003,0.7669 -14.2186,0.5143 -26.5693,1.3183 -40.8021,1.1831 -9.8243,-0.092 -19.6392,-0.7283 -29.4638,-0.8188 -10.6565,-0.098 -21.3133,0.1682 -31.9701,0.2523 -15.9881,0.4325 -49.0807,1.6122 -66.5599,1.1502 -7.9644,-0.2104 -15.8995,-1.095 -23.8561,-1.5194 -5.597,-0.2986 -11.202,-0.4107 -16.8019,-0.649 -25.7038,-1.0935 -11.7453,-1.0206 -34.5077,-0.6088 -1.3587,0.489 -8.0493,-19.3723 -6.6904,-19.8614 z"
         id="path5476-9-64"
         style="opacity:0.95999995;fill:#4f4c4d;fill-opacity:1;stroke:#4f4c4d;stroke-width:0.34175393;stroke-miterlimit:4;stroke-opacity:1;stroke-dasharray:none;stroke-dashoffset:0" />
      <path
         inkscape:connector-curvature="0"
         d="m 4184.2359,-1616.9557 c -0.4081,6.4359 2.759,12.7509 2.7964,19.161 0.3072,52.5964 -3.4742,-16.6515 -2.1605,28.9854 1.7345,20.2824 1.2473,10.4498 1.5887,29.4957 -0.1047,31.8607 0.086,3.2108 -0.3778,33.481 -0.09,5.9019 0.046,11.8056 -0.197,17.7059 -0.1516,3.6756 -0.6687,7.3429 -0.9875,11.0147 -0.6078,7.0016 0.4476,4.4452 -0.9911,7.5528 0.5758,1.2495 0.5057,0.73 -2.1632,-0.921 1.2134,0.226 -4.2595,10.2477 -5.4729,10.0217 l 0,0 c -8.6457,-3.1757 -5.1973,-1.0596 -10.2081,-6.4234 -0.2549,-4.4373 -0.4274,-8.8761 -0.6933,-13.3132 -0.4649,-7.758 -1.1915,-14.4967 -1.0693,-22.2624 0.085,-5.3604 0.6582,-10.7156 0.7401,-16.076 0.089,-5.8145 -0.152,-11.629 -0.228,-17.4435 -0.391,-8.7235 -1.4573,-26.7794 -1.0398,-36.3164 0.1903,-4.3455 0.9899,-8.6751 1.3735,-13.0164 0.2698,-3.0538 0.3714,-6.112 0.5867,-9.1674 0.9883,-14.0245 0.9225,-6.4085 0.5502,-18.828 -0.442,-0.7414 17.511,-4.3919 17.9529,-3.6505 z"
         id="path5476-9-3-3"
         style="opacity:0.95999995;fill:#4f4c4d;fill-opacity:1;stroke:#4f4c4d;stroke-width:0.24000582;stroke-miterlimit:4;stroke-opacity:1;stroke-dasharray:none;stroke-dashoffset:0" />
      <path
         inkscape:connector-curvature="0"
         d="m 4215.9831,-1823.6169 c -0.4082,5.1423 2.7589,10.1881 2.7964,15.3098 0.3072,42.0252 -3.4742,-13.3048 -2.1605,23.1597 1.7344,16.2058 1.2473,8.3495 1.5887,23.5674 -0.1047,25.457 0.086,2.5654 -0.3778,26.7517 -0.09,4.7156 0.046,9.4328 -0.197,14.1472 -0.1516,2.9368 -0.6688,5.867 -0.9875,8.8009 -0.6078,5.5944 0.4476,3.5517 -0.9911,6.0348 0.5758,0.9983 0.5056,0.5833 -2.1632,-0.7359 1.2134,0.1805 -4.2595,8.188 -5.473,8.0074 l 0,0 c -8.6456,-2.5374 -5.1972,-0.8466 -10.208,-5.1324 -0.255,-3.5454 -0.4274,-7.0921 -0.6933,-10.6374 -0.4649,-6.1987 -1.1915,-11.583 -1.0694,-17.7879 0.085,-4.283 0.6583,-8.5618 0.7402,-12.8449 0.089,-4.6458 -0.152,-9.2917 -0.228,-13.9376 -0.391,-6.9701 -1.4574,-21.397 -1.0398,-29.0171 0.1902,-3.4722 0.9898,-6.9315 1.3735,-10.4003 0.2698,-2.44 0.3713,-4.8836 0.5867,-7.3248 0.9883,-11.2058 0.9225,-5.1205 0.5502,-15.0438 -0.442,-0.5924 17.5109,-3.5092 17.9529,-2.9168 z"
         id="path5476-9-3-6-3"
         style="opacity:0.95999995;fill:#4f4c4d;fill-opacity:1;stroke:#4f4c4d;stroke-width:0.21453504;stroke-miterlimit:4;stroke-opacity:1;stroke-dasharray:none;stroke-dashoffset:0" />
      <path
         inkscape:connector-curvature="0"
         d="m 4215.8625,-1705.4927 c -1.9366,1.713 -1.0218,5.4525 -2.6002,7.4148 -12.9525,16.101 1.4359,-7.0462 -8.9765,7.5286 -3.7195,7.1415 -1.6372,3.8836 -6.1458,9.8467 -8.0755,9.5856 -0.7378,1.0217 -8.6976,9.9185 -1.5516,1.7349 -2.9252,3.6008 -4.5973,5.2469 -1.0417,1.0253 -2.3698,1.8371 -3.5425,2.7648 -2.2361,1.769 -0.7619,1.6041 -2.6768,1.7147 0.1409,0.7106 0.2159,0.5128 -1.476,-1.5272 0.9008,0.7687 -5.9319,0.6445 -6.8327,-0.1242 l 0,0 c -6.0255,-5.9507 -3.8353,-3.32 -6.4437,-7.8356 0.912,-1.4905 1.8895,-2.9339 2.7928,-4.4306 1.5794,-2.6171 2.6966,-5.0766 4.7411,-7.3572 1.4117,-1.5739 3.2077,-2.8643 4.617,-4.4399 1.529,-1.709 2.7975,-3.6085 4.1962,-5.4127 1.8799,-2.8667 5.5682,-8.9485 8.2902,-11.5949 1.2402,-1.2058 2.9573,-2.0552 4.3492,-3.1481 0.979,-0.7689 1.8264,-1.6362 2.7628,-2.4369 4.2982,-3.6756 2.3356,-1.4079 5.1575,-5.3827 -0.1628,-0.4795 14.9196,8.7755 15.0823,9.255 z"
         id="path5476-9-3-6-0-69"
         style="opacity:0.95999995;fill:#4f4c4d;fill-opacity:1;stroke:#4f4c4d;stroke-width:0.14866263;stroke-miterlimit:4;stroke-opacity:1;stroke-dasharray:none;stroke-dashoffset:0" />
      <path
         inkscape:connector-curvature="0"
         d="m 4180.2349,-1675.1632 c -0.2632,2.0412 3.0408,3.8931 3.222,5.9074 1.4865,16.5278 -3.8425,-5.0896 -1.5071,9.207 2.1868,6.305 1.4799,3.2334 2.2479,9.2086 0.6102,10.0242 0.1578,1.0062 0.3739,10.5454 0.043,1.8599 0.3108,3.7107 0.2003,5.5766 -0.069,1.1624 -0.503,2.3375 -0.7388,3.5058 -0.4499,2.2277 0.5466,1.379 -0.8203,2.4172 0.603,0.3686 0.5213,0.2082 -2.1806,-0.198 1.2167,0.02 -4.0232,3.4032 -5.2398,3.3835 l 0,0 c -8.7038,-0.6325 -5.2131,-0.1131 -10.3368,-1.5876 -0.3541,-1.3847 -0.6257,-2.7734 -0.9909,-4.1575 -0.6381,-2.4201 -1.5148,-4.5086 -1.567,-6.9559 -0.036,-1.6894 0.4169,-3.3978 0.3783,-5.087 -0.042,-1.8324 -0.4126,-3.6508 -0.6189,-5.4761 -0.586,-2.7269 -2.0558,-8.3601 -1.8527,-11.377 0.092,-1.3746 0.7936,-2.7701 1.0794,-4.1516 0.2009,-0.9719 0.2336,-1.9379 0.3801,-2.9079 0.6723,-4.4524 0.7773,-2.0544 0.1271,-5.9444 -0.458,-0.2145 17.386,-2.123 17.8439,-1.9085 z"
         id="path5476-9-3-6-0-6-0"
         style="opacity:0.95999995;fill:#4f4c4d;fill-opacity:1;stroke:#4f4c4d;stroke-width:0.13469468;stroke-miterlimit:4;stroke-opacity:1;stroke-dasharray:none;stroke-dashoffset:0" />
      <path
         inkscape:connector-curvature="0"
         d="m 4190.5078,-1644.7014 c -0.2632,1.862 3.0407,3.5512 3.2219,5.3886 1.4866,15.0762 -3.8424,-4.6426 -1.507,8.3984 2.1868,5.7513 1.4799,2.9495 2.2479,8.3999 0.6102,9.1438 0.1578,0.9178 0.3738,9.6192 0.043,1.6965 0.3109,3.3848 0.2004,5.0868 -0.069,1.0603 -0.503,2.1323 -0.7389,3.1979 -0.4498,2.0321 0.5467,1.2579 -0.8202,2.205 0.603,0.3362 0.5212,0.1899 -2.1806,-0.1806 1.2167,0.018 -4.0232,3.1043 -5.2398,3.0863 l 0,0 c -8.7038,-0.577 -5.2132,-0.1032 -10.3368,-1.4482 -0.3541,-1.2631 -0.6258,-2.5298 -0.9909,-3.7923 -0.6382,-2.2076 -1.5148,-4.1126 -1.5671,-6.3451 -0.035,-1.541 0.417,-3.0994 0.3784,-4.6402 -0.042,-1.6715 -0.4126,-3.3301 -0.6189,-4.9952 -0.5861,-2.4874 -2.0559,-7.6258 -1.8528,-10.3777 0.092,-1.254 0.7937,-2.5268 1.0795,-3.7871 0.2009,-0.8864 0.2336,-1.7677 0.3801,-2.6525 0.6723,-4.0613 0.7773,-1.874 0.1271,-5.4223 -0.458,-0.1956 17.386,-1.9365 17.8439,-1.7409 z"
         id="path5476-9-3-6-0-6-2-4"
         style="opacity:0.95999995;fill:#4f4c4d;fill-opacity:1;stroke:#4f4c4d;stroke-width:0.12864397;stroke-miterlimit:4;stroke-opacity:1;stroke-dasharray:none;stroke-dashoffset:0" />
      <path
         inkscape:connector-curvature="0"
         d="m 4302.1228,-1717.8071 c -1.2076,-11.7502 -0.4594,-2.2045 -0.7391,-15.03 -0.06,-2.7139 -0.1814,-5.4268 -0.3301,-8.1382 -0.1604,-2.9241 -0.5597,-5.84 -0.5969,-8.7671 -0.041,-3.1783 0.2953,-6.3524 0.3636,-9.5303 0.071,-3.3615 0.039,-6.724 0.058,-10.0859 -2.0486,-8.0752 0.2827,-15.9011 1.0469,-23.9069 0.056,-0.5811 -0.6322,1.1963 -0.3425,1.7249 0.4372,0.7977 1.5159,1.1996 2.2738,1.7993 -0.9746,-0.6854 10.4372,-12.3941 11.4117,-11.7086 l 0,0 c 1.4098,1.0933 3.4813,1.7882 4.2296,3.28 1.3366,2.6645 1.2248,5.6998 1.7127,8.5663 0.3338,1.9602 0.681,3.9277 0.7511,5.9074 0.099,2.8108 -0.1628,5.6225 -0.2442,8.4337 0.1488,3.3151 0.2976,6.6303 0.4464,9.9454 -0.073,3.0526 -0.4214,16.3953 -0.4174,19.6171 0,2.8974 0.09,5.7947 0.195,8.6907 0.099,2.7197 0.4876,5.4349 0.4198,8.1552 -0.1216,4.888 -1.3648,9.7235 -1.4402,14.6162 -0.2972,1.1291 -19.095,-2.4401 -18.798,-3.5692 z"
         id="path5740-8"
         style="opacity:0.95999995;fill:#918f90;fill-opacity:1;stroke:#918f90;stroke-width:0.28825292;stroke-miterlimit:4;stroke-opacity:1;stroke-dasharray:none;stroke-dashoffset:0" />
      <path
         inkscape:connector-curvature="0"
         d="m 4223.9457,-1720.8896 c -0.2886,-1.797 -0.7483,-3.5867 -0.866,-5.391 -0.1438,-2.2098 0.1614,-4.4235 0.083,-6.6345 -0.05,-1.3991 -0.3948,-2.7898 -0.4701,-4.1885 -0.2038,-3.7841 -0.049,-9.101 -0.1289,-12.9083 -0.065,-3.1139 -0.2071,-6.227 -0.3107,-9.3405 0.1896,-2.2316 0.379,-4.4633 0.5685,-6.6949 -0.1461,-2.3579 -0.6115,-4.7164 -0.4381,-7.0735 0.09,-1.2147 1.1453,-2.3546 1.2214,-3.5697 0.094,-1.4942 -0.8923,-2.9728 -0.7183,-4.4643 0.093,-0.7969 0.9982,-1.4753 1.4972,-2.2129 -0.018,-0.8976 -0.038,-1.7952 -0.057,-2.6928 5.8512,0.2324 11.7024,0.4648 17.5535,0.6972 -0.058,0.2374 -0.2668,0.4794 -0.1726,0.7123 0.066,0.1629 0.3997,0.2284 0.5996,0.3426 0.3228,0.7631 -17.2222,3.5699 -17.5448,2.8069 l 0,0 c -0.1095,-0.028 -0.3084,-0.012 -0.3285,-0.083 -1.0096,-3.5998 17.3241,-11.4997 17.5129,-2.0196 0.1612,-0.8594 -0.5052,-1.963 0.4835,-2.5783 0.7995,-0.4974 0.1592,1.396 0.3015,2.0899 0.3138,1.5306 0.9265,3.0411 1.0666,4.5815 0.705,7.7535 -0.2478,15.5144 0.068,23.2697 -0.716,4.0534 -0.9722,4.4032 -0.551,9.34 0.1872,2.1962 1.0193,4.366 1.0625,6.565 0.067,3.4497 -0.5347,6.8921 -0.7314,10.3399 -0.5746,10.0787 0.4524,3.8541 -1.5194,12.7519 -0.419,0.7907 -18.6009,-2.8541 -18.1819,-3.6449 z"
         id="path5742-5"
         style="opacity:0.95999995;fill:#918f90;fill-opacity:1;stroke:#918f90;stroke-width:0.24527851;stroke-miterlimit:4;stroke-opacity:1;stroke-dasharray:none;stroke-dashoffset:0" />
      <path
         inkscape:connector-curvature="0"
         d="m 4250.0117,-1718.8619 c -0.2887,-1.7969 -0.7482,-3.5867 -0.8659,-5.391 -0.1441,-2.2098 0.1613,-4.4235 0.083,-6.6345 -0.05,-1.3991 -0.3947,-2.7898 -0.4701,-4.1885 -0.2038,-3.7841 -0.049,-9.101 -0.1289,-12.9083 -0.066,-3.1139 -0.2071,-6.227 -0.3106,-9.3405 0.1893,-2.2316 0.379,-4.4632 0.5683,-6.6949 -0.1459,-2.3578 -0.6114,-4.7164 -0.4379,-7.0735 0.09,-1.2147 1.1452,-2.3546 1.2213,-3.5697 0.094,-1.4942 -0.8923,-2.9727 -0.7182,-4.4643 0.093,-0.7969 0.9981,-1.4753 1.4971,-2.2129 -0.019,-0.8976 -0.038,-1.7952 -0.056,-2.6928 5.8512,0.2324 11.7023,0.4648 17.5536,0.6972 -0.058,0.2374 -0.267,0.4794 -0.1727,0.7124 0.066,0.1628 0.3998,0.2284 0.5997,0.3426 0.3226,0.7631 -17.2223,3.5698 -17.5449,2.8068 l 0,0 c -0.1096,-0.028 -0.3084,-0.012 -0.3285,-0.083 -1.0095,-3.5998 17.3241,-11.4997 17.5129,-2.0196 0.1612,-0.8594 -0.5052,-1.963 0.4836,-2.5783 0.7993,-0.4974 0.1592,1.396 0.3014,2.0899 0.3139,1.5306 0.9266,3.0412 1.0666,4.5815 0.7051,7.7535 -0.2478,15.5144 0.068,23.2697 -0.7159,4.0534 -0.9722,4.4032 -0.5511,9.34 0.1872,2.1962 1.0194,4.366 1.0625,6.565 0.067,3.4497 -0.5347,6.8922 -0.7314,10.3399 -0.5745,10.0787 0.4525,3.8542 -1.5192,12.7519 -0.4191,0.7907 -18.601,-2.8541 -18.182,-3.6449 z"
         id="path5742-8-1"
         style="opacity:0.95999995;fill:#918f90;fill-opacity:1;stroke:#918f90;stroke-width:0.24527851;stroke-miterlimit:4;stroke-opacity:1;stroke-dasharray:none;stroke-dashoffset:0" />
      <path
         inkscape:connector-curvature="0"
         d="m 4274.7762,-1720.4918 c -0.2888,-1.7969 -0.7483,-3.5867 -0.8659,-5.391 -0.1441,-2.2098 0.1612,-4.4235 0.083,-6.6345 -0.05,-1.3991 -0.3949,-2.7898 -0.4703,-4.1885 -0.2036,-3.7841 -0.049,-9.101 -0.1287,-12.9083 -0.066,-3.1139 -0.2073,-6.227 -0.3108,-9.3405 0.1895,-2.2316 0.379,-4.4632 0.5684,-6.6949 -0.1459,-2.3578 -0.6114,-4.7164 -0.438,-7.0735 0.09,-1.2147 1.1452,-2.3546 1.2215,-3.5697 0.094,-1.4942 -0.8924,-2.9727 -0.7183,-4.4643 0.093,-0.7969 0.9981,-1.4753 1.4972,-2.2129 -0.019,-0.8976 -0.038,-1.7952 -0.057,-2.6928 5.8513,0.2324 11.7024,0.4648 17.5536,0.6972 -0.057,0.2374 -0.2668,0.4794 -0.1726,0.7124 0.065,0.1628 0.3998,0.2284 0.5997,0.3426 0.3226,0.7631 -17.2224,3.5698 -17.545,2.8068 l 0,0 c -0.1094,-0.027 -0.3082,-0.011 -0.3283,-0.083 -1.0096,-3.5998 17.3241,-11.4997 17.5127,-2.0196 0.1613,-0.8594 -0.5051,-1.963 0.4837,-2.5783 0.7994,-0.4974 0.1591,1.396 0.3013,2.0899 0.3139,1.5306 0.9267,3.0412 1.0667,4.5815 0.7051,7.7535 -0.2479,15.5144 0.068,23.2697 -0.7159,4.0534 -0.9721,4.4032 -0.5511,9.34 0.1872,2.1962 1.0194,4.366 1.0626,6.565 0.067,3.4497 -0.5348,6.8922 -0.7313,10.3399 -0.5747,10.0787 0.4522,3.8542 -1.5194,12.7519 -0.4192,0.7907 -18.6009,-2.8541 -18.1821,-3.6449 z"
         id="path5742-7-29"
         style="opacity:0.95999995;fill:#918f90;fill-opacity:1;stroke:#918f90;stroke-width:0.24527851;stroke-miterlimit:4;stroke-opacity:1;stroke-dasharray:none;stroke-dashoffset:0" />
      <path
         inkscape:connector-curvature="0"
         d="m 4356.2636,-1719.8831 c -1.2075,-11.7502 -0.4592,-2.2045 -0.739,-15.03 -0.06,-2.7139 -0.1815,-5.4268 -0.3301,-8.1383 -0.1605,-2.924 -0.5597,-5.8399 -0.597,-8.767 -0.041,-3.1783 0.2954,-6.3524 0.3637,-9.5304 0.071,-3.3614 0.039,-6.7239 0.057,-10.0858 -2.0485,-8.0753 0.2829,-15.9011 1.0471,-23.9069 0.056,-0.5811 -0.6322,1.1962 -0.3426,1.7248 0.4372,0.7978 1.5159,1.1996 2.2739,1.7994 -0.9747,-0.6854 10.437,-12.3941 11.4117,-11.7087 l 0,0 c 1.4098,1.0934 3.4811,1.7883 4.2295,3.2801 1.3367,2.6645 1.2248,5.6998 1.7127,8.5662 0.3338,1.9602 0.6812,3.9278 0.751,5.9075 0.099,2.8108 -0.1627,5.6224 -0.2441,8.4337 0.1488,3.3151 0.2977,6.6303 0.4464,9.9454 -0.073,3.0525 -0.4213,16.3953 -0.4172,19.6171 0,2.8974 0.09,5.7947 0.1948,8.6906 0.1,2.7198 0.4876,5.4349 0.4198,8.1553 -0.1217,4.888 -1.3648,9.7235 -1.4401,14.6162 -0.2972,1.1291 -19.095,-2.4401 -18.7981,-3.5692 z"
         id="path5740-9-7"
         style="opacity:0.95999995;fill:#918f90;fill-opacity:1;stroke:#918f90;stroke-width:0.28825292;stroke-miterlimit:4;stroke-opacity:1;stroke-dasharray:none;stroke-dashoffset:0" />
      <path
         inkscape:connector-curvature="0"
         d="m 4329.4881,-1718.8619 c -0.2887,-1.7969 -0.7482,-3.5867 -0.8659,-5.391 -0.144,-2.2098 0.1613,-4.4235 0.083,-6.6345 -0.05,-1.3991 -0.3947,-2.7898 -0.4701,-4.1885 -0.2038,-3.7841 -0.049,-9.101 -0.1288,-12.9083 -0.065,-3.1139 -0.2072,-6.227 -0.3107,-9.3405 0.1893,-2.2316 0.379,-4.4632 0.5683,-6.6949 -0.1459,-2.3578 -0.6114,-4.7164 -0.4379,-7.0735 0.09,-1.2147 1.1453,-2.3546 1.2213,-3.5697 0.094,-1.4942 -0.8923,-2.9728 -0.7182,-4.4643 0.093,-0.7969 0.9981,-1.4753 1.4971,-2.2129 -0.018,-0.8976 -0.038,-1.7952 -0.057,-2.6928 5.8513,0.2324 11.7024,0.4648 17.5537,0.6972 -0.058,0.2374 -0.2669,0.4794 -0.1726,0.7124 0.065,0.1628 0.3997,0.2283 0.5996,0.3426 0.3226,0.763 -17.2222,3.5698 -17.545,2.8068 l 0,0 c -0.1095,-0.028 -0.3082,-0.012 -0.3284,-0.083 -1.0096,-3.5998 17.3241,-11.4997 17.513,-2.0196 0.1612,-0.8594 -0.5053,-1.963 0.4835,-2.5783 0.7995,-0.4974 0.1592,1.396 0.3015,2.0899 0.3137,1.5306 0.9265,3.0412 1.0665,4.5815 0.7051,7.7535 -0.2477,15.5144 0.068,23.2697 -0.7159,4.0534 -0.9722,4.4032 -0.551,9.34 0.1873,2.1962 1.0193,4.366 1.0624,6.565 0.067,3.4497 -0.5346,6.8921 -0.7313,10.3399 -0.5745,10.0787 0.4525,3.8541 -1.5194,12.7519 -0.419,0.7907 -18.6009,-2.8541 -18.1818,-3.6449 z"
         id="path5742-7-2-3"
         style="opacity:0.95999995;fill:#918f90;fill-opacity:1;stroke:#918f90;stroke-width:0.24527851;stroke-miterlimit:4;stroke-opacity:1;stroke-dasharray:none;stroke-dashoffset:0" />
      <path
         inkscape:connector-curvature="0"
         d="m 4382.4723,-1719.9485 c -0.2886,-1.7969 -0.7481,-3.5867 -0.8658,-5.391 -0.144,-2.2098 0.1612,-4.4235 0.082,-6.6345 -0.05,-1.3991 -0.3949,-2.7898 -0.4701,-4.1885 -0.2037,-3.7841 -0.049,-9.101 -0.1289,-12.9083 -0.065,-3.1139 -0.2072,-6.227 -0.3107,-9.3405 0.1895,-2.2316 0.3789,-4.4632 0.5684,-6.6949 -0.146,-2.3578 -0.6114,-4.7164 -0.4379,-7.0735 0.09,-1.2147 1.1451,-2.3546 1.2213,-3.5697 0.094,-1.4942 -0.8924,-2.9727 -0.7182,-4.4643 0.093,-0.7969 0.9981,-1.4753 1.4972,-2.2129 -0.019,-0.8976 -0.038,-1.7952 -0.057,-2.6928 5.8513,0.2324 11.7024,0.4648 17.5537,0.6972 -0.058,0.2374 -0.2669,0.4794 -0.1727,0.7124 0.066,0.1628 0.3997,0.2284 0.5997,0.3426 0.3227,0.7631 -17.2224,3.5698 -17.545,2.8068 l 0,0 c -0.1095,-0.027 -0.3083,-0.012 -0.3283,-0.083 -1.0097,-3.5998 17.324,-11.4997 17.5127,-2.0196 0.1613,-0.8594 -0.5051,-1.963 0.4837,-2.5783 0.7993,-0.4974 0.159,1.396 0.3013,2.0899 0.3138,1.5306 0.9267,3.0412 1.0667,4.5815 0.705,7.7535 -0.2479,15.5144 0.068,23.2698 -0.7159,4.0534 -0.9721,4.4031 -0.5511,9.3399 0.1872,2.1962 1.0193,4.3661 1.0626,6.565 0.067,3.4497 -0.5348,6.8922 -0.7314,10.3399 -0.5746,10.0787 0.4523,3.8542 -1.5193,12.7519 -0.4191,0.7907 -18.601,-2.8541 -18.1821,-3.6449 z"
         id="path5742-7-0-8"
         style="opacity:0.95999995;fill:#918f90;fill-opacity:1;stroke:#918f90;stroke-width:0.24527851;stroke-miterlimit:4;stroke-opacity:1;stroke-dasharray:none;stroke-dashoffset:0" />
      <path
         inkscape:connector-curvature="0"
         d="m 4408.9646,-1719.9485 c -0.2886,-1.7969 -0.7483,-3.5867 -0.866,-5.391 -0.1439,-2.2098 0.1613,-4.4235 0.083,-6.6345 -0.05,-1.3991 -0.3948,-2.7898 -0.4701,-4.1885 -0.2038,-3.7841 -0.049,-9.101 -0.1289,-12.9083 -0.065,-3.1139 -0.2071,-6.227 -0.3107,-9.3405 0.1894,-2.2316 0.379,-4.4632 0.5684,-6.6949 -0.146,-2.3578 -0.6115,-4.7164 -0.438,-7.0735 0.09,-1.2147 1.1453,-2.3546 1.2213,-3.5697 0.094,-1.4942 -0.8923,-2.9727 -0.7182,-4.4643 0.093,-0.7969 0.9981,-1.4753 1.4972,-2.2129 -0.019,-0.8976 -0.038,-1.7952 -0.056,-2.6928 5.8512,0.2324 11.7024,0.4648 17.5536,0.6972 -0.058,0.2374 -0.2668,0.4794 -0.1726,0.7124 0.065,0.1628 0.3997,0.2284 0.5996,0.3426 0.3227,0.7631 -17.2222,3.5698 -17.5449,2.8068 l 0,0 c -0.1095,-0.027 -0.3084,-0.012 -0.3285,-0.083 -1.0095,-3.5998 17.3242,-11.4997 17.513,-2.0196 0.1612,-0.8594 -0.5052,-1.963 0.4835,-2.5783 0.7995,-0.4974 0.1592,1.396 0.3014,2.0899 0.3139,1.5306 0.9266,3.0412 1.0666,4.5815 0.7051,7.7535 -0.2478,15.5144 0.068,23.2698 -0.7159,4.0534 -0.9721,4.4031 -0.5511,9.3399 0.1874,2.1962 1.0194,4.3661 1.0626,6.565 0.067,3.4497 -0.5346,6.8922 -0.7313,10.3399 -0.5746,10.0787 0.4524,3.8542 -1.5194,12.7519 -0.4191,0.7907 -18.601,-2.8541 -18.1819,-3.6449 z"
         id="path5742-7-23-0"
         style="opacity:0.95999995;fill:#918f90;fill-opacity:1;stroke:#918f90;stroke-width:0.24527851;stroke-miterlimit:4;stroke-opacity:1;stroke-dasharray:none;stroke-dashoffset:0" />
      <path
         sodipodi:nodetypes="cscccccccccccccccccccccccccccccccccccccccccccccccccccccccccccccccccccccccccccccssccccccccccccccccccccccccccccccccccccccccscccccccccccccccccccscccccsccccccccccccccccccccccccccccccscccccccccsccccccccscccccccccccccccccccccccccccccccccccccccccc"
         inkscape:connector-curvature="0"
         id="path5320-26-7"
         d="m 4434.8913,-1645.5753 c 0.7142,-3.7403 1.8967,-7.4845 2.1425,-11.2192 0.2525,-3.837 -0.5033,-7.6481 -0.6491,-11.4757 -0.1088,-2.8464 -0.2145,-5.6927 -0.2914,-8.5398 -0.022,-0.69 -0.034,-1.3804 -0.045,-2.0706 l 2e-4,0 0,0 c 7e-4,-0.3078 -0.011,-0.6153 0,-0.9233 l 0,0 c -9e-4,-0.026 0,-0.053 0.011,-0.08 l 0,0 c -2e-4,-0.01 -4e-4,-0.013 -5e-4,-0.02 6e-4,-10e-5 -1e-4,0 -2e-4,-0.01 0.011,-3e-4 0.011,0 0.011,0 2e-4,0.01 4e-4,0.012 5e-4,0.018 8e-4,0.023 0.012,0.045 0.013,0.068 l 0,0 0,0 c 0.032,0.2174 0.044,0.4355 0.06,0.6533 0,0 0,0 0,2e-4 0.057,0.7849 0.094,1.5704 0.1251,2.3561 0.024,0.7197 0.061,1.4391 0.039,2.1601 -0.011,0.095 -0.011,0.19 -0.016,0.2851 0,0.028 -0.011,0.056 -0.014,0.084 5e-4,0.013 9e-4,0.027 -0.017,0.04 -0.017,5e-4 -0.018,0 -0.02,-0.01 l 0,0 c -0.014,-0.02 -0.019,-0.04 -0.026,-0.06 -0.031,-0.096 -0.047,-0.1931 -0.064,-0.2899 l -1e-4,0 c -0.2364,-1.3215 -0.3355,-2.6484 -0.4676,-3.9739 -0.3291,-3.3029 -0.6115,-6.6073 -0.8898,-9.9119 -0.2796,-3.3225 -0.2733,-6.654 -0.2856,-9.9844 -0.012,-3.2991 0.022,-6.5994 0.033,-9.8991 l 0,0 c -1.1722,-5.6185 1.8081,-11.3478 1.5939,-17.0022 l 0,0 c -0.091,-2.388 -1.4513,-4.722 -1.7629,-7.1025 l 0,0 c -0.3655,-2.7935 -0.2031,-5.6041 -0.271,-8.4074 -0.055,-2.397 -0.1004,-4.7942 -0.087,-7.1929 0.014,-2.6216 -0.2891,-5.2345 -0.4315,-7.8516 0,0 0,0 0,-10e-5 0.2244,-4.4749 0.412,-8.95 0.028,-13.4086 0,-10e-5 0,-10e-5 0,-10e-5 -0.2255,-2.6189 -0.8698,-5.2227 -0.9997,-7.8447 l 0,0 c -0.2303,-4.6575 0.8564,-9.343 1.3261,-14.0161 -0.2683,-4.7941 -1.5187,-9.5664 -0.6626,-14.3814 0.112,-0.6295 0.3187,-1.2593 0.5139,-1.8888 l 0,0 c 0.2944,-0.949 0.6142,-1.8977 0.9484,-2.8463 l 0,0 c 0.3421,-0.971 0.6993,-1.9417 1.0868,-2.912 0.2779,-0.696 0.5501,-1.3925 0.9289,-2.0859 l 0,0 c 0.6013,-1.101 1.583,-2.1853 2.3747,-3.2782 l 0,0 c 0.4517,-0.6506 0.9032,-1.3013 1.3548,-1.9519 l 0,-10e-5 c -0.2473,0 -0.491,0.031 -0.7371,0.047 -0.2037,0.013 -0.4614,0.013 -0.5384,-0.046 -0.4219,-0.3251 -0.5626,-0.6867 -0.7427,-1.0397 -0.2673,-0.524 -0.468,-1.0531 -0.6273,-1.5843 l 0,0 c -0.1491,-0.4978 -0.2692,-0.9978 -0.2841,-1.5013 0,-0.174 -5e-4,-0.3488 0.058,-0.5234 l 0,0 c 0.031,-0.092 0.028,-0.1973 0.2289,-0.2674 1.9177,-0.6702 3.947,-1.3306 6.3815,-1.7832 1.4157,-0.2633 3.0471,-0.4321 4.5885,-0.3551 l 0,0 c 1.4183,0.071 2.6495,0.3207 3.7576,0.5976 1.3504,0.3376 2.58,0.7213 3.889,1.075 l 0,0 c 0.3675,0.5726 0.735,1.1453 1.1025,1.7179 l 0,0 c 0.034,0.031 -0.047,0.066 -0.1187,0.092 -0.1382,0.051 -0.3079,0.092 -0.478,0.1309 -0.5799,0.1338 -1.2065,0.2432 -1.8334,0.3501 -1.883,0.3211 -3.8254,0.5995 -5.78,0.8642 -1.9545,0.2647 -3.926,0.5164 -5.9349,0.7224 -0.6687,0.069 -1.342,0.1353 -2.0271,0.1728 -0.2008,0.011 -0.4044,0.02 -0.6036,0.017 -0.1036,0 -0.2298,-0.01 -0.2639,-0.041 0.4353,-0.041 0.8709,-0.082 1.3062,-0.1232 1e-4,0 1e-4,0 1e-4,0 1.0891,0.028 2.1758,0.073 3.2777,0.058 1e-4,0 1e-4,0 1e-4,0 0.8231,-0.011 1.6538,-0.08 2.4013,-0.2096 1.0851,-0.1889 2.0294,-0.4568 2.9598,-0.7221 l 0,0 c 1.6855,-0.4807 3.3095,-0.9837 4.9527,-1.4797 0.2569,-0.078 0.2381,-0.2066 0.1948,-0.3139 l 0,0 0,0 c -0.059,-0.1455 -0.2006,-0.2844 -0.3663,-0.4186 l 0,0 c -0.1319,-0.1067 -0.2749,-0.2125 -0.4662,-0.3082 -1e-4,-10e-5 -1e-4,-10e-5 -1e-4,-10e-5 -0.024,-0.012 -0.049,-0.024 -0.078,-0.035 -1e-4,0 -1e-4,0 -1e-4,0 -0.013,-0.01 -0.027,-0.012 -0.048,-0.011 -0.018,5e-4 -0.014,0.01 -0.012,0.016 5e-4,0.016 0.019,0.031 0.033,0.047 2.6083,2.8639 4.11,5.9666 1.6367,8.9692 l 0,0 c -0.1113,0.9722 -0.039,1.9431 -0.3338,2.9159 -0.4436,1.4656 -1.1148,2.9282 -1.9244,4.3865 -0.8541,1.5382 -1.0234,3.0897 -1.1889,4.6347 -0.1892,1.7668 0.3089,3.5176 0.2121,5.2829 l 0,10e-5 c -0.1101,1.9946 -0.6087,3.9935 -1.294,5.9906 l 0,0 c 0.4938,0.8087 1.025,1.6141 1.52,2.4227 l 0,0 c 0.2133,0.3484 0.4138,0.6994 0.4532,1.0585 0.05,0.4522 -0.035,0.9082 -0.066,1.3626 -0.078,1.1131 -0.075,2.2247 -0.04,3.3352 0.096,3.0131 0.2851,6.0236 0.439,9.035 l 0,0 c 0.1338,2.6236 0.5098,5.2403 0.426,7.8694 -0.075,2.3476 -0.8556,4.7062 -0.9012,7.0531 -0.041,2.1014 0.428,4.1873 0.6421,6.2813 l 0,0 c 0.014,1.4821 -0.1559,2.9695 0.039,4.4457 l 0,0 c 0.2448,1.847 0.4926,3.694 0.7952,5.5387 0.1172,0.7162 0.1878,1.4354 0.4381,2.1449 0.016,0.049 0.032,0.097 0.066,0.1441 0.011,0.01 0.012,0.019 0.028,0.026 0,0 0,0 0,10e-5 0,0 0.011,0 0.013,0 0.011,-6e-4 0.011,0 0.012,0 0,0 10e-5,0 10e-5,-10e-5 0.014,-0.01 0.018,-0.018 0.021,-0.027 0.011,-0.017 0.014,-0.033 0.02,-0.05 0.015,-0.053 0.025,-0.107 0.031,-0.1604 0.05,-0.3686 0.05,-0.7364 0.059,-1.1042 0.011,-0.3198 0,-0.6392 0.036,-0.9595 -8e-4,-0.026 0,-0.053 0.019,-0.079 0,0 -1e-4,0 0.011,0 0.011,0 0.011,0 0.011,0 0.011,0.01 0.011,0.017 0.014,0.025 0,0 0,0 0,10e-5 0.053,0.1391 0.061,0.2808 0.081,0.4216 0,0 0,0 0,10e-5 0.4591,3.135 0.6692,6.2795 0.9672,9.4206 0.3379,3.562 0.727,7.1224 0.987,10.687 0.018,0.2387 0.036,0.4776 0.04,0.7168 8e-4,0.055 0,0.1107 -0.011,0.1664 l 0,0 c 4e-4,0.014 0,0.029 -0.011,0.043 0,10e-5 0,10e-5 0,10e-5 2e-4,0.01 4e-4,0.013 -0.011,0.02 -0.011,3e-4 -0.012,3e-4 -0.014,0 l 0,0 c -0.011,-0.01 -0.012,-0.014 -0.017,-0.021 -0.018,-0.029 -0.03,-0.059 -0.043,-0.088 l 0,0 c -0.042,-0.1008 -0.076,-0.202 -0.1134,-0.3031 -0.044,-0.1163 -0.088,-0.2327 -0.1425,-0.3482 -0.039,-0.083 -0.072,-0.1681 -0.1612,-0.2461 l 0,-10e-5 c -0.011,-0.01 -0.024,-0.02 -0.042,-0.028 l 0,0 c -0.011,0 -0.024,-0.01 -0.042,-0.01 -0.017,5e-4 -0.032,0 -0.043,0.01 -0.02,0.01 -0.031,0.021 -0.043,0.032 -0.1247,0.1303 -0.133,0.2664 -0.1664,0.4002 -0.2143,0.8611 -0.2334,1.7211 -0.2812,2.5806 -0.11,1.9801 -0.1308,3.9584 -0.1414,5.9364 -0.015,2.8236 0.5585,5.629 0.8378,8.4439 -0.3027,2.1371 -0.9561,4.2795 -0.9078,6.41 0.072,3.1374 0.8963,6.2488 1.2659,9.3765 l 0,0 c 0.4312,3.6489 0.6995,7.3036 1.1366,10.9522 l 0,10e-5 c 0.5349,4.4656 1.7243,8.9082 1.779,13.3891 0.047,3.8405 -1.3206,7.7051 -1.4741,11.5503 m -1.768,42.7514 0,10e-5 m 0,0 c 0.019,3.7729 0.3633,7.5368 0.4416,11.3082 0.079,3.7987 0.015,7.6012 -0.011,11.4025 l 0,0 c -0.02,3.5969 -0.049,7.1941 -0.073,10.7911 0.9839,3.8667 2.411,7.7124 2.9512,11.5992 1.1449,8.2355 0.5459,16.5292 -0.1466,24.8157 -0.3269,3.9115 -0.8432,7.8258 -1.268,11.7388 -0.3718,3.4259 -1.2553,6.8612 -1.1217,10.2764 l 0,0 c 0.1633,4.1701 1.3403,8.303 2.0105,12.4552 -0.1524,4.6856 -0.4478,9.3744 -0.4572,14.0567 -0.011,3.5352 0.6949,7.0521 0.408,10.593 l 0,1e-4 c -0.2188,2.7016 -1.3051,5.4089 -1.9228,8.114 -0.355,1.5554 -0.6947,3.1108 -0.9949,4.6661 -0.3197,1.656 -1.0425,3.3189 -0.8638,4.9647 l 0,0 c 0.1185,1.0929 1.1654,2.1274 1.7492,3.1931 0.053,0.03 -0.014,0.071 -0.076,0.1026 -0.1194,0.061 -0.2778,0.1125 -0.4375,0.1629 -0.5445,0.1717 -1.1522,0.3208 -1.7614,0.4674 l -1e-4,0 c -1.8299,0.4402 -3.7462,0.8394 -5.6829,1.2251 -1.9368,0.3857 -3.8985,0.7589 -5.925,1.0868 -0.6747,0.1092 -1.3551,0.2167 -2.0639,0.2945 -0.2079,0.023 -0.4193,0.045 -0.6342,0.051 -0.1123,0 -0.2496,0 -0.303,-0.027 l 0.022,0 c -0.8273,-1.5755 -1.6711,-3.1498 -2.4684,-4.7278 -0.4481,-0.8867 -0.8876,-1.7742 -1.2863,-2.6646 -0.2538,-0.5665 -0.551,-1.1318 -0.6287,-1.708 -0.1628,-1.207 -0.089,-2.4219 0,-3.6361 l 0,0 c 0.114,-1.5637 0.3011,-3.1286 0.4998,-4.6936 l 0,0 c 0.3555,-2.7973 0.8769,-5.5977 0.9457,-8.39 0,-10e-5 0,-10e-5 0,-10e-5 0.084,-3.4157 0,-6.8284 -0.4459,-10.2279 0,0 0,0 0,-10e-5 -0.4459,-3.3833 -1.1399,-6.7564 -1.7125,-10.1346 -0.3579,-2.9705 -0.7605,-5.9393 -1.1528,-8.9086 -0.1772,-1.3414 -0.3627,-2.6832 -0.3502,-4.0306 l 0,0 c 0.014,-1.4338 0.2186,-2.8714 0.3915,-4.308 1e-4,0 1e-4,0 1e-4,-10e-5 0.391,-3.2472 0.7537,-6.4941 1.0727,-9.7404 0,-10e-5 0,-10e-5 0,-10e-5 0.3737,-3.8033 0.7296,-7.6063 1.0914,-11.4094 0.2464,-2.5896 0.4922,-5.1792 0.7341,-7.7687 l 0,0 c 0.084,-0.8975 0.1675,-1.7948 0.2486,-2.6922 0.037,-0.4157 0.084,-0.8314 0.1068,-1.2468 0.1709,-3.1233 0.6535,-6.2579 0.082,-9.3578 -0.7024,-3.8144 -2.5969,-7.5646 -3.8957,-11.3479 1.9438,-8.8318 -1.1819,-17.5692 -0.9244,-26.3809 l 0,0 c 0.11,-3.7606 1.6515,-7.539 1.9473,-11.3032"
         style="opacity:0.95999995;fill:#4f4c4d;fill-opacity:1;stroke:#4f4c4d;stroke-width:0.18187861;stroke-miterlimit:4;stroke-opacity:1;stroke-dashoffset:0" />
      <path
         inkscape:connector-curvature="0"
         d="m 4343.5627,-1640.5532 c 7.3777,-0.3899 14.6168,2.6354 21.9651,2.6712 60.2933,0.2934 -19.0884,-3.3187 33.227,-2.0638 23.2506,1.6569 11.9791,1.1915 33.8121,1.5176 36.5232,-0.1 3.6806,0.082 38.3808,-0.3609 6.7655,-0.086 13.5331,0.044 20.297,-0.1882 4.2133,-0.1448 8.4172,-0.6387 12.6265,-0.9433 8.0262,-0.5805 5.0957,0.4276 8.658,-0.9467 1.4324,0.5501 0.8369,0.4831 -1.0558,-2.0663 0.2591,1.1591 11.7473,-4.0688 11.4883,-5.228 l 0,0 c -3.6404,-8.2585 -1.2147,-4.9645 -7.3633,-9.7511 -5.0867,-0.2435 -10.1751,-0.4081 -15.2615,-0.6621 -8.8932,-0.4441 -16.6182,-1.1383 -25.5203,-1.0216 -6.1448,0.08 -12.2838,0.6288 -18.4286,0.7071 -6.6654,0.085 -13.3308,-0.1452 -19.9961,-0.2178 -10.0001,-0.3735 -30.6984,-1.3921 -41.6309,-0.9932 -4.9815,0.1817 -9.9447,0.9455 -14.9213,1.312 -3.5008,0.2577 -7.0065,0.3547 -10.5089,0.5604 -16.077,0.9441 -7.3464,0.8812 -21.5834,0.5256 -0.8499,-0.4222 -5.0346,16.727 -4.1843,17.1493 z"
         id="path5476-9-6-3-9-4-5-9-9-06"
         style="opacity:0.95999995;fill:#918f90;fill-opacity:1;stroke:#918f90;stroke-width:0.25114992;stroke-miterlimit:4;stroke-opacity:1;stroke-dasharray:none;stroke-dashoffset:0" />
      <path
         inkscape:connector-curvature="0"
         d="m 4340.1564,-1607.9829 c 7.3438,-0.3898 14.5498,2.6354 21.8643,2.6713 60.0165,0.2934 -19.0007,-3.3188 33.0745,-2.0638 23.1438,1.6567 11.924,1.1915 33.6568,1.5175 36.3555,-0.1 3.6638,0.082 38.2046,-0.3608 6.7344,-0.086 13.4709,0.044 20.2038,-0.1882 4.194,-0.1448 8.3786,-0.6389 12.5686,-0.9433 7.9893,-0.5807 5.0723,0.4276 8.6183,-0.9467 1.4258,0.5499 0.833,0.4829 -1.051,-2.0664 0.2578,1.1591 11.6934,-4.0688 11.4356,-5.2279 l 0,0 c -3.6238,-8.2586 -1.2092,-4.9647 -7.3296,-9.7511 -5.0633,-0.2435 -10.1284,-0.4083 -15.1914,-0.6622 -8.8524,-0.4441 -16.5419,-1.1382 -25.4032,-1.0215 -6.1166,0.08 -12.2273,0.6288 -18.3439,0.707 -6.6349,0.085 -13.2697,-0.1452 -19.9044,-0.2178 -9.9542,-0.3735 -30.5574,-1.3921 -41.4397,-0.9932 -4.9586,0.1817 -9.899,0.9455 -14.8528,1.312 -3.4847,0.2577 -6.9743,0.3547 -10.4607,0.5604 -16.0031,0.9441 -7.3126,0.8812 -21.4843,0.5256 -0.846,-0.4222 -5.0114,16.727 -4.1651,17.1493 z"
         id="path5476-9-6-3-9-4-5-9-7-3"
         style="opacity:0.95999995;fill:#918f90;fill-opacity:1;stroke:#918f90;stroke-width:0.25057274;stroke-miterlimit:4;stroke-opacity:1;stroke-dasharray:none;stroke-dashoffset:0" />
      <path
         inkscape:connector-curvature="0"
         d="m 4465.8723,-1672.8006 c 3.7879,1.7366 5.8008,6.3923 9.3615,8.4892 29.2167,17.2073 -7.6369,-8.241 17.2138,7.5555 10.4949,7.9722 5.2383,4.4 15.708,10.8213 17.8371,10.1828 1.7515,1.106 18.8722,10.4791 3.3379,1.8278 6.5687,3.8433 9.9789,5.5441 2.1243,1.0592 4.4188,1.8136 6.6209,2.7334 4.1991,1.754 2.2679,1.8032 4.6899,1.6146 0.4227,0.8791 0.1661,0.6536 0.5191,-2.0865 -0.4529,1.0769 7.7556,-0.2204 8.2088,-1.2974 l 0,0 c 2.3564,-8.1756 1.8908,-4.6408 1.2895,-10.5151 -2.3554,-1.641 -4.7512,-3.2143 -7.1013,-4.8644 -4.1091,-2.8851 -7.5241,-5.6583 -11.9179,-8.0605 -3.0325,-1.6583 -6.2968,-2.9092 -9.3283,-4.5691 -3.2888,-1.8007 -6.4197,-3.8742 -9.6295,-5.8113 -4.6836,-3.1352 -14.2543,-9.837 -19.7781,-12.5655 -2.5169,-1.2434 -5.3158,-1.9774 -7.9227,-3.0593 -1.8338,-0.7611 -3.5896,-1.6629 -5.3982,-2.4695 -8.3016,-3.7029 -4.0183,-1.3024 -10.7741,-5.6136 -0.2029,-0.6045 -10.8155,13.0705 -10.6125,13.6753 z"
         id="path5476-9-6-3-9-4-8-0-1-8-2"
         style="opacity:0.95999995;fill:#918f90;fill-opacity:1;stroke:#918f90;stroke-width:0.18812074;stroke-miterlimit:4;stroke-opacity:1;stroke-dasharray:none;stroke-dashoffset:0" />
      <path
         inkscape:connector-curvature="0"
         d="m 4468.1557,-1592.5832 c 3.7879,-1.7367 5.8008,-6.3923 9.3615,-8.4892 29.2167,-17.2073 -7.6369,8.241 17.2138,-7.5555 10.4949,-7.9723 5.2383,-4.4 15.708,-10.8213 17.8371,-10.1829 1.7515,-1.1061 18.8722,-10.4791 3.3379,-1.8279 6.5687,-3.8433 9.9789,-5.5442 2.1243,-1.0592 4.4188,-1.8135 6.6209,-2.7334 4.1991,-1.7539 2.2679,-1.8031 4.6899,-1.6145 0.4227,-0.8791 0.1661,-0.6536 0.5191,2.0865 -0.4529,-1.0769 7.7556,0.2204 8.2088,1.2973 l 0,0 c 2.3564,8.1756 1.8908,4.6409 1.2895,10.5151 -2.3554,1.641 -4.7512,3.2143 -7.1013,4.8645 -4.1091,2.8851 -7.5241,5.6583 -11.9179,8.0604 -3.0325,1.6584 -6.2968,2.9093 -9.3283,4.5692 -3.2888,1.8006 -6.4197,3.8742 -9.6295,5.8112 -4.6836,3.1353 -14.2543,9.8371 -19.7781,12.5656 -2.5169,1.2433 -5.3158,1.9774 -7.9227,3.0593 -1.8338,0.7611 -3.5896,1.6629 -5.3982,2.4695 -8.3016,3.7029 -4.0183,1.3024 -10.7741,5.6136 -0.2029,0.6045 -10.8155,-13.0705 -10.6125,-13.6753 z"
         id="path5476-9-6-3-9-4-8-0-1-8-3-0"
         style="opacity:0.95999995;fill:#918f90;fill-opacity:1;stroke:#918f90;stroke-width:0.18812074;stroke-miterlimit:4;stroke-opacity:1;stroke-dasharray:none;stroke-dashoffset:0" />
    </g>
  </g>
</svg>
