<?xml version="1.0" encoding="UTF-8" standalone="no"?>
<!-- Created with Inkscape (http://www.inkscape.org/) -->

<svg
   xmlns:dc="http://purl.org/dc/elements/1.1/"
   xmlns:cc="http://creativecommons.org/ns#"
   xmlns:rdf="http://www.w3.org/1999/02/22-rdf-syntax-ns#"
   xmlns:svg="http://www.w3.org/2000/svg"
   xmlns="http://www.w3.org/2000/svg"
   xmlns:sodipodi="http://sodipodi.sourceforge.net/DTD/sodipodi-0.dtd"
   xmlns:inkscape="http://www.inkscape.org/namespaces/inkscape"
   width="400.15625"
   height="400.15625"
   id="svg9167"
   version="1.1"
   inkscape:version="0.48.5 r10040"
   sodipodi:docname="info.svg"
   inkscape:export-filename="/home/banana/flySightAndroid/FloatSight/icons/mainmenu/drawing.png"
   inkscape:export-xdpi="44.98243"
   inkscape:export-ydpi="44.98243">
  <defs
     id="defs9169" />
  <sodipodi:namedview
     id="base"
     pagecolor="#ffffff"
     bordercolor="#666666"
     borderopacity="1.0"
     inkscape:pageopacity="0.0"
     inkscape:pageshadow="2"
     inkscape:zoom="0.7"
     inkscape:cx="703.84583"
     inkscape:cy="-19.814149"
     inkscape:document-units="px"
     inkscape:current-layer="layer1"
     showgrid="false"
     fit-margin-top="0"
     fit-margin-left="0"
     fit-margin-right="0"
     fit-margin-bottom="0"
     inkscape:window-width="1680"
     inkscape:window-height="1002"
     inkscape:window-x="0"
     inkscape:window-y="29"
     inkscape:window-maximized="1" />
  <metadata
     id="metadata9172">
    <rdf:RDF>
      <cc:Work
         rdf:about="">
        <dc:format>image/svg+xml</dc:format>
        <dc:type
           rdf:resource="http://purl.org/dc/dcmitype/StillImage" />
        <dc:title></dc:title>
      </cc:Work>
    </rdf:RDF>
  </metadata>
  <g
     inkscape:label="Layer 1"
     inkscape:groupmode="layer"
     id="layer1"
     transform="translate(-399.91966,-115.14732)">
    <g
       id="g7960"
       transform="matrix(1.1298624,0,0,1.1298624,-6763.5811,1230.7747)">
      <path
         inkscape:connector-curvature="0"
         d="m 6534.3701,-830.53866 c -0.5862,4.3179 3.9623,8.5548 4.0161,12.8555 0.4412,35.2881 -4.9896,-11.1719 -3.1029,19.447 2.4911,13.6078 1.7915,7.0109 2.2817,19.7892 -0.1503,21.3761 0.1233,2.1542 -0.5426,22.4632 -0.1293,3.9597 0.066,7.9207 -0.283,11.8793 -0.2176,2.466 -0.9603,4.9265 -1.4182,7.39 -0.8729,4.6975 0.6429,2.9824 -1.4233,5.0674 0.8269,0.8383 0.7261,0.4897 -3.1069,-0.618 1.7427,0.1516 -6.1173,6.8754 -7.8601,6.7238 l 0,0 c -12.4167,-2.1306 -7.4642,-0.7109 -14.6606,-4.3096 -0.3662,-2.9771 -0.6137,-5.9552 -0.9956,-8.9321 -0.6677,-5.205 -1.7113,-9.7262 -1.5358,-14.9364 0.1202,-3.5963 0.9454,-7.1893 1.0629,-10.7857 0.1278,-3.9011 -0.2182,-7.8022 -0.3274,-11.7033 -0.5615,-5.8527 -2.093,-17.9668 -1.4933,-24.3654 0.2732,-2.9155 1.4215,-5.8203 1.9726,-8.733 0.3875,-2.0489 0.5332,-4.1007 0.8425,-6.1506 1.4195,-9.4093 1.3249,-4.2996 0.7903,-12.6321 -0.6348,-0.4974 25.1488,-2.9467 25.7836,-2.4492 z"
         id="path5476-9-6-3"
         style="opacity:0.95999995;fill:#918f90;fill-opacity:1;stroke:#918f90;stroke-width:0.23559313;stroke-miterlimit:4;stroke-opacity:1;stroke-dasharray:none;stroke-dashoffset:0" />
      <path
         inkscape:connector-curvature="0"
         id="path8175-57"
         d="m 6362.556,-849.09076 c 3.8674,-19.5676 42.738,6.731 14.7412,8.1516 -14.9614,-4.2282 -8.4335,-19.0358 -11.4844,-20.6539 1.6817,-13.3603 8.6521,-19.6069 4.9918,-13.7796 -1.1346,-7.7712 9.5969,-13.8163 5.8684,-14.2035 5.1698,-6.9015 8.0948,-10.6449 10.4852,-14.3588 6.2661,-7.9841 8.4599,-12.331 9.6207,-11.09 8.4577,-12.0334 15.8887,-17.0234 18.0465,-17.6588 2.4401,-3.3978 16.6911,-13.2939 6.906,-3.2632 5.9399,-9.7088 12.5111,-14.154 14.8023,-13.4253 13.2443,-8.7409 8.0633,-5.3783 10.1122,-4.8941 -1.8642,-6.159 33.5175,-10.4779 15.9286,-8.6899 12.3868,-6.2542 15.9875,-0.5341 9.9216,-3.4008 6.1498,-4.0367 20.1367,-1.7121 7.384,-3.1964 2.9027,-1.7251 -2.8428,4.618 6.6358,-1.0917 19.2802,-4.056 -5.7711,-5.1217 -2.6313,3.2767 11.6551,-9.8862 8.6925,-4.9933 21.9663,-7.3866 -6.972,-1.4032 15.8424,1.7988 6.1052,0.7058 15.0345,-0.727 12.358,-1.4535 15.7895,-0.4928 3.6176,-1.874 33.225,1.727 29.3106,0.6215 11.181,1.0828 21.1546,10.2707 4.9611,2.0018 -0.5918,-2.0493 27.0794,4.8759 7.3306,12.6846 -13.832,19.4142 -3.1691,-4.0186 1.4394,-6.4408 -4.3855,12.4725 -24.4998,15.261 -2.0106,16.6931 -10.152,5.8754 -27.6354,-12.9797 -9.0485,-0.1775 10.4311,0.3654 -18.5952,-1.5456 -18.9021,-1.8254 -11.0624,-0.078 -23.0738,0.8831 -36.8004,0.094 -8.38,-0.1915 4.5394,-0.7699 -9.2926,-0.085 -13.9014,2.562 20.3514,-13.7669 5.4968,-1.1905 -11.3733,5.8381 -18.4495,0.767 -2.5252,-0.4964 12.5336,-6.0184 -30.113,14.5674 -9.0155,4.884 -4.9943,5.9631 -18.4636,5.0082 -10.4604,5.2945 -4.728,2.4385 -21.2322,4.7345 -6.6027,2.172 -7.7446,3.0219 -17.0102,7.8148 -9.7263,2.8487 -8.521,7.1238 -5.2476,3.0576 -13.7529,10.9656 -3.2147,-5.4143 7.0645,-6.0696 -3.9254,2.1668 0.8922,-4.1907 -12.1581,10.4921 -12.2993,7.6941 -5.448,5.0684 -22.895,22.1093 -11.9528,7.8591 -6.3421,14.9186 -5.949,8.4751 -4.3644,6.631 -7.5007,13.5907 -2.881,0.2578 -9.1413,13.4039 2.208,-3.807 -18.7634,24.4727 -10.5657,13.4671 -4.553,8.3202 -3.4384,10.6278 -2.3011,-0.4001 5.8462,16.3901 -6.6937,13.1332 -0.3556,8.738 -2.4418,16.5556 -8.0925,10.7975 -18.2125,3.893 -25.4134,10.6266 4.7296,12.7391 14.0346,15.3735 -1.9185,11.8894 -20.022,0.9852 -26.5074,-1.4195 z"
         style="opacity:0.95999995;fill:#4f4c4d;fill-opacity:1;stroke:#4f4c4d;stroke-width:0.285;stroke-miterlimit:4;stroke-opacity:1;stroke-dasharray:none;stroke-dashoffset:0" />
      <path
         inkscape:connector-curvature="0"
         id="path8187-49"
         d="m 6569.6752,-970.51876 c 20.5606,7.231 -26.5832,4.7116 3.5696,4.6518 24.289,-0.7159 -22.9762,10.3334 4.1646,1.7573 11.5743,-3.9552 26.7035,17.9024 20.0377,10.896 -4.237,11.3756 -19.7062,-16.7577 -2.6256,-5.8634 11.1115,9.1393 11.1178,5.2591 -0.9166,2.7628 6.3346,0.057 19.544,11.2239 10.7464,2.387 11.389,6.5052 -15.1917,-4.3256 3.0376,3.4484 15.7735,7.1446 -19.0451,-6.6193 0.547,0.8196 12.3475,2.7736 10.913,15.9505 8.0831,3.4224 3.7648,12.8997 10.5676,11.4132 0.5638,0.3566 4.2532,0.4767 9.5283,13.0398 4.9339,2.8261 6.3533,4.2114 3.4832,2.1184 10.402,9.2385 -10.64,-11.9474 15.9029,12.481 2.188,0.7277 3.4146,0.8013 9.6301,11.7686 9.7845,12.2177 5.0363,10.1345 2.0578,4.6152 1.3511,0.6462 -3.3768,0.1123 5.5046,21.1631 2.8123,3.4413 8.4204,10.9678 -0.9606,8.3482 -1.2386,0.7348 8.6456,9.3656 11.276,20.6249 3.3273,8.225 7.161,9.2799 8.6937,14.7591 0.9274,3.0809 4.8341,9.685 8.7542,4.9407 7.691,11.7599 -0.042,-10.9513 -16.0336,14.3839 -23.5248,4.7796 2.0152,3.2224 -0.4943,-5.853 5.4078,5.7577 -6.4883,-6.8708 -11.7045,-21.1377 -1.7848,-5.2576 -13.4269,-12.6338 -6.2858,-13.704 -6.135,-8.7282 -7.2943,-8.2926 -6.5679,-4.4179 -6.4976,-17.2746 10.1395,19.7492 -3.0647,7.6868 -6.9338,-0.2998 7.633,6.6422 -7.313,-8.6785 -0.8174,-0.3878 -3.93,-0.848 -13.9965,-13.7634 -4.6016,-3.7645 -1.734,0.023 -15.3937,-14.2845 -9.7733,-7.2024 6.6395,6.5554 -14.9123,-23.5077 -0.9401,-6.3711 7.7579,21.4851 -19.419,-18.0135 -6.0863,1.4982 15.1143,5.3709 14.635,-0.5027 -0.2488,0.3775 -17.8818,-11.0043 19.7023,3.7559 -2.5809,-1.1131 -8.27,-4.391 -0.7546,-2.9695 -7.7188,-7.0622 12.5364,4.2234 15.5347,8.678 0.043,2.2642 -9.7328,-5.5187 12.5192,3.0975 -3.2282,-4.1751 -12.9399,-5.6658 -1.7799,-4.8497 -6.5117,0.1768 -18.8376,-6.3441 27.5001,-12.335 1.5605,-2.7984 -13.0167,1.5741 -15.1689,-5.7931 -0.4188,-5.2084 -25.7868,7.941 -24.7186,-2.1029 -8.5962,-22.7474 z"
         style="opacity:0.95999995;fill:#4f4c4d;fill-opacity:1;stroke:#4f4c4d;stroke-width:0.285;stroke-miterlimit:4;stroke-opacity:1;stroke-dasharray:none;stroke-dashoffset:0" />
      <path
         inkscape:connector-curvature="0"
         id="path8175-8-9"
         d="m 6651.3258,-911.40346 c 12.2189,15.7652 -33.1389,27.8146 -15.8276,5.7659 13.013,-8.5082 19.8949,6.1378 23.1187,4.8994 8.9725,10.0408 9.1066,19.3995 7.1153,12.8128 6.6905,4.3244 3.8563,15.3171 6.8597,13.7521 1.9201,12.1364 4.9515,16.4548 6.4893,33.2413 -1.029,-10.3869 0.4146,21.4858 1.8024,22.3405 -2.0115,-12.4486 0.4151,26.943 -2.8957,8.8545 3.4191,11.0036 2.4909,18.4838 0.4067,19.9795 -2.1036,15.7285 -1.238,9.6132 -2.9485,10.8404 5.8573,2.6644 -13.9715,32.0555 -3.9048,17.7193 -3.4163,13.4489 -10.0944,12.4089 -3.9496,9.7163 -0.9936,7.2884 -11.9306,16.3125 -2.4375,7.6677 -0.6047,3.3219 -1.6162,-5.1764 -3.5337,5.7217 -9.6007,17.2049 7.6524,-0.9897 -0.7436,-4.1361 -0.1899,15.2784 -1.9507,9.8376 -8.8565,21.4181 5.6362,-4.3369 -11.759,10.7675 -4.5411,4.1414 -9.3231,11.8166 -7.0184,10.2751 -9.9958,12.2324 -0.9616,3.959 -23.119,23.9255 -19.7149,21.699 -8.1584,7.7218 -21.6367,9.2116 -4.7673,2.4274 1.9346,0.8987 -21.4583,17.2221 -14.3804,-2.7999 -5.5606,-23.18 5.1119,0.2483 3.9126,5.3147 -6.5274,-11.4973 4.5766,-28.4991 -11.2702,-12.4773 2.2345,-11.5147 27.9353,-12.3209 6.0752,-6.7082 -7.1249,7.6279 13.3757,-13.0102 13.788,-13.058 7.3229,-8.2923 14.4845,-17.9827 24.0926,-27.8178 5.6473,-6.1949 -2.4011,3.9297 6.1652,-6.9529 7.1954,-12.1672 -2.9795,24.389 -2.7114,4.9276 3.0635,-12.4119 11.5365,-14.4187 2.0325,-1.5787 -3.6861,13.4076 8.808,-32.3044 2.236,-10.0062 -0.079,-8.2856 6.6978,-16.0813 3.0486,-11.8493 1.2887,-5.2189 10.0993,-18.4095 2.5233,-5.9229 2.8063,-7.8251 5.2743,-17.9619 4.2381,-9.2072 0.2223,-11.1045 1.1403,-5.9656 0.7605,-17.5732 6.1945,1.1304 -0.061,9.3138 0.9431,-4.3832 2.5739,3.4245 0.073,-16.0578 2.268,-14.329 -0.2454,-7.4372 -1.6368,-31.7845 1.9237,-14.1755 -7.0854,-14.5739 -2.4877,-10.0546 -2.1357,-7.6461 -5.3256,-14.5812 1.6974,-2.3419 -4.1076,-15.6954 1.4246,4.1643 -6.144,-30.2192 -3.2236,-16.8102 -3.2869,-8.8968 -5.7585,-9.5715 1.8121,-1.4726 -16.2005,-6.3525 -5.5104,-13.6722 -6.3569,-6.0057 -10.8834,-12.7121 -2.8384,-13.1925 9.0183,-16.2924 8.6719,-26.1449 -12.7138,-4.7979 -20.8102,0.491 -7.7078,-9.2568 12.4099,-15.7494 18.4827,-19.0652 z"
         style="opacity:0.95999995;fill:#4f4c4d;fill-opacity:1;stroke:#4f4c4d;stroke-width:0.285;stroke-miterlimit:4;stroke-opacity:1;stroke-dasharray:none;stroke-dashoffset:0" />
      <path
         inkscape:connector-curvature="0"
         id="path8187-4-4"
         d="m 6602.2971,-670.15396 c -18.9544,10.7599 13.9012,-23.1436 -5.8523,-0.3619 -15.4085,18.7894 7.2925,-24.1147 -4.06,1.9868 -4.6164,11.328 -31.0366,8.3854 -21.3752,7.9589 -5.7979,-10.665 25.5786,-3.8598 6.1464,1.8695 -14.189,2.3814 -11.2665,4.931 -1.4819,-2.5064 -4.2022,4.7403 -21.2983,7.3711 -8.8565,6.538 -12.3844,4.3187 13.2373,-8.6179 -4.5955,0.027 -15.7457,7.2055 17.4975,-10.0184 -0.9773,-0.1255 -10.1991,7.4918 -19.1957,-2.242 -7.8888,3.8493 -12.2011,-5.6308 -15.547,0.4762 -0.6391,0.1909 -4.906,2.6883 -15.0506,-1.1834 -4.5339,2.2328 -9.4108,-0.209 -3.0288,2.5038 -14.7049,0.7403 13.5878,2.2356 -16.1626,2.2703 -1.6107,2.2427 -20.2598,0.3713 -6.9923,-0.085 -15.9473,-1.0458 -10.9507,-2.856 -4.8328,-1.4795 -1.3748,0.5944 2.1322,-2.6197 -19.5759,-9.7433 -4.442,-0.1378 -13.8011,-0.8506 -5.6656,-6.206 0.259,-1.4167 -12.7407,0.3712 -22.9596,-5.0379 -8.3882,-2.8913 -11.7008,-0.6922 -16.8412,-3.1338 -2.9332,-1.3234 -10.4786,-2.7132 -9.4747,3.3588 -13.9196,-1.9208 8.2875,7.1585 -0.3209,-21.5373 11.8417,-20.8816 -3.7536,-0.5955 4.7392,3.4702 -7.8934,0.2981 9.4425,-0.3823 23.628,5.0511 5.1373,2.1058 18.3455,-1.8313 14.4626,4.257 10.6115,1.1039 11.0442,-0.057 7.6445,-2.053 17.2954,6.442 -21.5534,-5.3204 -3.785,-7.3584 4.779,-5.0328 -10.0217,1.3955 11.3477,0.1829 0.829,-0.3625 3.2199,-2.4076 19.5711,-1.5196 5.8607,-0.9989 1.1208,-1.3216 20.8816,-2.2368 11.8493,-2.6462 -9.304,0.7034 27.5217,4.1881 5.4224,3.4742 -21.2982,-8.2557 26.3374,-2.8172 2.8666,-5.5735 -13.9752,7.8729 -9.2305,11.3687 -0.1215,-0.4355 20.0413,-6.2612 -15.7694,12.3939 2.5343,-1.2156 8.7419,-3.3543 2.7353,1.3805 10.3947,-1.1848 -11.417,6.6822 -16.7455,6.0185 -1.7361,-1.4539 10.5531,-3.7169 -10.5567,7.4085 5.2686,0.3065 12.7705,-6.0394 4.8258,1.8424 4.1421,-5.0282 17.1538,-10.0419 -8.7533,28.841 1.0859,3.0146 7.3597,-10.8512 14.3296,-7.6366 4.2032,3.1041 10.9478,-24.6736 17.8164,-17.2527 22.8051,8.4634 z"
         style="opacity:0.95999995;fill:#4f4c4d;fill-opacity:1;stroke:#4f4c4d;stroke-width:0.285;stroke-miterlimit:4;stroke-opacity:1;stroke-dasharray:none;stroke-dashoffset:0" />
      <path
         inkscape:connector-curvature="0"
         id="path8175-8-8-5"
         d="m 6524.6014,-648.11396 c -20.6194,0.4293 -3.8224,-41.8577 4.6747,-16.4812 4.2039,23.5047 -38.5036,16.3542 -34.425,14.7256 14.0956,0.1418 -6.6978,1.2082 -7.0173,-0.1295 -12.8103,-7.6748 4.3301,3.4143 -10.9408,-3.7607 -3.3537,-2.3611 -15.6421,-4.9101 -26.0476,-11.5784 9.1303,5.0576 -17.9127,-11.8739 -19.4046,-11.2171 11.3852,5.4217 -22.4023,-14.9747 -5.6386,-7.4164 -10.8762,-3.3546 -16.8081,-8.6226 -16.6687,-11.0228 -11.7441,-10.6716 -7.2051,-6.4833 -7.2424,-8.5881 -5.5323,3.3021 -18.4336,-29.7202 -12.3627,-13.2828 -9.124,-10.4547 -4.4702,-15.3581 -5.7483,-8.7716 -5.4299,-4.9606 -6.6392,-19.0844 -4.9225,-6.3691 -2.3889,-2.385 5.1772,1.6127 -2.6987,-6.1595 -8.6973,-17.6789 -3.5355,6.8588 3.8257,1.7399 -12.4619,-8.8413 -6.9846,-7.1971 -12.5866,-19.4616 0.3646,7.1023 -2.1737,-15.7951 -0.8254,-6.0902 -4.4215,-14.3867 -4.4646,-11.6157 -4.3813,-15.1773 -1.878,-8.2773 -5.5887,-14.1893 -6.0292,-31.0481 -3.9327,14.7895 4.5474,-30.0156 -0.2412,-5.5332 0.9197,15.0465 -3.7724,-25.9771 6.9144,-9.3574 13.8362,5.0145 16.2844,10.152 0.3828,3.9277 -14.9806,-9.2454 19.9738,10.3711 13.8522,5.9915 -1.2963,-24.4527 5.7651,10.0253 -1.0377,7.7411 5.4607,-8.6972 -0.2987,-17.7631 4.0552,-2.753 0.9794,13.9873 4.8501,22.3748 7.0073,32.1704 1.3591,5.6881 6.7507,23.0643 3.1482,16.2065 12.2342,21.796 -7.9964,4.1729 -2.9201,2.0873 11.1504,4.8953 10.2433,23.469 3.4997,4.2644 -8.9352,-10.6541 21.5705,25.6101 6.9612,7.5277 6.8618,4.6449 9.4227,14.6518 8.0161,9.2439 3.5611,4.027 9.4047,18.7738 3.4384,5.4429 4.8427,6.7568 11.7799,14.5497 5.1661,8.7206 9.0094,6.4954 4.2599,4.3294 14.0255,10.6152 -4.4513,4.4537 -7.628,-5.3445 3.0701,3.2676 -4.2806,0.171 13.1694,9.1879 10.4993,10.0113 6.2581,4.0261 27.0796,16.7209 10.5685,9.6412 16.0166,2.4557 9.6903,3.6693 7.5047,2.5892 15.023,3.9065 0.9624,2.7278 15.248,5.5427 -4.2358,-1.1955 28.3545,12.1245 15.6625,6.904 9.1881,2.353 11.148,0.7032 0.1815,2.3278 14.4354,-9.7173 14.3808,3.2386 8.5545,-1.816 16.6453,-1.728 12.4672,5.1636 8.2776,16.6805 16.5801,21.9967 11.1744,-7.7324 11.4256,-17.3999 11.998,-1.0793 5.9021,19.164 5.1789,26.0449 z"
         style="opacity:0.95999995;fill:#4f4c4d;fill-opacity:1;stroke:#4f4c4d;stroke-width:0.285;stroke-miterlimit:4;stroke-opacity:1;stroke-dasharray:none;stroke-dashoffset:0" />
      <path
         inkscape:connector-curvature="0"
         id="path8187-4-1-9"
         d="m 6353.2112,-817.77746 c 1.9224,-21.7104 11.1382,24.5928 3.6245,-4.609 -6.6991,-23.3578 15.6939,19.7077 0.6734,-4.4696 -6.6956,-10.2374 10.7441,-30.3011 5.6029,-22.11 12.07,1.2927 -11.3648,23.2379 -5.032,3.994 6.1064,-13.0272 2.3478,-12.0721 2.9043,0.2056 -1.511,-6.1519 6.043,-21.7125 -0.3443,-11.003 3.4869,-12.6439 -0.4348,15.7896 2.5902,-3.796 3.0227,-17.0502 -1.7043,20.0905 0.6588,-0.7326 -0.3659,-12.6497 12.7564,-14.5184 1.3175,-8.6785 11.5683,-6.8371 8.446,-13.0614 0.2063,-0.6343 0.5772,-5.5644 9.5291,-11.7097 0.7404,-4.9994 5.5215,-7.621 -0.3377,-3.9123 7.7499,-12.516 -9.5634,9.9079 7.3199,-14.5878 -0.9296,-2.6 11.2115,-16.8793 4.0447,-5.7043 9.9258,-12.5257 8.5746,-7.3859 3.9643,-3.135 0.2925,-1.4689 0.9435,3.2431 19.1437,-10.5665 2.638,-3.5762 8.5452,-10.8709 8.3263,-1.1332 1.0183,1.0185 6.9373,-10.6931 17.1956,-16.0256 7.1472,-5.2577 7.221,-9.2329 12.1519,-12.074 2.7563,-1.6609 8.1888,-7.0785 2.6227,-9.7042 9.493,-10.3599 -10.6005,2.7488 17.9015,11.9789 10.4481,21.6125 2.6238,-2.7495 -5.549,1.9263 4.2418,-6.6635 -5.0528,7.9855 -17.5871,16.5685 -4.6528,3.0302 -8.9218,16.1341 -11.7237,9.4788 -6.9403,8.1027 -6.2314,9.1185 -2.6565,7.4562 -15.1313,10.5672 16.6293,-14.7078 8.2054,1.0691 1.4239,6.7927 4.5486,-9.0384 -6.6014,9.2318 -0.1734,0.8879 0.1501,4.0176 -9.8752,16.9653 -2.5098,5.3896 0.4501,1.6732 -10.0301,18.4511 -4.5588,11.2528 4.7101,-8.0544 -19.0906,20.2619 -5.9407,2.4861 18.8987,-12.829 -12.655,23.2697 2.9551,5.5267 1.4671,-15.973 -4.106,-14.0565 0.4274,0.1477 -6.2414,20.0475 -1.2326,-20.0192 -0.4406,2.776 -2.2097,9.0989 -2.6908,1.4656 -4.9341,9.2254 0.992,-13.1916 4.5675,-17.198 2.1828,-0.6019 -2.941,10.7953 -0.093,-12.8966 -3.2469,4.1603 -2.2907,13.9397 -4.2589,2.9229 1.7823,6.2662 -1.4895,19.8209 -18.752,-23.5964 -3.0974,-0.8204 4.7442,12.2234 -1.8635,16.1303 -4.9435,1.6936 14.0792,23.0304 4.0594,24.4691 -19.9252,13.9478 z"
         style="opacity:0.95999995;fill:#4f4c4d;fill-opacity:1;stroke:#4f4c4d;stroke-width:0.285;stroke-miterlimit:4;stroke-opacity:1;stroke-dasharray:none;stroke-dashoffset:0" />
      <path
         inkscape:connector-curvature="0"
         d="m 6533.7802,-897.36016 c -0.5862,1.4163 3.9623,2.806 4.0161,4.2166 0.4412,11.5743 -4.9896,-3.6643 -3.1029,6.3785 2.4911,4.4633 1.7915,2.2996 2.2817,6.4908 -0.1503,7.0112 0.1233,0.7065 -0.5426,7.3678 -0.1293,1.2988 0.066,2.5979 -0.283,3.8964 -0.2176,0.8088 -0.9603,1.6158 -1.4182,2.4238 -0.8729,1.5408 0.6429,0.9782 -1.4233,1.6621 0.8269,0.275 0.7261,0.1606 -3.1069,-0.2027 1.7427,0.05 -6.1173,2.2551 -7.8601,2.2054 l 0,0 c -12.4167,-0.6988 -7.4642,-0.2332 -14.6606,-1.4135 -0.3662,-0.9765 -0.6137,-1.9533 -0.9956,-2.9297 -0.6677,-1.7072 -1.7113,-3.1902 -1.5358,-4.8991 0.1202,-1.1796 0.9454,-2.358 1.0629,-3.5376 0.1278,-1.2796 -0.2182,-2.5591 -0.3274,-3.8387 -0.5615,-1.9196 -2.093,-5.893 -1.4933,-7.9917 0.2732,-0.9563 1.4215,-1.909 1.9726,-2.8644 0.3875,-0.672 0.5332,-1.345 0.8425,-2.0174 1.4195,-3.0862 1.3249,-1.4102 0.7903,-4.1432 -0.6348,-0.1632 25.1488,-0.9665 25.7836,-0.8034 z"
         id="path5476-9-6-0-3"
         style="opacity:0.95999995;fill:#918f90;fill-opacity:1;stroke:#918f90;stroke-width:0.13492623;stroke-miterlimit:4;stroke-opacity:1;stroke-dasharray:none;stroke-dashoffset:0" />
    </g>
  </g>
</svg>
