<?xml version="1.0" encoding="UTF-8" standalone="no"?>
<!-- Created with Inkscape (http://www.inkscape.org/) -->

<svg
   xmlns:dc="http://purl.org/dc/elements/1.1/"
   xmlns:cc="http://creativecommons.org/ns#"
   xmlns:rdf="http://www.w3.org/1999/02/22-rdf-syntax-ns#"
   xmlns:svg="http://www.w3.org/2000/svg"
   xmlns="http://www.w3.org/2000/svg"
   xmlns:sodipodi="http://sodipodi.sourceforge.net/DTD/sodipodi-0.dtd"
   xmlns:inkscape="http://www.inkscape.org/namespaces/inkscape"
   width="400.15625"
   height="400.15625"
   id="svg9167"
   version="1.1"
   inkscape:version="0.48.5 r10040"
   sodipodi:docname="load.svg"
   inkscape:export-filename="/home/banana/flySightAndroid/FloatSight/icons/mainmenu/drawing.png"
   inkscape:export-xdpi="44.98243"
   inkscape:export-ydpi="44.98243">
  <defs
     id="defs9169" />
  <sodipodi:namedview
     id="base"
     pagecolor="#ffffff"
     bordercolor="#666666"
     borderopacity="1.0"
     inkscape:pageopacity="0.0"
     inkscape:pageshadow="2"
     inkscape:zoom="1.979899"
     inkscape:cx="378.97535"
     inkscape:cy="79.816559"
     inkscape:document-units="px"
     inkscape:current-layer="layer1"
     showgrid="false"
     fit-margin-top="0"
     fit-margin-left="0"
     fit-margin-right="0"
     fit-margin-bottom="0"
     inkscape:window-width="1680"
     inkscape:window-height="1002"
     inkscape:window-x="0"
     inkscape:window-y="29"
     inkscape:window-maximized="1" />
  <metadata
     id="metadata9172">
    <rdf:RDF>
      <cc:Work
         rdf:about="">
        <dc:format>image/svg+xml</dc:format>
        <dc:type
           rdf:resource="http://purl.org/dc/dcmitype/StillImage" />
        <dc:title />
      </cc:Work>
    </rdf:RDF>
  </metadata>
  <g
     inkscape:label="Layer 1"
     inkscape:groupmode="layer"
     id="layer1"
     transform="translate(-399.91966,-115.14732)">
    <path
       style="opacity:0.95999995;fill:#4f4c4d;fill-opacity:1;stroke:#4f4c4d;stroke-width:0.17982461;stroke-miterlimit:4;stroke-opacity:1;stroke-dashoffset:0"
       d="m 427.1047,454.26266 c 1.3906,-0.91624 2.78,-1.85081 4.1728,-2.73381 0.7826,-0.49627 1.5659,-0.98296 2.3518,-1.42457 0.5,-0.28108 0.9991,-0.61031 1.5075,-0.69632 1.0653,-0.18029 2.1376,-0.0982 3.2093,0 0,0 0,0 0,0 1.3802,0.12623 2.7613,0.33349 4.1427,0.55353 0,0 0,0 0,0 2.4689,0.3937 4.9406,0.97125 7.4051,1.04743 1e-4,0 1e-4,0 1e-4,0 3.0148,0.0935 6.0268,0 9.0274,-0.4939 0,0 0,0 0,0 2.9862,-0.49379 5.9635,-1.26251 8.945,-1.8966 2.6219,-0.39642 5.2423,-0.8423 7.8629,-1.27681 1.184,-0.19626 2.3683,-0.40175 3.5576,-0.38791 0,0 0,0 0,0 1.2654,0.0154 2.5343,0.24216 3.8023,0.43369 0,1.2e-4 0,1.2e-4 10e-5,1.2e-4 2.866,0.43298 5.7317,0.83473 8.5969,1.18797 1e-4,0 1e-4,0 1e-4,0 3.3569,0.41393 6.7135,0.80811 10.0702,1.2088 2.2857,0.27292 4.5712,0.54512 6.8568,0.81308 0,0 0,0 0,0 0.7922,0.0935 1.5841,0.18549 2.3762,0.27528 0.3669,0.0414 0.7338,0.0935 1.1004,0.1183 2.7568,0.18928 5.5233,0.72376 8.2594,0.0911 3.3667,-0.77794 6.6767,-2.87624 10.0159,-4.31465 7.7951,2.15283 15.5069,-1.309 23.2843,-1.0239 0,0 0,0 0,0 3.3191,0.12185 6.654,1.82917 9.9764,2.15674 3.1025,0.30593 6.1888,-0.26345 9.2864,-0.25742 2.4673,0 4.9346,0 7.4044,0.13758 0.5392,0.0308 1.0788,0.10766 1.6182,0.16006 0,0 10e-5,0 10e-5,0 0.5908,0.0568 1.1781,-0.0698 1.7667,-0.12835 2.6161,-0.25754 5.2326,-0.49757 7.8495,-0.72731 3.301,0.79095 6.6058,2.10066 9.9021,2.37287 3.3867,0.27966 6.7503,-0.55743 10.1288,-0.71891 2.5121,-0.12055 5.0244,-0.23755 7.5373,-0.32273 0.6091,-0.0248 1.2183,-0.0379 1.8275,-0.0497 0,0 0,1.1e-4 10e-5,1.1e-4 0,0 0,0 0,0 0.2716,8.3e-4 0.5431,-0.0118 0.8149,0 0,0 0,0 0,0 0.023,-9.4e-4 0.047,0 0.071,0.0118 10e-5,0 10e-5,0 10e-5,0 0.01,-2.3e-4 0.011,-4.7e-4 0.017,-5.9e-4 0,7.1e-4 0,-1.2e-4 0.01,-2.3e-4 3e-4,0.0118 0,0.0118 0,0.0118 -0.01,2.3e-4 -0.01,4.7e-4 -0.016,5.9e-4 -0.02,8.3e-4 -0.04,0.013 -0.06,0.0142 0,0 0,0 0,0 0,0 0,0 -10e-5,0 -0.1918,0.0355 -0.3842,0.0485 -0.5766,0.0662 0,0 0,0 0,0 -0.6928,0.0627 -1.3861,0.10411 -2.0795,0.13853 -0.6354,0.026 -1.2704,0.0674 -1.9067,0.0438 -0.084,-0.0118 -0.1676,-0.0118 -0.2516,-0.0177 -0.024,10e-4 -0.05,-0.0118 -0.074,-0.0154 -0.011,4.7e-4 -0.023,9.5e-4 -0.035,-0.0189 -6e-4,-0.0189 0,-0.0201 0.01,-0.0225 0,0 0,0 0,0 0.017,-0.0154 0.035,-0.0213 0.053,-0.0284 0.084,-0.0343 0.1705,-0.0521 0.256,-0.071 0,0 0,-1.2e-4 0,-1.2e-4 1.1662,-0.2618 2.3375,-0.37158 3.5074,-0.51792 2.9151,-0.36448 5.8317,-0.67727 8.7484,-0.98544 2.9325,-0.30971 5.873,-0.30273 8.8124,-0.31634 2.9119,-0.013 5.8248,0.0249 8.7371,0.0367 1e-4,0 1e-4,0 1e-4,0 4.9589,-1.29835 10.0156,2.00247 15.0063,1.76528 0,0 0,0 10e-5,0 2.1076,-0.10056 4.1677,-1.60735 6.2687,-1.95243 10e-5,0 10e-5,0 10e-5,0 2.4655,-0.40483 4.9463,-0.22501 7.4205,-0.30025 2.1156,-0.0603 4.2315,-0.1112 6.3487,-0.0958 2.3139,0.0154 4.6198,-0.32024 6.9299,-0.47794 0,0 0,0 0,0 3.9498,0.24855 7.8994,0.45629 11.8348,0.0308 0,0 0,0 0,0 2.3115,-0.24973 4.6097,-0.96332 6.9239,-1.10718 0,0 0,0 0,0 4.1108,-0.25505 8.2463,0.94854 12.3709,1.46871 4.2313,-0.29718 8.4435,-1.682 12.6932,-0.73382 0.5557,0.12398 1.1115,0.35289 1.6672,0.56914 0,0 0,0 0,0 0.8375,0.32604 1.675,0.68023 2.5121,1.05039 0,0 0,0 0,0 0.857,0.37892 1.7139,0.77452 2.5703,1.20371 0.6142,0.3077 1.229,0.60925 1.841,1.02874 0,0 0,0 0,0 0.9718,0.66603 1.9288,1.75322 2.8934,2.63006 0,0 0,0 0,0 0.5743,0.50017 1.1485,1.00023 1.7229,1.50041 0,0 0,0 0,0 0,-0.27387 -0.027,-0.54383 -0.042,-0.8164 -0.011,-0.2256 -0.011,-0.51082 0.041,-0.59611 0.287,-0.46729 0.6061,-0.62309 0.9177,-0.82255 0.4625,-0.2961 0.9294,-0.51839 1.3983,-0.69478 0,0 10e-5,0 10e-5,0 0.4393,-0.16514 0.8806,-0.29823 1.3249,-0.31468 0.1536,0 0.3079,-5.9e-4 0.4619,0.0639 0,0 2e-4,0 2e-4,0 0.081,0.0343 0.174,0.0308 0.236,0.25351 0.5915,2.12385 1.1743,4.37133 1.5739,7.06775 0.2323,1.56796 0.3812,3.37476 0.3133,5.08196 0,0 0,0 0,0 -0.063,1.57079 -0.2831,2.93444 -0.5275,4.16169 -0.2978,1.49568 -0.6365,2.85743 -0.9488,4.30721 0,0 0,0 0,0 -0.5054,0.40707 -1.0108,0.81402 -1.5161,1.2211 0,0 0,0 -10e-5,0 -0.027,0.0378 -0.058,-0.0521 -0.081,-0.13144 -0.045,-0.15308 -0.081,-0.34106 -0.1155,-0.52939 -0.118,-0.64225 -0.2146,-1.33632 -0.309,-2.03063 -0.2835,-2.08552 -0.5291,-4.23682 -0.7627,-6.4016 -0.2338,-2.16466 -0.4559,-4.34825 -0.6377,-6.57313 -0.061,-0.74068 -0.1194,-1.48633 -0.1525,-2.24511 -0.01,-0.2224 -0.017,-0.44788 -0.015,-0.66852 0,-0.11475 0.01,-0.25458 0.037,-0.29232 0.037,0.48208 0.072,0.96451 0.1087,1.4467 0,1.2e-4 0,1.2e-4 0,1.2e-4 -0.024,1.20619 -0.064,2.40978 -0.052,3.63017 0,1.2e-4 0,1.2e-4 0,1.2e-4 0.01,0.91162 0.07,1.83165 0.1851,2.65951 0.1667,1.20182 0.4031,2.24771 0.6373,3.27811 0,0 0,0 0,0 0.4243,1.86678 0.8682,3.66543 1.306,5.48536 0.069,0.28451 0.1824,0.26369 0.277,0.21578 0,0 0,0 1e-4,0 0,0 0,0 0,0 0.1283,-0.0651 0.251,-0.22217 0.3694,-0.40565 0,0 1e-4,0 1e-4,0 0.094,-0.1461 0.1875,-0.30451 0.2719,-0.51638 0,-1.2e-4 0,-1.2e-4 0,-1.2e-4 0.011,-0.026 0.021,-0.0544 0.032,-0.0864 0,-1.2e-4 0,-1.2e-4 10e-5,-1.2e-4 0.01,-0.0142 0.01,-0.0296 0.01,-0.0532 -4e-4,-0.0201 -0.01,-0.0154 -0.014,-0.013 -0.014,5.9e-4 -0.027,0.0213 -0.041,0.0367 -2.5277,2.88878 -5.2662,4.55196 -7.9163,1.81272 0,0 -10e-5,0 -10e-5,0 -0.8581,-0.12327 -1.715,-0.0438 -2.5736,-0.36969 -1.2936,-0.49131 -2.5846,-1.23471 -3.8717,-2.13142 -1.3576,-0.94594 -2.727,-1.13344 -4.0906,-1.31669 -1.5594,-0.20963 -3.1048,0.34213 -4.6628,0.23483 0,0 0,0 0,0 -1.7606,-0.12185 -3.5249,-0.67408 -5.2874,-1.4331 0,0 -1e-4,0 -1e-4,0 -0.7137,0.54691 -1.4246,1.13522 -2.1383,1.68342 0,0 0,0 0,0 -0.3075,0.23625 -0.6173,0.4583 -0.9342,0.50195 -0.3993,0.0556 -0.8016,-0.039 -1.2028,-0.0733 -0.9824,-0.0864 -1.9636,-0.0828 -2.9437,-0.0438 -2.6594,0.10647 -5.3165,0.31575 -7.9744,0.48622 0,0 0,0 0,0 -2.3155,0.14811 -4.6251,0.56453 -6.9457,0.47178 -2.072,-0.0828 -4.1537,-0.94759 -6.2252,-0.9981 -1.8547,-0.045 -3.6957,0.47403 -5.5439,0.7111 0,0 -10e-5,0 -10e-5,0 -1.3081,0.0154 -2.6209,-0.1726 -3.9238,0.0438 0,0 -10e-5,0 -10e-5,0 -1.6301,0.27115 -3.2602,0.54561 -4.8884,0.88075 -0.6322,0.12978 -1.267,0.20797 -1.8931,0.48515 -0.044,0.0177 -0.085,0.0355 -0.1273,0.0733 -0.01,0.0118 -0.017,0.013 -0.023,0.0308 0,0 0,0 0,0 0,0 0,0.0118 0,0.0142 5e-4,0.0118 0,0.0118 0,0.013 0,0 0,1.1e-4 0,1.1e-4 0.01,0.0154 0.016,0.0201 0.024,0.0237 0.015,0.0118 0.03,0.0154 0.044,0.0225 0.047,0.0166 0.094,0.0272 0.1416,0.0343 0.3253,0.0556 0.6499,0.0556 0.9747,0.0651 0.2821,0.0118 0.564,0 0.8467,0.0402 0.023,-9.5e-4 0.047,0 0.07,0.0213 0,0 0,-1.2e-4 0,0.0118 0,0.0118 0,0.0118 0,0.0118 -0.01,0.0118 -0.015,0.0118 -0.022,0.0154 0,0 0,0 0,0 -0.1228,0.0591 -0.2479,0.0674 -0.3722,0.0899 0,0 0,0 0,0 -2.7671,0.50845 -5.5424,0.74115 -8.3148,1.07121 -3.144,0.3743 -6.2864,0.80515 -9.4325,1.09321 -0.2108,0.0201 -0.4216,0.0402 -0.6328,0.0438 -0.049,9.4e-4 -0.097,0 -0.1468,-0.0118 -10e-5,0 -10e-5,0 -10e-5,0 -0.012,4.7e-4 -0.025,0.001 -0.038,-0.0118 0,0 0,0 0,0 -0.01,2.3e-4 -0.011,4.7e-4 -0.017,-0.0118 -2e-4,-0.0118 -3e-4,-0.013 0,-0.0154 0,0 0,0 0,0 0.01,-0.0118 0.012,-0.013 0.018,-0.0189 0.025,-0.0201 0.052,-0.0331 0.078,-0.0473 0,0 0,0 0,0 0.089,-0.0461 0.1783,-0.084 0.2675,-0.12564 0.1027,-0.0485 0.2054,-0.097 0.3074,-0.15781 0.073,-0.0438 0.1483,-0.0793 0.2171,-0.17852 0,0 0,0 0,0 0.01,-0.0118 0.017,-0.0272 0.024,-0.0461 0,0 0,0 0,0 0.01,-0.0118 0.01,-0.026 0.01,-0.0461 -4e-4,-0.0189 0,-0.0355 -0.01,-0.0473 -0.01,-0.0225 -0.018,-0.0343 -0.028,-0.0473 -0.1151,-0.13806 -0.2352,-0.14728 -0.3533,-0.18419 -0.7599,-0.23743 -1.5189,-0.25861 -2.2776,-0.31149 -1.7477,-0.12185 -3.4937,-0.14492 -5.2396,-0.15663 -2.4922,-0.0166 -4.9683,0.61859 -7.4527,0.92795 -1.8863,-0.33526 -3.7772,-1.05891 -5.6576,-1.00544 -2.7691,0.0793 -5.5153,0.99266 -8.2759,1.40198 0,0 0,0 0,0 -3.2205,0.47758 -6.4463,0.77475 -9.6667,1.25884 0,0 0,0 0,0 -3.9414,0.59245 -7.8625,1.90973 -11.8175,1.97041 -3.3897,0.0521 -6.8006,-1.46266 -10.1946,-1.63266 -3.3684,-0.16882 -6.7215,0.41133 -10.0823,0.61694 -3.1044,-0.58926 -6.2106,-1.39489 -9.3129,-1.76777 -3.0279,-0.36389 -6.0496,-0.30876 -9.0742,-0.44185 -3.0883,-0.13593 -6.1785,-0.38519 -9.2637,-0.36543 0,0 0,0 0,0 -3.3301,0.0213 -6.6522,0.40234 -9.9809,0.48905 -3.3528,0.0875 -6.7089,0.0166 -10.064,-0.0118 0,0 0,0 0,0 -3.1748,-0.0225 -6.3497,-0.0544 -9.5246,-0.0804 -3.4128,1.08966 -6.807,2.67028 -10.2376,3.26864 -7.2688,1.26795 -14.589,0.60452 -21.9027,-0.16243 -3.4524,-0.362 -6.9073,-0.93386 -10.3609,-1.40434 -3.0238,-0.41181 -6.0559,-1.39027 -9.0702,-1.24239 0,0 0,0 0,0 -3.6807,0.18088 -7.3284,1.48443 -10.9932,2.22677 -4.1356,-0.16882 -8.274,-0.49592 -12.4068,-0.50633 -3.1202,-0.0118 -6.2242,0.76955 -9.3495,0.45179 0,0 0,0 0,0 -2.3845,-0.24228 -4.7741,-1.4454 -7.1616,-2.12953 -1.3729,-0.39323 -2.7457,-0.76942 -4.1184,-1.10197 -1.4617,-0.35407 -2.9294,-1.15461 -4.382,-0.95669 0,0 0,0 0,0 -0.9646,0.13131 -1.8777,1.29077 -2.8182,1.9374 -0.027,0.0592 -0.063,-0.0154 -0.09,-0.084 -0.053,-0.13226 -0.099,-0.3077 -0.1437,-0.48456 -0.1516,-0.60309 -0.2832,-1.27611 -0.4125,-1.95077 0,0 0,-1.2e-4 0,-1.2e-4 -0.3885,-2.02673 -0.7409,-4.14916 -1.0814,-6.29406 -0.3403,-2.14515 -0.6697,-4.31786 -0.9592,-6.56225 -0.096,-0.74731 -0.1911,-1.50088 -0.2598,-2.28593 -0.02,-0.23021 -0.04,-0.46433 -0.045,-0.70235 0,-0.12433 0,-0.27646 0.023,-0.33561 z"
       id="path5320-3-5-0-01"
       inkscape:connector-curvature="0" />
    <path
       style="opacity:0.95999995;fill:#918f90;fill-opacity:1;stroke:#4f4c4d;stroke-width:0.30720812;stroke-miterlimit:4;stroke-opacity:1;stroke-dasharray:none;stroke-dashoffset:0"
       id="path5476-9-6-3-8-7"
       d="m 423.8863,443.99015 c 0.3899,-11.03874 -2.6354,-21.87022 -2.6712,-32.86472 -0.2934,-90.21292 3.3187,28.56047 2.0638,-49.71557 -1.6568,-34.78805 -1.1915,-17.92348 -1.5176,-50.59064 0.1,-54.64728 -0.082,-5.50724 0.3609,-57.42652 0.086,-10.12286 -0.044,-20.24891 0.1882,-30.36905 0.1448,-6.30423 0.6388,-12.59439 0.9433,-18.89224 0.5806,-12.00916 -0.4276,-7.62435 0.9467,-12.95462 -0.55,-2.14313 -0.483,-1.25209 2.0664,1.57978 -1.1591,-0.38767 4.0688,-17.57674 5.2279,-17.18907 l 0,0 c 8.2586,5.4468 4.9646,1.81734 9.7511,11.01734 0.2435,7.61086 0.4082,15.22421 0.6622,22.83472 0.4441,13.30633 1.1382,24.86453 1.0215,38.18423 -0.08,9.19408 -0.6288,18.37929 -0.707,27.57349 -0.085,9.97285 0.1452,19.94594 0.2178,29.91892 0.3735,14.96241 1.3921,45.93184 0.9932,62.2895 -0.1817,7.45352 -0.9455,14.87948 -1.312,22.32567 -0.2577,5.23788 -0.3547,10.48333 -0.5604,15.7238 -0.9441,24.05476 -0.8812,10.9919 -0.5256,32.29369 0.4222,1.27149 -16.727,7.5329 -17.1492,6.26129 z"
       inkscape:connector-curvature="0" />
    <path
       style="opacity:0.95999995;fill:#918f90;fill-opacity:1;stroke:#4f4c4d;stroke-width:0.12618531;stroke-miterlimit:4;stroke-opacity:1;stroke-dasharray:none;stroke-dashoffset:0"
       id="path5476-9-6-3-9-8-8"
       d="m 739.5115,256.11776 c 0.3899,-1.86241 -2.6354,-3.6898 -2.6712,-5.54475 -0.2934,-15.22019 3.3187,4.81862 2.0638,-8.38774 -1.6568,-5.86925 -1.1915,-3.02388 -1.5176,-8.53539 0.1,-9.21975 -0.082,-0.92913 0.3609,-9.6887 0.086,-1.70778 -0.044,-3.41616 0.1882,-5.12359 0.1448,-1.06364 0.6388,-2.12492 0.9433,-3.18749 0.5806,-2.02602 -0.4276,-1.28628 0.9467,-2.18561 -0.55,-0.36152 -0.483,-0.21116 2.0664,0.26654 -1.1591,-0.0651 4.0688,-2.96544 5.2279,-2.90002 l 0,0 c 8.2586,0.91895 4.9646,0.30663 9.7511,1.85873 0.2435,1.28416 0.4082,2.56866 0.6622,3.85258 0.4441,2.24499 1.1382,4.19506 1.0215,6.44229 -0.08,1.55116 -0.6288,3.10078 -0.707,4.65205 -0.085,1.68259 0.1452,3.36518 0.2178,5.04777 0.3735,2.5243 1.3921,7.74928 0.9932,10.50911 -0.1817,1.25754 -0.9455,2.51034 -1.312,3.76657 -0.2577,0.88371 -0.3547,1.76871 -0.5604,2.65289 -0.9441,4.0583 -0.8812,1.85448 -0.5256,5.44845 0.4222,0.21448 -16.727,1.27091 -17.1492,1.05631 z"
       inkscape:connector-curvature="0" />
    <path
       style="opacity:0.95999995;fill:#918f90;fill-opacity:1;stroke:#918f90;stroke-width:0.26778319;stroke-miterlimit:4;stroke-opacity:1;stroke-dasharray:none;stroke-dashoffset:0"
       id="path5476-9-6-3-9-4-5-9"
       d="m 582.7462,224.03252 c 7.0898,-0.46125 14.0465,3.11769 21.108,3.16004 57.9406,0.3471 -18.3435,-3.92604 31.9305,-2.44148 22.3433,1.96 11.5116,1.40955 32.4927,1.79533 35.098,-0.1183 3.537,0.097 36.8831,-0.42695 6.5015,-0.10174 13.005,0.0521 19.505,-0.22264 4.0489,-0.1713 8.0888,-0.75571 12.1338,-1.11593 7.713,-0.68685 4.8969,0.50585 8.3202,-1.11995 1.3765,0.65065 0.8042,0.57139 -1.0146,-2.44457 0.2489,1.37123 11.2889,-4.81341 11.04,-6.18463 l 0,0 c -3.4984,-9.76997 -1.1673,-5.87315 -7.076,-11.5356 -4.8882,-0.28807 -9.7781,-0.48291 -14.666,-0.78339 -8.5462,-0.52537 -15.9697,-1.3465 -24.5245,-1.20844 -5.905,0.0946 -11.8044,0.74387 -17.7094,0.83638 -6.4054,0.10056 -12.8107,-0.17177 -19.2159,-0.25765 -9.6099,-0.44186 -29.5005,-1.64687 -40.0064,-1.17497 -4.7871,0.21496 -9.5566,1.11854 -14.339,1.55211 -3.3642,0.30486 -6.7331,0.41961 -10.0989,0.66295 -15.4496,1.11688 -7.0597,1.04247 -20.7412,0.62179 -0.8167,-0.49946 -4.8381,19.78813 -4.021,20.28772 z"
       inkscape:connector-curvature="0" />
    <path
       style="opacity:0.95999995;fill:#918f90;fill-opacity:1;stroke:#918f90;stroke-width:0.23602234;stroke-miterlimit:4;stroke-opacity:1;stroke-dasharray:none;stroke-dashoffset:0"
       id="path5476-9-6-3-9-4-8-0-1"
       d="m 429.784,185.89502 c 5.5204,-0.46125 10.9372,3.1177 16.4356,3.16005 45.1151,0.34709 -14.2831,-3.92604 24.8625,-2.44149 17.3975,1.96001 8.9634,1.40955 25.3003,1.79533 27.3288,-0.1183 2.754,0.097 28.7188,-0.42695 5.0623,-0.10173 10.1262,0.0521 15.1874,-0.22264 3.1527,-0.1713 6.2983,-0.7557 9.4479,-1.11593 6.0057,-0.68685 3.813,0.50586 6.4785,-1.11995 1.0718,0.65066 0.6262,0.57139 -0.79,-2.44456 0.1938,1.37122 8.7901,-4.81341 8.5962,-6.18463 l 0,0 c -2.724,-9.76997 -0.9089,-5.87315 -5.5096,-11.53561 -3.8062,-0.28806 -7.6137,-0.4829 -11.4196,-0.78339 -6.6545,-0.52537 -12.4348,-1.34649 -19.0959,-1.20844 -4.5979,0.0946 -9.1914,0.74388 -13.7893,0.83639 -4.9876,0.10055 -9.975,-0.17177 -14.9624,-0.25766 -7.4827,-0.44185 -22.9704,-1.64686 -31.1507,-1.17496 -3.7275,0.21495 -7.4412,1.11853 -11.165,1.5521 -2.6195,0.30486 -5.2427,0.41961 -7.8635,0.66296 -12.0297,1.11687 -5.497,1.04246 -16.15,0.62179 -0.6359,-0.49947 -3.7671,19.78813 -3.1309,20.28771 z"
       inkscape:connector-curvature="0" />
    <path
       style="opacity:0.95999995;fill:#918f90;fill-opacity:1;stroke:#918f90;stroke-width:0.15610139;stroke-miterlimit:4;stroke-opacity:1;stroke-dasharray:none;stroke-dashoffset:0"
       id="path5476-9-6-3-9-4-8-1-9-5"
       d="m 538.7457,175.61743 c 1.9097,1.79781 1.2627,6.2749 2.8511,8.40312 13.033,17.46282 -1.74,-8.09661 8.8285,7.85185 3.884,7.96304 1.7512,4.37168 6.3081,10.87028 8.1001,10.35698 0.748,1.11699 8.7013,10.68017 1.5504,1.86477 2.9414,3.90215 4.5996,5.65004 1.033,1.08872 2.3224,1.89683 3.4726,2.85719 2.1933,1.83129 0.8035,1.79651 2.6029,1.72045 -0.092,0.84715 -0.1732,0.62368 1.2965,-1.94688 -0.8002,0.99716 5.5912,0.11712 6.3917,-0.87909 l 0,0 c 5.3087,-7.615 3.4052,-4.29951 5.5945,-9.86697 -0.9377,-1.64746 -1.9341,-3.23256 -2.864,-4.8883 -1.6259,-2.89481 -2.81,-5.65488 -4.8528,-8.10583 -1.4094,-1.69218 -3.1645,-3.00945 -4.5727,-4.70316 -1.5278,-1.83709 -2.8221,-3.92498 -4.2332,-5.88735 -1.9214,-3.15495 -5.7165,-9.88058 -8.4141,-12.68702 -1.2291,-1.27883 -2.8848,-2.08895 -4.2495,-3.21931 -0.96,-0.79522 -1.8021,-1.71974 -2.7241,-2.55695 -4.2313,-3.8424 -2.2661,-1.39772 -5.1318,-5.74905 0.1259,-0.57885 -13.479,11.87784 -13.6047,12.45704 z"
       inkscape:connector-curvature="0" />
    <path
       style="opacity:0.95999995;fill:#4f4c4d;fill-opacity:1;stroke:#918f90;stroke-width:0.59678048;stroke-miterlimit:4;stroke-opacity:1;stroke-dasharray:none;stroke-dashoffset:0"
       id="path5740-1-2-9-2-6-4"
       d="m 470.3808,242.91258 c 44.3876,-1.33822 8.3288,-0.5152 56.7751,-0.7977 10.2509,-0.0603 20.4992,-0.19094 30.7416,-0.3523 11.0453,-0.17402 22.0604,-0.61919 33.1174,-0.65349 12.0052,-0.0379 23.9937,0.35253 35.9975,0.43877 12.6965,0.0911 25.3979,0.0627 38.0969,0.0923 30.5086,-2.30272 60.0616,0.36424 90.2994,1.25315 2.1949,0.0639 -4.5166,-0.72056 -6.5144,-0.39335 -3.0137,0.49426 -4.5357,1.7169 -6.8037,2.57529 2.5917,-1.10422 46.7827,11.87737 44.19,12.98147 l 0,0 c -4.1342,1.59682 -6.7658,3.94545 -12.4033,4.79058 -10.0678,1.50976 -21.5333,1.37442 -32.3621,1.92014 -7.4057,0.37324 -14.8391,0.76221 -22.3167,0.83615 -10.6173,0.10529 -21.2371,-0.20005 -31.8557,-0.30001 -12.5226,0.1597 -25.0456,0.31953 -37.5679,0.47923 -11.5304,-0.0923 -61.9282,-0.52277 -74.0978,-0.52691 -10.9442,-0.0118 -21.8886,0.0864 -32.8275,0.19757 -10.2738,0.10528 -20.5307,0.5385 -30.8062,0.45391 -18.4628,-0.15154 -36.7244,-1.57529 -55.2049,-1.67418 -4.2636,-0.34024 9.2787,-21.66143 13.5427,-21.32131 z"
       inkscape:connector-curvature="0" />
    <path
       style="opacity:0.95999995;fill:#4f4c4d;fill-opacity:1;stroke:#4f4c4d;stroke-width:0.44857419;stroke-miterlimit:4;stroke-opacity:1;stroke-dasharray:none;stroke-dashoffset:0"
       id="path5740-1-2-9-2-9-3-9"
       d="m 455.6247,264.49497 c -6.3885,28.7248 -1.4171,5.335 -7.4156,36.93107 -1.2698,6.68552 -2.5974,13.35459 -3.9497,20.01326 -1.4581,7.18096 -3.137,14.28586 -4.4812,21.50314 -1.4598,7.83646 -2.5638,15.75077 -3.9209,23.61208 -1.4361,8.31463 -2.971,16.60785 -4.4573,24.91173 -5.5342,19.45559 -6.846,39.3199 -9.7093,59.26206 -0.208,1.44753 -0.058,-3.10077 0.4501,-4.33831 0.7695,-1.86525 1.9593,-2.60664 2.939,-3.91007 -1.2217,1.46385 4.2531,33.03661 5.4749,31.57205 l 0,0 c 1.8121,-2.36921 4.067,-3.6006 5.4369,-7.10833 2.4464,-6.26448 3.6987,-13.78414 5.4386,-20.74637 1.1899,-4.76124 2.3962,-9.53727 3.3472,-14.40794 1.3498,-6.91549 2.3617,-13.91782 3.5426,-20.87673 1.6223,-8.14914 3.2447,-16.29827 4.867,-24.44728 1.2958,-7.55314 6.9371,-40.57248 8.3819,-48.525 1.2955,-7.15268 2.6758,-14.28408 4.0698,-21.40861 1.3092,-6.69096 2.8884,-13.30266 4.0413,-20.03408 2.0718,-12.09529 3.0676,-24.3233 5.1851,-36.41906 0.2263,-2.85649 -19.0146,1.56003 -19.2408,4.41663 z"
       inkscape:connector-curvature="0" />
    <path
       style="opacity:0.95999995;fill:#4f4c4d;fill-opacity:1;stroke:#4f4c4d;stroke-width:0.44857419;stroke-miterlimit:4;stroke-opacity:1;stroke-dasharray:none;stroke-dashoffset:0"
       id="path5740-1-2-9-2-9-9-8-2"
       d="m 767.9054,262.2598 c -6.3885,28.7248 -1.4171,5.335 -7.4156,36.93107 -1.2698,6.6854 -2.5974,13.35459 -3.9497,20.01326 -1.4581,7.18096 -3.137,14.28574 -4.4812,21.50313 -1.4598,7.83635 -2.5638,15.75066 -3.9209,23.61197 -1.4361,8.31463 -2.971,16.60797 -4.4573,24.91173 -5.5342,19.45559 -6.846,39.31991 -9.7093,59.26218 -0.208,1.44741 -0.058,-3.10089 0.4501,-4.33831 0.7695,-1.86537 1.9593,-2.60676 2.939,-3.91019 -1.2217,1.46385 4.2531,33.03673 5.4749,31.57217 l 0,0 c 1.8121,-2.36921 4.067,-3.6006 5.4369,-7.10833 2.4464,-6.2646 3.6987,-13.78426 5.4386,-20.74637 1.1899,-4.76136 2.3962,-9.53727 3.3472,-14.40794 1.3498,-6.91549 2.3617,-13.91782 3.5426,-20.87685 1.6223,-8.14913 3.2447,-16.29827 4.867,-24.44716 1.2958,-7.55326 6.9371,-40.5726 8.3819,-48.52512 1.2955,-7.15257 2.6758,-14.28396 4.0698,-21.40849 1.3092,-6.69096 2.8884,-13.30266 4.0413,-20.03408 2.0718,-12.0954 3.0676,-24.3233 5.1851,-36.41906 0.2263,-2.85649 -19.0146,1.56003 -19.2408,4.41663 z"
       inkscape:connector-curvature="0" />
    <path
       sodipodi:type="star"
       style="opacity:0.95999995;fill:#b5d92a;fill-opacity:1;stroke:#a0b643;stroke-width:27.73947144;stroke-miterlimit:4;stroke-opacity:1;stroke-dasharray:none;stroke-dashoffset:0"
       id="path2987-3-7-56-7-0-8-7-0-6-081-4-5-7"
       sodipodi:sides="6"
       sodipodi:cx="212.13203"
       sodipodi:cy="244.24014"
       sodipodi:r1="208.32912"
       sodipodi:r2="180.4183"
       sodipodi:arg1="1.0471976"
       sodipodi:arg2="1.5707963"
       inkscape:flatsided="true"
       inkscape:rounded="0"
       inkscape:randomized="0"
       d="M 316.29658,424.65846 107.96747,424.65845 3.8029175,244.24013 107.96748,63.82183 l 208.32912,1e-5 104.16455,180.41831 z"
       transform="matrix(0.17163398,0,0,0.17163398,655.94976,357.72119)" />
  </g>
</svg>
